<?xml version="1.0" encoding="UTF-8" standalone="no"?>
<!DOCTYPE svg PUBLIC "-//W3C//DTD SVG 1.1//EN" "http://www.w3.org/Graphics/SVG/1.1/DTD/svg11.dtd">
<svg width="100%" height="100%" viewBox="0 0 90 40" version="1.1" xmlns="http://www.w3.org/2000/svg" xmlns:xlink="http://www.w3.org/1999/xlink" xml:space="preserve" style="fill-rule:evenodd;clip-rule:evenodd;stroke-linejoin:round;stroke-miterlimit:1.41421;">
    <g transform="matrix(0.822785,0,0,0.822785,-314.245,-135.029)">
        <path d="M466.081,186.734C466.081,187.234 465.676,187.639 465.177,187.639C464.677,187.639 464.271,187.234 464.271,186.734C464.271,186.234 464.677,185.829 465.177,185.829C465.676,185.829 466.081,186.234 466.081,186.734" style="fill:rgb(138,138,138);fill-rule:nonzero;"/>
    </g>
    <g transform="matrix(0.822785,0,0,0.822785,-314.245,-135.029)">
        <path d="M418.898,172.962C418.898,173.462 418.493,173.867 417.993,173.867C417.493,173.867 417.087,173.462 417.087,172.962C417.087,172.462 417.493,172.057 417.993,172.057C418.493,172.057 418.898,172.462 418.898,172.962" style="fill:rgb(138,138,138);fill-rule:nonzero;"/>
    </g>
    <g transform="matrix(0.541256,0,0,0.541256,-9.48288e-05,1.92161)">
        <path d="M47.335,4.151L54.32,0.151C54.437,0.093 54.465,0.073 54.591,0.039C54.718,0.005 54.752,0.009 54.882,0C54.93,0.003 54.979,0.006 55.028,0.009C55.076,0.018 55.125,0.024 55.172,0.036C55.299,0.069 55.327,0.089 55.444,0.145L62.593,4.151L146.963,4.151L147.151,4.167C147.313,4.208 147.359,4.209 147.507,4.289C147.674,4.379 147.816,4.511 147.919,4.67C147.954,4.723 147.979,4.781 148.009,4.837L155.447,21.952C155.5,22.109 155.524,22.148 155.538,22.315C155.573,22.761 155.336,23.197 154.943,23.409C154.832,23.469 154.713,23.51 154.589,23.531C154.527,23.541 154.464,23.541 154.401,23.546L145.538,23.546C145.602,26.284 145.54,29.024 145.531,31.763L165.697,43.063L165.905,43.212C165.961,43.276 166.025,43.334 166.074,43.403C166.172,43.543 166.237,43.704 166.265,43.873C166.279,43.957 166.283,44.043 166.278,44.128C166.251,44.561 165.972,44.95 165.57,45.113C165.491,45.145 165.408,45.169 165.325,45.183C165.155,45.21 164.982,45.2 164.818,45.151C164.736,45.127 164.661,45.085 164.583,45.052L143.841,33.43C143.835,33.427 143.829,33.423 143.823,33.42L126.507,23.717L97.772,40.253L97.761,42.185L97.761,43.689L156.475,43.689C156.529,43.692 156.583,43.696 156.637,43.7C156.778,43.731 156.817,43.731 156.949,43.792C157.247,43.928 157.476,44.193 157.569,44.507C157.61,44.647 157.605,44.685 157.615,44.829L157.615,69.158C157.605,69.302 157.61,69.34 157.569,69.48C157.461,69.849 157.165,70.144 156.796,70.252C156.657,70.293 156.619,70.288 156.475,70.299L98.34,70.299L98.338,70.299L16.61,70.299C12.729,70.418 8.845,70.299 4.963,70.299L4.954,70.299L3.034,70.299C2.9,70.293 2.772,70.276 2.645,70.23C2.33,70.116 2.078,69.863 1.963,69.549C1.917,69.421 1.9,69.293 1.894,69.159L1.894,45.968L1.14,45.968C0.905,45.94 0.836,45.953 0.621,45.843C0.214,45.635 -0.034,45.19 0.004,44.734C0.024,44.493 0.071,44.442 0.171,44.227L2.745,40.077C2.792,40.016 2.833,39.95 2.886,39.894C3.046,39.726 3.256,39.608 3.484,39.562C3.559,39.546 3.637,39.546 3.714,39.538L11.979,39.538L11.979,23.581L2.428,23.581C2.208,23.557 2.145,23.568 1.942,23.473C1.558,23.292 1.301,22.901 1.288,22.476C1.281,22.252 1.317,22.198 1.382,21.988L8.818,4.837C8.862,4.761 8.898,4.679 8.951,4.609C9.11,4.396 9.343,4.243 9.602,4.182C9.687,4.161 9.777,4.161 9.864,4.151L47.335,4.151ZM88.755,68.019L94.087,68.019L94.087,45.968L73.286,45.968L73.286,68.019L75.299,68.019L75.299,50.689C75.304,50.568 75.317,50.453 75.355,50.337C75.457,50.022 75.697,49.763 76.003,49.636C76.144,49.578 76.288,49.555 76.439,49.549C80.194,49.549 83.952,49.405 87.705,49.553C87.825,49.567 87.939,49.589 88.051,49.636C88.357,49.763 88.597,50.022 88.699,50.337C88.737,50.453 88.75,50.568 88.755,50.689L88.755,68.019ZM16.591,68.019L67.896,68.019L67.896,45.968L14.259,45.968L14.259,67.961C15.036,67.975 15.814,67.994 16.591,68.019ZM86.475,68.019L86.475,51.829L77.579,51.829L77.579,68.019L86.475,68.019ZM97.197,68.018L97.197,45.969L96.367,45.969L96.367,68.019L96.619,68.019L96.621,68.018L97.197,68.018ZM5.006,68.018L5.006,45.968L4.175,45.968L4.175,68.019L4.973,68.019L4.983,68.018L5.006,68.018ZM71.006,45.968L70.176,45.968L70.176,68.019L71.006,68.019L71.006,45.968ZM99.477,45.969L99.477,68.018L155.335,68.018L155.335,45.969L99.477,45.969ZM11.979,67.932L11.979,45.968L7.286,45.968L7.286,67.961C8.85,67.932 10.415,67.922 11.979,67.932ZM32.233,49.551C32.348,49.561 32.459,49.582 32.568,49.623C32.871,49.738 33.115,49.982 33.23,50.285C33.271,50.393 33.291,50.505 33.302,50.62C33.413,54.299 33.304,57.982 33.304,61.663C33.3,61.779 33.287,61.891 33.252,62.002C33.156,62.311 32.927,62.569 32.632,62.702C32.504,62.76 32.371,62.788 32.233,62.801C28.575,62.911 24.913,62.803 21.254,62.803C21.138,62.799 21.026,62.786 20.914,62.751C20.605,62.655 20.347,62.426 20.214,62.131C20.157,62.003 20.128,61.87 20.116,61.732C20.004,58.052 20.114,54.37 20.114,50.689C20.118,50.55 20.138,50.415 20.188,50.285C20.302,49.982 20.547,49.738 20.849,49.623C20.958,49.582 21.069,49.561 21.185,49.551C24.866,49.44 28.552,49.44 32.233,49.551ZM124.621,62.803L105.416,62.803C105.295,62.798 105.179,62.785 105.064,62.747C104.749,62.645 104.489,62.405 104.363,62.099C104.304,61.958 104.282,61.814 104.276,61.663L104.276,50.689C104.282,50.538 104.304,50.393 104.363,50.253C104.489,49.947 104.749,49.707 105.064,49.605C105.179,49.567 105.295,49.553 105.416,49.549C111.848,49.549 118.284,49.3 124.711,49.552C124.831,49.566 124.945,49.589 125.058,49.636C125.364,49.762 125.603,50.022 125.706,50.337C125.743,50.452 125.757,50.568 125.762,50.689L125.762,61.663C125.756,61.814 125.733,61.958 125.675,62.099C125.548,62.405 125.289,62.645 124.974,62.747C124.858,62.785 124.742,62.798 124.621,62.803ZM150.905,62.803L131.701,62.803C131.549,62.797 131.405,62.774 131.264,62.716C130.959,62.589 130.719,62.33 130.616,62.015C130.579,61.899 130.565,61.784 130.561,61.663L130.561,50.689C130.565,50.568 130.579,50.452 130.616,50.337C130.719,50.022 130.959,49.762 131.264,49.636C131.405,49.577 131.549,49.555 131.701,49.549C138.132,49.549 144.568,49.3 150.994,49.552C151.114,49.566 151.229,49.589 151.341,49.636C151.647,49.762 151.887,50.022 151.989,50.337C152.026,50.452 152.04,50.568 152.045,50.689L152.045,61.663C152.04,61.784 152.026,61.899 151.989,62.015C151.887,62.33 151.647,62.589 151.341,62.716C151.2,62.774 151.056,62.797 150.905,62.803ZM59.778,62.803L40.575,62.803C40.454,62.798 40.338,62.785 40.222,62.747C39.908,62.645 39.648,62.405 39.521,62.099C39.463,61.958 39.44,61.814 39.434,61.663L39.434,50.689C39.439,50.568 39.453,50.452 39.49,50.337C39.593,50.022 39.833,49.762 40.138,49.636C40.279,49.577 40.423,49.555 40.575,49.549C47.006,49.549 53.442,49.3 59.868,49.552C59.988,49.566 60.102,49.589 60.215,49.636C60.521,49.762 60.761,50.022 60.863,50.337C60.9,50.452 60.914,50.568 60.919,50.689L60.919,61.663C60.914,61.784 60.9,61.899 60.863,62.015C60.761,62.33 60.521,62.589 60.215,62.716C60.074,62.774 59.93,62.797 59.778,62.803ZM106.556,51.829L106.556,60.523L123.481,60.523C123.481,48.843 118.236,51.829 106.556,51.829ZM22.394,51.829L22.394,60.523L31.024,60.523L31.024,51.829C28.147,51.829 25.27,51.829 22.394,51.829ZM132.841,51.829L132.841,60.523L149.765,60.523L149.765,51.829C144.123,51.829 138.482,51.829 132.841,51.829ZM41.715,51.829L41.715,60.523L58.638,60.523L58.638,51.829C52.997,51.829 47.356,51.829 41.715,51.829ZM48.211,6.277C48.207,6.279 48.203,6.281 48.199,6.283L21.973,21.301L69.445,21.301C69.449,20.8 69.451,20.298 69.451,19.797C69.455,19.667 69.473,19.541 69.516,19.419C69.627,19.104 69.876,18.849 70.187,18.731C70.309,18.685 70.434,18.664 70.564,18.657C70.619,18.657 70.619,18.657 70.674,18.66C70.803,18.672 70.928,18.7 71.047,18.752C71.335,18.877 71.563,19.122 71.667,19.419C71.704,19.524 71.722,19.631 71.73,19.742C71.783,21.902 71.738,24.064 71.732,26.225L71.732,40.678C71.707,40.902 71.719,40.966 71.619,41.173C71.47,41.483 71.181,41.713 70.846,41.79C70.763,41.809 70.677,41.809 70.592,41.818L4.348,41.818L3.189,43.688L95.472,43.688L95.481,42.179L95.481,26.654C95.427,24.369 95.481,22.083 95.481,19.797C95.484,19.667 95.502,19.541 95.546,19.419C95.656,19.104 95.905,18.849 96.217,18.731C96.338,18.685 96.464,18.664 96.593,18.657C96.649,18.657 96.649,18.657 96.704,18.66C96.814,18.671 96.921,18.692 97.025,18.731C97.319,18.843 97.558,19.076 97.677,19.367C97.726,19.488 97.75,19.613 97.76,19.742C97.772,20.25 97.779,20.758 97.782,21.266L152.663,21.266L146.216,6.431L66.662,6.431L76.52,11.954L83.164,8.15C83.199,8.132 83.233,8.113 83.269,8.097C83.34,8.065 83.415,8.041 83.492,8.024C83.594,8.002 83.621,8.005 83.725,7.999C83.764,8.001 83.803,8.003 83.842,8.005C83.945,8.02 83.972,8.02 84.072,8.052C84.172,8.083 84.194,8.098 84.288,8.145L100.707,17.344C100.796,17.401 100.821,17.412 100.901,17.482C101.081,17.64 101.209,17.854 101.261,18.088C101.36,18.522 101.188,18.986 100.831,19.253C100.736,19.324 100.629,19.38 100.516,19.419C100.403,19.457 100.283,19.478 100.164,19.479C100.005,19.481 99.845,19.449 99.699,19.387C99.663,19.371 99.628,19.351 99.592,19.334L83.737,10.45L68.232,19.328L68.126,19.382C68.088,19.396 68.052,19.412 68.014,19.425C67.862,19.473 67.701,19.49 67.542,19.473C67.424,19.46 67.307,19.428 67.198,19.379C66.792,19.196 66.524,18.781 66.525,18.335C66.526,18.216 66.545,18.096 66.583,17.983C66.645,17.794 66.757,17.622 66.906,17.489C66.985,17.418 67.01,17.407 67.099,17.35L74.213,13.276L54.893,2.45L48.211,6.277ZM87.614,40.731L78.891,40.731C78.74,40.725 78.596,40.703 78.455,40.645C78.149,40.518 77.909,40.258 77.807,39.944C77.769,39.828 77.756,39.712 77.751,39.591L77.751,25.06C77.754,24.981 77.753,24.961 77.765,24.882C77.778,24.8 77.801,24.723 77.83,24.646C77.844,24.545 77.845,24.545 77.862,24.444C77.895,24.275 77.931,24.107 77.978,23.94C78.069,23.613 78.191,23.295 78.341,22.991C78.954,21.747 80.036,20.76 81.335,20.274C81.698,20.138 82.075,20.041 82.459,19.985C82.634,19.96 82.809,19.945 82.985,19.935C83.119,19.93 83.252,19.928 83.387,19.93C83.564,19.936 83.74,19.947 83.916,19.968C84.302,20.015 84.683,20.103 85.051,20.23C85.725,20.465 86.351,20.834 86.884,21.308C87.415,21.78 87.852,22.354 88.165,22.99C88.334,23.333 88.467,23.694 88.562,24.065C88.605,24.233 88.637,24.402 88.666,24.573L88.678,24.653L88.698,24.708L88.722,24.794C88.74,24.884 88.75,24.969 88.754,25.06L88.754,39.591C88.749,39.712 88.736,39.828 88.698,39.944C88.596,40.258 88.356,40.518 88.05,40.645C87.909,40.703 87.765,40.725 87.614,40.731ZM69.43,23.581L14.259,23.581L14.259,39.538L69.452,39.538L69.452,26.687C69.427,25.652 69.425,24.617 69.43,23.581ZM83.173,22.209C82.843,22.221 82.517,22.275 82.204,22.384C81.344,22.684 80.64,23.359 80.295,24.201C80.168,24.512 80.096,24.837 80.064,25.17L80.052,25.258L80.033,25.344L80.031,25.351L80.031,38.451L86.474,38.451L86.474,25.346C86.465,25.317 86.461,25.287 86.454,25.258C86.439,25.147 86.429,25.037 86.413,24.926C86.401,24.851 86.386,24.776 86.37,24.701C86.299,24.41 86.196,24.13 86.051,23.867C85.685,23.202 85.083,22.676 84.371,22.409C84.062,22.294 83.739,22.232 83.41,22.212C83.331,22.209 83.252,22.209 83.173,22.209ZM32.508,24.88C32.623,24.891 32.734,24.911 32.843,24.953C33.146,25.067 33.39,25.311 33.505,25.614C33.546,25.723 33.566,25.834 33.577,25.95C33.688,29.629 33.579,33.311 33.579,36.992C33.575,37.132 33.554,37.266 33.505,37.397C33.39,37.699 33.146,37.944 32.843,38.058C32.734,38.1 32.623,38.12 32.508,38.13C28.85,38.241 25.188,38.132 21.529,38.132C21.39,38.128 21.255,38.108 21.125,38.058C20.822,37.944 20.578,37.699 20.463,37.397C20.422,37.288 20.401,37.177 20.391,37.061C20.28,33.382 20.389,29.699 20.389,26.019C20.392,25.903 20.406,25.79 20.44,25.679C20.537,25.37 20.766,25.112 21.061,24.979C21.188,24.921 21.321,24.893 21.46,24.88C25.141,24.769 28.827,24.769 32.508,24.88ZM60.263,38.132L41.058,38.132C40.907,38.127 40.763,38.104 40.622,38.046C40.316,37.919 40.076,37.659 39.974,37.345C39.936,37.229 39.923,37.113 39.918,36.992L39.918,26.019C39.924,25.867 39.946,25.723 40.005,25.582C40.131,25.276 40.391,25.036 40.706,24.934C40.821,24.897 40.937,24.883 41.058,24.878C47.49,24.878 53.926,24.629 60.353,24.882C60.473,24.896 60.587,24.919 60.7,24.965C61.005,25.092 61.245,25.351 61.348,25.666C61.385,25.782 61.399,25.898 61.404,26.019L61.404,36.992C61.399,37.113 61.385,37.229 61.348,37.345C61.245,37.659 61.005,37.919 60.7,38.046C60.559,38.104 60.415,38.127 60.263,38.132ZM97.761,26.668L97.761,37.628L122.233,23.546L97.779,23.546C97.772,24.585 97.761,25.624 97.761,26.662L97.761,26.668ZM59.123,27.159L42.198,27.159L42.198,35.852L59.123,35.852L59.123,27.159ZM31.299,27.159L22.669,27.159L22.669,35.852L31.299,35.852L31.299,27.159ZM143.249,23.546L130.867,23.546L143.216,30.466C143.198,28.16 143.245,25.853 143.249,23.546ZM43.353,6.431L10.612,6.431L4.165,21.301L17.6,21.301C17.666,21.208 17.745,21.125 17.835,21.055C17.876,21.024 17.922,20.998 17.965,20.969L43.353,6.431Z" style="fill:rgb(138,138,138);"/>
    </g>
</svg>
