<svg xmlns="http://www.w3.org/2000/svg" xmlns:xlink="http://www.w3.org/1999/xlink" width="167.982" height="99.533" viewBox="0 0 167.982 99.533"><defs><clipPath id="a"><rect width="167.982" height="99.533" fill="none" stroke="#ff8b00" stroke-width="2.5"/></clipPath></defs><g clip-path="url(#a)"><rect width="79.751" height="90.975" rx="6" transform="translate(1.262 1.262)" fill="none" stroke="#ff8b00" stroke-linecap="round" stroke-linejoin="round" stroke-width="2.5"/><circle cx="15.561" cy="15.561" r="15.561" transform="translate(12.358 12.027)" fill="none" stroke="#ff8b00" stroke-linecap="round" stroke-linejoin="round" stroke-width="2.5"/><circle cx="5.187" cy="5.187" r="5.187" transform="translate(22.732 22.4)" fill="none" stroke="#ff8b00" stroke-linecap="round" stroke-linejoin="round" stroke-width="2.5"/><circle cx="15.561" cy="15.561" r="15.561" transform="translate(12.358 50.349)" fill="none" stroke="#ff8b00" stroke-linecap="round" stroke-linejoin="round" stroke-width="2.5"/><circle cx="5.187" cy="5.187" r="5.187" transform="translate(22.732 60.724)" fill="none" stroke="#ff8b00" stroke-linecap="round" stroke-linejoin="round" stroke-width="2.5"/><line x1="14.964" transform="translate(55.207 15.564)" fill="none" stroke="#ff8b00" stroke-linecap="round" stroke-linejoin="round" stroke-width="2.5"/><line x1="14.964" transform="translate(55.207 34.222)" fill="none" stroke="#ff8b00" stroke-linecap="round" stroke-linejoin="round" stroke-width="2.5"/><line x1="14.964" transform="translate(55.207 52.881)" fill="none" stroke="#ff8b00" stroke-linecap="round" stroke-linejoin="round" stroke-width="2.5"/><line x1="14.964" transform="translate(55.207 43.552)" fill="none" stroke="#ff8b00" stroke-linecap="round" stroke-linejoin="round" stroke-width="2.5"/><line x1="14.964" transform="translate(55.207 24.893)" fill="none" stroke="#ff8b00" stroke-linecap="round" stroke-linejoin="round" stroke-width="2.5"/><path d="M13.1,109.62H29.3v4.351a1.682,1.682,0,0,1-1.683,1.683H14.781a1.682,1.682,0,0,1-1.683-1.683Z" transform="translate(-2.077 -17.383)" fill="none" stroke="#ff8b00" stroke-linecap="round" stroke-linejoin="round" stroke-width="2.5"/><path d="M65.423,109.62H81.629v4.351a1.682,1.682,0,0,1-1.683,1.683H67.106a1.682,1.682,0,0,1-1.683-1.683Z" transform="translate(-10.374 -17.383)" fill="none" stroke="#ff8b00" stroke-linecap="round" stroke-linejoin="round" stroke-width="2.5"/><rect width="14.964" height="10.902" transform="translate(55.207 67.658)" fill="none" stroke="#ff8b00" stroke-linecap="round" stroke-linejoin="round" stroke-width="2.5"/><line y1="7.336" x2="7.336" transform="translate(31.587 54.908)" fill="none" stroke="#ff8b00" stroke-linecap="round" stroke-linejoin="round" stroke-width="2.5"/><line y1="7.336" x2="7.336" transform="translate(16.952 69.543)" fill="none" stroke="#ff8b00" stroke-linecap="round" stroke-linejoin="round" stroke-width="2.5"/><line x2="7.336" y2="7.336" transform="translate(31.587 69.543)" fill="none" stroke="#ff8b00" stroke-linecap="round" stroke-linejoin="round" stroke-width="2.5"/><line x2="7.336" y2="7.336" transform="translate(16.952 54.908)" fill="none" stroke="#ff8b00" stroke-linecap="round" stroke-linejoin="round" stroke-width="2.5"/><line x2="10.374" transform="translate(33.099 65.893)" fill="none" stroke="#ff8b00" stroke-linecap="round" stroke-linejoin="round" stroke-width="2.5"/><line x2="10.374" transform="translate(12.402 65.893)" fill="none" stroke="#ff8b00" stroke-linecap="round" stroke-linejoin="round" stroke-width="2.5"/><line y2="10.374" transform="translate(27.937 71.055)" fill="none" stroke="#ff8b00" stroke-linecap="round" stroke-linejoin="round" stroke-width="2.5"/><line y2="10.374" transform="translate(27.937 50.358)" fill="none" stroke="#ff8b00" stroke-linecap="round" stroke-linejoin="round" stroke-width="2.5"/><line y1="7.336" x2="7.336" transform="translate(31.587 16.603)" fill="none" stroke="#ff8b00" stroke-linecap="round" stroke-linejoin="round" stroke-width="2.5"/><line y1="7.336" x2="7.336" transform="translate(16.952 31.238)" fill="none" stroke="#ff8b00" stroke-linecap="round" stroke-linejoin="round" stroke-width="2.5"/><line x2="7.336" y2="7.336" transform="translate(31.587 31.239)" fill="none" stroke="#ff8b00" stroke-linecap="round" stroke-linejoin="round" stroke-width="2.5"/><line x2="7.336" y2="7.336" transform="translate(16.952 16.603)" fill="none" stroke="#ff8b00" stroke-linecap="round" stroke-linejoin="round" stroke-width="2.5"/><line x2="10.374" transform="translate(33.099 27.589)" fill="none" stroke="#ff8b00" stroke-linecap="round" stroke-linejoin="round" stroke-width="2.5"/><line x2="10.374" transform="translate(12.402 27.589)" fill="none" stroke="#ff8b00" stroke-linecap="round" stroke-linejoin="round" stroke-width="2.5"/><line y2="10.374" transform="translate(27.937 32.751)" fill="none" stroke="#ff8b00" stroke-linecap="round" stroke-linejoin="round" stroke-width="2.5"/><line y2="10.374" transform="translate(27.937 12.053)" fill="none" stroke="#ff8b00" stroke-linecap="round" stroke-linejoin="round" stroke-width="2.5"/><rect width="79.751" height="53.111" rx="6" transform="translate(86.968 39.126)" fill="none" stroke="#ff8b00" stroke-linecap="round" stroke-linejoin="round" stroke-width="2.5"/><circle cx="15.561" cy="15.561" r="15.561" transform="matrix(0.23, -0.973, 0.973, 0.23, 94.905, 77.48)" fill="none" stroke="#ff8b00" stroke-linecap="round" stroke-linejoin="round" stroke-width="2.5"/><circle cx="5.187" cy="5.187" r="5.187" transform="translate(108.438 60.724)" fill="none" stroke="#ff8b00" stroke-linecap="round" stroke-linejoin="round" stroke-width="2.5"/><line x1="14.964" transform="translate(140.913 61.017)" fill="none" stroke="#ff8b00" stroke-linecap="round" stroke-linejoin="round" stroke-width="2.5"/><line x1="14.964" transform="translate(140.913 79.676)" fill="none" stroke="#ff8b00" stroke-linecap="round" stroke-linejoin="round" stroke-width="2.5"/><line x1="14.964" transform="translate(140.913 70.346)" fill="none" stroke="#ff8b00" stroke-linecap="round" stroke-linejoin="round" stroke-width="2.5"/><line x1="14.964" transform="translate(140.913 51.688)" fill="none" stroke="#ff8b00" stroke-linecap="round" stroke-linejoin="round" stroke-width="2.5"/><path d="M114.956,109.62h16.206v4.351a1.682,1.682,0,0,1-1.683,1.683h-12.84a1.682,1.682,0,0,1-1.683-1.683Z" transform="translate(-18.229 -17.383)" fill="none" stroke="#ff8b00" stroke-linecap="round" stroke-linejoin="round" stroke-width="2.5"/><path d="M167.281,109.62h16.206v4.351a1.682,1.682,0,0,1-1.683,1.683h-12.84a1.682,1.682,0,0,1-1.683-1.683Z" transform="translate(-26.526 -17.383)" fill="none" stroke="#ff8b00" stroke-linecap="round" stroke-linejoin="round" stroke-width="2.5"/><line y1="7.336" x2="7.336" transform="translate(117.294 54.908)" fill="none" stroke="#ff8b00" stroke-linecap="round" stroke-linejoin="round" stroke-width="2.5"/><line y1="7.336" x2="7.336" transform="translate(102.658 69.543)" fill="none" stroke="#ff8b00" stroke-linecap="round" stroke-linejoin="round" stroke-width="2.5"/><line x2="7.336" y2="7.336" transform="translate(117.294 69.543)" fill="none" stroke="#ff8b00" stroke-linecap="round" stroke-linejoin="round" stroke-width="2.5"/><line x2="7.336" y2="7.336" transform="translate(102.658 54.908)" fill="none" stroke="#ff8b00" stroke-linecap="round" stroke-linejoin="round" stroke-width="2.5"/><line x2="10.374" transform="translate(118.806 65.893)" fill="none" stroke="#ff8b00" stroke-linecap="round" stroke-linejoin="round" stroke-width="2.5"/><line x2="10.374" transform="translate(98.108 65.893)" fill="none" stroke="#ff8b00" stroke-linecap="round" stroke-linejoin="round" stroke-width="2.5"/><line y2="10.374" transform="translate(113.644 71.055)" fill="none" stroke="#ff8b00" stroke-linecap="round" stroke-linejoin="round" stroke-width="2.5"/><line y2="10.374" transform="translate(113.644 50.358)" fill="none" stroke="#ff8b00" stroke-linecap="round" stroke-linejoin="round" stroke-width="2.5"/></g></svg>