<svg xmlns="http://www.w3.org/2000/svg" xmlns:xlink="http://www.w3.org/1999/xlink" width="80" height="80" viewBox="0 0 80 80"><defs><clipPath id="a"><rect width="31.335" height="60" fill="none" stroke="#ff8b00" stroke-width="2"/></clipPath></defs><g transform="translate(-250 -1340)"><rect width="80" height="80" rx="3" transform="translate(250 1340)" fill="none"/><g transform="translate(272.333 1348)"><g transform="translate(2 2)" clip-path="url(#a)"><path d="M16.767,22.214A7.416,7.416,0,1,1,9.352,14.8,7.415,7.415,0,0,1,16.767,22.214Z" transform="translate(3.288 25.147)" fill="none" stroke="#ff8b00" stroke-linecap="round" stroke-linejoin="round" stroke-width="2"/><path d="M16.42,36.016V4.862a4.462,4.462,0,0,0-8.923,0V36.016a11.561,11.561,0,1,0,8.923,0Z" transform="translate(0.68 0.681)" fill="none" stroke="#ff8b00" stroke-linecap="round" stroke-linejoin="round" stroke-width="2"/><line y2="21.758" transform="translate(12.639 18.189)" fill="none" stroke="#ff8b00" stroke-linecap="round" stroke-linejoin="round" stroke-width="2"/><line x2="4.375" transform="translate(22.242 20.89)" fill="none" stroke="#ff8b00" stroke-linecap="round" stroke-linejoin="round" stroke-width="2"/><line x2="8.014" transform="translate(22.242 26.293)" fill="none" stroke="#ff8b00" stroke-linecap="round" stroke-linejoin="round" stroke-width="2"/><line x2="4.375" transform="translate(22.242 31.695)" fill="none" stroke="#ff8b00" stroke-linecap="round" stroke-linejoin="round" stroke-width="2"/></g></g></g></svg>