<svg xmlns="http://www.w3.org/2000/svg" xmlns:xlink="http://www.w3.org/1999/xlink" width="95.777" height="49.922" viewBox="0 0 95.777 49.922"><defs><clipPath id="a"><rect width="95.777" height="49.922" fill="none" stroke="#ff8b00" stroke-width="2"/></clipPath></defs><g transform="translate(0 0)"><g transform="translate(0 0)" clip-path="url(#a)"><path d="M94.167,2.1a8.04,8.04,0,0,1-7.238,4.61A8.038,8.038,0,0,1,79.688,2.1a2.953,2.953,0,0,0-5.344,0,8.037,8.037,0,0,1-7.238,4.61A8.037,8.037,0,0,1,59.867,2.1a2.955,2.955,0,0,0-5.346,0,8.037,8.037,0,0,1-7.238,4.61A8.037,8.037,0,0,1,40.044,2.1a2.953,2.953,0,0,0-5.344,0,8.04,8.04,0,0,1-7.238,4.61A8.031,8.031,0,0,1,20.223,2.1a2.955,2.955,0,0,0-5.346,0,8.037,8.037,0,0,1-7.238,4.61A8.037,8.037,0,0,1,.4,2.1" transform="translate(0.605 0.604)" fill="none" stroke="#ff8b00" stroke-linecap="round" stroke-linejoin="round" stroke-width="2"/><path d="M94.167,7.616a7.989,7.989,0,0,1-14.479,0,2.953,2.953,0,0,0-5.344,0,7.987,7.987,0,0,1-14.477,0,2.955,2.955,0,0,0-5.346,0,7.987,7.987,0,0,1-14.477,0,2.953,2.953,0,0,0-5.344,0,7.987,7.987,0,0,1-14.477,0,2.955,2.955,0,0,0-5.346,0A7.987,7.987,0,0,1,.4,7.616" transform="translate(0.605 8.952)" fill="none" stroke="#ff8b00" stroke-linecap="round" stroke-linejoin="round" stroke-width="2"/><path d="M94.167,13.136a7.989,7.989,0,0,1-14.479,0,2.953,2.953,0,0,0-5.344,0,7.987,7.987,0,0,1-14.477,0,2.955,2.955,0,0,0-5.346,0,7.987,7.987,0,0,1-14.477,0,2.953,2.953,0,0,0-5.344,0,7.987,7.987,0,0,1-14.477,0,2.955,2.955,0,0,0-5.346,0,7.987,7.987,0,0,1-14.477,0" transform="translate(0.605 17.301)" fill="none" stroke="#ff8b00" stroke-linecap="round" stroke-linejoin="round" stroke-width="2"/><path d="M94.167,18.656a7.989,7.989,0,0,1-14.479,0,2.953,2.953,0,0,0-5.344,0,7.987,7.987,0,0,1-14.477,0,2.955,2.955,0,0,0-5.346,0,7.987,7.987,0,0,1-14.477,0,2.953,2.953,0,0,0-5.344,0,7.987,7.987,0,0,1-14.477,0,2.955,2.955,0,0,0-5.346,0,7.987,7.987,0,0,1-14.477,0" transform="translate(0.605 25.65)" fill="none" stroke="#ff8b00" stroke-linecap="round" stroke-linejoin="round" stroke-width="2"/></g></g></svg>