<svg xmlns="http://www.w3.org/2000/svg" xmlns:xlink="http://www.w3.org/1999/xlink" width="60.802" height="59.426" viewBox="0 0 60.802 59.426"><defs><clipPath id="a"><rect width="60.802" height="59.426" fill="none" stroke="#ff8b00" stroke-width="2"/></clipPath></defs><g transform="translate(0 0)" clip-path="url(#a)"><path d="M41.17,3.259a28.075,28.075,0,0,0-32.2,5.36l-.049.049A28.076,28.076,0,0,0,3.882,41.5" transform="translate(1.778 1.015)" fill="none" stroke="#ff8b00" stroke-linecap="round" stroke-linejoin="round" stroke-width="2" stroke-dasharray="3 3"/><path d="M0,17.4l10.723,5.034-1-11.8Z" transform="translate(0 26.957)" fill="#f27c00"/><path d="M5.05,43.028a28.075,28.075,0,0,0,32.2-5.36l.049-.049A28.076,28.076,0,0,0,42.338,4.782" transform="translate(12.804 12.124)" fill="none" stroke="#ff8b00" stroke-linecap="round" stroke-linejoin="round" stroke-width="2"/><path d="M24.888,7.87,14.165,2.839l1,11.8Z" transform="translate(35.914 7.197)" fill="#f27c00"/></g></svg>