<svg xmlns="http://www.w3.org/2000/svg" width="68.257" height="50.218" viewBox="0 0 68.257 50.218"><g transform="translate(-264.577 -2205.611)"><path d="M18,38.209H2.991A2.487,2.487,0,0,1,.505,35.722V2.991A2.486,2.486,0,0,1,2.991.505H31.07a2.487,2.487,0,0,1,2.487,2.486v9.252" transform="translate(265.072 2206.106)" fill="none" stroke="#ff8b00" stroke-linecap="round" stroke-linejoin="round" stroke-width="2"/><circle cx="6.449" cy="6.449" r="6.449" transform="translate(270.176 2211.073)" fill="none" stroke="#ff8b00" stroke-linecap="round" stroke-linejoin="round" stroke-width="2"/><circle cx="2.15" cy="2.15" r="2.15" transform="translate(274.476 2215.372)" fill="none" stroke="#ff8b00" stroke-linecap="round" stroke-linejoin="round" stroke-width="2"/><circle cx="6.449" cy="6.449" r="6.449" transform="translate(270.176 2226.955)" fill="none" stroke="#ff8b00" stroke-linecap="round" stroke-linejoin="round" stroke-width="2"/><circle cx="2.15" cy="2.15" r="2.15" transform="translate(274.476 2231.255)" fill="none" stroke="#ff8b00" stroke-linecap="round" stroke-linejoin="round" stroke-width="2"/><line x1="6.202" transform="translate(287.935 2212.539)" fill="none" stroke="#ff8b00" stroke-linecap="round" stroke-linejoin="round" stroke-width="2"/><path d="M4.45,37.267h6.713v1.8a.7.7,0,0,1-.7.7H5.145a.7.7,0,0,1-.7-.7h0Z" transform="translate(265.174 2207.048)" fill="none" stroke="#ff8b00" stroke-linecap="round" stroke-linejoin="round" stroke-width="2"/><line y1="3.04" x2="3.04" transform="translate(278.146 2228.845)" fill="none" stroke="#ff8b00" stroke-linecap="round" stroke-linejoin="round" stroke-width="2"/><line y1="3.04" x2="3.04" transform="translate(272.08 2234.91)" fill="none" stroke="#ff8b00" stroke-linecap="round" stroke-linejoin="round" stroke-width="2"/><line x2="3.04" y2="3.04" transform="translate(278.146 2234.91)" fill="none" stroke="#ff8b00" stroke-linecap="round" stroke-linejoin="round" stroke-width="2"/><line x2="3.04" y2="3.04" transform="translate(272.08 2228.844)" fill="none" stroke="#ff8b00" stroke-linecap="round" stroke-linejoin="round" stroke-width="2"/><line x2="4.299" transform="translate(278.772 2233.397)" fill="none" stroke="#ff8b00" stroke-linecap="round" stroke-linejoin="round" stroke-width="2"/><line x2="4.299" transform="translate(270.194 2233.397)" fill="none" stroke="#ff8b00" stroke-linecap="round" stroke-linejoin="round" stroke-width="2"/><line y2="4.299" transform="translate(276.632 2235.536)" fill="none" stroke="#ff8b00" stroke-linecap="round" stroke-linejoin="round" stroke-width="2"/><line y2="4.299" transform="translate(276.632 2226.959)" fill="none" stroke="#ff8b00" stroke-linecap="round" stroke-linejoin="round" stroke-width="2"/><line y1="3.04" x2="3.04" transform="translate(278.146 2212.969)" fill="none" stroke="#ff8b00" stroke-linecap="round" stroke-linejoin="round" stroke-width="2"/><line y1="3.04" x2="3.04" transform="translate(272.08 2219.035)" fill="none" stroke="#ff8b00" stroke-linecap="round" stroke-linejoin="round" stroke-width="2"/><line x2="3.04" y2="3.04" transform="translate(278.146 2219.035)" fill="none" stroke="#ff8b00" stroke-linecap="round" stroke-linejoin="round" stroke-width="2"/><line x2="3.04" y2="3.04" transform="translate(272.08 2212.969)" fill="none" stroke="#ff8b00" stroke-linecap="round" stroke-linejoin="round" stroke-width="2"/><line x2="4.299" transform="translate(278.772 2217.522)" fill="none" stroke="#ff8b00" stroke-linecap="round" stroke-linejoin="round" stroke-width="2"/><line x2="4.299" transform="translate(270.194 2217.522)" fill="none" stroke="#ff8b00" stroke-linecap="round" stroke-linejoin="round" stroke-width="2"/><line y2="4.299" transform="translate(276.632 2219.662)" fill="none" stroke="#ff8b00" stroke-linecap="round" stroke-linejoin="round" stroke-width="2"/><line y2="4.299" transform="translate(276.632 2211.083)" fill="none" stroke="#ff8b00" stroke-linecap="round" stroke-linejoin="round" stroke-width="2"/><line y2="6.547" transform="translate(331.833 2236.041)" fill="none" stroke="#ff8b00" stroke-linecap="round" stroke-linejoin="round" stroke-width="2"/><rect width="42.874" height="30.643" rx="2.126" transform="translate(288.961 2224.185)" fill="none" stroke="#ff8b00" stroke-linecap="round" stroke-linejoin="round" stroke-width="2"/><line x2="39.293" transform="translate(292.541 2231.846)" fill="none" stroke="#ff8b00" stroke-linecap="round" stroke-linejoin="round" stroke-width="2"/><line x2="39.293" transform="translate(292.541 2239.507)" fill="none" stroke="#ff8b00" stroke-linecap="round" stroke-linejoin="round" stroke-width="2"/><line x1="39.293" transform="translate(292.541 2247.167)" fill="none" stroke="#ff8b00" stroke-linecap="round" stroke-linejoin="round" stroke-width="2"/><line y2="27.063" transform="translate(297.535 2227.766)" fill="none" stroke="#ff8b00" stroke-linecap="round" stroke-linejoin="round" stroke-width="2"/><line y2="27.063" transform="translate(306.11 2227.766)" fill="none" stroke="#ff8b00" stroke-linecap="round" stroke-linejoin="round" stroke-width="2"/><line y2="27.063" transform="translate(314.684 2227.766)" fill="none" stroke="#ff8b00" stroke-linecap="round" stroke-linejoin="round" stroke-width="2"/><line y2="27.063" transform="translate(323.26 2227.766)" fill="none" stroke="#ff8b00" stroke-linecap="round" stroke-linejoin="round" stroke-width="2"/></g></svg>