<svg xmlns="http://www.w3.org/2000/svg" xmlns:xlink="http://www.w3.org/1999/xlink" width="61.221" height="52.986" viewBox="0 0 61.221 52.986"><defs><clipPath id="a"><rect width="61.221" height="52.986" fill="none" stroke="#ff8b00" stroke-width="2"/></clipPath></defs><g transform="translate(0 0)"><g transform="translate(0 0)" clip-path="url(#a)"><path d="M1.134,0H22.681a1.134,1.134,0,0,1,1.134,1.134V46.06a1.133,1.133,0,0,1-1.133,1.133H1.134A1.134,1.134,0,0,1,0,46.059V1.134A1.134,1.134,0,0,1,1.134,0Z" transform="translate(1.699 4.256)" fill="none" stroke="#ff8b00" stroke-linecap="round" stroke-linejoin="round" stroke-width="2"/><rect width="9.069" height="1.81" transform="translate(9.072 1.54)" fill="none" stroke="#ff8b00" stroke-linecap="round" stroke-linejoin="round" stroke-width="2"/><line x2="9.069" transform="translate(9.073 44.26)" fill="none" stroke="#ff8b00" stroke-linecap="round" stroke-linejoin="round" stroke-width="2"/><line x2="9.069" transform="translate(9.073 38.114)" fill="none" stroke="#ff8b00" stroke-linecap="round" stroke-linejoin="round" stroke-width="2"/><line x2="9.069" transform="translate(9.073 31.968)" fill="none" stroke="#ff8b00" stroke-linecap="round" stroke-linejoin="round" stroke-width="2"/><line x2="9.069" transform="translate(9.073 25.822)" fill="none" stroke="#ff8b00" stroke-linecap="round" stroke-linejoin="round" stroke-width="2"/><rect width="23.815" height="47.193" rx="1.134" transform="translate(35.708 4.256)" fill="none" stroke="#ff8b00" stroke-linecap="round" stroke-linejoin="round" stroke-width="2"/><rect width="9.069" height="1.81" transform="translate(43.08 1.54)" fill="none" stroke="#ff8b00" stroke-linecap="round" stroke-linejoin="round" stroke-width="2"/><line x2="9.069" transform="translate(43.081 44.26)" fill="none" stroke="#ff8b00" stroke-linecap="round" stroke-linejoin="round" stroke-width="2"/><line x2="9.069" transform="translate(43.081 38.114)" fill="none" stroke="#ff8b00" stroke-linecap="round" stroke-linejoin="round" stroke-width="2"/></g></g></svg>