<svg xmlns="http://www.w3.org/2000/svg" xmlns:xlink="http://www.w3.org/1999/xlink" width="50.86" height="54.488" viewBox="0 0 50.86 54.488"><defs><clipPath id="a"><rect width="50.86" height="54.488" fill="none" stroke="#ff8b00" stroke-width="2"/></clipPath></defs><g transform="translate(0 0)" clip-path="url(#a)"><line y2="42.074" transform="translate(6.207 1.219)" fill="none" stroke="#ff8b00" stroke-linecap="round" stroke-linejoin="round" stroke-width="2"/><path d="M10.376,19.2a4.988,4.988,0,1,1-4.99-4.99A4.99,4.99,0,0,1,10.376,19.2Z" transform="translate(0.818 29.079)" fill="none" stroke="#ff8b00" stroke-linecap="round" stroke-linejoin="round" stroke-width="2"/><line y1="42.074" transform="translate(44.652 11.195)" fill="none" stroke="#ff8b00" stroke-linecap="round" stroke-linejoin="round" stroke-width="2"/><path d="M13.021,5.39a4.988,4.988,0,1,1,4.99,4.99A4.99,4.99,0,0,1,13.021,5.39Z" transform="translate(26.644 0.819)" fill="none" stroke="#ff8b00" stroke-linecap="round" stroke-linejoin="round" stroke-width="2"/><line y1="52.051" transform="translate(25.43 1.218)" fill="none" stroke="#ff8b00" stroke-linecap="round" stroke-linejoin="round" stroke-width="2"/><path d="M6.71,12.295a4.988,4.988,0,1,1,4.99,4.99,4.99,4.99,0,0,1-4.99-4.99" transform="translate(13.73 14.948)" fill="#fff" stroke="#ff8b00" stroke-width="2"/><path d="M6.71,12.295a4.988,4.988,0,1,1,4.99,4.99A4.99,4.99,0,0,1,6.71,12.295Z" transform="translate(13.73 14.948)" fill="none" stroke="#ff8b00" stroke-linecap="round" stroke-linejoin="round" stroke-width="2"/></g></svg>