<svg xmlns="http://www.w3.org/2000/svg" xmlns:xlink="http://www.w3.org/1999/xlink" width="66.134" height="39.599" viewBox="0 0 66.134 39.599"><defs><clipPath id="a"><rect width="66.133" height="39.599" fill="none" stroke="#ff8b00" stroke-width="2"/></clipPath></defs><g transform="translate(0 0)"><g transform="translate(0 0)" clip-path="url(#a)"><path d="M58.617,4.652a6.05,6.05,0,0,0-6.05,6.05V20.55H12.5V10.7a6.05,6.05,0,1,0-6.05,6.05,5.947,5.947,0,0,0,.9-.091v6.465A2.584,2.584,0,0,0,9.924,25.7h45.22a2.584,2.584,0,0,0,2.578-2.576V16.66a5.947,5.947,0,0,0,.9.091,6.05,6.05,0,0,0,0-12.1Z" transform="translate(0.533 6.201)" fill="none" stroke="#ff8b00" stroke-linecap="round" stroke-linejoin="round" stroke-width="2"/><path d="M4.987,13.675V18.6a1.838,1.838,0,0,0,3.677,0V13.675Z" transform="translate(6.648 18.23)" fill="none" stroke="#ff8b00" stroke-linecap="round" stroke-linejoin="round" stroke-width="2"/><path d="M21.784,13.675V18.6a1.838,1.838,0,0,0,3.677,0V13.675Z" transform="translate(29.04 18.23)" fill="none" stroke="#ff8b00" stroke-linecap="round" stroke-linejoin="round" stroke-width="2"/><path d="M53.775,10.409v-3.4A6.632,6.632,0,0,0,47.161.4H9.985A6.632,6.632,0,0,0,3.371,7.012v3.4" transform="translate(4.494 0.533)" fill="none" stroke="#ff8b00" stroke-linecap="round" stroke-linejoin="round" stroke-width="2"/><line x2="40.068" transform="translate(13.032 20.122)" fill="none" stroke="#ff8b00" stroke-linecap="round" stroke-linejoin="round" stroke-width="2"/><line x2="3.782" transform="translate(19.048 8.96)" fill="none" stroke="#ff8b00" stroke-linecap="round" stroke-linejoin="round" stroke-width="2"/><line y1="3.782" transform="translate(20.939 7.069)" fill="none" stroke="#ff8b00" stroke-linecap="round" stroke-linejoin="round" stroke-width="2"/><line x2="3.782" transform="translate(31.176 8.96)" fill="none" stroke="#ff8b00" stroke-linecap="round" stroke-linejoin="round" stroke-width="2"/><line y1="3.782" transform="translate(33.067 7.069)" fill="none" stroke="#ff8b00" stroke-linecap="round" stroke-linejoin="round" stroke-width="2"/><line x2="3.782" transform="translate(43.304 8.96)" fill="none" stroke="#ff8b00" stroke-linecap="round" stroke-linejoin="round" stroke-width="2"/><line y1="3.782" transform="translate(45.194 7.069)" fill="none" stroke="#ff8b00" stroke-linecap="round" stroke-linejoin="round" stroke-width="2"/></g></g></svg>