<svg xmlns="http://www.w3.org/2000/svg" xmlns:xlink="http://www.w3.org/1999/xlink" width="50.783" height="52.628" viewBox="0 0 50.783 52.628"><defs><clipPath id="a"><rect width="50.783" height="52.628" fill="none" stroke="#ff8b00" stroke-width="2"/></clipPath></defs><g transform="translate(0 0)"><g transform="translate(0 0)" clip-path="url(#a)"><path d="M34.157,8.768c0,4.621-7.559,8.368-16.88,8.368S.4,13.39.4,8.768,7.957.4,17.278.4,34.157,4.147,34.157,8.768Z" transform="translate(0.902 0.901)" fill="none" stroke="#ff8b00" stroke-linecap="round" stroke-linejoin="round" stroke-width="2"/><path d="M34.157,5.551c0,4.621-7.559,8.368-16.88,8.368S.4,10.172.4,5.551" transform="translate(0.902 12.49)" fill="none" stroke="#ff8b00" stroke-linecap="round" stroke-linejoin="round" stroke-width="2"/><path d="M34.157,8.3c0,4.621-7.559,8.368-16.88,8.368S.4,12.925.4,8.3" transform="translate(0.902 18.684)" fill="none" stroke="#ff8b00" stroke-linecap="round" stroke-linejoin="round" stroke-width="2"/><path d="M34.157,11.058c0,4.621-7.559,8.368-16.88,8.368S.4,15.679.4,11.058" transform="translate(0.902 24.88)" fill="none" stroke="#ff8b00" stroke-linecap="round" stroke-linejoin="round" stroke-width="2"/><path d="M35.366,24.049c-1.644,7.618-9.447,12.525-17.436,10.959S4.8,25.992,6.445,18.374,15.892,5.849,23.881,7.416,37.01,16.431,35.366,24.049" transform="translate(13.812 16.03)" fill="#fff" stroke="#ff8b00" stroke-width="2"/><path d="M35.366,24.049c-1.644,7.618-9.447,12.525-17.436,10.959S4.8,25.992,6.445,18.374,15.892,5.849,23.881,7.416,37.01,16.431,35.366,24.049Z" transform="translate(13.812 16.03)" fill="none" stroke="#ff8b00" stroke-linecap="round" stroke-linejoin="round" stroke-width="2"/></g></g></svg>