<svg xmlns="http://www.w3.org/2000/svg" xmlns:xlink="http://www.w3.org/1999/xlink" width="58.133" height="48.099" viewBox="0 0 58.133 48.099"><defs><clipPath id="a"><rect width="58.133" height="48.099" fill="none" stroke="#ff8b00" stroke-width="2"/></clipPath></defs><g transform="translate(0 0)"><g transform="translate(0 0)"><g clip-path="url(#a)"><path d="M6.883,15.281V34.59H22.242V23.181h7.68V34.59H45.281V15.281" transform="translate(5.754 12.775)" fill="none" stroke="#ff8b00" stroke-linecap="round" stroke-linejoin="round" stroke-width="2"/></g></g><path d="M24.2,7.693h6.464v5.265" transform="translate(20.227 6.431)" fill="none" stroke="#ff8b00" stroke-linecap="round" stroke-linejoin="round" stroke-width="2"/><g transform="translate(0 0)"><g clip-path="url(#a)"><path d="M3.417,21.455l25.672-14.7L54.542,21.017" transform="translate(2.856 5.646)" fill="none" stroke="#ff8b00" stroke-linecap="round" stroke-linejoin="round" stroke-width="2"/><path d="M19.57,8.084A8.159,8.159,0,0,0,5.464,15.529" transform="translate(4.316 4.316)" fill="none" stroke="#ff8b00" stroke-linecap="round" stroke-linejoin="round" stroke-width="2"/><line y1="4.342" x2="4.342" transform="translate(25.249 5.692)" fill="none" stroke="#ff8b00" stroke-linecap="round" stroke-linejoin="round" stroke-width="2"/><line y1="6.15" transform="translate(17.64 0.735)" fill="none" stroke="#ff8b00" stroke-linecap="round" stroke-linejoin="round" stroke-width="2"/><line x1="4.342" y1="4.342" transform="translate(5.691 5.692)" fill="none" stroke="#ff8b00" stroke-linecap="round" stroke-linejoin="round" stroke-width="2"/><line x1="6.15" transform="translate(0.734 17.641)" fill="none" stroke="#ff8b00" stroke-linecap="round" stroke-linejoin="round" stroke-width="2"/></g></g></g></svg>