<svg xmlns="http://www.w3.org/2000/svg" xmlns:xlink="http://www.w3.org/1999/xlink" width="52.573" height="65.289" viewBox="0 0 52.573 65.289"><defs><clipPath id="a"><rect width="52.573" height="65.289" fill="none" stroke="#ff8b00" stroke-width="2"/></clipPath></defs><g transform="translate(0 0)"><g transform="translate(0 0)" clip-path="url(#a)"><path d="M36.481,20A16.384,16.384,0,1,0,9.392,32.378a11.288,11.288,0,0,1,4.132,8.479v.857H26.682V40.54a10.544,10.544,0,0,1,3.964-8.019A16.326,16.326,0,0,0,36.481,20Z" transform="translate(6.185 6.014)" fill="none" stroke="#ff8b00" stroke-linecap="round" stroke-linejoin="round" stroke-width="2"/><line y1="3.525" x2="13.156" transform="translate(19.708 48.377)" fill="none" stroke="#ff8b00" stroke-linecap="round" stroke-linejoin="round" stroke-width="2"/><line y1="3.525" x2="13.156" transform="translate(19.708 51.677)" fill="none" stroke="#ff8b00" stroke-linecap="round" stroke-linejoin="round" stroke-width="2"/><line y1="1.285" x2="4.797" transform="translate(28.068 54.976)" fill="none" stroke="#ff8b00" stroke-linecap="round" stroke-linejoin="round" stroke-width="2"/><path d="M12.472,26.733a4.153,4.153,0,0,0,4.153-4.153H8.319A4.153,4.153,0,0,0,12.472,26.733Z" transform="translate(13.813 37.492)" fill="none" stroke="#ff8b00" stroke-linecap="round" stroke-linejoin="round" stroke-width="2"/><line x1="3.387" transform="translate(1.065 26.286)" fill="none" stroke="#ff8b00" stroke-linecap="round" stroke-linejoin="round" stroke-width="2"/><line x1="3.387" transform="translate(48.122 26.286)" fill="none" stroke="#ff8b00" stroke-linecap="round" stroke-linejoin="round" stroke-width="2"/><line x1="2.934" y2="1.695" transform="translate(4.442 37.203)" fill="none" stroke="#ff8b00" stroke-linecap="round" stroke-linejoin="round" stroke-width="2"/><line x1="2.934" y2="1.695" transform="translate(45.195 13.675)" fill="none" stroke="#ff8b00" stroke-linecap="round" stroke-linejoin="round" stroke-width="2"/><line x1="1.695" y2="2.934" transform="translate(37.203 4.443)" fill="none" stroke="#ff8b00" stroke-linecap="round" stroke-linejoin="round" stroke-width="2"/><line y2="3.387" transform="translate(26.287 1.064)" fill="none" stroke="#ff8b00" stroke-linecap="round" stroke-linejoin="round" stroke-width="2"/><line x2="1.695" y2="2.934" transform="translate(13.675 4.443)" fill="none" stroke="#ff8b00" stroke-linecap="round" stroke-linejoin="round" stroke-width="2"/><line x2="2.934" y2="1.695" transform="translate(45.196 37.203)" fill="none" stroke="#ff8b00" stroke-linecap="round" stroke-linejoin="round" stroke-width="2"/><line x2="2.934" y2="1.695" transform="translate(4.443 13.675)" fill="none" stroke="#ff8b00" stroke-linecap="round" stroke-linejoin="round" stroke-width="2"/><path d="M13.223,6.458,7.57,16.768H18.876L13.223,29.4" transform="translate(12.569 10.723)" fill="none" stroke="#ff8b00" stroke-linecap="round" stroke-linejoin="round" stroke-width="2"/></g></g></svg>