<svg xmlns="http://www.w3.org/2000/svg" xmlns:xlink="http://www.w3.org/1999/xlink" width="54.978" height="45.023" viewBox="0 0 54.978 45.023"><defs><clipPath id="a"><rect width="54.978" height="45.023" fill="none" stroke="#ff8b00" stroke-width="2"/></clipPath></defs><g transform="translate(0 0)"><g transform="translate(0 -0.001)" clip-path="url(#a)"><path d="M36.668,42.144l-20.56-20.56a3.723,3.723,0,0,0-3.388-1.042A10.176,10.176,0,0,1,.679,8.214l6.208,6.208,5.944-1.593,1.591-5.941L8.214.68a10.178,10.178,0,0,1,12.33,12.038,3.721,3.721,0,0,0,1.042,3.391L42.234,36.756a3.884,3.884,0,0,1-.641,6A3.96,3.96,0,0,1,36.668,42.144Z" transform="translate(0.635 0.635)" fill="none" stroke="#ff8b00" stroke-linecap="round" stroke-linejoin="round" stroke-width="2"/><path d="M10.941,42.144,31.5,21.584a3.723,3.723,0,0,1,3.388-1.042A10.176,10.176,0,0,0,46.93,8.214l-6.208,6.208-5.944-1.593L33.188,6.887,39.4.68a10.178,10.178,0,0,0-12.33,12.038,3.721,3.721,0,0,1-1.042,3.391L5.375,36.756a3.884,3.884,0,0,0,.641,6,3.96,3.96,0,0,0,4.925-.61" transform="translate(6.735 0.635)" fill="#fff" stroke="#ff8b00" stroke-width="2"/><path d="M10.941,42.144,31.5,21.584a3.723,3.723,0,0,1,3.388-1.042A10.176,10.176,0,0,0,46.93,8.214l-6.208,6.208-5.944-1.593L33.188,6.887,39.4.68a10.178,10.178,0,0,0-12.33,12.038,3.721,3.721,0,0,1-1.042,3.391L5.375,36.756a3.884,3.884,0,0,0,.641,6A3.96,3.96,0,0,0,10.941,42.144Z" transform="translate(6.735 0.635)" fill="none" stroke="#ff8b00" stroke-linecap="round" stroke-linejoin="round" stroke-width="2"/></g></g></svg>