<svg xmlns="http://www.w3.org/2000/svg" xmlns:xlink="http://www.w3.org/1999/xlink" width="56" height="52" viewBox="0 0 56 52"><defs><clipPath id="a"><rect width="56" height="52" transform="translate(0.25 0)" fill="none" stroke="#ff8b00" stroke-width="1"/></clipPath></defs><g transform="translate(-0.25 0.438)"><g transform="translate(0 -0.437)" clip-path="url(#a)"><path d="M51.976,50.218H5.394A4.395,4.395,0,0,1,1,45.824v-29A3.516,3.516,0,0,1,4.516,13.3H44.945a3.516,3.516,0,0,1,3.516,3.516V46.7a3.516,3.516,0,1,0,7.031,0V9.789a3.516,3.516,0,0,0-3.516-3.516H27.552a3.516,3.516,0,0,1-1.95-.591L19.464,1.591A3.516,3.516,0,0,0,17.514,1H8.031A3.516,3.516,0,0,0,4.516,4.516V8.031" transform="translate(-0.121 0.352)" fill="none" stroke="#ff8b00" stroke-linecap="round" stroke-linejoin="round" stroke-width="2"/></g></g></svg>