<svg xmlns="http://www.w3.org/2000/svg" xmlns:xlink="http://www.w3.org/1999/xlink" width="60" height="49.496" viewBox="0 0 60 49.496"><defs><clipPath id="a"><rect width="60" height="49.496" fill="none" stroke="#ff8b00" stroke-width="2"/></clipPath></defs><g transform="translate(0 0)"><g transform="translate(0 0)" clip-path="url(#a)"><ellipse cx="13.132" cy="6.511" rx="13.132" ry="6.511" transform="translate(1.095 1.095)" fill="none" stroke="#ff8b00" stroke-linecap="round" stroke-linejoin="round" stroke-width="2"/><path d="M27.013,9.677c0,3.6-5.879,6.511-13.132,6.511S.75,13.273.75,9.677" transform="translate(0.344 4.441)" fill="none" stroke="#ff8b00" stroke-linecap="round" stroke-linejoin="round" stroke-width="2"/><path d="M27.013,14.478c0,3.6-5.879,6.511-13.132,6.511S.75,18.074.75,14.478" transform="translate(0.344 6.644)" fill="none" stroke="#ff8b00" stroke-linecap="round" stroke-linejoin="round" stroke-width="2"/><path d="M27.013,19.28c0,3.6-5.879,6.511-13.132,6.511S.75,22.876.75,19.28" transform="translate(0.344 8.848)" fill="none" stroke="#ff8b00" stroke-linecap="round" stroke-linejoin="round" stroke-width="2"/><path d="M27.013,24.081c0,3.6-5.879,6.511-13.132,6.511S.75,27.677.75,24.081" transform="translate(0.344 11.051)" fill="none" stroke="#ff8b00" stroke-linecap="round" stroke-linejoin="round" stroke-width="2"/><ellipse cx="13.132" cy="6.511" rx="13.132" ry="6.511" transform="translate(32.643 21.863)" fill="none" stroke="#ff8b00" stroke-linecap="round" stroke-linejoin="round" stroke-width="2"/><path d="M48.638,23.912c0,3.6-5.879,6.511-13.132,6.511s-13.132-2.915-13.132-6.511" transform="translate(10.268 10.973)" fill="none" stroke="#ff8b00" stroke-linecap="round" stroke-linejoin="round" stroke-width="2"/><path d="M48.638,28.714c0,3.6-5.879,6.511-13.132,6.511S22.375,32.31,22.375,28.714" transform="translate(10.268 13.177)" fill="none" stroke="#ff8b00" stroke-linecap="round" stroke-linejoin="round" stroke-width="2"/></g></g></svg>