<svg xmlns="http://www.w3.org/2000/svg" xmlns:xlink="http://www.w3.org/1999/xlink" width="53.93" height="59.939" viewBox="0 0 53.93 59.939"><defs><clipPath id="a"><rect width="53.93" height="59.939" fill="none" stroke="#ff8b00" stroke-width="2"/></clipPath></defs><g transform="translate(0 0)"><g transform="translate(0 0)" clip-path="url(#a)"><path d="M34.055,37.823l6.993,6.993L52.182,33.681M10.927,32.547h9.035m-9.035-5.811H25.769M10.927,20.926h6.13m-6.13-8.716H28.675M45.114,52.19a6.02,6.02,0,0,1-6,6H6.617a6.019,6.019,0,0,1-6-6V6.617a6.019,6.019,0,0,1,6-6h32.5a6.02,6.02,0,0,1,6,6V29" transform="translate(0.566 0.565)" fill="none" stroke="#ff8b00" stroke-linecap="round" stroke-linejoin="round" stroke-width="2"/></g></g></svg>