<svg xmlns="http://www.w3.org/2000/svg" width="59" height="59" viewBox="0 0 59 59"><g transform="translate(-999.132 -2862.132)"><circle cx="28.5" cy="28.5" r="28.5" transform="translate(1000.132 2863.132)" fill="none" stroke="#ff8b00" stroke-miterlimit="10" stroke-width="2"/><path d="M12.246,37.482s6.133,4.7,9.429,6.915c4.485,3.011,3.758,19.271,7.6,20.07s3.438-4.8,6-5.837,4.888-2.445,5.277-5.837c.283-2.463,4.4-2.4,5.118-3.918S47.191,44.5,32.87,40.8c-15.032-3.881-10.135-7.012-5.837-8.076,3.965-.982,11.49.59,12.321-6.723.347-3.051-9.093-8.294-9.093-8.294" transform="translate(988.738 2847.041)" fill="none" stroke="#ff8b00" stroke-miterlimit="10" stroke-width="2"/><path d="M251.585,14.186s-3.04,5.71-2.111,7.592c1.029,2.086,2.879,2.639,7.357,1.839a33.3,33.3,0,0,1,8.631-.316" transform="translate(784.768 2850.069)" fill="none" stroke="#ff8b00" stroke-miterlimit="10" stroke-width="2"/><path d="M319.21,127.378s-13.332-2.264-12.331,5.359c1.05,8,9.686,3.6,6.888,11.275-3.026,8.3.72,13.1.72,13.1" transform="translate(735.268 2752.944)" fill="none" stroke="#ff8b00" stroke-miterlimit="10" stroke-width="2"/></g></svg>