<?xml version="1.0" encoding="UTF-8" standalone="no"?>
<!DOCTYPE svg PUBLIC "-//W3C//DTD SVG 1.1//EN" "http://www.w3.org/Graphics/SVG/1.1/DTD/svg11.dtd">
<svg width="100%" height="100%" viewBox="0 0 30 30" version="1.1" xmlns="http://www.w3.org/2000/svg" xmlns:xlink="http://www.w3.org/1999/xlink" xml:space="preserve" style="fill-rule:evenodd;clip-rule:evenodd;stroke-linejoin:round;stroke-miterlimit:1.41421;">
    <g>
        <g transform="matrix(3.28113,0,0,3.28113,0.00164154,-0.00298039)">
            <path d="M6.788,2.465C6.85,2.471 6.908,2.487 6.962,2.518C7.108,2.603 7.186,2.777 7.153,2.943C7.14,3.004 7.114,3.058 7.077,3.108C6.099,4.292 5.081,5.445 4.028,6.562C3.996,6.592 3.962,6.618 3.922,6.638C3.812,6.692 3.68,6.692 3.57,6.638C3.53,6.618 3.496,6.592 3.464,6.562C2.981,6.05 2.514,5.521 2.065,4.978C2.019,4.914 1.988,4.841 1.983,4.761C1.967,4.534 2.153,4.334 2.38,4.334C2.433,4.333 2.485,4.344 2.534,4.364C2.591,4.387 2.639,4.424 2.682,4.469L3.746,5.674C4.657,4.643 5.535,3.581 6.479,2.58C6.498,2.562 6.518,2.546 6.54,2.53C6.585,2.502 6.632,2.483 6.684,2.471C6.719,2.465 6.753,2.463 6.788,2.465Z" style="fill:rgb(255,140,0);fill-rule:nonzero;"/>
        </g>
        <g transform="matrix(3.28113,0,0,3.28113,0.00164154,-0.00298039)">
            <path d="M4.689,0.002C4.883,0.009 5.076,0.024 5.267,0.053C5.749,0.127 6.219,0.278 6.653,0.501C7.503,0.936 8.207,1.64 8.642,2.49C8.847,2.89 8.992,3.32 9.071,3.763C9.16,4.259 9.166,4.769 9.09,5.267C9.022,5.713 8.887,6.148 8.692,6.554C8.453,7.049 8.124,7.501 7.726,7.881C7.327,8.261 6.859,8.569 6.351,8.783C5.789,9.021 5.181,9.143 4.572,9.143C3.962,9.143 3.354,9.021 2.792,8.783C2.284,8.569 1.816,8.261 1.417,7.881C1.019,7.501 0.69,7.05 0.451,6.554C0.255,6.148 0.12,5.713 0.052,5.267C-0.024,4.769 -0.018,4.259 0.071,3.763C0.15,3.32 0.295,2.89 0.5,2.49C0.936,1.64 1.639,0.936 2.49,0.501C2.924,0.278 3.394,0.127 3.876,0.053C4.068,0.024 4.26,0.009 4.454,0.002C4.572,0.001 4.572,0.001 4.689,0.002ZM4.474,0.802C4.314,0.808 4.155,0.82 3.997,0.844C3.599,0.905 3.212,1.03 2.855,1.213C2.153,1.572 1.572,2.153 1.212,2.855C1.043,3.184 0.924,3.539 0.859,3.903C0.785,4.313 0.78,4.735 0.843,5.146C0.899,5.514 1.01,5.872 1.171,6.206C1.369,6.616 1.64,6.988 1.969,7.301C2.299,7.615 2.684,7.869 3.104,8.046C3.567,8.242 4.069,8.343 4.572,8.343C5.075,8.343 5.576,8.242 6.04,8.046C6.459,7.869 6.844,7.615 7.173,7.301C7.502,6.988 7.774,6.616 7.971,6.206C8.132,5.872 8.243,5.514 8.299,5.146C8.362,4.735 8.357,4.313 8.284,3.903C8.219,3.539 8.099,3.184 7.93,2.855C7.571,2.153 6.99,1.572 6.288,1.213C5.931,1.03 5.544,0.905 5.147,0.844C4.988,0.82 4.829,0.808 4.669,0.802C4.571,0.801 4.572,0.801 4.474,0.802Z" style="fill:rgb(255,140,0);fill-rule:nonzero;"/>
        </g>
    </g>
</svg>
