<?xml version="1.0" encoding="UTF-8" standalone="no"?>
<!DOCTYPE svg PUBLIC "-//W3C//DTD SVG 1.1//EN" "http://www.w3.org/Graphics/SVG/1.1/DTD/svg11.dtd">
<svg width="100%" height="100%" viewBox="0 0 62 51" version="1.1" xmlns="http://www.w3.org/2000/svg" xmlns:xlink="http://www.w3.org/1999/xlink" xml:space="preserve" style="fill-rule:evenodd;clip-rule:evenodd;stroke-linejoin:round;stroke-miterlimit:1.41421;">
    <g transform="matrix(1.01191,0,0,1.01191,-0.00121802,-0.00049942)">
        <path d="M49.053,0.002C49.767,0.019 50.476,0.085 51.178,0.218C51.307,0.243 51.433,0.268 51.56,0.297C51.709,0.33 51.856,0.359 51.992,0.432C52.309,0.602 52.514,0.94 52.519,1.3C52.52,1.389 52.51,1.477 52.487,1.563C52.454,1.692 52.395,1.814 52.314,1.92C52.287,1.956 52.255,1.987 52.226,2.02L45.68,8.566L47.166,14.107L52.706,15.592L59.252,9.046L59.352,8.959C59.389,8.934 59.424,8.907 59.463,8.885C59.54,8.841 59.623,8.807 59.709,8.785C59.795,8.763 59.884,8.752 59.973,8.753C60.333,8.758 60.67,8.963 60.84,9.281C60.913,9.416 60.943,9.563 60.976,9.712C60.99,9.775 61.003,9.839 61.016,9.903C61.095,10.284 61.155,10.669 61.198,11.056C61.461,13.458 61.017,15.92 59.916,18.072C58.783,20.287 56.971,22.139 54.783,23.325C53.544,23.997 52.19,24.452 50.797,24.67C49.734,24.836 48.649,24.863 47.579,24.752C47.264,24.719 46.95,24.674 46.638,24.617C46.464,24.586 46.293,24.546 46.119,24.516C46.039,24.504 45.959,24.494 45.878,24.487C45.669,24.472 45.459,24.477 45.251,24.504C44.56,24.596 43.921,24.924 43.419,25.404C35.644,33.063 28.064,40.919 20.266,48.555C20.095,48.715 19.919,48.868 19.731,49.007C19.241,49.372 18.691,49.657 18.11,49.846C17.39,50.081 16.623,50.169 15.87,50.092C15.255,50.03 14.651,49.859 14.097,49.583C13.589,49.33 13.122,48.991 12.718,48.592C12.342,48.219 12.022,47.791 11.773,47.324C11.44,46.702 11.234,46.015 11.167,45.314C11.083,44.448 11.212,43.565 11.542,42.76C11.79,42.157 12.149,41.61 12.592,41.133C20.194,33.196 28.31,25.761 35.904,17.816C36.074,17.632 36.227,17.433 36.354,17.216C36.642,16.724 36.801,16.158 36.794,15.588C36.792,15.442 36.78,15.297 36.756,15.153C36.728,14.98 36.688,14.808 36.655,14.635C36.623,14.447 36.623,14.447 36.593,14.259C36.53,13.82 36.484,13.379 36.465,12.936C36.422,11.924 36.502,10.906 36.704,9.913C36.934,8.782 37.322,7.685 37.856,6.661C38.851,4.754 40.349,3.116 42.16,1.954C42.941,1.453 43.778,1.041 44.652,0.728C45.511,0.42 46.403,0.208 47.308,0.095C47.694,0.047 48.081,0.021 48.47,0.006C48.665,0.001 48.858,0 49.053,0.002ZM48.694,2.001C48.313,2.01 47.933,2.033 47.555,2.08C46.796,2.175 46.047,2.352 45.327,2.61C44.595,2.873 43.894,3.218 43.24,3.638C41.767,4.583 40.54,5.904 39.706,7.442C39.27,8.247 38.942,9.109 38.732,10C38.476,11.087 38.396,12.215 38.495,13.327C38.523,13.646 38.566,13.962 38.623,14.276C38.652,14.435 38.687,14.593 38.717,14.751C38.731,14.833 38.743,14.913 38.754,14.995C38.799,15.371 38.807,15.748 38.769,16.125C38.69,16.918 38.42,17.689 37.996,18.364C37.811,18.659 37.597,18.932 37.36,19.187C29.766,27.133 21.649,34.568 14.047,42.506C13.77,42.803 13.547,43.143 13.393,43.519C13.028,44.408 13.065,45.439 13.494,46.299C13.641,46.593 13.832,46.864 14.058,47.102C14.309,47.364 14.602,47.59 14.923,47.759C15.258,47.936 15.625,48.048 16.001,48.095C16.476,48.153 16.963,48.106 17.421,47.967C17.798,47.852 18.155,47.676 18.476,47.447C18.62,47.345 18.753,47.232 18.882,47.111C26.677,39.478 34.254,31.625 42.027,23.968C42.298,23.709 42.591,23.476 42.909,23.276C43.698,22.781 44.616,22.498 45.548,22.479C45.819,22.474 46.091,22.49 46.359,22.529C46.573,22.56 46.784,22.609 46.996,22.649C47.153,22.677 47.153,22.677 47.311,22.702C47.68,22.755 48.05,22.793 48.422,22.809C49.326,22.848 50.234,22.77 51.117,22.576C52.01,22.38 52.876,22.066 53.686,21.643C55.41,20.743 56.871,19.352 57.854,17.674C58.26,16.982 58.583,16.243 58.817,15.477C59.056,14.695 59.202,13.884 59.252,13.068C59.276,12.687 59.276,12.307 59.261,11.926L59.257,11.869L53.712,17.414L53.614,17.501C53.578,17.525 53.543,17.552 53.505,17.573C53.354,17.661 53.18,17.707 53.005,17.707C52.888,17.707 52.86,17.696 52.746,17.673L46.09,15.889C45.98,15.852 45.95,15.848 45.849,15.789C45.698,15.702 45.571,15.575 45.483,15.423C45.425,15.322 45.42,15.292 45.383,15.182L43.599,8.526C43.577,8.412 43.565,8.384 43.565,8.267C43.565,8.093 43.612,7.919 43.699,7.767C43.757,7.666 43.782,7.647 43.858,7.56L49.403,2.015C49.33,2.011 49.257,2.008 49.184,2.005C49.02,2.001 48.857,2 48.694,2.001Z" style="fill:rgb(255,140,0);fill-rule:nonzero;"/>
        <path d="M12.608,0.001C12.997,0.01 13.384,0.031 13.771,0.073C14.677,0.171 15.572,0.369 16.435,0.663C17.28,0.951 18.094,1.331 18.857,1.795C20.66,2.891 22.175,4.453 23.215,6.29C23.748,7.233 24.156,8.245 24.426,9.294C24.77,10.631 24.889,12.025 24.779,13.401C24.748,13.777 24.701,14.151 24.637,14.522C24.604,14.714 24.561,14.905 24.532,15.099C24.52,15.185 24.511,15.271 24.505,15.357C24.493,15.562 24.496,15.767 24.52,15.97C24.573,16.437 24.726,16.891 24.97,17.292C25.093,17.495 25.24,17.681 25.403,17.852L25.442,17.892L31.307,23.756L31.377,23.834C31.439,23.92 31.495,24.005 31.533,24.105C31.634,24.368 31.618,24.667 31.491,24.917C31.442,25.013 31.378,25.091 31.307,25.171L25.171,31.307C25.091,31.378 25.013,31.442 24.917,31.49C24.635,31.634 24.292,31.634 24.01,31.49C23.914,31.442 23.836,31.378 23.756,31.307C21.776,29.327 19.843,27.299 17.815,25.368C17.641,25.207 17.453,25.064 17.249,24.944C16.74,24.646 16.152,24.494 15.563,24.497C15.407,24.498 15.252,24.51 15.098,24.532C14.904,24.559 14.713,24.602 14.521,24.637C14.335,24.668 14.335,24.668 14.148,24.695C13.651,24.762 13.152,24.806 12.65,24.816C11.457,24.84 10.262,24.692 9.111,24.377C7.94,24.057 6.818,23.563 5.79,22.916C3.688,21.591 2.004,19.635 1.018,17.354C0.112,15.261 -0.195,12.928 0.123,10.671C0.169,10.349 0.227,10.029 0.297,9.712C0.334,9.545 0.369,9.383 0.459,9.235C0.626,8.958 0.925,8.777 1.247,8.756C1.353,8.749 1.46,8.759 1.564,8.785C1.701,8.821 1.831,8.886 1.941,8.975C1.969,8.997 1.994,9.023 2.021,9.046L8.566,15.592L14.107,14.107L15.592,8.566L9.046,2.021L8.975,1.941C8.954,1.913 8.932,1.885 8.913,1.855C8.855,1.765 8.812,1.667 8.785,1.564C8.686,1.178 8.83,0.76 9.147,0.519C9.231,0.454 9.326,0.403 9.427,0.368C9.461,0.357 9.495,0.349 9.529,0.339C9.716,0.296 9.716,0.296 9.903,0.256C10.285,0.181 10.669,0.117 11.057,0.075C11.443,0.032 11.831,0.011 12.22,0.002C12.414,0 12.414,0 12.608,0.001ZM12.252,2.002C12.089,2.005 12.089,2.005 11.926,2.012L11.869,2.015L17.415,7.56L17.485,7.638C17.539,7.713 17.556,7.73 17.599,7.813C17.678,7.969 17.715,8.145 17.706,8.32C17.701,8.413 17.693,8.435 17.673,8.526L15.889,15.182C15.861,15.271 15.857,15.294 15.814,15.377C15.719,15.565 15.565,15.719 15.378,15.814C15.294,15.857 15.271,15.861 15.182,15.889L8.526,17.673C8.436,17.693 8.413,17.701 8.32,17.706C8.11,17.717 7.899,17.66 7.723,17.546C7.645,17.495 7.629,17.477 7.56,17.415L2.015,11.869C1.963,12.812 2.043,13.763 2.247,14.684C2.413,15.435 2.662,16.167 2.99,16.862C3.877,18.744 5.34,20.34 7.135,21.393C7.873,21.826 8.665,22.166 9.486,22.405C10.651,22.743 11.873,22.875 13.083,22.796C13.398,22.775 13.713,22.741 14.025,22.692C14.263,22.654 14.498,22.603 14.736,22.563C14.817,22.551 14.898,22.54 14.98,22.531C15.332,22.494 15.685,22.487 16.038,22.517C16.847,22.585 17.637,22.839 18.33,23.261C18.661,23.462 18.964,23.7 19.244,23.967L19.301,24.022L24.463,29.185L29.185,24.463C27.446,22.724 25.693,20.997 23.967,19.244C23.909,19.184 23.853,19.123 23.797,19.06C23.563,18.79 23.354,18.501 23.178,18.19C22.739,17.413 22.506,16.526 22.498,15.633C22.495,15.361 22.513,15.088 22.551,14.818C22.582,14.604 22.628,14.393 22.666,14.181C22.692,14.025 22.692,14.026 22.715,13.869C22.764,13.503 22.799,13.137 22.812,12.768C22.844,11.873 22.76,10.974 22.564,10.101C22.341,9.112 21.973,8.157 21.474,7.275C20.657,5.833 19.491,4.59 18.103,3.684C17.475,3.273 16.802,2.932 16.1,2.667C15.384,2.398 14.638,2.208 13.88,2.102C13.502,2.049 13.123,2.02 12.742,2.005C12.578,2.001 12.415,2 12.252,2.002Z" style="fill:rgb(255,140,0);fill-rule:nonzero;"/>
        <path d="M36.896,29.644C36.968,29.656 36.987,29.657 37.058,29.678C37.163,29.709 37.264,29.758 37.353,29.822C37.413,29.865 37.425,29.879 37.479,29.929C41.213,33.663 45.028,37.319 48.68,41.133C49.124,41.61 49.483,42.157 49.73,42.76C50.042,43.52 50.174,44.35 50.118,45.17C50.067,45.896 49.869,46.611 49.534,47.258C49.291,47.728 48.978,48.16 48.608,48.537C48.192,48.96 47.706,49.319 47.175,49.583C46.621,49.859 46.017,50.031 45.402,50.093C44.649,50.169 43.882,50.081 43.162,49.847C42.581,49.657 42.032,49.372 41.541,49.007C41.353,48.868 41.177,48.715 41.006,48.555C37.276,44.902 33.621,41.171 29.929,37.479C29.854,37.397 29.787,37.312 29.738,37.211C29.604,36.937 29.604,36.608 29.738,36.333C29.787,36.232 29.854,36.147 29.929,36.065L36.065,29.929C36.119,29.879 36.131,29.865 36.191,29.822C36.303,29.742 36.432,29.686 36.567,29.657C36.639,29.642 36.658,29.643 36.731,29.637C36.814,29.637 36.814,29.637 36.896,29.644ZM32.051,36.772C35.497,40.219 38.908,43.701 42.391,47.111C42.446,47.163 42.502,47.213 42.559,47.263C42.998,47.626 43.507,47.892 44.063,48.024C44.503,48.129 44.964,48.15 45.411,48.075C45.785,48.012 46.147,47.882 46.474,47.689C46.855,47.465 47.194,47.164 47.46,46.811C47.637,46.577 47.782,46.32 47.891,46.048C48.224,45.214 48.208,44.256 47.844,43.435C47.678,43.061 47.443,42.725 47.156,42.434L36.772,32.05C35.198,33.624 33.624,35.198 32.051,36.772Z" style="fill:rgb(255,140,0);fill-rule:nonzero;"/>
    </g>
</svg>
