<?xml version="1.0" encoding="UTF-8" standalone="no"?>
<!DOCTYPE svg PUBLIC "-//W3C//DTD SVG 1.1//EN" "http://www.w3.org/Graphics/SVG/1.1/DTD/svg11.dtd">
<svg width="100%" height="100%" viewBox="0 0 50 16" version="1.1" xmlns="http://www.w3.org/2000/svg" xmlns:xlink="http://www.w3.org/1999/xlink" xml:space="preserve" style="fill-rule:evenodd;clip-rule:evenodd;stroke-linejoin:round;stroke-miterlimit:1.41421;">
    <g transform="matrix(3.36568,0,0,3.36568,-0.00154184,0.000781101)">
        <path d="M11.868,1.912C11.871,1.4 11.88,0.888 11.896,0.375C11.91,0.219 12.004,0.082 12.153,0.026C12.191,0.011 12.23,0.004 12.27,0C12.295,0 12.294,0 12.319,0C12.402,0.008 12.474,0.035 12.541,0.084C13.293,0.709 14.026,1.356 14.739,2.025C14.773,2.061 14.801,2.099 14.822,2.144C14.891,2.298 14.853,2.471 14.739,2.592C14.026,3.261 13.293,3.908 12.541,4.533C12.495,4.567 12.446,4.592 12.39,4.606C12.222,4.647 12.042,4.572 11.953,4.424C11.919,4.368 11.902,4.307 11.896,4.242C11.88,3.731 11.871,3.219 11.868,2.708C8.03,2.723 4.223,2.709 0.4,2.709C0.326,2.705 0.258,2.69 0.194,2.651C0.028,2.552 -0.043,2.34 0.028,2.161C0.044,2.12 0.067,2.083 0.095,2.05C0.163,1.969 0.254,1.928 0.357,1.911C4.28,1.882 7.679,1.924 11.868,1.912ZM12.695,3.331L13.853,2.309L12.695,1.286C12.695,1.968 12.695,2.649 12.695,3.331Z" style="fill:#FF8B00;"/>
    </g>
</svg>
