<?xml version="1.0" encoding="UTF-8" standalone="no"?>
<!DOCTYPE svg PUBLIC "-//W3C//DTD SVG 1.1//EN" "http://www.w3.org/Graphics/SVG/1.1/DTD/svg11.dtd">
<svg width="100%" height="100%" viewBox="0 0 52 47" version="1.1" xmlns="http://www.w3.org/2000/svg" xmlns:xlink="http://www.w3.org/1999/xlink" xml:space="preserve" style="fill-rule:evenodd;clip-rule:evenodd;stroke-linejoin:round;stroke-miterlimit:1.41421;">
    <g transform="matrix(1.00503,0,0,1.00503,0.000153822,0.000285894)">
        <path d="M44.565,19.791C44.608,19.798 44.651,19.803 44.692,19.813C44.776,19.832 44.858,19.86 44.936,19.898C45.208,20.029 45.422,20.268 45.522,20.554C45.551,20.635 45.57,20.719 45.579,20.805C45.584,20.848 45.584,20.891 45.587,20.934L45.587,45.333C45.584,45.376 45.584,45.419 45.579,45.462C45.57,45.547 45.551,45.631 45.522,45.713C45.407,46.04 45.144,46.304 44.816,46.418C44.735,46.447 44.651,46.466 44.565,46.476C44.523,46.48 44.48,46.48 44.437,46.483L29.584,46.483C29.541,46.48 29.498,46.48 29.455,46.476C29.369,46.466 29.285,46.447 29.204,46.418C28.876,46.304 28.613,46.04 28.498,45.713C28.47,45.631 28.45,45.547 28.441,45.462C28.436,45.419 28.436,45.376 28.434,45.333L28.434,32.065L23.307,32.065L23.307,45.333C23.304,45.376 23.304,45.419 23.299,45.462C23.29,45.547 23.271,45.631 23.242,45.713C23.127,46.04 22.864,46.304 22.536,46.418C22.455,46.447 22.371,46.466 22.285,46.476C22.243,46.48 22.2,46.48 22.157,46.483L7.304,46.483C7.261,46.48 7.218,46.48 7.175,46.476C7.089,46.466 7.005,46.447 6.924,46.418C6.596,46.304 6.333,46.04 6.218,45.713C6.19,45.631 6.17,45.547 6.161,45.462C6.156,45.419 6.156,45.376 6.154,45.333L6.154,20.934C6.156,20.891 6.156,20.848 6.161,20.805C6.18,20.634 6.238,20.468 6.33,20.322C6.399,20.213 6.486,20.115 6.587,20.035C6.688,19.954 6.802,19.891 6.924,19.848C7.337,19.704 7.808,19.811 8.117,20.121C8.269,20.273 8.377,20.468 8.425,20.678C8.45,20.79 8.447,20.82 8.454,20.934L8.454,44.183L21.007,44.183L21.007,30.915C21.009,30.872 21.009,30.829 21.014,30.786C21.023,30.7 21.043,30.616 21.071,30.535C21.186,30.207 21.449,29.944 21.777,29.829C21.858,29.801 21.942,29.782 22.028,29.772C22.071,29.767 22.114,29.767 22.157,29.765L29.584,29.765C29.627,29.767 29.67,29.767 29.712,29.772C29.798,29.782 29.882,29.801 29.963,29.829C30.291,29.944 30.554,30.207 30.669,30.535C30.698,30.616 30.717,30.7 30.726,30.786C30.731,30.829 30.731,30.872 30.734,30.915L30.734,44.183L43.287,44.183L43.287,20.934C43.289,20.891 43.289,20.848 43.294,20.805C43.303,20.719 43.323,20.635 43.351,20.554C43.466,20.226 43.729,19.963 44.057,19.848C44.138,19.82 44.222,19.801 44.308,19.791C44.351,19.786 44.394,19.786 44.437,19.784C44.48,19.786 44.522,19.789 44.565,19.791Z" style="fill:rgb(255,140,0);fill-rule:nonzero;"/>
        <path d="M44.349,2.181C44.478,2.19 44.602,2.214 44.722,2.262C45.029,2.385 45.273,2.641 45.381,2.954C45.417,3.058 45.435,3.165 45.443,3.275C45.496,5.511 45.444,7.748 45.444,9.984C45.44,10.15 45.41,10.31 45.34,10.462C45.28,10.594 45.194,10.715 45.088,10.816C44.982,10.917 44.857,10.997 44.722,11.051C44.308,11.217 43.823,11.124 43.501,10.816C43.422,10.741 43.353,10.654 43.298,10.559C43.196,10.382 43.149,10.187 43.144,9.984L43.144,4.48L38.042,4.48C37.987,4.478 37.988,4.478 37.933,4.475C37.768,4.455 37.612,4.409 37.467,4.326C37.341,4.253 37.229,4.155 37.138,4.041C37.059,3.94 36.997,3.827 36.956,3.706C36.829,3.339 36.899,2.924 37.138,2.619C37.206,2.533 37.286,2.457 37.375,2.393C37.557,2.264 37.767,2.197 37.988,2.181C40.108,2.131 42.229,2.131 44.349,2.181Z" style="fill:rgb(255,140,0);fill-rule:nonzero;"/>
        <path d="M26.116,0.008C26.244,0.032 26.278,0.032 26.399,0.081C26.521,0.129 26.546,0.152 26.655,0.222L51.269,18.244C51.308,18.276 51.348,18.306 51.384,18.34C51.493,18.445 51.581,18.57 51.642,18.708C51.683,18.8 51.711,18.897 51.726,18.996C51.797,19.451 51.58,19.915 51.187,20.154C51.058,20.233 50.914,20.285 50.766,20.308C50.567,20.339 50.361,20.317 50.174,20.244C50.049,20.195 50.023,20.171 49.91,20.1L25.983,2.58L1.839,20.647L1.713,20.73C1.667,20.751 1.624,20.776 1.577,20.794C1.437,20.85 1.287,20.878 1.136,20.877C1.035,20.875 0.935,20.861 0.839,20.834C0.447,20.724 0.136,20.405 0.035,20.011C-0.002,19.865 -0.01,19.712 0.012,19.563C0.04,19.364 0.122,19.174 0.246,19.016C0.329,18.91 0.36,18.893 0.461,18.806L25.287,0.229C25.396,0.158 25.42,0.134 25.541,0.085C25.632,0.048 25.727,0.023 25.824,0.01C25.872,0.003 25.921,0.003 25.97,0C26.019,0.003 26.067,0.005 26.116,0.008Z" style="fill:rgb(255,140,0);fill-rule:nonzero;"/>
    </g>
</svg>
