<?xml version="1.0" encoding="UTF-8" standalone="no"?>
<!DOCTYPE svg PUBLIC "-//W3C//DTD SVG 1.1//EN" "http://www.w3.org/Graphics/SVG/1.1/DTD/svg11.dtd">
<svg width="100%" height="100%" viewBox="0 0 16 20" version="1.1" xmlns="http://www.w3.org/2000/svg" xmlns:xlink="http://www.w3.org/1999/xlink" xml:space="preserve" style="fill-rule:evenodd;clip-rule:evenodd;stroke-linejoin:round;stroke-miterlimit:1.41421;">
    <g transform="matrix(0.901814,0,0,0.901814,-2.30354,-1.58)">
        <path d="M18.075,1.794C18.317,1.803 18.555,1.845 18.782,1.928C19.374,2.145 19.856,2.615 20.087,3.201C20.183,3.444 20.232,3.7 20.242,3.96C20.315,9.724 20.315,15.489 20.242,21.253C20.232,21.495 20.19,21.732 20.107,21.96C19.89,22.552 19.42,23.033 18.834,23.265C18.591,23.361 18.336,23.409 18.075,23.419C13.642,23.475 9.208,23.475 4.775,23.419C4.515,23.409 4.26,23.361 4.017,23.265C3.431,23.033 2.961,22.552 2.744,21.96C2.66,21.732 2.618,21.495 2.609,21.253C2.536,15.489 2.536,9.724 2.609,3.96C2.619,3.7 2.667,3.444 2.763,3.201C2.995,2.615 3.476,2.145 4.068,1.928C4.296,1.845 4.534,1.803 4.775,1.794C9.208,1.738 13.642,1.738 18.075,1.794ZM13.378,18.464C12.077,18.497 10.776,18.5 9.474,18.492L9.474,21.81C10.775,21.81 12.076,21.805 13.378,21.799L13.378,18.464ZM4.228,18.442C4.237,19.358 4.242,20.274 4.242,21.19C4.242,21.213 4.243,21.234 4.245,21.257C4.271,21.479 4.419,21.673 4.63,21.75C4.69,21.772 4.753,21.783 4.817,21.786C5.825,21.798 6.833,21.805 7.841,21.808L7.841,18.477C6.636,18.464 5.432,18.447 4.228,18.442ZM18.639,13.795L15.011,13.795L15.011,21.792C16.012,21.789 17.013,21.786 18.013,21.786C18.035,21.786 18.057,21.785 18.079,21.783C18.301,21.757 18.495,21.609 18.573,21.398C18.595,21.338 18.606,21.275 18.608,21.211C18.64,18.739 18.644,16.267 18.639,13.795ZM7.841,16.714L7.841,13.795L4.174,13.795C4.185,14.79 4.198,15.785 4.21,16.78C5.42,16.744 6.63,16.722 7.841,16.714ZM13.378,16.779L13.378,13.795L9.474,13.795L9.474,16.712C10.776,16.718 12.077,16.74 13.378,16.779ZM7.841,12.124L7.841,9.15L4.147,9.15C4.144,10.153 4.149,11.156 4.157,12.16C5.385,12.156 6.613,12.141 7.841,12.124ZM18.622,9.15L15.011,9.15L15.011,12.062C16.219,12.069 17.427,12.089 18.634,12.131C18.631,11.137 18.626,10.143 18.622,9.15ZM13.378,12.061L13.378,9.15L9.474,9.15L9.474,12.101C10.775,12.082 12.077,12.066 13.378,12.061ZM18.616,7.485C18.611,6.331 18.608,5.177 18.608,4.022C18.608,4 18.607,3.978 18.605,3.956C18.58,3.734 18.432,3.54 18.221,3.463C18.161,3.441 18.098,3.43 18.034,3.427C13.635,3.372 9.236,3.427 4.838,3.427C4.766,3.428 4.697,3.438 4.63,3.463C4.408,3.544 4.258,3.752 4.243,3.986C4.198,5.162 4.172,6.338 4.158,7.514C8.977,7.497 13.8,7.318 18.616,7.485Z" style="fill:#ffffff"/>
    </g>
</svg>
