<?xml version="1.0" encoding="UTF-8" standalone="no"?>
<!DOCTYPE svg PUBLIC "-//W3C//DTD SVG 1.1//EN" "http://www.w3.org/Graphics/SVG/1.1/DTD/svg11.dtd">
<svg width="100%" height="100%" viewBox="0 0 30 30" version="1.1" xmlns="http://www.w3.org/2000/svg" xmlns:xlink="http://www.w3.org/1999/xlink" xml:space="preserve" style="fill-rule:evenodd;clip-rule:evenodd;stroke-linejoin:round;stroke-miterlimit:1.41421;">
    <g transform="matrix(1.00764,0,0,1.00764,0.00016602,-0.000397758)">
        <path d="M5.488,0.002C5.64,0.014 5.789,0.035 5.936,0.076C6.223,0.156 6.49,0.297 6.73,0.472C6.85,0.56 6.962,0.658 7.071,0.758C7.985,1.647 8.875,2.559 9.776,3.46C10.532,4.217 11.298,4.963 12.044,5.73C12.225,5.929 12.382,6.145 12.49,6.393C12.563,6.56 12.614,6.737 12.64,6.918C12.654,7.018 12.661,7.12 12.66,7.221C12.654,7.942 12.276,8.594 11.835,9.139C11.775,9.213 11.713,9.285 11.651,9.357C11.555,9.465 11.456,9.571 11.355,9.675C11.188,9.847 11.013,10.012 10.847,10.186C10.783,10.254 10.721,10.323 10.661,10.394C10.493,10.599 10.345,10.82 10.255,11.071C10.025,11.716 10.226,12.421 10.501,13.019C10.557,13.14 10.617,13.26 10.681,13.378C10.753,13.511 10.83,13.641 10.909,13.769C11.017,13.943 11.131,14.113 11.25,14.28C11.409,14.504 11.576,14.722 11.748,14.935C12.374,15.708 13.068,16.427 13.792,17.108C14.19,17.481 14.6,17.842 15.031,18.178C15.392,18.46 15.768,18.726 16.163,18.96C16.287,19.033 16.413,19.103 16.542,19.168C16.655,19.226 16.771,19.281 16.889,19.331C17.412,19.554 18.01,19.71 18.574,19.556C19.111,19.41 19.512,19.006 19.892,18.623C19.994,18.519 19.994,18.52 20.097,18.418C20.202,18.317 20.202,18.318 20.308,18.219C20.4,18.136 20.429,18.109 20.523,18.029C21.038,17.594 21.643,17.204 22.327,17.126C22.426,17.115 22.526,17.11 22.626,17.113C22.754,17.116 22.881,17.132 23.006,17.16C23.16,17.194 23.309,17.246 23.451,17.314C23.67,17.42 23.863,17.564 24.041,17.727C25.697,19.334 27.305,20.99 28.936,22.621C29.141,22.831 29.329,23.055 29.475,23.311C29.577,23.491 29.658,23.684 29.709,23.885C29.751,24.047 29.772,24.215 29.772,24.383C29.772,24.512 29.76,24.641 29.735,24.768C29.589,25.533 29.043,26.131 28.512,26.664C28.324,26.848 28.134,27.03 27.945,27.213C27.801,27.352 27.66,27.495 27.514,27.632C26.986,28.123 26.406,28.554 25.769,28.893C25.353,29.114 24.917,29.296 24.468,29.434C23.206,29.822 21.864,29.853 20.567,29.634C19.283,29.417 18.044,28.969 16.872,28.408C16.541,28.249 16.215,28.081 15.893,27.904C14.212,26.984 12.65,25.853 11.177,24.63C10.001,23.653 8.879,22.61 7.804,21.522C7.004,20.712 6.233,19.875 5.492,19.01C4.935,18.36 4.4,17.69 3.889,17.002C3.482,16.453 3.091,15.891 2.722,15.315C2.454,14.898 2.198,14.474 1.957,14.041C1.748,13.667 1.549,13.287 1.364,12.9C0.802,11.728 0.355,10.49 0.138,9.205C0.033,8.586 -0.017,7.956 0.005,7.328C0.03,6.585 0.155,5.845 0.391,5.139C0.541,4.691 0.734,4.257 0.966,3.845C1.323,3.211 1.771,2.637 2.277,2.115C2.556,1.832 2.829,1.544 3.107,1.26C3.598,0.771 4.138,0.273 4.822,0.08C4.976,0.036 5.131,0.014 5.291,0.002C5.389,0 5.389,0 5.488,0.002ZM5.372,1.666C5.238,1.675 5.114,1.742 5.004,1.813C4.777,1.959 4.581,2.147 4.389,2.333C4.175,2.547 3.966,2.767 3.756,2.985C3.642,3.104 3.524,3.22 3.41,3.338C3.012,3.757 2.66,4.217 2.382,4.724C2.217,5.025 2.079,5.341 1.97,5.666C1.9,5.878 1.841,6.094 1.796,6.313C1.49,7.774 1.754,9.294 2.242,10.685C2.331,10.937 2.427,11.185 2.529,11.431C2.656,11.735 2.793,12.035 2.938,12.33C3.113,12.685 3.299,13.035 3.495,13.378C4.363,14.902 5.409,16.321 6.534,17.664C7.445,18.75 8.412,19.788 9.42,20.784C10.201,21.556 11.009,22.3 11.844,23.014C12.42,23.508 13.013,23.984 13.62,24.44C14.138,24.828 14.666,25.201 15.208,25.553C15.644,25.837 16.089,26.108 16.543,26.361C16.887,26.554 17.236,26.736 17.592,26.906C17.887,27.048 18.187,27.181 18.49,27.304C18.687,27.384 18.886,27.459 19.087,27.529C20.478,28.018 21.998,28.281 23.459,27.976C23.7,27.926 23.938,27.86 24.17,27.78C24.495,27.667 24.81,27.524 25.11,27.356C25.617,27.07 26.075,26.71 26.493,26.305C26.773,26.029 27.058,25.758 27.339,25.482C27.419,25.402 27.456,25.366 27.533,25.285C27.713,25.096 27.896,24.896 28.02,24.663C28.078,24.555 28.127,24.429 28.098,24.304C28.056,24.126 27.924,23.976 27.804,23.845C26.183,22.181 24.59,20.485 22.876,18.918C22.809,18.86 22.734,18.805 22.646,18.785C22.534,18.761 22.415,18.794 22.312,18.835C22.081,18.926 21.873,19.077 21.681,19.232C21.596,19.301 21.513,19.374 21.431,19.448C21.342,19.529 21.255,19.613 21.17,19.698C21.045,19.824 20.921,19.95 20.795,20.074C20.728,20.138 20.661,20.2 20.593,20.262C20.261,20.554 19.901,20.812 19.495,20.991C19.297,21.078 19.092,21.147 18.881,21.196C18.723,21.232 18.562,21.257 18.399,21.27C17.381,21.355 16.383,20.992 15.507,20.503C15.344,20.412 15.184,20.316 15.027,20.216C14.822,20.086 14.622,19.948 14.425,19.806C14.171,19.622 13.923,19.429 13.681,19.229C13.154,18.796 12.652,18.333 12.166,17.853C11.81,17.501 11.462,17.14 11.126,16.768C10.865,16.477 10.61,16.18 10.367,15.874C10.178,15.636 9.995,15.393 9.821,15.143C9.708,14.981 9.599,14.815 9.495,14.647C9.398,14.492 9.305,14.333 9.218,14.172C8.711,13.238 8.358,12.164 8.536,11.093C8.569,10.895 8.62,10.7 8.687,10.512C8.854,10.045 9.124,9.625 9.446,9.252C9.671,8.992 9.921,8.758 10.162,8.514C10.244,8.428 10.244,8.428 10.325,8.341C10.398,8.259 10.471,8.177 10.54,8.091C10.696,7.899 10.846,7.692 10.937,7.46C10.979,7.353 11.014,7.229 10.983,7.114C10.959,7.021 10.897,6.943 10.832,6.873C10.098,6.117 9.343,5.383 8.598,4.638C7.708,3.747 6.829,2.846 5.927,1.968C5.837,1.885 5.743,1.805 5.636,1.744C5.582,1.713 5.524,1.686 5.463,1.673C5.432,1.668 5.403,1.665 5.372,1.666Z" style="fill:rgb(255,140,0);fill-rule:nonzero;"/>
    </g>
</svg>
