<?xml version="1.0" encoding="UTF-8" standalone="no"?>
<!DOCTYPE svg PUBLIC "-//W3C//DTD SVG 1.1//EN" "http://www.w3.org/Graphics/SVG/1.1/DTD/svg11.dtd">
<svg width="100%" height="100%" viewBox="0 0 50 72" version="1.1" xmlns="http://www.w3.org/2000/svg" xmlns:xlink="http://www.w3.org/1999/xlink" xml:space="preserve" style="fill-rule:evenodd;clip-rule:evenodd;stroke-linejoin:round;stroke-miterlimit:1.41421;">
    <g transform="matrix(0.922906,0,0,0.922906,0.115516,0.126733)">
        <g transform="matrix(1.95088,0,0,1.95088,-422.366,-151.819)">
            <path d="M241.478,77.822C241.571,77.825 241.663,77.831 241.755,77.843C241.957,77.869 242.156,77.917 242.347,77.988C242.719,78.125 243.059,78.343 243.339,78.623C243.619,78.903 243.838,79.244 243.975,79.615C244.045,79.807 244.094,80.006 244.12,80.208C244.131,80.3 244.137,80.392 244.141,80.485C244.287,91.894 244.142,103.305 244.142,114.716C244.141,114.807 244.137,114.898 244.128,114.989C244.107,115.193 244.063,115.393 243.997,115.587C243.869,115.962 243.659,116.308 243.385,116.595C243.112,116.882 242.777,117.108 242.41,117.254C242.199,117.337 241.979,117.394 241.755,117.423C241.663,117.435 241.571,117.44 241.478,117.444C234.062,117.539 226.646,117.445 219.23,117.445C219.138,117.444 219.047,117.44 218.956,117.431C218.753,117.41 218.552,117.366 218.358,117.3C218.003,117.18 217.675,116.985 217.397,116.733C217.088,116.452 216.844,116.101 216.691,115.713C216.607,115.503 216.55,115.282 216.522,115.058C216.51,114.966 216.504,114.874 216.501,114.781C216.355,103.372 216.5,91.96 216.5,80.55C216.501,80.459 216.505,80.367 216.514,80.276C216.535,80.073 216.579,79.872 216.644,79.679C216.772,79.303 216.983,78.957 217.257,78.67C217.53,78.384 217.865,78.157 218.232,78.012C218.443,77.928 218.663,77.872 218.887,77.843C218.98,77.831 219.072,77.825 219.165,77.822C226.602,77.727 234.041,77.727 241.478,77.822ZM219.239,79.321C219.093,79.323 218.95,79.345 218.813,79.396C218.474,79.52 218.199,79.795 218.075,80.134C218.028,80.259 218.005,80.39 218,80.523C217.854,91.929 217.854,103.337 218,114.743C218.005,114.876 218.028,115.007 218.075,115.132C218.199,115.471 218.474,115.745 218.813,115.87C218.938,115.916 219.069,115.939 219.203,115.944C226.614,116.039 234.028,116.039 241.44,115.944C241.573,115.939 241.704,115.916 241.829,115.87C242.158,115.749 242.427,115.486 242.556,115.16C242.609,115.026 242.636,114.886 242.641,114.743C242.787,103.337 242.787,91.929 242.641,80.523C242.636,80.39 242.613,80.259 242.567,80.134C242.446,79.805 242.183,79.535 241.857,79.406C241.723,79.353 241.583,79.327 241.44,79.321C234.04,79.227 226.64,79.321 219.239,79.321Z" style="fill:#FF8C00;fill-rule:nonzero;"/>
        </g>
        <g transform="matrix(1.95088,0,0,1.95088,-422.366,-151.819)">
            <path d="M227.248,82.723C227.507,82.728 227.765,82.747 228.021,82.786C228.541,82.866 229.048,83.019 229.525,83.242C230.071,83.497 230.574,83.841 231.01,84.257C231.445,84.672 231.813,85.157 232.094,85.689C232.348,86.172 232.531,86.692 232.634,87.228C232.749,87.829 232.764,88.449 232.679,89.056C232.6,89.621 232.433,90.174 232.185,90.689C231.894,91.291 231.494,91.84 231.01,92.302C230.509,92.78 229.918,93.163 229.277,93.425C228.611,93.697 227.895,93.836 227.176,93.836C226.457,93.836 225.741,93.697 225.075,93.425C224.434,93.163 223.843,92.78 223.342,92.302C222.858,91.84 222.458,91.291 222.167,90.689C221.919,90.174 221.752,89.621 221.673,89.056C221.588,88.449 221.603,87.829 221.718,87.228C221.821,86.692 222.004,86.172 222.258,85.689C222.539,85.157 222.907,84.672 223.342,84.257C223.778,83.841 224.281,83.497 224.827,83.242C225.304,83.019 225.811,82.866 226.331,82.786C226.587,82.747 226.845,82.728 227.104,82.723C227.176,82.722 227.176,82.722 227.248,82.723ZM227.121,84.023C226.922,84.026 226.724,84.041 226.527,84.071C226.13,84.132 225.742,84.25 225.377,84.42C224.555,84.804 223.866,85.453 223.432,86.251C223.233,86.617 223.089,87.012 223.006,87.421C222.908,87.898 222.893,88.393 222.96,88.875C223.021,89.308 223.149,89.731 223.338,90.124C223.561,90.586 223.868,91.007 224.239,91.361C224.623,91.727 225.076,92.021 225.567,92.222C226.077,92.43 226.626,92.536 227.176,92.536C227.726,92.536 228.275,92.43 228.785,92.222C229.276,92.021 229.729,91.727 230.113,91.361C230.484,91.007 230.791,90.586 231.014,90.124C231.203,89.731 231.331,89.308 231.392,88.875C231.459,88.393 231.444,87.898 231.346,87.421C231.263,87.012 231.119,86.617 230.92,86.251C230.486,85.453 229.797,84.804 228.975,84.42C228.61,84.25 228.222,84.132 227.825,84.071C227.628,84.041 227.43,84.026 227.231,84.023C227.176,84.022 227.176,84.022 227.121,84.023Z" style="fill:#FF8C00;fill-rule:nonzero;"/>
        </g>
        <g transform="matrix(1.95088,0,0,1.95088,-422.366,-151.819)">
            <path d="M234.161,80.703C234.218,80.711 234.272,80.72 234.326,80.74C234.505,80.805 234.65,80.95 234.715,81.129C234.734,81.182 234.747,81.238 234.752,81.294C234.753,81.313 234.753,81.332 234.754,81.351L234.754,95.208C234.753,95.227 234.753,95.246 234.752,95.265C234.747,95.321 234.734,95.377 234.715,95.43C234.65,95.609 234.505,95.754 234.326,95.819C234.273,95.838 234.217,95.851 234.161,95.856C234.142,95.857 234.123,95.857 234.104,95.858L220.247,95.858C220.228,95.857 220.209,95.857 220.19,95.856C220.134,95.851 220.078,95.838 220.025,95.819C219.846,95.754 219.701,95.609 219.636,95.43C219.617,95.377 219.604,95.321 219.599,95.265C219.598,95.246 219.598,95.227 219.597,95.208L219.597,81.351C219.598,81.332 219.598,81.313 219.599,81.294C219.604,81.238 219.617,81.182 219.636,81.129C219.701,80.95 219.846,80.805 220.025,80.74C220.078,80.721 220.134,80.708 220.19,80.703C220.209,80.702 220.228,80.702 220.247,80.701C224.885,80.701 229.527,80.501 234.161,80.703ZM220.897,82.001L220.897,94.558L233.454,94.558L233.454,82.001C229.268,82.001 225.083,82.001 220.897,82.001Z" style="fill:#FF8C00;fill-rule:nonzero;"/>
        </g>
        <g transform="matrix(1.95088,0,0,1.95088,-422.366,-151.819)">
            <path d="M227.221,86.529C227.295,86.532 227.368,86.537 227.442,86.548C227.627,86.577 227.807,86.635 227.973,86.72C228.312,86.893 228.589,87.177 228.754,87.52C228.829,87.676 228.881,87.842 228.907,88.013C228.934,88.189 228.934,88.369 228.907,88.545C228.881,88.716 228.829,88.883 228.754,89.039C228.662,89.229 228.537,89.401 228.384,89.547C228.231,89.692 228.052,89.81 227.858,89.892C227.642,89.983 227.41,90.03 227.176,90.03C226.942,90.03 226.709,89.983 226.494,89.892C226.3,89.81 226.121,89.692 225.968,89.547C225.815,89.401 225.689,89.229 225.598,89.039C225.523,88.883 225.471,88.716 225.445,88.545C225.418,88.369 225.418,88.189 225.445,88.013C225.471,87.842 225.523,87.676 225.598,87.52C225.763,87.177 226.04,86.893 226.378,86.72C226.545,86.635 226.725,86.577 226.91,86.548C226.983,86.537 227.057,86.532 227.131,86.529C227.176,86.528 227.176,86.528 227.221,86.529ZM227.164,87.829C227.097,87.831 227.031,87.847 226.971,87.877C226.803,87.964 226.705,88.15 226.729,88.338C226.734,88.381 226.746,88.424 226.764,88.465C226.787,88.514 226.819,88.56 226.857,88.598C226.896,88.637 226.941,88.668 226.991,88.691C227.045,88.715 227.104,88.729 227.164,88.73C227.224,88.732 227.285,88.721 227.341,88.699C227.392,88.679 227.439,88.65 227.479,88.613C227.519,88.577 227.553,88.533 227.578,88.484C227.598,88.445 227.612,88.403 227.62,88.36C227.653,88.173 227.564,87.982 227.4,87.888C227.342,87.854 227.278,87.836 227.211,87.83C227.195,87.829 227.18,87.828 227.164,87.829Z" style="fill:#FF8C00;fill-rule:nonzero;"/>
        </g>
        <g transform="matrix(1.95088,0,0,1.95088,-422.366,-151.819)">
            <path d="M227.248,101.43C227.507,101.435 227.765,101.454 228.021,101.493C228.541,101.573 229.048,101.726 229.525,101.949C230.071,102.204 230.574,102.548 231.01,102.964C231.445,103.379 231.813,103.864 232.094,104.396C232.348,104.879 232.531,105.399 232.634,105.935C232.749,106.536 232.764,107.156 232.679,107.763C232.6,108.328 232.433,108.881 232.185,109.396C231.894,109.998 231.494,110.547 231.01,111.009C230.509,111.487 229.918,111.87 229.277,112.132C228.611,112.404 227.895,112.543 227.176,112.543C226.457,112.543 225.741,112.404 225.075,112.132C224.434,111.87 223.843,111.487 223.342,111.009C222.858,110.547 222.458,109.998 222.167,109.396C221.919,108.881 221.752,108.328 221.673,107.763C221.588,107.156 221.603,106.536 221.718,105.935C221.821,105.399 222.004,104.879 222.258,104.396C222.539,103.864 222.907,103.379 223.342,102.964C223.778,102.548 224.281,102.204 224.827,101.949C225.304,101.726 225.811,101.573 226.331,101.493C226.587,101.454 226.845,101.435 227.104,101.43C227.176,101.429 227.176,101.429 227.248,101.43ZM227.121,102.73C226.922,102.733 226.724,102.748 226.527,102.778C226.13,102.839 225.742,102.957 225.377,103.127C224.555,103.511 223.866,104.16 223.432,104.958C223.233,105.324 223.089,105.719 223.006,106.128C222.908,106.605 222.893,107.1 222.96,107.582C223.021,108.015 223.149,108.438 223.338,108.831C223.561,109.293 223.868,109.714 224.239,110.068C224.623,110.434 225.076,110.728 225.567,110.929C226.077,111.137 226.626,111.243 227.176,111.243C227.726,111.243 228.275,111.137 228.785,110.929C229.276,110.728 229.729,110.434 230.113,110.068C230.484,109.714 230.791,109.293 231.014,108.831C231.203,108.438 231.331,108.015 231.392,107.582C231.459,107.1 231.444,106.605 231.346,106.128C231.263,105.719 231.119,105.324 230.92,104.958C230.486,104.16 229.797,103.511 228.975,103.127C228.61,102.957 228.222,102.839 227.825,102.778C227.628,102.748 227.43,102.733 227.231,102.73C227.176,102.729 227.176,102.729 227.121,102.73Z" style="fill:#FF8C00;fill-rule:nonzero;"/>
        </g>
        <g transform="matrix(1.95088,0,0,1.95088,-422.366,-151.819)">
            <path d="M234.161,99.41C234.179,99.413 234.198,99.415 234.217,99.418C234.273,99.428 234.327,99.445 234.379,99.469C234.551,99.549 234.683,99.706 234.732,99.89C234.747,99.946 234.751,100.001 234.754,100.058L234.754,113.915C234.753,113.934 234.753,113.953 234.752,113.972C234.747,114.028 234.734,114.084 234.715,114.137C234.65,114.316 234.505,114.461 234.326,114.526C234.273,114.545 234.217,114.558 234.161,114.563C234.142,114.564 234.123,114.564 234.104,114.565L220.247,114.565C220.228,114.564 220.209,114.564 220.19,114.563C220.134,114.558 220.078,114.545 220.025,114.526C219.846,114.461 219.701,114.316 219.636,114.137C219.617,114.084 219.604,114.028 219.599,113.972C219.598,113.953 219.598,113.934 219.597,113.915L219.597,100.058C219.598,100.039 219.598,100.02 219.599,100.001C219.604,99.945 219.617,99.889 219.636,99.836C219.701,99.657 219.846,99.512 220.025,99.447C220.078,99.428 220.134,99.415 220.19,99.41C220.209,99.409 220.228,99.409 220.247,99.408C224.885,99.408 229.527,99.208 234.161,99.41ZM220.897,100.708L220.897,113.265L233.454,113.265L233.454,100.708C229.268,100.708 225.083,100.708 220.897,100.708Z" style="fill:#FF8C00;fill-rule:nonzero;"/>
        </g>
        <g transform="matrix(1.95088,0,0,1.95088,-422.366,-151.819)">
            <path d="M227.221,105.236C227.295,105.239 227.368,105.244 227.442,105.255C227.627,105.284 227.807,105.342 227.973,105.427C228.312,105.601 228.589,105.884 228.754,106.227C228.829,106.383 228.881,106.549 228.907,106.72C228.934,106.896 228.934,107.076 228.907,107.252C228.881,107.423 228.829,107.59 228.754,107.746C228.662,107.936 228.537,108.108 228.384,108.254C228.231,108.399 228.052,108.517 227.858,108.599C227.642,108.69 227.41,108.737 227.176,108.737C226.942,108.737 226.709,108.69 226.494,108.599C226.3,108.517 226.121,108.399 225.968,108.254C225.815,108.108 225.689,107.936 225.598,107.746C225.523,107.59 225.471,107.423 225.445,107.252C225.418,107.076 225.418,106.896 225.445,106.72C225.471,106.549 225.523,106.383 225.598,106.227C225.763,105.884 226.04,105.601 226.378,105.427C226.545,105.342 226.725,105.284 226.91,105.255C226.983,105.244 227.057,105.239 227.131,105.236C227.176,105.235 227.176,105.235 227.221,105.236ZM227.164,106.536C227.097,106.538 227.031,106.554 226.971,106.584C226.803,106.671 226.705,106.857 226.729,107.045C226.734,107.088 226.746,107.131 226.764,107.172C226.787,107.221 226.819,107.267 226.857,107.305C226.896,107.344 226.941,107.375 226.991,107.398C227.045,107.422 227.104,107.436 227.164,107.437C227.224,107.439 227.285,107.428 227.341,107.406C227.392,107.386 227.439,107.357 227.479,107.32C227.519,107.284 227.553,107.24 227.578,107.191C227.598,107.152 227.612,107.11 227.62,107.067C227.653,106.88 227.564,106.689 227.4,106.595C227.342,106.561 227.278,106.543 227.211,106.537C227.195,106.536 227.18,106.535 227.164,106.536Z" style="fill:#FF8C00;fill-rule:nonzero;"/>
        </g>
        <g transform="matrix(1.95088,0,0,1.95088,-422.366,-151.819)">
            <path d="M239.348,91.072C239.372,91.078 239.397,91.082 239.421,91.089C239.47,91.104 239.516,91.124 239.56,91.149C239.714,91.238 239.826,91.389 239.867,91.562C239.883,91.628 239.881,91.645 239.885,91.712L239.885,113.845C239.883,113.87 239.883,113.895 239.881,113.92C239.872,113.996 239.85,114.069 239.816,114.137C239.782,114.204 239.736,114.266 239.681,114.318C239.494,114.494 239.213,114.543 238.977,114.442C238.908,114.412 238.844,114.37 238.789,114.318C238.697,114.231 238.632,114.118 238.602,113.995C238.587,113.929 238.589,113.912 238.585,113.845L238.585,91.712C238.586,91.687 238.586,91.661 238.589,91.636C238.595,91.586 238.607,91.537 238.624,91.49C238.694,91.298 238.853,91.148 239.048,91.089C239.097,91.075 239.147,91.066 239.197,91.063C239.222,91.062 239.247,91.063 239.273,91.063C239.298,91.066 239.323,91.069 239.348,91.072Z" style="fill:#FF8C00;fill-rule:nonzero;"/>
        </g>
    </g>
</svg>
