<?xml version="1.0" standalone="no"?>
<!-- Generator: Adobe Fireworks 10, Export SVG Extension by Aaron Beall (http://fireworks.abeall.com) . Version: 0.6.0  -->
<!DOCTYPE svg PUBLIC "-//W3C//DTD SVG 1.1//EN" "http://www.w3.org/Graphics/SVG/1.1/DTD/svg11.dtd">
<svg id="" viewBox="0 0 19 18" style="background-color:#ffffff00" version="1.1"
	xmlns="http://www.w3.org/2000/svg" xmlns:xlink="http://www.w3.org/1999/xlink" xml:space="preserve"
	x="0px" y="0px" width="19px" height="18px"
>
	<g id="Vrstva%201">
		<path d="M 5 0 L 15 0 C 17.2092 0 19 1.7908 19 4 L 19 14 C 19 16.2092 17.2092 18 15 18 L 5 18 C 2.7908 18 1 16.2092 1 14 L 1 4 C 1 1.7908 2.7908 0 5 0 Z" fill="#ff8b00"/>
		<path d="M 6.1111 2 L 13.8889 2 C 15.6071 2 17 3.3929 17 5.1111 L 17 12.8889 C 17 14.6071 15.6071 16 13.8889 16 L 6.1111 16 C 4.3929 16 3 14.6071 3 12.8889 L 3 5.1111 C 3 3.3929 4.3929 2 6.1111 2 Z" fill="#ffffff"/>
		<path d="M 13.7785 5.748 C 13.8862 5.7584 13.987 5.7862 14.0809 5.8401 C 14.3363 5.9878 14.4719 6.2902 14.4128 6.5787 C 14.3919 6.6847 14.345 6.7785 14.2824 6.8654 C 12.5811 8.923 10.8119 10.9268 8.982 12.8697 C 8.9264 12.9218 8.8673 12.9653 8.7978 13 C 8.6066 13.0939 8.3772 13.0939 8.186 13 C 8.1165 12.9653 8.0574 12.9218 8.0018 12.8697 C 7.1624 11.9782 6.3509 11.0589 5.5706 10.1152 C 5.508 10.0283 5.4611 9.9345 5.4402 9.8285 C 5.4228 9.7398 5.4211 9.6477 5.4385 9.5573 C 5.5149 9.1681 5.9164 8.9178 6.2987 9.0186 C 6.4343 9.0551 6.5472 9.1298 6.6428 9.2306 L 8.4919 11.3248 C 10.0751 9.533 11.6009 7.6874 13.2415 5.9478 C 13.2762 5.9165 13.3092 5.8887 13.3475 5.8627 C 13.4274 5.8123 13.5074 5.7792 13.5977 5.7584 C 13.6586 5.7497 13.7176 5.7462 13.7785 5.748 L 13.7785 5.748 Z" fill="#ff8c00"/>
	</g>
</svg>