<?xml version="1.0" encoding="UTF-8" standalone="no"?>
<!DOCTYPE svg PUBLIC "-//W3C//DTD SVG 1.1//EN" "http://www.w3.org/Graphics/SVG/1.1/DTD/svg11.dtd">
<svg width="100%" height="100%" viewBox="0 0 19 18" version="1.1" xmlns="http://www.w3.org/2000/svg" xmlns:xlink="http://www.w3.org/1999/xlink" xml:space="preserve" style="fill-rule:evenodd;clip-rule:evenodd;stroke-linejoin:round;stroke-miterlimit:1.41421;">
    <g transform="matrix(1.00001,0,0,1.00001,0.000140856,-0.000162697)">
        <path d="M9.116,0.001C9.536,0.009 9.954,0.04 10.369,0.104C11.21,0.232 12.032,0.482 12.803,0.842C14.641,1.7 16.16,3.184 17.063,5.001C17.441,5.76 17.71,6.573 17.859,7.409C18.027,8.347 18.045,9.313 17.913,10.257C17.784,11.173 17.513,12.068 17.111,12.901C16.641,13.877 15.993,14.766 15.208,15.514C14.396,16.288 13.44,16.909 12.401,17.334C11.324,17.774 10.163,18 9,18C7.837,18 6.676,17.774 5.599,17.334C4.56,16.909 3.604,16.288 2.792,15.514C2.007,14.766 1.359,13.877 0.889,12.901C0.487,12.068 0.216,11.173 0.087,10.257C-0.045,9.313 -0.027,8.347 0.141,7.409C0.29,6.573 0.559,5.76 0.937,5.001C1.84,3.184 3.359,1.7 5.197,0.842C5.968,0.482 6.79,0.232 7.631,0.104C8.046,0.04 8.464,0.009 8.884,0.001C9,0 9,0 9.116,0.001ZM8.909,2.001C8.582,2.007 8.257,2.031 7.934,2.081C7.281,2.181 6.642,2.374 6.044,2.654C4.691,3.286 3.558,4.354 2.845,5.666C2.518,6.268 2.28,6.918 2.142,7.589C1.988,8.345 1.959,9.127 2.056,9.892C2.147,10.606 2.349,11.304 2.654,11.956C3.011,12.72 3.508,13.418 4.111,14.008C4.736,14.617 5.473,15.11 6.277,15.45C7.109,15.802 8.007,15.988 8.909,15.999C9.816,16.011 10.722,15.847 11.565,15.515C12.378,15.194 13.128,14.719 13.767,14.124C14.384,13.549 14.897,12.864 15.273,12.109C15.592,11.467 15.811,10.775 15.919,10.066C16.036,9.303 16.026,8.521 15.891,7.761C15.77,7.084 15.548,6.427 15.234,5.815C14.553,4.487 13.446,3.392 12.109,2.727C11.519,2.434 10.888,2.225 10.239,2.109C9.919,2.052 9.596,2.02 9.271,2.005C9.15,2.001 9.03,2 8.909,2.001Z" style="fill:rgb(255,139,0);fill-rule:nonzero;"/>
    </g>
    <g id="CHECKBOX" transform="matrix(0.9375,0,0,0.9375,0.562711,0.5625)">
        <circle cx="9" cy="9" r="8" style="fill:white;"/>
    </g>
</svg>
