<?xml version="1.0" standalone="no"?>
<!-- Generator: Adobe Fireworks 10, Export SVG Extension by Aaron Beall (http://fireworks.abeall.com) . Version: 0.6.0  -->
<!DOCTYPE svg PUBLIC "-//W3C//DTD SVG 1.1//EN" "http://www.w3.org/Graphics/SVG/1.1/DTD/svg11.dtd">
<svg id="" viewBox="0 0 19 18" style="background-color:#ffffff00" version="1.1"
	xmlns="http://www.w3.org/2000/svg" xmlns:xlink="http://www.w3.org/1999/xlink" xml:space="preserve"
	x="0px" y="0px" width="19px" height="18px"
>
	<g id="Vrstva%201">
		<path d="M 5 0 L 15 0 C 17.2092 0 19 1.7908 19 4 L 19 14 C 19 16.2092 17.2092 18 15 18 L 5 18 C 2.7908 18 1 16.2092 1 14 L 1 4 C 1 1.7908 2.7908 0 5 0 Z" fill="#ff8b00"/>
		<path d="M 6.1111 2 L 13.8889 2 C 15.6071 2 17 3.3929 17 5.1111 L 17 12.8889 C 17 14.6071 15.6071 16 13.8889 16 L 6.1111 16 C 4.3929 16 3 14.6071 3 12.8889 L 3 5.1111 C 3 3.3929 4.3929 2 6.1111 2 Z" fill="#ffffff"/>
	</g>
</svg>