<?xml version="1.0" encoding="UTF-8" standalone="no"?>
<!DOCTYPE svg PUBLIC "-//W3C//DTD SVG 1.1//EN" "http://www.w3.org/Graphics/SVG/1.1/DTD/svg11.dtd">
<svg width="100%" height="100%" viewBox="0 0 84 51" version="1.1" xmlns="http://www.w3.org/2000/svg" xmlns:xlink="http://www.w3.org/1999/xlink" xml:space="preserve" style="fill-rule:evenodd;clip-rule:evenodd;stroke-linejoin:round;stroke-miterlimit:1.41421;">
    <g transform="matrix(2.96338,0,0,2.96338,-7.48557e-05,0.149314)">
        <path d="M2.97,4.253C2.969,3.886 2.967,3.519 2.972,3.152C2.986,2.8 3.047,2.456 3.168,2.125C3.494,1.24 4.21,0.523 5.095,0.197C5.426,0.076 5.771,0.015 6.122,0.001C11.489,-0.068 16.857,-0.068 22.223,0.001C22.601,0.016 22.972,0.086 23.324,0.226C24.176,0.563 24.861,1.265 25.178,2.125C25.299,2.455 25.361,2.8 25.374,3.152C25.379,3.519 25.377,3.886 25.376,4.254C25.42,4.254 25.463,4.255 25.507,4.257C25.929,4.283 26.339,4.387 26.716,4.581C27.058,4.756 27.365,4.997 27.616,5.287C27.853,5.561 28.04,5.877 28.164,6.217C28.276,6.522 28.337,6.844 28.345,7.169C28.353,7.496 28.309,7.824 28.211,8.136C27.945,8.994 27.286,9.702 26.451,10.031C26.105,10.167 25.739,10.234 25.368,10.239L25.368,12.576C25.364,12.727 25.345,12.873 25.3,13.018C25.169,13.436 24.853,13.785 24.449,13.956C24.286,14.025 24.117,14.06 23.941,14.073C23.882,14.075 23.824,14.076 23.765,14.077C23.77,14.649 23.759,15.22 23.759,15.791C23.754,15.988 23.709,16.178 23.615,16.352C23.408,16.73 23.002,16.973 22.571,16.973C22.451,16.973 22.332,16.955 22.218,16.919C22.071,16.873 21.934,16.799 21.816,16.701C21.699,16.604 21.6,16.485 21.528,16.352C21.442,16.194 21.399,16.024 21.385,15.847C21.37,15.273 21.344,14.697 21.36,14.123C16.564,14.187 11.766,14.107 6.969,14.082C6.974,14.651 6.962,15.221 6.962,15.791C6.958,15.969 6.922,16.14 6.844,16.301C6.648,16.707 6.226,16.973 5.774,16.973C5.655,16.973 5.535,16.955 5.421,16.919C5.275,16.874 5.137,16.799 5.019,16.701C4.902,16.604 4.803,16.485 4.73,16.352C4.645,16.194 4.601,16.024 4.588,15.847C4.573,15.257 4.545,14.665 4.564,14.075C4.535,14.075 4.505,14.075 4.476,14.075C4.3,14.07 4.13,14.044 3.964,13.983C3.529,13.823 3.183,13.46 3.045,13.018C3,12.873 2.981,12.727 2.977,12.576L2.977,10.239C2.906,10.238 2.835,10.235 2.763,10.23C2.688,10.224 2.688,10.224 2.612,10.215C2.44,10.191 2.27,10.156 2.103,10.104C1.688,9.975 1.302,9.754 0.98,9.461C0.587,9.104 0.292,8.643 0.135,8.136C-0.008,7.679 -0.037,7.188 0.047,6.717C0.094,6.451 0.178,6.191 0.295,5.948C0.62,5.274 1.199,4.735 1.895,4.461C2.173,4.351 2.466,4.284 2.763,4.262C2.832,4.256 2.901,4.253 2.97,4.253ZM5.386,14.076C5.386,14.659 5.344,15.244 5.388,15.825C5.392,15.851 5.397,15.875 5.404,15.9C5.422,15.954 5.449,16.003 5.487,16.045C5.597,16.165 5.774,16.206 5.924,16.142C5.964,16.125 6.002,16.101 6.034,16.072C6.071,16.038 6.102,15.997 6.124,15.952C6.15,15.898 6.161,15.841 6.162,15.781L6.162,14.078C5.904,14.077 5.645,14.076 5.386,14.076ZM22.959,14.096C22.7,14.101 22.442,14.106 22.184,14.11C22.182,14.682 22.142,15.255 22.186,15.825C22.189,15.851 22.194,15.875 22.201,15.9C22.219,15.954 22.246,16.003 22.285,16.045C22.394,16.165 22.571,16.206 22.721,16.142C22.761,16.125 22.799,16.101 22.831,16.072C22.868,16.038 22.899,15.997 22.921,15.952C22.947,15.898 22.957,15.841 22.959,15.781L22.959,14.096ZM3.232,5.066C3.172,5.059 3.111,5.055 3.05,5.054C2.756,5.046 2.462,5.097 2.189,5.205C1.926,5.309 1.684,5.464 1.48,5.658C1.289,5.841 1.131,6.057 1.016,6.295C0.914,6.506 0.847,6.734 0.818,6.966C0.785,7.224 0.798,7.488 0.856,7.741C1.017,8.438 1.525,9.025 2.189,9.287C2.453,9.391 2.744,9.448 3.028,9.438C3.125,9.435 3.222,9.419 3.318,9.404L3.381,9.4C3.436,9.405 3.45,9.403 3.503,9.42C3.623,9.46 3.719,9.557 3.758,9.677C3.775,9.73 3.773,9.745 3.777,9.8C3.777,10.736 3.754,11.672 3.778,12.607C3.783,12.677 3.795,12.745 3.82,12.811C3.887,12.993 4.03,13.144 4.209,13.22C4.285,13.252 4.363,13.268 4.445,13.274C4.597,13.278 4.749,13.282 4.901,13.285C4.922,13.28 4.944,13.277 4.965,13.275C5.504,13.261 6.044,13.261 6.583,13.275C6.644,13.28 6.703,13.298 6.755,13.326C11.698,13.422 16.645,13.422 21.588,13.326C21.605,13.317 21.622,13.308 21.64,13.301C21.68,13.286 21.721,13.279 21.763,13.275C22.302,13.261 22.841,13.261 23.38,13.275C23.403,13.277 23.425,13.28 23.448,13.285C23.598,13.281 23.749,13.278 23.9,13.274C23.982,13.268 24.06,13.252 24.136,13.22C24.315,13.144 24.458,12.993 24.525,12.811C24.55,12.745 24.562,12.677 24.567,12.607C24.591,11.672 24.568,10.736 24.568,9.8C24.572,9.745 24.57,9.73 24.587,9.677C24.626,9.557 24.722,9.46 24.842,9.42C24.895,9.403 24.909,9.405 24.964,9.4C25.042,9.405 25.042,9.406 25.119,9.418C25.185,9.427 25.251,9.436 25.318,9.438C25.531,9.446 25.749,9.414 25.954,9.356C26.21,9.283 26.452,9.163 26.665,9.003C26.876,8.845 27.058,8.65 27.201,8.428C27.326,8.233 27.419,8.018 27.477,7.794C27.528,7.597 27.55,7.393 27.545,7.189C27.54,6.969 27.501,6.751 27.431,6.543C27.255,6.022 26.88,5.579 26.398,5.317C26.128,5.171 25.828,5.083 25.522,5.059C25.385,5.049 25.247,5.051 25.11,5.066C25.06,5.084 25.008,5.091 24.955,5.089C24.817,5.114 24.68,5.153 24.549,5.205C24.187,5.347 23.867,5.587 23.627,5.892C23.418,6.158 23.272,6.472 23.205,6.803C23.179,6.931 23.166,7.059 23.161,7.189C23.155,7.644 23.153,8.098 23.153,8.553C23.161,8.601 23.161,8.649 23.153,8.697C23.153,9.62 23.16,10.543 23.16,11.466C23.156,11.521 23.158,11.536 23.14,11.59C23.101,11.71 23.004,11.807 22.884,11.846C22.83,11.864 22.815,11.862 22.76,11.866L5.586,11.866C5.531,11.862 5.516,11.864 5.462,11.846C5.342,11.807 5.245,11.71 5.206,11.59C5.188,11.536 5.19,11.521 5.186,11.466C5.186,10.544 5.193,9.623 5.193,8.701C5.184,8.652 5.184,8.602 5.193,8.554C5.193,8.099 5.191,7.644 5.185,7.189C5.18,7.059 5.167,6.931 5.141,6.804C5.074,6.472 4.927,6.158 4.718,5.892C4.512,5.629 4.245,5.414 3.943,5.269C3.768,5.185 3.582,5.124 3.391,5.089C3.338,5.092 3.284,5.085 3.232,5.066ZM22.354,9.025L5.986,9.025L5.986,11.066L22.36,11.066C22.36,10.386 22.356,9.705 22.354,9.025ZM24.576,4.355C24.577,3.961 24.579,3.567 24.574,3.172C24.564,2.908 24.518,2.649 24.427,2.401C24.188,1.753 23.671,1.224 23.029,0.969C22.765,0.865 22.487,0.812 22.203,0.801C16.85,0.732 11.495,0.732 6.142,0.801C5.859,0.812 5.58,0.865 5.316,0.969C4.674,1.224 4.157,1.753 3.919,2.401C3.828,2.649 3.782,2.908 3.772,3.172C3.767,3.567 3.769,3.961 3.77,4.355C4.019,4.422 4.26,4.521 4.483,4.65C5.155,5.036 5.661,5.681 5.872,6.427C5.927,6.619 5.962,6.817 5.977,7.016C5.983,7.09 5.991,7.169 5.986,7.244L5.986,7.247L5.986,8.224C11.442,8.209 16.909,7.88 22.354,8.2C22.354,7.856 22.357,7.513 22.361,7.169C22.364,7.092 22.364,7.093 22.369,7.016C22.395,6.718 22.458,6.427 22.568,6.148C22.878,5.359 23.527,4.726 24.324,4.435C24.407,4.404 24.491,4.378 24.576,4.355ZM13.749,3.435C13.752,3.284 13.76,3.133 13.775,2.983C13.781,2.941 13.792,2.9 13.81,2.861C13.872,2.727 14.003,2.643 14.148,2.631C14.165,2.63 14.164,2.63 14.18,2.63C14.228,2.632 14.275,2.641 14.32,2.659C14.468,2.717 14.563,2.858 14.572,3.014C14.575,3.154 14.579,3.295 14.584,3.435C14.722,3.436 14.861,3.438 14.999,3.441C15.057,3.445 15.114,3.458 15.167,3.486C15.214,3.51 15.256,3.544 15.29,3.584C15.32,3.621 15.344,3.663 15.36,3.708C15.424,3.889 15.347,4.094 15.181,4.189C15.124,4.22 15.063,4.237 14.999,4.241C14.865,4.243 14.73,4.248 14.596,4.252C14.592,4.401 14.584,4.55 14.569,4.699C14.561,4.757 14.543,4.813 14.512,4.863C14.484,4.908 14.447,4.947 14.404,4.978C14.365,5.005 14.321,5.026 14.275,5.038C14.101,5.084 13.913,5.005 13.825,4.849C13.793,4.793 13.776,4.731 13.773,4.667C13.77,4.533 13.766,4.399 13.761,4.264C13.612,4.261 13.463,4.253 13.315,4.238C13.252,4.229 13.191,4.208 13.138,4.172C12.99,4.071 12.926,3.878 12.985,3.708C13.001,3.663 13.025,3.621 13.056,3.584C13.09,3.544 13.132,3.51 13.179,3.486C13.232,3.458 13.288,3.445 13.347,3.441C13.481,3.439 13.615,3.437 13.749,3.435ZM18.947,3.435C18.951,3.284 18.958,3.133 18.973,2.983C18.994,2.838 19.086,2.713 19.223,2.659C19.263,2.643 19.304,2.635 19.347,2.631C19.363,2.63 19.363,2.63 19.379,2.63C19.536,2.637 19.678,2.729 19.739,2.875C19.758,2.92 19.767,2.967 19.77,3.014C19.773,3.154 19.778,3.295 19.782,3.435C19.921,3.436 20.059,3.438 20.197,3.441C20.256,3.445 20.312,3.458 20.365,3.486C20.412,3.51 20.454,3.544 20.488,3.584C20.519,3.621 20.543,3.663 20.558,3.708C20.622,3.889 20.545,4.094 20.379,4.189C20.323,4.22 20.261,4.237 20.197,4.241C20.063,4.243 19.928,4.248 19.794,4.252C19.79,4.401 19.783,4.55 19.768,4.699C19.76,4.757 19.741,4.813 19.71,4.863C19.682,4.908 19.645,4.947 19.602,4.978C19.563,5.005 19.519,5.026 19.473,5.038C19.299,5.084 19.112,5.005 19.023,4.849C18.991,4.793 18.975,4.731 18.971,4.667C18.968,4.533 18.964,4.399 18.959,4.264C18.81,4.261 18.662,4.253 18.513,4.238C18.455,4.23 18.4,4.212 18.35,4.18C18.305,4.152 18.265,4.115 18.235,4.072C18.207,4.033 18.186,3.989 18.174,3.943C18.128,3.77 18.207,3.582 18.363,3.493C18.419,3.461 18.481,3.445 18.545,3.441C18.679,3.439 18.813,3.437 18.947,3.435ZM8.551,3.435C8.555,3.284 8.562,3.133 8.577,2.983C8.598,2.838 8.69,2.713 8.827,2.659C8.867,2.643 8.908,2.635 8.951,2.631C8.967,2.63 8.966,2.63 8.983,2.63C9.031,2.632 9.077,2.641 9.122,2.659C9.27,2.717 9.365,2.858 9.374,3.014C9.377,3.154 9.382,3.295 9.386,3.435C9.525,3.436 9.663,3.438 9.801,3.441C9.86,3.445 9.917,3.458 9.969,3.486C10.016,3.51 10.058,3.544 10.092,3.584C10.123,3.621 10.147,3.663 10.163,3.708C10.226,3.889 10.149,4.094 9.983,4.189C9.927,4.22 9.865,4.237 9.801,4.241C9.667,4.243 9.533,4.248 9.398,4.252C9.394,4.401 9.387,4.55 9.372,4.699C9.363,4.763 9.342,4.823 9.306,4.876C9.205,5.025 9.011,5.088 8.842,5.029C8.797,5.013 8.755,4.989 8.718,4.958C8.677,4.924 8.644,4.882 8.619,4.835C8.592,4.783 8.578,4.726 8.575,4.667C8.572,4.533 8.568,4.399 8.563,4.264C8.414,4.261 8.265,4.253 8.117,4.238C8.059,4.23 8.003,4.212 7.953,4.18C7.908,4.152 7.869,4.115 7.838,4.072C7.811,4.033 7.79,3.989 7.778,3.943C7.732,3.77 7.811,3.582 7.967,3.493C8.023,3.461 8.085,3.445 8.149,3.441C8.283,3.439 8.417,3.437 8.551,3.435Z" style="fill:#FF8C00;"/>
    </g>
</svg>
