<?xml version="1.0" encoding="UTF-8" standalone="no"?>
<!DOCTYPE svg PUBLIC "-//W3C//DTD SVG 1.1//EN" "http://www.w3.org/Graphics/SVG/1.1/DTD/svg11.dtd">
<svg width="100%" height="100%" viewBox="0 0 58 72" version="1.1" xmlns="http://www.w3.org/2000/svg" xmlns:xlink="http://www.w3.org/1999/xlink" xml:space="preserve" style="fill-rule:evenodd;clip-rule:evenodd;stroke-linejoin:round;stroke-miterlimit:1.41421;">
    <g transform="matrix(0.955804,0,0,0.955804,0,6.5)">
        <g transform="matrix(1.78954,0,0,1.78954,-380.198,-225.64)">
            <path d="M229.513,126.088C230.225,126.094 230.936,126.141 231.643,126.234C233.099,126.427 234.529,126.808 235.887,127.369C237.576,128.065 239.147,129.039 240.526,130.238C241.891,131.425 243.068,132.827 243.993,134.382C245.012,136.096 245.721,137.989 246.083,139.949C246.548,142.472 246.435,145.094 245.752,147.567C245.455,148.643 245.051,149.69 244.547,150.687C244.298,151.18 244.024,151.659 243.73,152.125L243.715,152.149L245.282,157.995L245.301,158.092C245.303,158.124 245.308,158.157 245.308,158.189C245.308,158.255 245.299,158.32 245.282,158.384C245.265,158.447 245.24,158.508 245.207,158.564C245.092,158.765 244.885,158.903 244.656,158.933C244.591,158.942 244.525,158.942 244.46,158.933C244.427,158.929 244.396,158.92 244.364,158.914L238.517,157.348C238.405,157.419 238.292,157.489 238.179,157.557C238.074,157.621 237.968,157.683 237.862,157.745C237.412,158.002 236.952,158.241 236.48,158.457C235.495,158.909 234.466,159.265 233.413,159.52C231.269,160.039 229.027,160.136 226.847,159.804C224.911,159.51 223.029,158.879 221.309,157.943C219.785,157.114 218.394,156.048 217.191,154.799C215.963,153.523 214.935,152.057 214.16,150.465C213.277,148.65 212.725,146.678 212.532,144.669C212.328,142.538 212.529,140.372 213.124,138.315C213.744,136.173 214.792,134.162 216.19,132.425C217.69,130.562 219.58,129.018 221.711,127.932C223.269,127.138 224.949,126.589 226.675,126.309C227.513,126.172 228.359,126.102 229.208,126.089C229.309,126.088 229.411,126.088 229.513,126.088ZM229.318,127.588C228.514,127.595 227.711,127.66 226.916,127.789C225.343,128.045 223.812,128.545 222.392,129.269C220.449,130.259 218.726,131.667 217.359,133.365C216.065,134.972 215.101,136.837 214.54,138.822C214,140.73 213.832,142.739 214.044,144.71C214.242,146.54 214.767,148.333 215.593,149.978C216.334,151.454 217.315,152.804 218.482,153.972C219.588,155.079 220.86,156.018 222.247,156.743C223.874,157.595 225.654,158.149 227.476,158.377C229.608,158.644 231.792,158.464 233.851,157.849C234.827,157.557 235.775,157.167 236.675,156.688C237.12,156.45 237.553,156.19 237.973,155.911L238.052,155.866C238.08,155.854 238.107,155.84 238.135,155.83C238.221,155.8 238.312,155.785 238.402,155.787C238.483,155.788 238.503,155.796 238.582,155.812L243.497,157.129L242.179,152.214L242.161,152.125C242.159,152.095 242.154,152.065 242.154,152.034C242.152,151.944 242.167,151.853 242.197,151.767C242.225,151.691 242.238,151.675 242.278,151.605C242.341,151.511 242.403,151.416 242.464,151.32C242.732,150.896 242.982,150.459 243.209,150.011C243.668,149.102 244.036,148.148 244.307,147.167C244.929,144.913 245.032,142.522 244.608,140.221C244.284,138.463 243.652,136.763 242.746,135.221C241.896,133.775 240.807,132.471 239.541,131.37C238.285,130.277 236.854,129.39 235.315,128.755C234.077,128.244 232.774,127.897 231.446,127.722C230.802,127.636 230.154,127.594 229.504,127.588C229.442,127.588 229.38,127.588 229.318,127.588Z" style="fill:rgb(255,140,0);fill-rule:nonzero;"/>
        </g>
        <g transform="matrix(1.78954,0,0,1.78954,-380.198,-225.64)">
            <path d="M237.379,136.861C237.4,136.865 237.421,136.867 237.442,136.871C237.525,136.887 237.605,136.921 237.676,136.968C237.892,137.112 238.003,137.38 237.952,137.635C237.94,137.698 237.918,137.758 237.888,137.815C237.858,137.871 237.82,137.923 237.775,137.968C237.684,138.058 237.567,138.121 237.442,138.146C237.386,138.157 237.371,138.156 237.315,138.158L221.506,138.158C221.449,138.156 221.435,138.157 221.379,138.146C221.254,138.121 221.137,138.058 221.046,137.968C220.862,137.784 220.806,137.5 220.905,137.26C220.93,137.201 220.963,137.145 221.003,137.096C221.057,137.03 221.124,136.975 221.199,136.935C221.275,136.895 221.357,136.87 221.442,136.861C221.463,136.859 221.485,136.859 221.506,136.858L237.315,136.858C237.336,136.859 237.357,136.86 237.379,136.861Z" style="fill:rgb(255,140,0);fill-rule:nonzero;"/>
        </g>
        <g transform="matrix(1.78954,0,0,1.78954,-380.198,-225.64)">
            <path d="M237.379,140.551C237.4,140.554 237.421,140.556 237.442,140.56C237.525,140.577 237.605,140.61 237.676,140.657C237.729,140.693 237.777,140.736 237.817,140.785C237.982,140.986 238.011,141.275 237.888,141.504C237.858,141.56 237.82,141.612 237.775,141.657C237.684,141.748 237.567,141.81 237.442,141.835C237.386,141.846 237.371,141.845 237.315,141.848L221.506,141.848C221.449,141.845 221.435,141.846 221.379,141.835C221.254,141.81 221.137,141.748 221.046,141.657C220.986,141.597 220.938,141.525 220.905,141.446C220.806,141.206 220.862,140.922 221.046,140.738C221.091,140.693 221.143,140.655 221.199,140.624C221.275,140.584 221.357,140.559 221.442,140.551C221.463,140.549 221.485,140.549 221.506,140.548L237.315,140.548C237.336,140.549 237.357,140.55 237.379,140.551Z" style="fill:rgb(255,140,0);fill-rule:nonzero;"/>
        </g>
        <g transform="matrix(1.78954,0,0,1.78954,-380.198,-225.64)">
            <path d="M237.379,144.241C237.4,144.244 237.421,144.246 237.442,144.25C237.525,144.267 237.605,144.3 237.676,144.347C237.729,144.383 237.777,144.426 237.817,144.475C237.858,144.525 237.891,144.58 237.915,144.639C238.015,144.879 237.958,145.163 237.775,145.347C237.684,145.438 237.567,145.5 237.442,145.525C237.386,145.536 237.371,145.535 237.315,145.538L221.506,145.538C221.485,145.537 221.463,145.537 221.442,145.535C221.357,145.526 221.275,145.501 221.199,145.461C221.143,145.431 221.091,145.392 221.046,145.347C220.862,145.163 220.806,144.879 220.905,144.639C220.938,144.56 220.986,144.488 221.046,144.428C221.137,144.338 221.254,144.275 221.379,144.25C221.435,144.239 221.449,144.24 221.506,144.238L237.315,144.238C237.336,144.239 237.357,144.24 237.379,144.241Z" style="fill:rgb(255,140,0);fill-rule:nonzero;"/>
        </g>
        <g transform="matrix(1.78954,0,0,1.78954,-380.198,-225.64)">
            <path d="M231.67,147.929C231.721,147.935 231.77,147.943 231.82,147.959C231.933,147.996 232.036,148.064 232.113,148.155C232.157,148.207 232.193,148.265 232.219,148.328C232.319,148.569 232.262,148.853 232.079,149.037C232.03,149.085 231.975,149.125 231.914,149.156C231.853,149.187 231.788,149.208 231.721,149.219C231.676,149.226 231.664,149.225 231.619,149.227L221.506,149.227C221.461,149.225 221.449,149.226 221.404,149.219C221.337,149.208 221.271,149.187 221.211,149.156C221.15,149.125 221.094,149.085 221.046,149.037C220.9,148.891 220.832,148.679 220.864,148.475C220.875,148.408 220.896,148.343 220.927,148.282C220.958,148.221 220.998,148.166 221.046,148.117C221.131,148.033 221.238,147.973 221.354,147.945C221.405,147.933 221.454,147.929 221.506,147.927C224.894,147.927 228.285,147.796 231.67,147.929Z" style="fill:rgb(255,140,0);fill-rule:nonzero;"/>
        </g>
    </g>
</svg>
