<?xml version="1.0" encoding="UTF-8" standalone="no"?>
<!DOCTYPE svg PUBLIC "-//W3C//DTD SVG 1.1//EN" "http://www.w3.org/Graphics/SVG/1.1/DTD/svg11.dtd">
<svg width="100%" height="100%" viewBox="0 0 31 25" version="1.1" xmlns="http://www.w3.org/2000/svg" xmlns:xlink="http://www.w3.org/1999/xlink" xml:space="preserve" style="fill-rule:evenodd;clip-rule:evenodd;stroke-linejoin:round;stroke-miterlimit:1.41421;">
    <g transform="matrix(0.997736,0,0,0.997736,0.0523714,0.0735811)">
        <path d="M27.316,0.001C27.755,0.018 28.185,0.099 28.594,0.26C29.581,0.65 30.373,1.461 30.738,2.458C30.879,2.842 30.949,3.242 30.965,3.65C31.036,9.269 31.036,14.891 30.965,20.51C30.949,20.918 30.879,21.319 30.738,21.703C30.374,22.7 29.581,23.512 28.594,23.901C28.184,24.062 27.755,24.143 27.316,24.16C19.428,24.26 11.538,24.26 3.649,24.16C3.242,24.144 2.842,24.074 2.458,23.934C1.461,23.569 0.649,22.776 0.26,21.788C0.098,21.379 0.018,20.949 0.001,20.51C-0.07,14.891 -0.07,9.269 0.001,3.65C0.016,3.242 0.087,2.842 0.227,2.458C0.592,1.461 1.385,0.65 2.372,0.26C2.781,0.099 3.211,0.018 3.649,0.001C11.538,-0.099 19.428,-0.099 27.316,0.001ZM3.75,1.5C3.485,1.503 3.224,1.545 2.974,1.636C2.359,1.861 1.861,2.359 1.636,2.974C1.552,3.204 1.51,3.444 1.5,3.688C1.43,9.282 1.43,14.878 1.5,20.472C1.51,20.735 1.559,20.993 1.655,21.238C1.889,21.83 2.376,22.306 2.974,22.525C3.204,22.609 3.443,22.651 3.687,22.66C11.55,22.76 19.415,22.76 27.278,22.66C27.541,22.65 27.798,22.602 28.043,22.505C28.635,22.272 29.111,21.785 29.33,21.187C29.414,20.957 29.456,20.717 29.465,20.472C29.536,14.878 29.536,9.282 29.465,3.688C29.456,3.444 29.414,3.204 29.33,2.974C29.111,2.377 28.635,1.889 28.043,1.656C27.798,1.559 27.541,1.511 27.278,1.501C19.436,1.402 11.593,1.5 3.75,1.5Z" style="fill:rgb(255,140,0);fill-rule:nonzero;"/>
        <path d="M24.85,5.578C24.974,5.599 25.087,5.636 25.191,5.709C25.251,5.751 25.305,5.802 25.35,5.86C25.536,6.096 25.562,6.429 25.414,6.691C25.352,6.801 25.266,6.883 25.164,6.955L15.887,12.872C15.832,12.904 15.82,12.914 15.761,12.937C15.606,12.998 15.433,13.007 15.274,12.96C15.204,12.94 15.143,12.908 15.08,12.872L5.801,6.955C5.699,6.883 5.613,6.801 5.551,6.691C5.515,6.627 5.488,6.557 5.472,6.485C5.408,6.192 5.529,5.881 5.775,5.709C5.855,5.652 5.947,5.612 6.043,5.591C6.187,5.559 6.339,5.571 6.477,5.624C6.538,5.648 6.551,5.658 6.608,5.691L15.484,11.351L24.357,5.691L24.421,5.654C24.481,5.628 24.495,5.619 24.558,5.601C24.621,5.583 24.638,5.584 24.703,5.575C24.777,5.573 24.777,5.573 24.85,5.578Z" style="fill:rgb(255,140,0);fill-rule:nonzero;"/>
    </g>
</svg>
