<?xml version="1.0" encoding="UTF-8" standalone="no"?>
<!DOCTYPE svg PUBLIC "-//W3C//DTD SVG 1.1//EN" "http://www.w3.org/Graphics/SVG/1.1/DTD/svg11.dtd">
<svg width="100%" height="100%" viewBox="0 0 17 16" version="1.1" xmlns="http://www.w3.org/2000/svg" xmlns:xlink="http://www.w3.org/1999/xlink" xml:space="preserve" style="fill-rule:evenodd;clip-rule:evenodd;stroke-linejoin:round;stroke-miterlimit:1.41421;">
    <g transform="matrix(2.80629,0,0,2.80629,0.0839313,0.130673)">
        <path d="M5.626,0C5.771,0.016 5.899,0.098 5.961,0.233C5.981,0.277 5.991,0.323 5.996,0.371C6.039,1.563 6.039,2.757 5.996,3.949C5.991,3.997 5.981,4.042 5.961,4.086C5.899,4.222 5.771,4.304 5.626,4.319C3.876,4.382 2.122,4.382 0.372,4.319C0.227,4.304 0.099,4.222 0.037,4.086C0.017,4.042 0.007,3.997 0.002,3.949C-0.041,2.757 -0.041,1.563 0.002,0.371C0.018,0.225 0.099,0.097 0.235,0.035C0.279,0.015 0.325,0.005 0.372,0C2.122,-0.062 3.876,-0.062 5.626,0ZM0.801,3.52L5.197,3.52L5.197,0.799L0.801,0.799C0.801,1.706 0.801,2.613 0.801,3.52Z" style="fill:rgb(242,145,0);fill-rule:nonzero;"/>
        <path d="M4.301,4.757C4.361,4.762 4.419,4.776 4.472,4.805C4.519,4.831 4.56,4.865 4.594,4.907C4.732,5.08 4.699,5.341 4.522,5.475C4.463,5.52 4.394,5.545 4.321,5.555C3.442,5.62 2.555,5.62 1.676,5.555C1.603,5.545 1.534,5.52 1.474,5.475C1.298,5.341 1.265,5.08 1.403,4.907C1.436,4.865 1.478,4.831 1.524,4.805C1.578,4.776 1.636,4.762 1.696,4.757C2.564,4.735 3.433,4.735 4.301,4.757Z" style="fill:#FF8C00;fill-rule:nonzero;"/>
    </g>
</svg>
