<?xml version="1.0" encoding="UTF-8" standalone="no"?>
<!DOCTYPE svg PUBLIC "-//W3C//DTD SVG 1.1//EN" "http://www.w3.org/Graphics/SVG/1.1/DTD/svg11.dtd">
<svg width="100%" height="100%" viewBox="0 0 44 61" version="1.1" xmlns="http://www.w3.org/2000/svg" xmlns:xlink="http://www.w3.org/1999/xlink" xml:space="preserve" style="fill-rule:evenodd;clip-rule:evenodd;stroke-linejoin:round;stroke-miterlimit:1.41421;">
    <g transform="matrix(0.949061,0,0,0.949061,0.163606,0.0512629)">
        <path d="M40.069,0C40.324,0.005 40.579,0.023 40.832,0.059C41.396,0.138 41.949,0.299 42.469,0.535C43.218,0.876 43.895,1.37 44.448,1.979C44.971,2.554 45.381,3.23 45.649,3.959C45.884,4.598 46.003,5.271 46.016,5.951C46.126,23.123 46.344,40.3 46.015,57.469C45.989,58.271 45.814,59.06 45.482,59.792C45.142,60.541 44.648,61.218 44.039,61.772C43.465,62.295 42.79,62.706 42.061,62.975C41.422,63.21 40.749,63.329 40.069,63.342C28.671,63.415 17.27,63.559 5.873,63.341C5.071,63.315 4.282,63.139 3.55,62.807C2.801,62.467 2.124,61.972 1.57,61.364C1.048,60.789 0.636,60.114 0.368,59.384C0.133,58.745 0.014,58.072 0,57.392C-0.109,40.219 -0.327,23.043 0.002,5.873C0.028,5.071 0.203,4.282 0.535,3.55C0.856,2.845 1.313,2.204 1.873,1.669C2.471,1.099 3.184,0.653 3.959,0.368C4.598,0.133 5.27,0.014 5.951,0C17.323,-0.072 28.696,-0.072 40.069,0ZM44.009,55.918L1.991,55.918C2,56.418 2.009,56.918 2.018,57.418C2.034,57.914 2.134,58.409 2.332,58.866C2.486,59.224 2.687,59.559 2.936,59.86C3.463,60.498 4.184,60.969 4.983,61.186C5.307,61.275 5.64,61.319 5.976,61.325C17.349,61.398 28.724,61.542 40.095,61.324C40.43,61.314 40.762,61.265 41.084,61.173C41.864,60.95 42.566,60.485 43.082,59.861C43.33,59.56 43.531,59.225 43.686,58.867C43.89,58.394 43.99,57.88 44,57.366C44.003,56.884 44.006,56.401 44.009,55.918ZM26.774,57.34C26.933,57.352 27.086,57.393 27.225,57.473C27.332,57.535 27.427,57.616 27.505,57.712C27.571,57.794 27.625,57.887 27.662,57.985C27.784,58.301 27.736,58.666 27.537,58.939C27.475,59.025 27.399,59.1 27.314,59.163C27.154,59.279 26.969,59.338 26.774,59.354C24.42,59.415 22.064,59.355 19.709,59.355C19.531,59.35 19.36,59.31 19.205,59.22C18.896,59.042 18.701,58.704 18.701,58.347C18.701,58.241 18.718,58.135 18.75,58.035C18.788,57.918 18.848,57.808 18.926,57.712C19.003,57.616 19.098,57.535 19.205,57.473C19.345,57.393 19.497,57.352 19.657,57.34C22.028,57.277 24.402,57.277 26.774,57.34ZM44.023,53.901C44.136,37.909 44.305,21.914 43.999,5.925C43.988,5.59 43.94,5.258 43.848,4.935C43.625,4.155 43.16,3.452 42.536,2.936C42.235,2.687 41.9,2.486 41.543,2.332C41.07,2.127 40.557,2.027 40.043,2.017C28.706,1.945 17.369,2.017 6.031,2.017C5.499,2.02 4.966,2.12 4.476,2.332C4.118,2.486 3.783,2.687 3.482,2.936C2.845,3.463 2.374,4.184 2.156,4.983C2.068,5.307 2.024,5.64 2.017,5.976C1.915,21.951 1.719,37.929 1.958,53.901L44.023,53.901Z" style="fill:#FF8C00;"/>
    </g>
</svg>
