<?xml version="1.0" encoding="UTF-8" standalone="no"?>
<!DOCTYPE svg PUBLIC "-//W3C//DTD SVG 1.1//EN" "http://www.w3.org/Graphics/SVG/1.1/DTD/svg11.dtd">
<svg width="100%" height="100%" viewBox="0 0 16 10" version="1.1" xmlns="http://www.w3.org/2000/svg" xmlns:xlink="http://www.w3.org/1999/xlink" xml:space="preserve" style="fill-rule:evenodd;clip-rule:evenodd;stroke-linejoin:round;stroke-miterlimit:1.41421;">
    <g transform="matrix(2.0671e-16,3.37582,-3.37582,2.0671e-16,15.5888,-0.000162099)">
        <path d="M0.418,0C0.503,0.007 0.577,0.034 0.646,0.084C1.398,0.708 2.132,1.356 2.845,2.025C2.879,2.061 2.907,2.099 2.928,2.144C2.997,2.298 2.959,2.472 2.845,2.592C2.132,3.261 1.398,3.909 0.646,4.533C0.599,4.568 0.548,4.594 0.491,4.607C0.443,4.618 0.393,4.621 0.344,4.614C0.115,4.582 -0.043,4.352 0.011,4.126C0.03,4.044 0.074,3.975 0.135,3.918L1.958,2.309C1.345,1.767 0.714,1.243 0.117,0.683C0.1,0.665 0.085,0.646 0.07,0.626C0.039,0.577 0.016,0.525 0.006,0.468C-0.021,0.311 0.05,0.149 0.184,0.063C0.233,0.032 0.287,0.014 0.344,0.004C0.369,0.001 0.393,0 0.418,0Z" style="fill:rgb(242,145,0);fill-rule:nonzero;"/>
    </g>
</svg>
