<?xml version="1.0" encoding="UTF-8" standalone="no"?>
<!DOCTYPE svg PUBLIC "-//W3C//DTD SVG 1.1//EN" "http://www.w3.org/Graphics/SVG/1.1/DTD/svg11.dtd">
<svg width="100%" height="100%" viewBox="0 0 68 53" version="1.1" xmlns="http://www.w3.org/2000/svg" xmlns:xlink="http://www.w3.org/1999/xlink" xml:space="preserve" style="fill-rule:evenodd;clip-rule:evenodd;stroke-linejoin:round;stroke-miterlimit:1.41421;">
    <g transform="matrix(0.965742,0,0,0.965742,-3.58218e-08,-3.58217e-08)">
        <path d="M0.676,54.49C0.605,54.455 0.536,54.413 0.472,54.364C0.347,54.267 0.241,54.146 0.162,54.01C0.083,53.873 0.031,53.72 0.01,53.564C0.003,53.512 0.003,53.459 0,53.406L0,1.207C0.009,1.067 0.005,1.031 0.041,0.894C0.137,0.535 0.401,0.234 0.745,0.092C0.842,0.052 0.945,0.024 1.049,0.01C1.101,0.003 1.154,0.003 1.207,0C1.259,0.003 1.312,0.007 1.364,0.01C1.502,0.038 1.539,0.038 1.669,0.092C1.962,0.214 2.2,0.451 2.322,0.745C2.362,0.842 2.39,0.945 2.403,1.049C2.41,1.101 2.41,1.154 2.414,1.207L2.414,52.199L69.207,52.199L69.387,52.212C69.445,52.226 69.505,52.235 69.563,52.252C69.735,52.306 69.895,52.398 70.028,52.521C70.116,52.603 70.192,52.698 70.252,52.802C70.466,53.172 70.466,53.639 70.252,54.009C70.192,54.113 70.116,54.208 70.028,54.29C69.851,54.454 69.625,54.563 69.387,54.599C69.327,54.608 69.267,54.608 69.207,54.612L1.207,54.612C1.197,54.612 1.187,54.611 1.177,54.611C1.155,54.61 1.132,54.609 1.11,54.607C1.082,54.605 1.054,54.603 1.027,54.599C0.905,54.581 0.787,54.543 0.676,54.49ZM49.449,22.53C49.555,22.544 49.656,22.561 49.757,22.598C50.089,22.719 50.357,22.987 50.478,23.319C50.514,23.418 50.537,23.522 50.546,23.627C50.549,23.662 50.549,23.697 50.551,23.732L50.551,47.516C50.547,47.61 50.549,47.633 50.532,47.726C50.49,47.968 50.372,48.195 50.197,48.369C50.098,48.469 49.981,48.551 49.854,48.61C49.727,48.669 49.589,48.706 49.449,48.718C48.987,48.759 48.531,48.522 48.299,48.12C48.228,47.998 48.18,47.864 48.155,47.726C48.139,47.633 48.141,47.61 48.137,47.516L48.137,23.732C48.139,23.697 48.139,23.662 48.142,23.627C48.151,23.522 48.174,23.418 48.21,23.319C48.331,22.987 48.599,22.719 48.931,22.598C49.03,22.562 49.134,22.539 49.239,22.53C49.274,22.527 49.309,22.527 49.344,22.525C49.379,22.527 49.414,22.528 49.449,22.53ZM25.921,12.927C25.962,12.933 26.004,12.938 26.046,12.946C26.128,12.964 26.208,12.99 26.285,13.024C26.596,13.162 26.838,13.431 26.942,13.754C26.968,13.834 26.986,13.917 26.995,14.001C26.999,14.043 26.999,14.085 27.001,14.127L27.001,47.514C26.999,47.556 26.999,47.599 26.995,47.64C26.977,47.808 26.924,47.972 26.84,48.118C26.604,48.526 26.138,48.764 25.668,48.715C25.543,48.701 25.419,48.668 25.304,48.617C25.188,48.565 25.081,48.496 24.987,48.411C24.799,48.242 24.667,48.013 24.614,47.765C24.591,47.655 24.594,47.626 24.588,47.514L24.588,14.127C24.59,14.085 24.59,14.043 24.594,14.001C24.603,13.917 24.621,13.834 24.647,13.754C24.765,13.39 25.057,13.097 25.422,12.979C25.502,12.953 25.585,12.935 25.668,12.927C25.71,12.922 25.753,12.922 25.795,12.92C25.837,12.922 25.879,12.924 25.921,12.927ZM37.675,23.072C37.781,23.086 37.882,23.103 37.983,23.14C38.316,23.261 38.583,23.529 38.704,23.862C38.74,23.961 38.763,24.064 38.772,24.169C38.775,24.204 38.775,24.239 38.777,24.274L38.777,47.515C38.773,47.609 38.775,47.632 38.759,47.725C38.716,47.967 38.598,48.194 38.424,48.369C38.095,48.697 37.594,48.808 37.157,48.649C37.025,48.601 36.902,48.53 36.794,48.44C36.687,48.349 36.595,48.24 36.525,48.119C36.455,47.997 36.406,47.863 36.382,47.725C36.365,47.632 36.367,47.609 36.363,47.515L36.363,24.274C36.365,24.239 36.365,24.204 36.368,24.169C36.377,24.064 36.4,23.961 36.436,23.862C36.557,23.529 36.825,23.261 37.157,23.14C37.256,23.104 37.36,23.081 37.465,23.072C37.5,23.069 37.535,23.069 37.57,23.067C37.605,23.069 37.64,23.071 37.675,23.072ZM14.146,12.927C14.187,12.933 14.229,12.938 14.27,12.946C14.353,12.964 14.433,12.99 14.51,13.024C14.82,13.162 15.062,13.431 15.167,13.754C15.193,13.834 15.211,13.917 15.22,14.001C15.224,14.043 15.224,14.085 15.226,14.127L15.226,47.514C15.224,47.556 15.224,47.599 15.22,47.64C15.202,47.808 15.149,47.972 15.065,48.118C15.001,48.227 14.921,48.327 14.827,48.411C14.733,48.496 14.626,48.565 14.51,48.617C14.079,48.809 13.562,48.727 13.212,48.411C13.023,48.242 12.892,48.013 12.839,47.765C12.816,47.655 12.818,47.626 12.813,47.514L12.813,14.127C12.815,14.085 12.815,14.043 12.819,14.001C12.828,13.917 12.846,13.834 12.872,13.754C12.99,13.39 13.282,13.097 13.646,12.979C13.727,12.953 13.809,12.935 13.893,12.927C13.935,12.922 13.977,12.922 14.019,12.92C14.061,12.922 14.103,12.924 14.146,12.927ZM59.651,29.524L48.7,18.364L37.654,19.128L37.501,19.129C37.45,19.123 37.399,19.12 37.349,19.111C37.248,19.092 37.15,19.06 37.058,19.017C36.934,18.959 36.91,18.933 36.8,18.853L25.386,9.384L13.913,9.958L13.756,9.955C13.704,9.948 13.652,9.944 13.6,9.933C13.498,9.911 13.398,9.875 13.305,9.828C13.18,9.764 13.156,9.736 13.046,9.65L6.825,4.059C6.788,4.022 6.749,3.986 6.715,3.946C6.612,3.826 6.533,3.686 6.484,3.536C6.451,3.435 6.432,3.331 6.426,3.226C6.404,2.799 6.615,2.383 6.973,2.15C7.106,2.064 7.255,2.004 7.41,1.975C7.462,1.966 7.515,1.963 7.567,1.957C7.62,1.957 7.672,1.958 7.725,1.958C7.777,1.966 7.83,1.97 7.881,1.981C7.984,2.003 8.084,2.038 8.178,2.086C8.304,2.15 8.328,2.177 8.438,2.264L14.289,7.522L25.734,6.95L25.884,6.951C25.933,6.958 25.983,6.962 26.031,6.972C26.129,6.991 26.224,7.023 26.314,7.066C26.434,7.123 26.458,7.148 26.565,7.226L37.969,16.687L49.088,15.918L49.237,15.917C49.368,15.932 49.403,15.93 49.529,15.969C49.672,16.014 49.805,16.084 49.922,16.177C49.961,16.208 49.996,16.243 50.033,16.277L61.367,27.826C62.529,26.682 63.694,25.542 64.847,24.389C65.004,24.239 65.187,24.128 65.399,24.073C65.483,24.052 65.567,24.042 65.653,24.036C65.718,24.035 65.717,24.035 65.782,24.038C65.911,24.05 66.036,24.075 66.157,24.125C66.457,24.248 66.699,24.491 66.82,24.792C66.86,24.892 66.884,24.996 66.899,25.103C67.158,28.014 67.263,30.936 67.445,33.853C67.45,34.004 67.436,34.151 67.39,34.295C67.272,34.664 66.976,34.96 66.607,35.078C66.483,35.117 66.358,35.133 66.229,35.135C63.31,35.031 60.398,34.774 57.482,34.593C57.309,34.577 57.144,34.536 56.99,34.454C56.626,34.26 56.381,33.882 56.353,33.471C56.344,33.342 56.356,33.212 56.388,33.088C56.437,32.897 56.532,32.73 56.659,32.582C57.64,31.546 58.641,30.531 59.651,29.524ZM62.423,30.228C62.326,30.38 62.196,30.51 62.043,30.607M60.301,32.35L64.951,32.639L64.662,27.988C63.208,29.442 61.755,30.896 60.301,32.35Z" style="fill:#FF8C00;"/>
    </g>
</svg>
