<?xml version="1.0" encoding="UTF-8" standalone="no"?>
<!DOCTYPE svg PUBLIC "-//W3C//DTD SVG 1.1//EN" "http://www.w3.org/Graphics/SVG/1.1/DTD/svg11.dtd">
<svg width="100%" height="100%" viewBox="0 0 17 31" version="1.1" xmlns="http://www.w3.org/2000/svg" xmlns:xlink="http://www.w3.org/1999/xlink" xml:space="preserve" style="fill-rule:evenodd;clip-rule:evenodd;stroke-linejoin:round;stroke-miterlimit:1.41421;">
    <g transform="matrix(1.54584,0,0,1.54584,-672.755,-632.33)">
        <path d="M443.102,409.052C443.565,409.055 444.027,409.068 444.489,409.094C444.857,409.114 445.224,409.14 445.59,409.181L445.661,409.19C445.713,409.2 445.727,409.2 445.777,409.219C445.909,409.27 446.016,409.377 446.066,409.509C446.088,409.568 446.094,409.624 446.098,409.686L446.098,412.715C446.094,412.777 446.088,412.834 446.066,412.892C446.015,413.025 445.908,413.132 445.776,413.182C445.717,413.205 445.66,413.211 445.598,413.215C444.981,413.215 444.364,413.212 443.748,413.216C443.603,413.22 443.459,413.229 443.317,413.255C443.213,413.275 443.108,413.303 443.012,413.35C442.956,413.378 442.902,413.412 442.857,413.456C442.766,413.543 442.714,413.662 442.683,413.783C442.633,413.973 442.627,414.172 442.625,414.367L442.625,416.028L445.48,416.028L445.541,416.032C445.602,416.043 445.658,416.056 445.713,416.086C445.839,416.152 445.933,416.272 445.966,416.411C445.981,416.472 445.98,416.53 445.976,416.592L445.539,419.979C445.527,420.039 445.514,420.095 445.484,420.15C445.418,420.275 445.299,420.367 445.162,420.401C445.11,420.413 445.096,420.412 445.043,420.415L442.625,420.415L442.625,428.606L442.621,428.666C442.61,428.727 442.597,428.783 442.568,428.838C442.502,428.964 442.383,429.057 442.245,429.091C442.192,429.104 442.178,429.103 442.125,429.106L438.628,429.106C438.566,429.102 438.509,429.096 438.451,429.074C438.318,429.023 438.211,428.916 438.16,428.783C438.138,428.725 438.132,428.668 438.128,428.606L438.128,420.415L435.703,420.415L435.643,420.411C435.582,420.4 435.526,420.387 435.471,420.358C435.345,420.292 435.252,420.173 435.218,420.035C435.205,419.982 435.206,419.968 435.203,419.915L435.203,416.528C435.207,416.466 435.213,416.409 435.235,416.351C435.286,416.218 435.393,416.111 435.526,416.06C435.584,416.038 435.641,416.032 435.703,416.028L438.128,416.028C438.128,415.314 438.119,414.6 438.129,413.885C438.132,413.791 438.135,413.696 438.14,413.602C438.18,412.992 438.293,412.387 438.52,411.818C438.654,411.485 438.825,411.168 439.034,410.876C439.314,410.486 439.662,410.146 440.06,409.875C440.413,409.634 440.802,409.448 441.209,409.316C441.72,409.151 442.253,409.073 442.789,409.055C442.893,409.052 442.998,409.052 443.102,409.052ZM442.928,410.052C442.466,410.059 442.004,410.116 441.562,410.253C441.272,410.344 440.992,410.468 440.734,410.629C440.549,410.744 440.376,410.878 440.219,411.029C440.103,411.14 439.996,411.26 439.899,411.388C439.545,411.853 439.33,412.408 439.222,412.979C439.156,413.326 439.13,413.678 439.128,414.031L439.128,416.528C439.124,416.59 439.118,416.647 439.096,416.705C439.045,416.838 438.938,416.945 438.805,416.996C438.747,417.018 438.69,417.024 438.628,417.028L436.203,417.028L436.203,419.415L438.628,419.415C438.69,419.419 438.747,419.425 438.805,419.447C438.938,419.498 439.045,419.605 439.096,419.738C439.118,419.796 439.124,419.853 439.128,419.915L439.128,428.106L441.625,428.106L441.625,419.915C441.629,419.853 441.635,419.796 441.657,419.738C441.708,419.605 441.815,419.498 441.948,419.447C442.006,419.425 442.063,419.419 442.125,419.415L444.603,419.415L444.911,417.028L442.125,417.028C442.063,417.024 442.006,417.018 441.948,416.996C441.815,416.945 441.708,416.838 441.657,416.705C441.635,416.647 441.629,416.59 441.625,416.528C441.625,415.774 441.619,415.02 441.626,414.266C441.635,413.869 441.686,413.462 441.879,413.109C441.912,413.048 441.949,412.989 441.99,412.933C442.043,412.862 442.101,412.795 442.165,412.733C442.258,412.645 442.362,412.568 442.473,412.504C442.624,412.418 442.787,412.356 442.955,412.312C443.232,412.239 443.518,412.218 443.803,412.216L445.098,412.215L445.098,410.138C444.99,410.128 444.881,410.121 444.773,410.113C444.215,410.077 443.656,410.056 443.097,410.052C443.041,410.052 442.985,410.052 442.928,410.052Z" style="fill:#fff;fill-rule:nonzero;"/>
    </g>
</svg>
