<?xml version="1.0" encoding="UTF-8" standalone="no"?>
<!DOCTYPE svg PUBLIC "-//W3C//DTD SVG 1.1//EN" "http://www.w3.org/Graphics/SVG/1.1/DTD/svg11.dtd">
<svg width="100%" height="100%" viewBox="0 0 90 40" version="1.1" xmlns="http://www.w3.org/2000/svg" xmlns:xlink="http://www.w3.org/1999/xlink" xml:space="preserve" style="fill-rule:evenodd;clip-rule:evenodd;stroke-linejoin:round;stroke-miterlimit:1.41421;">
    <g transform="matrix(0.91988,0,0,0.91988,23.4993,9.83623)">
        <path d="M39.837,16.316C39.801,14.799 39.804,13.28 39.843,11.763C39.849,11.692 39.862,11.622 39.888,11.555C39.952,11.387 40.083,11.25 40.246,11.177C40.312,11.147 40.381,11.131 40.452,11.122C40.488,11.119 40.523,11.118 40.559,11.119C40.631,11.124 40.7,11.137 40.768,11.163C40.947,11.232 41.091,11.376 41.16,11.555C41.185,11.622 41.198,11.692 41.204,11.763C41.244,13.28 41.246,14.799 41.21,16.316L44.133,16.316L46.746,21.98L45.371,21.98L45.371,32.109C45.366,32.187 45.358,32.26 45.332,32.334C45.264,32.528 45.108,32.684 44.914,32.752C44.84,32.778 44.767,32.786 44.689,32.79L23.231,32.79L23.229,32.79L23.223,32.791L5.25,32.791C5.177,32.787 5.109,32.78 5.039,32.757C4.833,32.691 4.668,32.526 4.602,32.32C4.579,32.25 4.572,32.182 4.568,32.11L4.568,11.976C4.572,11.9 4.58,11.83 4.604,11.758C4.675,11.546 4.852,11.379 5.067,11.319C5.14,11.299 5.211,11.295 5.286,11.295C5.311,11.298 5.335,11.301 5.36,11.303C5.433,11.319 5.502,11.338 5.569,11.374C5.722,11.455 5.84,11.594 5.895,11.758C5.919,11.83 5.927,11.9 5.931,11.976L5.931,31.428L22.541,31.428L22.541,21.98L20.813,21.98L22.542,18.231C22.484,16.1 22.546,13.968 22.546,11.837C22.549,11.767 22.557,11.698 22.578,11.631C22.638,11.443 22.78,11.287 22.962,11.21C23.027,11.182 23.095,11.168 23.165,11.159C23.207,11.156 23.248,11.156 23.29,11.159C23.361,11.168 23.428,11.182 23.493,11.21C23.662,11.281 23.797,11.421 23.863,11.591C23.888,11.657 23.901,11.725 23.908,11.796C23.954,13.302 23.937,14.809 23.922,16.316L39.837,16.316ZM44.008,21.98L23.904,21.98L23.904,31.428L24.947,31.428C24.893,29.008 24.965,26.587 24.965,24.167C24.968,24.092 24.977,24.019 25.001,23.948C25.064,23.763 25.206,23.612 25.386,23.537C25.456,23.508 25.527,23.494 25.602,23.487C26.887,23.445 28.175,23.445 29.46,23.487C29.52,23.493 29.577,23.502 29.634,23.522C29.819,23.584 29.97,23.726 30.045,23.906C30.074,23.976 30.088,24.047 30.095,24.122C30.175,26.556 30.11,28.992 30.098,31.428L44.008,31.428L44.008,21.98ZM26.328,24.848L26.328,31.428L28.734,31.428L28.734,24.848L26.328,24.848ZM41.478,23.488C41.543,23.495 41.606,23.507 41.667,23.53C41.836,23.592 41.975,23.722 42.049,23.885C42.083,23.96 42.1,24.038 42.109,24.119C42.17,25.825 42.111,27.534 42.111,29.241C42.108,29.323 42.096,29.402 42.068,29.479C41.999,29.663 41.851,29.811 41.667,29.879C41.606,29.902 41.543,29.913 41.478,29.92C38.504,30.027 35.527,29.922 32.551,29.922C32.486,29.92 32.423,29.913 32.359,29.894C32.171,29.839 32.013,29.702 31.932,29.524C31.897,29.449 31.881,29.371 31.872,29.289C31.811,27.583 31.87,25.875 31.87,24.168C31.873,24.086 31.884,24.007 31.913,23.93C31.982,23.746 32.13,23.598 32.313,23.53C32.375,23.507 32.438,23.495 32.503,23.488C35.493,23.382 38.488,23.382 41.478,23.488ZM18.724,22.136C18.806,22.145 18.884,22.161 18.959,22.196C19.122,22.27 19.251,22.409 19.314,22.577C19.337,22.639 19.348,22.702 19.355,22.767C19.416,24.473 19.357,26.181 19.357,27.888C19.354,27.97 19.343,28.049 19.314,28.126C19.245,28.31 19.097,28.458 18.914,28.527C18.852,28.55 18.789,28.561 18.724,28.568C15.75,28.674 12.773,28.57 9.797,28.57C9.715,28.567 9.636,28.555 9.559,28.527C9.375,28.458 9.227,28.31 9.158,28.126C9.135,28.065 9.124,28.002 9.117,27.937C9.056,26.231 9.116,24.523 9.116,22.815C9.118,22.75 9.125,22.687 9.143,22.623C9.198,22.435 9.335,22.277 9.514,22.196C9.589,22.161 9.667,22.145 9.748,22.136C12.738,22.029 15.734,22.029 18.724,22.136ZM33.233,24.849L33.233,28.56L40.748,28.56L40.748,24.849C38.243,24.849 35.738,24.849 33.233,24.849ZM17.994,23.497L10.478,23.497L10.478,27.207L17.994,27.207L17.994,23.497ZM24.297,17.679L22.942,20.617L44.617,20.617L43.261,17.679C36.94,17.679 30.619,17.679 24.297,17.679ZM18.724,11.578C18.806,11.587 18.884,11.604 18.959,11.638C19.122,11.713 19.251,11.852 19.314,12.02C19.337,12.081 19.348,12.144 19.355,12.209C19.416,13.915 19.357,15.624 19.357,17.331C19.354,17.413 19.343,17.492 19.314,17.569C19.245,17.753 19.097,17.901 18.914,17.969C18.852,17.992 18.789,18.003 18.724,18.01C15.75,18.117 12.773,18.012 9.797,18.012C9.731,18.01 9.668,18.003 9.605,17.984C9.417,17.929 9.259,17.792 9.177,17.614C9.143,17.539 9.126,17.461 9.117,17.379C9.056,15.673 9.116,13.965 9.116,12.258C9.118,12.192 9.125,12.129 9.143,12.066C9.198,11.878 9.335,11.72 9.514,11.638C9.589,11.604 9.667,11.587 9.748,11.578C12.738,11.472 15.734,11.472 18.724,11.578ZM10.478,12.939L10.478,16.65L17.994,16.65L17.994,12.939C15.489,12.939 12.984,12.939 10.478,12.939ZM24.373,0.009C24.398,0.015 24.424,0.02 24.449,0.027C24.516,0.046 24.531,0.057 24.593,0.087L43.838,10.871C43.897,10.908 43.914,10.916 43.966,10.963C44.063,11.053 44.133,11.171 44.165,11.299C44.185,11.376 44.19,11.456 44.182,11.535C44.174,11.614 44.152,11.692 44.117,11.763C44,12.005 43.742,12.158 43.474,12.145C43.394,12.142 43.316,12.124 43.243,12.094C43.218,12.084 43.195,12.071 43.172,12.059L24.263,1.464L19.014,4.471L18.943,4.506C18.877,4.53 18.861,4.539 18.791,4.551C18.661,4.573 18.525,4.557 18.403,4.504C18.104,4.374 17.937,4.038 18.013,3.72C18.032,3.643 18.064,3.569 18.107,3.503C18.151,3.437 18.207,3.379 18.27,3.332C18.292,3.316 18.315,3.303 18.337,3.288L23.921,0.09C23.993,0.054 24.061,0.025 24.14,0.011C24.209,-0.002 24.226,0.001 24.296,0.001C24.321,0.004 24.347,0.007 24.373,0.009ZM14.408,2.997C14.475,3.012 14.493,3.013 14.557,3.04C14.581,3.05 14.604,3.063 14.627,3.074L28.123,10.638C28.147,10.653 28.172,10.667 28.195,10.684C28.264,10.735 28.323,10.799 28.368,10.872C28.414,10.944 28.445,11.026 28.461,11.11C28.476,11.194 28.475,11.281 28.458,11.365C28.407,11.621 28.208,11.83 27.954,11.893C27.843,11.921 27.726,11.92 27.616,11.89C27.542,11.871 27.526,11.859 27.457,11.826L14.298,4.451L1.02,12.056L0.943,12.094C0.916,12.103 0.89,12.114 0.862,12.121C0.78,12.144 0.693,12.151 0.608,12.142C0.523,12.133 0.439,12.107 0.364,12.067C0.078,11.917 -0.065,11.574 0.03,11.265C0.063,11.156 0.124,11.056 0.206,10.976C0.261,10.923 0.279,10.915 0.343,10.873L13.956,3.077C14.018,3.046 14.032,3.036 14.099,3.016C14.176,2.993 14.25,2.988 14.33,2.988C14.356,2.991 14.382,2.994 14.408,2.997Z" style="fill:rgb(138,138,138);"/>
    </g>
</svg>
