<?xml version="1.0" encoding="UTF-8" standalone="no"?>
<!DOCTYPE svg PUBLIC "-//W3C//DTD SVG 1.1//EN" "http://www.w3.org/Graphics/SVG/1.1/DTD/svg11.dtd">
<svg width="100%" height="100%" viewBox="0 0 90 40" version="1.1" xmlns="http://www.w3.org/2000/svg" xmlns:xlink="http://www.w3.org/1999/xlink" xml:space="preserve" style="fill-rule:evenodd;clip-rule:evenodd;stroke-linejoin:round;stroke-miterlimit:1.41421;">
    <g transform="matrix(0.541972,0,0,0.541972,10.4999,2.68743)">
        <path d="M100.11,34.706C100.017,31.37 100.111,28.031 100.111,24.693C100.114,24.58 100.127,24.47 100.159,24.361C100.257,24.037 100.498,23.766 100.809,23.631C100.935,23.577 101.065,23.55 101.2,23.539C101.267,23.537 101.267,23.537 101.335,23.539C101.447,23.548 101.556,23.568 101.663,23.606C101.96,23.714 102.204,23.945 102.329,24.235C102.383,24.36 102.41,24.49 102.422,24.626C102.493,27.075 102.462,29.525 102.439,31.975L116.499,31.975L116.701,31.993C116.767,32.01 116.832,32.028 116.897,32.046C117.06,32.122 117.109,32.132 117.247,32.249C117.299,32.293 117.342,32.346 117.39,32.394L127.048,44.066C127.164,44.24 127.209,44.279 127.268,44.483C127.312,44.636 127.324,44.796 127.303,44.954C127.25,45.352 126.987,45.702 126.619,45.863C126.424,45.948 126.365,45.938 126.157,45.959L121.994,45.959L121.994,67.689C121.989,67.826 121.972,67.956 121.925,68.085C121.809,68.404 121.552,68.66 121.234,68.776C121.104,68.823 120.974,68.84 120.838,68.846L110.085,68.846L64.645,68.846L64.64,68.846L26.592,68.846L26.586,68.846L4.655,68.846C4.519,68.84 4.389,68.823 4.26,68.776C3.941,68.66 3.685,68.404 3.569,68.085C3.522,67.956 3.505,67.826 3.499,67.689L3.499,45.959L1.157,45.959C0.95,45.938 0.892,45.948 0.698,45.865C0.257,45.674 -0.026,45.216 0.002,44.735C0.014,44.525 0.049,44.478 0.123,44.284L8.942,26.732C8.979,26.672 9.012,26.608 9.054,26.552C9.227,26.325 9.483,26.167 9.763,26.115C9.833,26.102 9.905,26.102 9.975,26.095L26.592,26.095C26.791,26.115 26.847,26.105 27.035,26.183C27.316,26.3 27.544,26.528 27.66,26.809C27.738,26.997 27.729,27.052 27.748,27.252L27.748,38.693L63.498,38.693C63.496,38.669 63.496,38.646 63.495,38.607L63.495,24.775C63.499,24.642 63.517,24.514 63.562,24.388C63.677,24.062 63.939,23.801 64.264,23.685C64.365,23.649 64.467,23.632 64.572,23.621C64.652,23.618 64.651,23.618 64.73,23.621C64.836,23.632 64.938,23.649 65.039,23.685C65.364,23.801 65.625,24.062 65.741,24.388C65.786,24.514 65.803,24.642 65.808,24.775L65.808,38.607C65.806,38.646 65.806,38.669 65.805,38.693L100.11,38.693L100.11,34.706ZM63.485,45.959L27.748,45.959L27.748,66.533L63.483,66.533L63.483,46.014C63.484,45.996 63.485,45.977 63.485,45.959ZM108.929,66.533L108.929,45.959L65.793,45.959C65.794,45.975 65.795,45.993 65.796,46.014L65.796,66.533L68.615,66.533L68.615,50.877C68.62,50.76 68.632,50.648 68.667,50.536C68.77,50.202 69.024,49.928 69.349,49.8C69.486,49.747 69.626,49.726 69.772,49.72C72.46,49.72 75.15,49.623 77.837,49.724C77.982,49.74 78.12,49.771 78.252,49.835C78.54,49.974 78.761,50.231 78.855,50.536C78.89,50.648 78.902,50.76 78.907,50.877L78.907,66.533L108.929,66.533ZM70.928,52.033L70.928,66.533L76.594,66.533L76.594,52.033L70.928,52.033ZM119.681,45.959L111.242,45.959L111.242,66.533L119.681,66.533L119.681,45.959ZM21.68,66.533L25.435,66.533L25.435,45.959L5.812,45.959L5.812,66.533L9.708,66.533L9.708,49.369C9.713,49.246 9.727,49.129 9.765,49.011C9.869,48.692 10.112,48.429 10.422,48.3C10.565,48.241 10.711,48.218 10.865,48.212C14.115,48.212 17.367,48.088 20.615,48.216C20.736,48.23 20.853,48.253 20.966,48.3C21.277,48.429 21.52,48.692 21.624,49.011C21.662,49.129 21.676,49.246 21.68,49.369L21.68,66.533ZM19.367,66.533L19.367,50.525L12.021,50.525L12.021,66.533L19.367,66.533ZM55.013,63.27L36.218,63.27C36.095,63.265 35.978,63.252 35.86,63.213C35.541,63.11 35.278,62.866 35.149,62.556C35.09,62.413 35.067,62.267 35.061,62.114L35.061,51.373C35.067,51.22 35.09,51.074 35.149,50.931C35.278,50.621 35.541,50.377 35.86,50.274C35.978,50.235 36.095,50.222 36.218,50.217C42.513,50.217 48.814,49.973 55.104,50.221C55.226,50.235 55.342,50.258 55.456,50.305C55.766,50.433 56.01,50.697 56.113,51.016C56.151,51.133 56.165,51.251 56.17,51.373L56.17,62.114C56.164,62.267 56.141,62.413 56.082,62.556C55.953,62.866 55.69,63.11 55.371,63.213C55.254,63.252 55.136,63.265 55.013,63.27ZM103.184,62.774L84.389,62.774C84.235,62.768 84.089,62.745 83.946,62.686C83.636,62.557 83.393,62.294 83.289,61.974C83.251,61.857 83.237,61.74 83.232,61.617L83.232,50.877C83.237,50.754 83.251,50.637 83.289,50.52C83.393,50.2 83.636,49.937 83.946,49.808C84.089,49.749 84.235,49.726 84.389,49.72C90.684,49.72 96.984,49.477 103.275,49.724C103.397,49.738 103.513,49.761 103.627,49.808C103.937,49.937 104.18,50.2 104.284,50.52C104.322,50.637 104.336,50.754 104.341,50.877L104.341,61.617C104.336,61.74 104.322,61.857 104.284,61.974C104.18,62.294 103.937,62.557 103.627,62.686C103.484,62.745 103.338,62.768 103.184,62.774ZM37.374,52.53L37.374,60.957L53.857,60.957L53.857,52.53C48.363,52.53 42.869,52.53 37.374,52.53ZM85.545,52.033L85.545,60.461L102.028,60.461L102.028,52.033C96.534,52.033 91.039,52.033 85.545,52.033ZM101.267,41.006L26.592,41.006C26.393,40.987 26.337,40.996 26.149,40.918C25.868,40.802 25.64,40.574 25.523,40.292C25.446,40.105 25.455,40.049 25.435,39.85L25.435,28.408C20.52,28.408 15.604,28.408 10.688,28.408L3.032,43.646L123.698,43.646L115.955,34.288L102.424,34.288C102.424,34.433 102.424,34.579 102.424,34.724C102.424,34.729 102.424,34.734 102.423,34.739L102.423,39.85L102.401,40.075C102.379,40.148 102.364,40.223 102.335,40.292C102.219,40.574 101.991,40.802 101.709,40.918C101.522,40.996 101.466,40.987 101.267,41.006ZM95.407,22.407C95.524,22.418 95.637,22.439 95.747,22.48C96.054,22.597 96.302,22.845 96.418,23.152C96.46,23.262 96.481,23.375 96.491,23.492C96.6,27.094 96.493,30.699 96.493,34.302C96.49,34.419 96.476,34.533 96.441,34.646C96.343,34.96 96.111,35.222 95.812,35.356C95.682,35.415 95.547,35.443 95.407,35.456C91.735,35.567 88.06,35.458 84.387,35.458C84.27,35.455 84.156,35.441 84.043,35.406C83.729,35.308 83.467,35.076 83.333,34.777C83.274,34.647 83.246,34.512 83.233,34.372C83.124,30.77 83.231,27.165 83.231,23.562C83.234,23.444 83.248,23.33 83.283,23.218C83.381,22.904 83.613,22.642 83.912,22.507C84.042,22.449 84.177,22.42 84.317,22.407C88.012,22.296 91.712,22.296 95.407,22.407ZM55.013,35.458L36.218,35.458C36.095,35.454 35.978,35.44 35.86,35.402C35.541,35.298 35.278,35.055 35.149,34.744C35.09,34.602 35.067,34.455 35.061,34.302L35.061,23.562C35.067,23.408 35.09,23.262 35.149,23.119C35.278,22.809 35.541,22.566 35.86,22.462C35.978,22.424 36.095,22.41 36.218,22.405C42.513,22.405 48.814,22.162 55.104,22.409C55.226,22.423 55.342,22.446 55.456,22.493C55.766,22.622 56.01,22.885 56.113,23.204C56.151,23.322 56.165,23.439 56.17,23.562L56.17,34.302C56.164,34.455 56.141,34.602 56.082,34.744C55.953,35.055 55.69,35.298 55.371,35.402C55.254,35.44 55.136,35.454 55.013,35.458ZM94.18,24.718L85.544,24.718L85.544,33.145L94.18,33.145L94.18,24.718ZM37.374,24.718L37.374,33.145L53.857,33.145L53.857,24.718C48.363,24.718 42.869,24.718 37.374,24.718ZM45.882,6.334C45.931,6.344 45.981,6.35 46.029,6.362C46.157,6.396 46.185,6.416 46.304,6.473L74.876,22.484C74.92,22.513 74.967,22.538 75.008,22.57C75.135,22.666 75.241,22.787 75.318,22.924C75.528,23.297 75.513,23.768 75.279,24.126C75.221,24.214 75.152,24.294 75.072,24.363C74.953,24.467 74.813,24.546 74.662,24.594C74.461,24.659 74.244,24.666 74.039,24.617C73.902,24.584 73.872,24.561 73.746,24.502L45.745,8.811L17.495,24.988L17.353,25.057C17.303,25.073 17.254,25.093 17.203,25.106C16.998,25.158 16.781,25.152 16.579,25.09C16.478,25.058 16.382,25.014 16.294,24.957C15.934,24.725 15.729,24.301 15.769,23.875C15.784,23.718 15.832,23.564 15.908,23.426C15.984,23.287 16.089,23.165 16.214,23.069C16.256,23.036 16.302,23.01 16.346,22.981L45.164,6.478C45.283,6.42 45.311,6.4 45.439,6.365C45.567,6.331 45.602,6.335 45.734,6.325C45.783,6.328 45.833,6.331 45.882,6.334ZM66.98,0.009C67.028,0.018 67.078,0.024 67.126,0.037C67.254,0.07 67.283,0.091 67.402,0.148L108.142,22.976C108.184,23.003 108.228,23.028 108.268,23.058C108.39,23.149 108.493,23.263 108.57,23.393C108.622,23.48 108.662,23.573 108.689,23.671C108.815,24.116 108.656,24.606 108.292,24.893C108.173,24.987 108.036,25.057 107.89,25.098C107.695,25.152 107.487,25.155 107.291,25.105C107.16,25.072 107.132,25.051 107.011,24.993L66.843,2.486L55.588,8.931L55.453,8.997C55.325,9.04 55.295,9.057 55.161,9.075C54.96,9.1 54.754,9.072 54.567,8.994C54.428,8.936 54.3,8.85 54.193,8.742C54.122,8.671 54.06,8.59 54.01,8.502C53.807,8.147 53.808,7.699 54.014,7.346C54.09,7.215 54.192,7.099 54.313,7.008C54.353,6.977 54.397,6.952 54.439,6.924L66.262,0.153C66.38,0.095 66.408,0.074 66.536,0.04C66.665,0.005 66.699,0.009 66.831,0C66.88,0.003 66.93,0.006 66.98,0.009Z" style="fill:white;"/>
    </g>
</svg>
