<?xml version="1.0" encoding="UTF-8" standalone="no"?>
<!DOCTYPE svg PUBLIC "-//W3C//DTD SVG 1.1//EN" "http://www.w3.org/Graphics/SVG/1.1/DTD/svg11.dtd">
<svg width="100%" height="100%" viewBox="0 0 90 40" version="1.1" xmlns="http://www.w3.org/2000/svg" xmlns:xlink="http://www.w3.org/1999/xlink" xml:space="preserve" style="fill-rule:evenodd;clip-rule:evenodd;stroke-linejoin:round;stroke-miterlimit:1.41421;">
    <g transform="matrix(0.930344,0,0,0.930344,18.174,0.000372132)">
        <g id="Layer1">
            <path d="M3.062,3.408L0.4,3.408C0.322,3.399 0.299,3.403 0.227,3.368C0.061,3.288 -0.03,3.098 0.01,2.919C0.028,2.84 0.046,2.825 0.088,2.758L2.166,0.15C2.187,0.129 2.206,0.106 2.229,0.087C2.276,0.049 2.331,0.023 2.389,0.01C2.419,0.003 2.449,0.003 2.479,0L55.19,0C55.22,0.003 55.25,0.006 55.28,0.01C55.308,0.02 55.337,0.026 55.364,0.039C55.437,0.074 55.448,0.094 55.503,0.15L57.581,2.758C57.623,2.825 57.641,2.84 57.658,2.919C57.699,3.098 57.608,3.288 57.442,3.368C57.37,3.403 57.347,3.399 57.268,3.408L54.607,3.408L54.607,42.554C54.604,42.584 54.604,42.614 54.597,42.643C54.57,42.761 54.489,42.862 54.381,42.915C54.308,42.95 54.285,42.945 54.207,42.954L14.952,42.954C13.03,43.04 11.104,42.964 9.179,42.954L3.462,42.954C3.384,42.945 3.361,42.95 3.288,42.915C3.18,42.862 3.099,42.761 3.072,42.643C3.065,42.614 3.065,42.584 3.062,42.554L3.062,3.408ZM15.376,42.154L53.807,42.154L53.807,3.408L3.862,3.408C3.862,16.324 3.862,29.239 3.862,42.154L8.38,42.154C8.264,39.101 8.397,36.041 8.397,32.985C8.399,32.935 8.406,32.888 8.424,32.841C8.464,32.737 8.548,32.653 8.653,32.612C8.688,32.599 8.723,32.592 8.76,32.587C10.842,32.491 12.93,32.491 15.012,32.587C15.049,32.592 15.084,32.599 15.119,32.612C15.224,32.653 15.308,32.737 15.348,32.841C15.362,32.876 15.368,32.911 15.373,32.948C15.515,36.014 15.387,39.085 15.376,42.154ZM14.575,33.385L9.197,33.385L9.197,42.153L14.575,42.153L14.575,33.385ZM33.595,28.955C33.635,28.961 33.672,28.968 33.709,28.984C33.806,29.024 33.885,29.103 33.926,29.2C33.941,29.237 33.948,29.274 33.954,29.314C34.061,31.492 33.956,33.676 33.956,35.857C33.954,35.897 33.95,35.935 33.939,35.973C33.904,36.087 33.819,36.181 33.709,36.227C33.672,36.242 33.635,36.249 33.595,36.255C30.32,36.416 27.038,36.257 23.759,36.257C23.719,36.255 23.681,36.252 23.643,36.24C23.529,36.205 23.435,36.12 23.389,36.01C23.374,35.973 23.367,35.936 23.361,35.896C23.254,33.718 23.359,31.534 23.359,29.353C23.361,29.313 23.365,29.276 23.376,29.237C23.411,29.123 23.496,29.029 23.606,28.984C23.643,28.968 23.68,28.961 23.72,28.955C27.008,28.794 30.307,28.794 33.595,28.955ZM48.797,28.955C48.837,28.961 48.874,28.968 48.911,28.984C49.008,29.024 49.087,29.103 49.128,29.2C49.143,29.237 49.15,29.274 49.156,29.314C49.263,31.492 49.158,33.676 49.158,35.857C49.156,35.897 49.152,35.935 49.141,35.973C49.106,36.087 49.021,36.181 48.911,36.227C48.874,36.242 48.837,36.249 48.797,36.255C45.522,36.416 42.24,36.257 38.961,36.257C38.921,36.255 38.883,36.252 38.845,36.24C38.731,36.205 38.637,36.12 38.591,36.01C38.576,35.973 38.569,35.936 38.563,35.896C38.456,33.718 38.561,31.534 38.561,29.353C38.563,29.313 38.567,29.276 38.578,29.237C38.613,29.123 38.698,29.029 38.808,28.984C38.845,28.968 38.882,28.961 38.922,28.955C42.21,28.794 45.509,28.794 48.797,28.955ZM29.776,29.753L24.159,29.753L24.159,35.457L29.763,35.457C29.705,33.557 29.768,31.655 29.776,29.753ZM30.591,29.753C30.648,31.653 30.586,33.556 30.578,35.457L33.156,35.457L33.156,29.753L30.591,29.753ZM44.979,29.753L39.361,29.753L39.361,35.457L44.966,35.457C44.909,33.557 44.971,31.655 44.979,29.753ZM45.794,29.753C45.851,31.653 45.789,33.556 45.781,35.457L48.358,35.457L48.358,29.753L45.794,29.753ZM17.26,30.66C17.352,30.673 17.436,30.708 17.503,30.775C17.531,30.803 17.555,30.835 17.573,30.869C17.669,31.048 17.611,31.278 17.443,31.39C17.387,31.428 17.326,31.446 17.26,31.456C13.88,31.622 10.492,31.458 7.108,31.458C7.042,31.455 6.979,31.442 6.92,31.411C6.741,31.315 6.661,31.092 6.739,30.905C6.754,30.868 6.774,30.834 6.799,30.804C6.868,30.72 6.963,30.675 7.069,30.66C10.462,30.493 13.867,30.493 17.26,30.66ZM18.393,18.321C18.433,18.327 18.47,18.334 18.507,18.35C18.604,18.39 18.683,18.469 18.724,18.566C18.739,18.603 18.746,18.64 18.752,18.68C18.859,20.858 18.754,23.041 18.754,25.222C18.752,25.262 18.748,25.3 18.737,25.338C18.702,25.452 18.617,25.546 18.507,25.592C18.47,25.607 18.433,25.614 18.393,25.62C15.118,25.781 11.835,25.622 8.556,25.622C8.516,25.62 8.478,25.617 8.44,25.605C8.326,25.57 8.232,25.485 8.186,25.375C8.171,25.338 8.164,25.301 8.158,25.261C8.051,23.083 8.156,20.9 8.156,18.719C8.158,18.679 8.162,18.642 8.173,18.603C8.208,18.489 8.293,18.395 8.403,18.35C8.44,18.334 8.477,18.327 8.517,18.321C11.805,18.16 15.105,18.16 18.393,18.321ZM33.595,18.321C33.635,18.327 33.672,18.334 33.709,18.35C33.806,18.39 33.885,18.469 33.926,18.566C33.941,18.603 33.948,18.64 33.954,18.68C34.061,20.858 33.956,23.041 33.956,25.222C33.954,25.262 33.95,25.3 33.939,25.338C33.904,25.452 33.819,25.546 33.709,25.592C33.672,25.607 33.635,25.614 33.595,25.62C30.32,25.781 27.038,25.622 23.759,25.622C23.719,25.62 23.681,25.617 23.643,25.605C23.529,25.57 23.435,25.485 23.389,25.375C23.374,25.338 23.367,25.301 23.361,25.261C23.254,23.083 23.359,20.9 23.359,18.719C23.361,18.679 23.365,18.642 23.376,18.603C23.411,18.489 23.496,18.395 23.606,18.35C23.643,18.334 23.68,18.327 23.72,18.321C27.008,18.16 30.307,18.16 33.595,18.321ZM48.797,18.321C48.837,18.327 48.874,18.334 48.911,18.35C49.008,18.39 49.087,18.469 49.128,18.566C49.143,18.603 49.15,18.64 49.156,18.68C49.263,20.858 49.158,23.041 49.158,25.222C49.156,25.262 49.152,25.3 49.141,25.338C49.106,25.452 49.021,25.546 48.911,25.592C48.874,25.607 48.837,25.614 48.797,25.62C45.522,25.781 42.24,25.622 38.961,25.622C38.921,25.62 38.883,25.617 38.845,25.605C38.731,25.57 38.637,25.485 38.591,25.375C38.576,25.338 38.569,25.301 38.563,25.261C38.456,23.083 38.561,20.9 38.561,18.719C38.563,18.679 38.567,18.642 38.578,18.603C38.613,18.489 38.698,18.395 38.808,18.35C38.845,18.334 38.882,18.327 38.922,18.321C42.21,18.16 45.509,18.16 48.797,18.321ZM29.776,19.119L24.159,19.119L24.159,24.822L29.763,24.822C29.705,22.922 29.768,21.02 29.776,19.119ZM30.591,19.119C30.648,21.019 30.586,22.921 30.578,24.822L33.156,24.822L33.156,19.119L30.591,19.119ZM44.979,19.119L39.361,19.119L39.361,24.822L44.966,24.822C44.909,22.922 44.971,21.02 44.979,19.119ZM45.794,19.119C45.851,21.019 45.789,22.921 45.781,24.822L48.358,24.822L48.358,19.119L45.794,19.119ZM14.574,19.119L8.956,19.119L8.956,24.822L14.561,24.822C14.503,22.922 14.565,21.02 14.574,19.119ZM15.389,19.119C15.446,21.019 15.384,22.921 15.376,24.822L17.954,24.822L17.954,19.119L15.389,19.119ZM18.393,7.686C18.433,7.692 18.47,7.699 18.507,7.715C18.604,7.755 18.683,7.834 18.724,7.931C18.739,7.968 18.746,8.005 18.752,8.045C18.859,10.223 18.754,12.406 18.754,14.587C18.752,14.627 18.748,14.665 18.737,14.703C18.702,14.817 18.617,14.911 18.507,14.957C18.47,14.972 18.433,14.979 18.393,14.985C15.118,15.146 11.835,14.987 8.556,14.987C8.516,14.985 8.478,14.982 8.44,14.97C8.326,14.935 8.232,14.85 8.186,14.74C8.171,14.703 8.164,14.666 8.158,14.626C8.051,12.448 8.156,10.265 8.156,8.084C8.158,8.044 8.162,8.007 8.173,7.968C8.208,7.854 8.293,7.76 8.403,7.715C8.44,7.699 8.477,7.692 8.517,7.686C11.805,7.525 15.105,7.525 18.393,7.686ZM33.595,7.686C33.635,7.692 33.672,7.699 33.709,7.715C33.806,7.755 33.885,7.834 33.926,7.931C33.941,7.968 33.948,8.005 33.954,8.045C34.061,10.223 33.956,12.406 33.956,14.587C33.954,14.627 33.95,14.665 33.939,14.703C33.904,14.817 33.819,14.911 33.709,14.957C33.672,14.972 33.635,14.979 33.595,14.985C30.32,15.146 27.038,14.987 23.759,14.987C23.719,14.985 23.681,14.982 23.643,14.97C23.529,14.935 23.435,14.85 23.389,14.74C23.374,14.703 23.367,14.666 23.361,14.626C23.254,12.448 23.359,10.265 23.359,8.084C23.361,8.044 23.365,8.007 23.376,7.968C23.411,7.854 23.496,7.76 23.606,7.715C23.643,7.699 23.68,7.692 23.72,7.686C27.008,7.525 30.307,7.525 33.595,7.686ZM48.797,7.686C48.837,7.692 48.874,7.699 48.911,7.715C49.008,7.755 49.087,7.834 49.128,7.931C49.143,7.968 49.15,8.005 49.156,8.045C49.263,10.223 49.158,12.406 49.158,14.587C49.156,14.627 49.152,14.665 49.141,14.703C49.106,14.817 49.021,14.911 48.911,14.957C48.874,14.972 48.837,14.979 48.797,14.985C45.522,15.146 42.24,14.987 38.961,14.987C38.921,14.985 38.883,14.982 38.845,14.97C38.731,14.935 38.637,14.85 38.591,14.74C38.576,14.703 38.569,14.666 38.563,14.626C38.456,12.448 38.561,10.265 38.561,8.084C38.563,8.044 38.567,8.007 38.578,7.968C38.613,7.854 38.698,7.76 38.808,7.715C38.845,7.699 38.882,7.692 38.922,7.686C42.21,7.525 45.509,7.525 48.797,7.686ZM14.574,8.484L8.956,8.484L8.956,14.187L14.561,14.187C14.503,12.287 14.565,10.385 14.574,8.484ZM17.954,8.484L15.389,8.484C15.446,10.384 15.384,12.286 15.376,14.187L17.954,14.187L17.954,8.484ZM29.776,8.484L24.159,8.484L24.159,14.187L29.763,14.187C29.705,12.287 29.768,10.385 29.776,8.484ZM33.156,8.484L30.591,8.484C30.648,10.384 30.586,12.286 30.578,14.187L33.156,14.187L33.156,8.484ZM44.979,8.484L39.361,8.484L39.361,14.187L44.966,14.187C44.909,12.287 44.971,10.385 44.979,8.484ZM48.358,8.484L45.794,8.484C45.851,10.384 45.789,12.286 45.781,14.187L48.358,14.187L48.358,8.484ZM2.671,0.8L1.231,2.608L56.438,2.608L54.998,0.8C37.556,0.8 20.113,0.8 2.671,0.8Z" style="fill:#ff8b00;"/>
        </g>
    </g>
</svg>
