<svg xmlns="http://www.w3.org/2000/svg" width="61.498" height="20.164" viewBox="0 0 61.498 20.164">
  <g id="Group_200" data-name="Group 200" transform="translate(-169.295 -378.863)">
    <path id="path2998" d="M184.415,385.984h-7.176v2.129h5.089c-.251,2.986-2.736,4.259-5.081,4.259A5.688,5.688,0,0,1,177.254,381a5.523,5.523,0,0,1,3.837,1.539l1.491-1.544a7.58,7.58,0,0,0-5.4-2.131,7.823,7.823,0,1,0,.113,15.644,6.888,6.888,0,0,0,7.254-7.111,6.378,6.378,0,0,0-.13-1.412Z" fill="#4285f4"/>
    <path id="path3000" d="M240.9,402.149a5.028,5.028,0,1,0,5.045,5.045,4.968,4.968,0,0,0-5.045-5.045Zm.029,1.975a3.059,3.059,0,1,1-2.877,3.042,2.891,2.891,0,0,1,2.877-3.042Z" transform="translate(-50.603 -17.707)" fill="#ea4335"/>
    <path id="path3005" d="M286.782,402.149a5.028,5.028,0,1,0,5.045,5.045,4.968,4.968,0,0,0-5.045-5.045Zm.029,1.975a3.059,3.059,0,1,1-2.877,3.042,2.891,2.891,0,0,1,2.877-3.042Z" transform="translate(-85.496 -17.707)" fill="#fbbc03"/>
    <path id="path3007" d="M332.511,402.171a5.034,5.034,0,0,0-.047,10.058,3.321,3.321,0,0,0,2.758-1.222V412a2.523,2.523,0,0,1-2.643,2.773,2.788,2.788,0,0,1-2.574-1.79l-1.932.808a4.838,4.838,0,0,0,4.522,2.961c2.687,0,4.735-1.693,4.735-5.242v-9.035h-2.108v.852a3.557,3.557,0,0,0-2.711-1.154Zm.2,1.971a2.844,2.844,0,0,1,2.686,3.064,2.81,2.81,0,0,1-2.715,3.047,2.857,2.857,0,0,1-2.782-3.028,2.9,2.9,0,0,1,2.811-3.082Z" transform="translate(-120.442 -17.724)" fill="#4285f4"/>
    <path id="path3011" d="M392.185,402.121a4.755,4.755,0,0,0-4.69,5.021,4.863,4.863,0,0,0,4.935,5.046,5.1,5.1,0,0,0,4.212-2.207l-1.738-1.156a2.813,2.813,0,0,1-2.463,1.384,2.587,2.587,0,0,1-2.466-1.524l6.742-2.8-.35-.82a4.552,4.552,0,0,0-4.181-2.946Zm.088,1.934a2,2,0,0,1,1.861,1.074l-4.5,1.882a2.793,2.793,0,0,1,2.642-2.956Z" transform="translate(-165.924 -17.686)" fill="#ea4335"/>
    <path id="path3015" d="M374.079,395.854h2.215v-14.82h-2.215Z" transform="translate(-155.722 -1.651)" fill="#34a853"/>
  </g>
</svg>
