<?xml version="1.0" encoding="UTF-8" standalone="no"?>
<!DOCTYPE svg PUBLIC "-//W3C//DTD SVG 1.1//EN" "http://www.w3.org/Graphics/SVG/1.1/DTD/svg11.dtd">
<svg width="100%" height="100%" viewBox="0 0 75 72" version="1.1" xmlns="http://www.w3.org/2000/svg" xmlns:xlink="http://www.w3.org/1999/xlink" xml:space="preserve" style="fill-rule:evenodd;clip-rule:evenodd;stroke-linejoin:round;stroke-miterlimit:1.41421;">
    <g transform="matrix(1.33332,0,0,1.33332,0.00026898,5)">
        <path d="M13.503,0C15.608,0.02 17.718,0.27 19.746,0.848C20.275,0.998 20.797,1.172 21.31,1.371C21.673,1.513 22.032,1.668 22.384,1.838C22.645,1.965 22.903,2.1 23.155,2.244C23.364,2.364 23.568,2.49 23.769,2.622C23.93,2.73 24.089,2.841 24.244,2.958C25.184,3.666 26.016,4.58 26.42,5.701C26.479,5.864 26.528,6.03 26.567,6.198C26.629,6.469 26.665,6.746 26.672,7.024C26.681,7.372 26.645,7.721 26.567,8.061C26.45,8.568 26.239,9.05 25.963,9.49C25.599,10.071 25.125,10.578 24.601,11.017C24.12,11.42 23.595,11.769 23.048,12.075C22.333,12.475 21.577,12.802 20.804,13.075C19.764,13.441 18.69,13.709 17.604,13.899C16.196,14.145 14.766,14.259 13.337,14.259C11.908,14.259 10.477,14.145 9.069,13.899C7.983,13.709 6.909,13.441 5.869,13.075C5.096,12.802 4.341,12.475 3.625,12.075C3.078,11.769 2.553,11.42 2.073,11.017C1.549,10.578 1.075,10.071 0.711,9.49C0.435,9.049 0.224,8.568 0.107,8.061C0.029,7.721 -0.007,7.372 0.002,7.024C0.009,6.746 0.045,6.469 0.107,6.198C0.146,6.03 0.195,5.864 0.254,5.701C0.658,4.58 1.49,3.666 2.429,2.958C2.584,2.842 2.743,2.73 2.905,2.622C3.105,2.49 3.31,2.364 3.518,2.244C3.771,2.1 4.028,1.965 4.29,1.838C4.641,1.668 5,1.513 5.364,1.371C5.876,1.172 6.399,0.998 6.928,0.848C8.903,0.285 10.956,0.034 13.006,0.002C13.172,0 13.337,0 13.503,0ZM13.184,2.052C11.478,2.068 9.77,2.247 8.111,2.656C7.106,2.903 6.116,3.233 5.184,3.685C4.935,3.806 4.69,3.935 4.451,4.075C4.258,4.189 4.068,4.309 3.884,4.437C3.738,4.539 3.595,4.646 3.457,4.759C3.35,4.846 3.245,4.937 3.144,5.032C3.068,5.104 2.995,5.177 2.923,5.253C2.514,5.687 2.168,6.216 2.076,6.815C2.063,6.902 2.055,6.989 2.053,7.077C2.049,7.217 2.06,7.357 2.085,7.496C2.124,7.716 2.199,7.928 2.297,8.129C2.457,8.452 2.677,8.744 2.923,9.006C3.298,9.404 3.738,9.739 4.199,10.03C4.672,10.329 5.172,10.582 5.685,10.802C6.272,11.054 6.876,11.263 7.49,11.438C8.349,11.683 9.226,11.862 10.109,11.986C11.178,12.136 12.258,12.208 13.337,12.208C14.416,12.208 15.496,12.136 16.564,11.986C17.448,11.862 18.325,11.683 19.183,11.438C19.797,11.263 20.402,11.054 20.988,10.802C21.502,10.582 22.002,10.329 22.474,10.03C22.936,9.739 23.376,9.404 23.751,9.006C23.997,8.744 24.217,8.452 24.377,8.129C24.475,7.928 24.55,7.716 24.589,7.496C24.614,7.357 24.625,7.217 24.621,7.077C24.619,6.989 24.611,6.902 24.598,6.815C24.506,6.216 24.159,5.687 23.751,5.253C23.679,5.177 23.605,5.104 23.529,5.032C23.428,4.938 23.324,4.846 23.217,4.759C23.079,4.646 22.936,4.539 22.79,4.437C22.606,4.309 22.416,4.189 22.223,4.075C21.984,3.935 21.739,3.806 21.49,3.685C20.557,3.233 19.568,2.903 18.563,2.656C16.904,2.247 15.196,2.068 13.49,2.052C13.388,2.051 13.286,2.051 13.184,2.052Z" style="fill:rgb(255,140,0);fill-rule:nonzero;"/>
    </g>
    <g transform="matrix(1.33332,0,0,1.33332,0.00026898,5)">
        <path d="M25.709,12.21C25.742,12.213 25.774,12.215 25.806,12.22C25.903,12.236 25.997,12.265 26.085,12.306C26.174,12.348 26.256,12.402 26.329,12.467C26.5,12.619 26.617,12.828 26.657,13.053C26.68,13.181 26.675,13.314 26.668,13.444C26.657,13.652 26.631,13.859 26.589,14.064C26.547,14.267 26.491,14.467 26.42,14.662C26.03,15.747 25.237,16.638 24.336,17.335C24.183,17.453 24.026,17.567 23.866,17.675C23.289,18.068 22.672,18.401 22.036,18.687C21.252,19.041 20.437,19.324 19.609,19.554C18.352,19.902 17.062,20.126 15.764,20.25C14.363,20.383 12.949,20.399 11.544,20.302C10.223,20.21 8.906,20.016 7.62,19.699C6.6,19.448 5.596,19.119 4.638,18.687C3.966,18.385 3.315,18.031 2.711,17.609C2.22,17.267 1.759,16.879 1.356,16.437C1.07,16.124 0.814,15.783 0.603,15.415C0.328,14.934 0.133,14.407 0.048,13.859C0.027,13.721 0.013,13.583 0.006,13.444C0.001,13.346 -0.004,13.247 0.004,13.149C0.018,12.987 0.07,12.829 0.157,12.69C0.226,12.58 0.316,12.483 0.421,12.406C0.5,12.348 0.587,12.302 0.679,12.269C0.771,12.236 0.867,12.216 0.965,12.21C1.293,12.19 1.618,12.334 1.825,12.59C1.948,12.742 2.025,12.929 2.046,13.123C2.056,13.212 2.053,13.302 2.058,13.391C2.063,13.444 2.069,13.496 2.076,13.548C2.094,13.654 2.117,13.759 2.149,13.861C2.238,14.151 2.384,14.422 2.559,14.668C2.827,15.046 3.163,15.372 3.524,15.659C3.666,15.771 3.811,15.877 3.961,15.979C4.121,16.087 4.284,16.19 4.451,16.288C4.69,16.428 4.935,16.558 5.184,16.678C5.486,16.825 5.795,16.958 6.109,17.08C7.008,17.431 7.942,17.69 8.887,17.881C10.053,18.118 11.24,18.25 12.428,18.295C13.809,18.347 15.196,18.283 16.564,18.091C17.653,17.937 18.732,17.702 19.778,17.361C20.152,17.239 20.522,17.103 20.884,16.951C21.187,16.824 21.484,16.686 21.775,16.535C21.984,16.426 22.191,16.31 22.392,16.186C22.553,16.087 22.711,15.983 22.865,15.873C22.985,15.787 23.102,15.698 23.217,15.604C23.324,15.517 23.428,15.426 23.529,15.331C24.011,14.878 24.444,14.313 24.579,13.652C24.608,13.51 24.62,13.366 24.622,13.221L24.628,13.123C24.633,13.091 24.636,13.059 24.643,13.027C24.656,12.963 24.675,12.901 24.7,12.84C24.813,12.568 25.044,12.353 25.324,12.26C25.386,12.24 25.45,12.225 25.514,12.217C25.547,12.213 25.579,12.211 25.612,12.209C25.644,12.209 25.677,12.21 25.709,12.21Z" style="fill:rgb(255,140,0);fill-rule:nonzero;"/>
    </g>
    <g transform="matrix(1.33332,0,0,1.33332,0.00026898,5)">
        <path d="M25.709,18.777C25.742,18.781 25.774,18.783 25.806,18.788C25.903,18.803 25.997,18.832 26.085,18.873C26.174,18.915 26.256,18.97 26.329,19.034C26.5,19.186 26.617,19.395 26.657,19.62C26.68,19.748 26.675,19.881 26.668,20.011C26.657,20.219 26.631,20.427 26.589,20.631C26.547,20.834 26.491,21.034 26.42,21.229C26.03,22.314 25.237,23.206 24.336,23.902C24.183,24.021 24.026,24.134 23.866,24.242C23.289,24.635 22.672,24.968 22.036,25.255C21.252,25.608 20.437,25.892 19.609,26.121C18.352,26.469 17.062,26.694 15.764,26.817C14.363,26.95 12.949,26.966 11.544,26.869C10.223,26.777 8.906,26.584 7.62,26.267C6.6,26.015 5.596,25.686 4.638,25.255C3.966,24.952 3.315,24.598 2.711,24.176C2.22,23.834 1.759,23.447 1.356,23.004C1.07,22.691 0.814,22.35 0.603,21.982C0.328,21.501 0.133,20.975 0.048,20.426C0.027,20.289 0.013,20.15 0.006,20.011C0.001,19.914 -0.004,19.814 0.004,19.717C0.018,19.554 0.07,19.396 0.157,19.258C0.331,18.979 0.636,18.797 0.965,18.777C1.062,18.771 1.16,18.779 1.256,18.801C1.351,18.823 1.443,18.858 1.528,18.906C1.642,18.97 1.743,19.055 1.825,19.157C1.948,19.309 2.025,19.496 2.046,19.691C2.056,19.779 2.053,19.869 2.058,19.959C2.063,20.011 2.069,20.063 2.076,20.115C2.094,20.221 2.117,20.326 2.149,20.429C2.238,20.719 2.384,20.989 2.559,21.236C2.827,21.613 3.163,21.939 3.524,22.226C3.666,22.338 3.812,22.444 3.961,22.546C4.121,22.655 4.284,22.757 4.451,22.855C4.69,22.995 4.935,23.125 5.184,23.245C5.486,23.392 5.795,23.525 6.109,23.647C7.008,23.998 7.942,24.257 8.887,24.449C10.053,24.685 11.24,24.817 12.428,24.862C13.809,24.914 15.196,24.85 16.564,24.658C17.653,24.504 18.732,24.269 19.778,23.928C20.152,23.806 20.522,23.67 20.884,23.518C21.187,23.392 21.484,23.254 21.775,23.102C21.984,22.993 22.191,22.877 22.392,22.753C22.553,22.654 22.711,22.55 22.865,22.44C22.985,22.354 23.102,22.265 23.217,22.172C23.324,22.084 23.428,21.993 23.529,21.898C24.011,21.445 24.444,20.88 24.579,20.219C24.608,20.077 24.62,19.933 24.622,19.788L24.628,19.69C24.633,19.658 24.636,19.626 24.643,19.594C24.656,19.53 24.675,19.468 24.7,19.408C24.813,19.135 25.044,18.92 25.324,18.827C25.386,18.807 25.45,18.792 25.514,18.784C25.547,18.78 25.579,18.779 25.612,18.776C25.644,18.776 25.677,18.777 25.709,18.777Z" style="fill:rgb(255,140,0);fill-rule:nonzero;"/>
    </g>
    <g transform="matrix(1.33332,0,0,1.33332,0.00026898,5)">
        <path d="M25.709,25.344C25.742,25.347 25.774,25.349 25.806,25.354C25.903,25.369 25.997,25.398 26.085,25.44C26.174,25.482 26.256,25.536 26.329,25.601C26.5,25.753 26.617,25.961 26.657,26.186C26.68,26.315 26.675,26.448 26.668,26.578C26.657,26.786 26.631,26.993 26.589,27.198C26.547,27.401 26.491,27.601 26.42,27.796C26.03,28.881 25.237,29.772 24.336,30.469C24.183,30.587 24.026,30.7 23.866,30.809C23.289,31.202 22.672,31.534 22.036,31.821C21.252,32.174 20.437,32.458 19.609,32.688C18.302,33.05 16.958,33.278 15.607,33.398C14.257,33.518 12.896,33.529 11.544,33.436C10.223,33.344 8.906,33.15 7.62,32.833C6.6,32.582 5.596,32.253 4.638,31.821C3.966,31.518 3.315,31.164 2.711,30.743C2.22,30.401 1.759,30.013 1.356,29.571C1.07,29.258 0.814,28.917 0.603,28.548C0.328,28.068 0.133,27.541 0.048,26.993C0.027,26.855 0.013,26.717 0.006,26.578C0.001,26.48 -0.004,26.38 0.004,26.283C0.018,26.121 0.07,25.962 0.157,25.824C0.208,25.741 0.272,25.666 0.345,25.601C0.418,25.536 0.5,25.482 0.589,25.44C0.886,25.3 1.241,25.312 1.528,25.473C1.642,25.537 1.743,25.622 1.825,25.723C1.948,25.876 2.025,26.063 2.046,26.257C2.056,26.346 2.053,26.436 2.058,26.525C2.063,26.578 2.069,26.63 2.076,26.682C2.094,26.788 2.117,26.892 2.149,26.995C2.238,27.285 2.384,27.555 2.559,27.802C2.827,28.179 3.163,28.505 3.524,28.792C3.666,28.905 3.811,29.011 3.961,29.113C4.121,29.221 4.284,29.324 4.451,29.422C4.69,29.562 4.935,29.691 5.184,29.812C5.486,29.959 5.795,30.092 6.109,30.214C7.008,30.564 7.942,30.824 8.887,31.015C10.053,31.251 11.24,31.384 12.428,31.429C13.809,31.481 15.196,31.417 16.564,31.224C17.653,31.071 18.732,30.836 19.778,30.495C20.152,30.373 20.522,30.237 20.884,30.085C21.187,29.958 21.484,29.82 21.775,29.669C21.985,29.56 22.191,29.444 22.392,29.32C22.553,29.221 22.711,29.117 22.865,29.007C22.985,28.921 23.102,28.831 23.217,28.738C23.324,28.651 23.428,28.56 23.529,28.465C24.011,28.012 24.444,27.447 24.579,26.786C24.608,26.643 24.62,26.5 24.622,26.355L24.628,26.257C24.633,26.225 24.636,26.193 24.643,26.161C24.656,26.097 24.675,26.034 24.7,25.974C24.813,25.702 25.044,25.487 25.324,25.394C25.386,25.374 25.45,25.359 25.514,25.351C25.547,25.346 25.579,25.345 25.612,25.343L25.709,25.344Z" style="fill:rgb(255,140,0);fill-rule:nonzero;"/>
    </g>
    <g transform="matrix(1.33332,0,0,1.33332,0.00026898,5)">
        <path d="M25.709,31.911C25.742,31.915 25.774,31.917 25.806,31.922C25.903,31.937 25.997,31.966 26.085,32.007C26.174,32.049 26.256,32.103 26.329,32.168C26.5,32.32 26.617,32.529 26.657,32.754C26.68,32.882 26.675,33.015 26.668,33.145C26.657,33.353 26.631,33.561 26.589,33.765C26.547,33.968 26.491,34.168 26.42,34.363C26.03,35.448 25.237,36.34 24.336,37.036C24.183,37.155 24.026,37.268 23.866,37.376C23.289,37.769 22.672,38.102 22.036,38.388C21.252,38.742 20.437,39.026 19.609,39.255C18.352,39.603 17.062,39.828 15.764,39.951C14.363,40.084 12.949,40.1 11.544,40.003C10.223,39.911 8.906,39.717 7.62,39.4C6.6,39.149 5.596,38.82 4.638,38.388C3.966,38.086 3.315,37.732 2.711,37.31C2.22,36.968 1.759,36.58 1.356,36.138C1.07,35.825 0.814,35.484 0.603,35.116C0.328,34.635 0.133,34.108 0.048,33.56C0.027,33.423 0.013,33.284 0.006,33.145C0.001,33.048 -0.004,32.948 0.004,32.85C0.018,32.688 0.07,32.53 0.157,32.391C0.226,32.281 0.316,32.184 0.421,32.107C0.5,32.049 0.587,32.003 0.679,31.97C0.988,31.858 1.34,31.905 1.611,32.092C1.691,32.148 1.763,32.215 1.825,32.291C1.948,32.443 2.025,32.63 2.046,32.824C2.056,32.913 2.053,33.003 2.058,33.093C2.063,33.145 2.069,33.197 2.076,33.249C2.094,33.355 2.117,33.46 2.149,33.563C2.238,33.853 2.384,34.123 2.559,34.37C2.827,34.747 3.163,35.073 3.524,35.36C3.666,35.472 3.812,35.578 3.961,35.68C4.121,35.789 4.284,35.891 4.451,35.989C4.69,36.129 4.935,36.259 5.184,36.379C5.486,36.526 5.795,36.659 6.109,36.781C7.008,37.132 7.942,37.391 8.887,37.582C10.053,37.819 11.24,37.951 12.428,37.996C13.809,38.048 15.196,37.984 16.564,37.792C17.653,37.638 18.732,37.403 19.778,37.062C20.152,36.94 20.522,36.804 20.884,36.652C21.187,36.525 21.484,36.388 21.775,36.236C21.984,36.127 22.191,36.011 22.392,35.887C22.553,35.788 22.711,35.684 22.865,35.574C22.985,35.488 23.102,35.399 23.217,35.305C23.324,35.218 23.428,35.127 23.529,35.032C24.011,34.579 24.444,34.014 24.579,33.353C24.608,33.211 24.62,33.067 24.622,32.922L24.628,32.824C24.633,32.792 24.636,32.76 24.643,32.728C24.656,32.664 24.675,32.602 24.7,32.542C24.813,32.269 25.044,32.054 25.324,31.961C25.386,31.941 25.45,31.926 25.514,31.918C25.547,31.914 25.579,31.913 25.612,31.91C25.644,31.91 25.677,31.911 25.709,31.911Z" style="fill:rgb(255,140,0);fill-rule:nonzero;"/>
    </g>
    <g transform="matrix(1.33332,0,0,1.33332,0.00026898,5)">
        <path d="M43.077,19.47C45.183,19.49 47.293,19.739 49.321,20.318C49.85,20.468 50.373,20.642 50.885,20.841C51.249,20.983 51.608,21.138 51.959,21.308C52.221,21.435 52.479,21.57 52.731,21.714C52.939,21.834 53.144,21.959 53.344,22.092C53.506,22.2 53.665,22.311 53.82,22.428C54.76,23.136 55.592,24.05 55.996,25.171C56.055,25.334 56.104,25.5 56.143,25.668C56.205,25.939 56.241,26.216 56.248,26.494C56.257,26.842 56.221,27.191 56.143,27.531C56.026,28.038 55.815,28.52 55.539,28.96C55.175,29.541 54.701,30.048 54.177,30.487C53.696,30.89 53.171,31.239 52.624,31.545C51.908,31.945 51.153,32.272 50.38,32.545C49.34,32.911 48.266,33.179 47.18,33.369C45.771,33.615 44.341,33.729 42.912,33.729C41.483,33.729 40.052,33.615 38.644,33.369C37.558,33.179 36.484,32.911 35.444,32.545C34.671,32.272 33.916,31.945 33.2,31.545C32.653,31.239 32.128,30.89 31.648,30.487C31.124,30.048 30.65,29.541 30.286,28.96C30.01,28.52 29.799,28.038 29.682,27.531C29.604,27.191 29.568,26.842 29.577,26.494C29.584,26.216 29.619,25.939 29.682,25.668C29.721,25.5 29.77,25.334 29.828,25.171C30.232,24.05 31.065,23.136 32.004,22.428C32.159,22.311 32.318,22.2 32.48,22.092C32.68,21.959 32.885,21.834 33.094,21.714C33.346,21.57 33.603,21.435 33.865,21.308C34.216,21.138 34.575,20.983 34.939,20.841C35.451,20.642 35.974,20.468 36.503,20.318C38.478,19.755 40.531,19.504 42.581,19.472C42.746,19.47 42.912,19.47 43.077,19.47ZM42.759,21.522C41.052,21.538 39.345,21.717 37.686,22.126C36.681,22.373 35.691,22.703 34.759,23.155C34.51,23.276 34.265,23.405 34.026,23.545C33.833,23.659 33.643,23.779 33.459,23.907C33.313,24.009 33.17,24.116 33.032,24.229C32.925,24.316 32.82,24.407 32.719,24.502C32.643,24.574 32.569,24.647 32.498,24.723C32.089,25.157 31.743,25.686 31.651,26.285C31.638,26.372 31.63,26.459 31.628,26.547C31.624,26.687 31.635,26.827 31.66,26.966C31.699,27.186 31.774,27.398 31.872,27.599C32.031,27.922 32.251,28.214 32.498,28.476C32.873,28.874 33.312,29.209 33.774,29.5C34.247,29.799 34.747,30.052 35.26,30.272C35.847,30.524 36.452,30.733 37.065,30.908C37.924,31.153 38.801,31.332 39.685,31.456C40.753,31.606 41.833,31.678 42.912,31.678C43.991,31.678 45.071,31.606 46.139,31.456C47.023,31.332 47.9,31.153 48.759,30.908C49.373,30.733 49.978,30.524 50.564,30.272C51.077,30.052 51.578,29.799 52.05,29.5C52.512,29.209 52.952,28.874 53.327,28.476C53.573,28.214 53.793,27.922 53.953,27.599C54.051,27.398 54.126,27.186 54.165,26.966C54.19,26.827 54.201,26.687 54.197,26.547C54.195,26.459 54.187,26.372 54.174,26.285C54.082,25.686 53.735,25.157 53.327,24.723C53.255,24.647 53.181,24.574 53.105,24.502C53.004,24.407 52.9,24.316 52.793,24.229C52.654,24.116 52.512,24.009 52.365,23.907C52.181,23.779 51.992,23.659 51.799,23.545C51.56,23.405 51.315,23.276 51.066,23.155C50.133,22.703 49.143,22.373 48.138,22.126C46.479,21.717 44.771,21.538 43.064,21.522C42.963,21.521 42.861,21.521 42.759,21.522Z" style="fill:rgb(255,140,0);fill-rule:nonzero;"/>
    </g>
    <g transform="matrix(1.33332,0,0,1.33332,0.00026898,5)">
        <path d="M30.734,31.686C30.766,31.692 30.799,31.696 30.83,31.703C30.894,31.718 30.956,31.738 31.015,31.765C31.285,31.884 31.495,32.119 31.582,32.402C31.601,32.464 31.614,32.528 31.621,32.593C31.631,32.681 31.627,32.772 31.633,32.861C31.638,32.913 31.644,32.965 31.651,33.017C31.669,33.123 31.692,33.228 31.723,33.331C31.813,33.621 31.958,33.891 32.134,34.138C32.402,34.515 32.738,34.841 33.099,35.128C33.241,35.24 33.386,35.347 33.536,35.448C33.696,35.557 33.859,35.66 34.026,35.757C34.265,35.897 34.51,36.027 34.759,36.148C35.062,36.294 35.371,36.427 35.684,36.549C36.583,36.9 37.517,37.159 38.462,37.351C39.628,37.587 40.815,37.719 42.003,37.764C43.384,37.816 44.771,37.752 46.139,37.56C47.228,37.406 48.308,37.172 49.354,36.83C49.728,36.708 50.097,36.572 50.46,36.42C50.762,36.294 51.06,36.156 51.351,36.005C51.56,35.895 51.767,35.779 51.968,35.656C52.129,35.556 52.287,35.452 52.44,35.342C52.561,35.256 52.678,35.167 52.793,35.074C52.9,34.986 53.004,34.895 53.105,34.8C53.587,34.347 54.02,33.783 54.155,33.121C54.184,32.979 54.196,32.835 54.198,32.69L54.204,32.593C54.217,32.507 54.217,32.485 54.243,32.402C54.301,32.215 54.412,32.046 54.562,31.919C54.787,31.729 55.091,31.644 55.382,31.69C55.479,31.705 55.573,31.734 55.661,31.776C55.75,31.817 55.832,31.872 55.905,31.937C56.002,32.023 56.083,32.128 56.141,32.245C56.199,32.361 56.235,32.489 56.246,32.619C56.254,32.716 56.249,32.816 56.244,32.913C56.235,33.087 56.215,33.26 56.184,33.431C56.01,34.403 55.491,35.274 54.82,35.986C54.408,36.424 53.939,36.807 53.442,37.145C52.829,37.561 52.171,37.911 51.493,38.209C50.526,38.635 49.515,38.958 48.488,39.203C47.194,39.512 45.871,39.698 44.544,39.782C43.14,39.87 41.727,39.846 40.327,39.704C39.036,39.573 37.752,39.341 36.503,38.985C35.681,38.75 34.872,38.462 34.096,38.103C33.466,37.812 32.855,37.475 32.286,37.078C32.128,36.968 31.974,36.854 31.823,36.734C30.934,36.028 30.159,35.124 29.794,34.033C29.74,33.87 29.694,33.702 29.66,33.533C29.618,33.329 29.591,33.121 29.581,32.913C29.574,32.783 29.568,32.651 29.592,32.522C29.626,32.329 29.717,32.148 29.85,32.005C29.894,31.957 29.943,31.914 29.996,31.875C30.074,31.818 30.161,31.771 30.253,31.738C30.345,31.705 30.442,31.685 30.539,31.679C30.572,31.677 30.604,31.678 30.637,31.678C30.669,31.681 30.702,31.683 30.734,31.686Z" style="fill:rgb(255,140,0);fill-rule:nonzero;"/>
    </g>
    <g transform="matrix(1.33332,0,0,1.33332,0.00026898,5)">
        <path d="M30.734,38.253C30.766,38.259 30.799,38.263 30.83,38.271C30.894,38.285 30.956,38.306 31.015,38.332C31.285,38.451 31.495,38.687 31.582,38.969C31.601,39.031 31.614,39.095 31.621,39.16C31.631,39.249 31.627,39.339 31.633,39.428C31.638,39.48 31.644,39.532 31.651,39.585C31.669,39.691 31.692,39.795 31.723,39.898C31.813,40.188 31.958,40.458 32.134,40.705C32.402,41.082 32.738,41.408 33.099,41.695C33.241,41.807 33.386,41.914 33.536,42.015C33.696,42.124 33.859,42.227 34.026,42.325C34.265,42.465 34.51,42.594 34.759,42.715C35.062,42.861 35.371,42.995 35.684,43.117C36.583,43.467 37.517,43.726 38.462,43.918C39.628,44.154 40.815,44.287 42.003,44.332C43.384,44.384 44.771,44.32 46.139,44.127C47.228,43.974 48.308,43.739 49.354,43.398C49.728,43.276 50.097,43.14 50.46,42.988C50.762,42.861 51.06,42.723 51.351,42.572C51.56,42.463 51.767,42.347 51.968,42.223C52.129,42.124 52.287,42.02 52.44,41.91C52.561,41.824 52.678,41.734 52.793,41.641C52.9,41.553 53.004,41.462 53.105,41.367C53.587,40.914 54.02,40.35 54.155,39.689C54.184,39.546 54.196,39.403 54.198,39.257L54.204,39.16C54.217,39.074 54.217,39.052 54.243,38.969C54.301,38.782 54.412,38.613 54.562,38.487C54.661,38.403 54.777,38.338 54.9,38.297C54.993,38.266 55.09,38.249 55.188,38.245C55.285,38.242 55.383,38.253 55.478,38.277C55.764,38.35 56.009,38.548 56.141,38.812C56.199,38.929 56.235,39.056 56.246,39.186C56.254,39.283 56.249,39.383 56.244,39.48C56.235,39.654 56.215,39.827 56.184,39.998C56.01,40.97 55.491,41.841 54.82,42.553C54.408,42.991 53.939,43.374 53.442,43.712C52.829,44.129 52.171,44.478 51.493,44.777C50.526,45.202 49.515,45.525 48.488,45.77C47.194,46.079 45.871,46.265 44.544,46.349C43.14,46.438 41.727,46.413 40.327,46.271C39.036,46.14 37.752,45.908 36.503,45.552C35.681,45.318 34.872,45.029 34.096,44.671C33.466,44.38 32.855,44.043 32.286,43.645C32.128,43.536 31.974,43.421 31.823,43.302C30.934,42.595 30.159,41.692 29.794,40.601C29.74,40.437 29.694,40.27 29.66,40.1C29.618,39.896 29.591,39.689 29.581,39.48C29.574,39.35 29.568,39.218 29.592,39.089C29.626,38.897 29.717,38.716 29.85,38.572C29.894,38.524 29.943,38.481 29.996,38.443C30.074,38.385 30.161,38.339 30.253,38.305C30.345,38.272 30.442,38.252 30.539,38.247C30.572,38.245 30.604,38.246 30.637,38.245C30.669,38.248 30.702,38.251 30.734,38.253Z" style="fill:rgb(255,140,0);fill-rule:nonzero;"/>
    </g>
</svg>
