<?xml version="1.0" encoding="UTF-8" standalone="no"?>
<!DOCTYPE svg PUBLIC "-//W3C//DTD SVG 1.1//EN" "http://www.w3.org/Graphics/SVG/1.1/DTD/svg11.dtd">
<svg id="icon" width="100%" height="100%" viewBox="0 0 30 30" version="1.1" xmlns="http://www.w3.org/2000/svg" xmlns:xlink="http://www.w3.org/1999/xlink" xml:space="preserve" style="fill-rule:evenodd;clip-rule:evenodd;stroke-linejoin:round;stroke-miterlimit:1.41421;">
    <g transform="matrix(2.55889,0,0,2.55889,-34.5187,-9.80609)">
        <circle cx="19.352" cy="9.694" r="5.862" style="fill:rgb(242,145,0);"/>
    </g>
    <g transform="matrix(0.445674,0,0,0.445674,6.1222,9.5)">
        <g transform="matrix(1.10201,0,0,1.10201,-0.00110201,-8.15157)">
            <path d="M10.527,14.656C10.17,13.409 9.99,11.951 9.99,11.951L9.933,11.951C9.933,11.951 9.755,13.409 9.397,14.656L7.494,21.288L12.431,21.288L10.527,14.656ZM14.631,29.316L13.382,24.946L6.543,24.946L5.293,29.316L0.001,29.316L6.958,7.787L12.965,7.787L19.923,29.316L14.631,29.316Z" style="fill:white;fill-rule:nonzero;"/>
        </g>
        <g transform="matrix(1.10201,0,0,1.10201,-0.00110201,-8.15157)">
            <path d="M29.503,29.794C22.524,29.794 18.564,25.212 18.564,18.596C18.564,11.948 22.854,7.397 29.995,7.397C32.451,7.397 34.844,7.906 36.056,8.565L34.351,12.546C33.434,12.068 32.027,11.707 30.225,11.707C26.752,11.707 24.131,13.894 24.131,18.567C24.131,23.206 26.804,25.368 29.39,25.409C31.23,25.47 32.899,24.62 34.147,23.985L36.153,28.626C34.809,29.287 32.288,29.794 29.503,29.794" style="fill:white;fill-rule:nonzero;"/>
        </g>
    </g>
</svg>
