<?xml version="1.0" encoding="UTF-8" standalone="no"?>
<!DOCTYPE svg PUBLIC "-//W3C//DTD SVG 1.1//EN" "http://www.w3.org/Graphics/SVG/1.1/DTD/svg11.dtd">
<svg width="100%" height="100%" viewBox="0 0 92 69" version="1.1" xmlns="http://www.w3.org/2000/svg" xmlns:xlink="http://www.w3.org/1999/xlink" xml:space="preserve" style="fill-rule:evenodd;clip-rule:evenodd;stroke-linejoin:round;stroke-miterlimit:1.41421;">
    <g transform="matrix(1.16378,0,0,1.16378,-0.000384726,6.68581e-09)">
        <path d="M4.175,5.057L0.75,5.057C0.627,5.045 0.593,5.051 0.476,5.005C0.164,4.883 -0.033,4.557 0.005,4.223C0.015,4.13 0.043,4.04 0.087,3.957C0.109,3.916 0.138,3.879 0.164,3.84L2.998,0.283C3.029,0.25 3.057,0.215 3.091,0.185C3.192,0.097 3.317,0.036 3.45,0.012C3.494,0.004 3.54,0.004 3.584,0L75.469,0C75.514,0.004 75.559,0.008 75.603,0.012C75.646,0.024 75.691,0.032 75.733,0.048C75.817,0.079 75.895,0.126 75.963,0.185C75.997,0.215 76.025,0.25 76.056,0.283L78.891,3.84C78.958,3.943 78.984,3.966 79.021,4.086C79.12,4.407 78.987,4.764 78.703,4.942C78.624,4.992 78.536,5.026 78.444,5.044C78.398,5.053 78.351,5.053 78.304,5.057L74.878,5.057L74.878,58.237C74.868,58.352 74.873,58.384 74.833,58.494C74.758,58.701 74.591,58.867 74.385,58.942C74.275,58.982 74.243,58.977 74.128,58.987L20.626,58.987L20.626,58.987L12.2,58.987L12.2,58.987L4.925,58.987C4.81,58.977 4.778,58.982 4.668,58.942C4.462,58.867 4.295,58.701 4.22,58.494C4.18,58.384 4.185,58.352 4.175,58.237L4.175,5.057ZM73.378,5.057L5.675,5.057L5.675,57.487L11.45,57.487L11.45,45.187C11.453,45.104 11.463,45.024 11.491,44.944C11.565,44.727 11.739,44.552 11.956,44.478C12.036,44.451 12.116,44.441 12.2,44.437C15.029,44.437 17.861,44.323 20.688,44.44C20.771,44.45 20.85,44.467 20.927,44.5C21.118,44.584 21.268,44.747 21.335,44.944C21.363,45.024 21.373,45.104 21.376,45.187L21.376,57.487L73.378,57.487L73.378,5.057ZM12.95,45.937L12.95,57.487L19.876,57.487L19.876,45.937L12.95,45.937ZM66.698,49.854L53.337,49.854C53.253,49.851 53.173,49.841 53.093,49.814C52.876,49.739 52.702,49.565 52.628,49.348C52.6,49.268 52.59,49.188 52.587,49.104L52.587,40.235C52.59,40.152 52.6,40.072 52.628,39.992C52.702,39.775 52.876,39.6 53.093,39.526C53.173,39.499 53.253,39.489 53.337,39.485C57.811,39.485 62.289,39.303 66.76,39.488C66.843,39.498 66.922,39.515 66.999,39.548C67.19,39.632 67.34,39.795 67.407,39.992C67.435,40.072 67.445,40.152 67.448,40.235L67.448,49.104C67.445,49.188 67.435,49.268 67.407,49.348C67.333,49.565 67.159,49.739 66.942,49.814C66.862,49.841 66.782,49.851 66.698,49.854ZM45.965,49.854L32.605,49.854C32.521,49.851 32.441,49.841 32.361,49.814C32.144,49.739 31.97,49.565 31.896,49.348C31.868,49.268 31.858,49.188 31.855,49.104L31.855,40.235C31.858,40.152 31.868,40.072 31.896,39.992C31.97,39.775 32.144,39.6 32.361,39.526C32.441,39.499 32.521,39.489 32.605,39.485C37.079,39.485 41.557,39.303 46.027,39.488C46.11,39.498 46.189,39.515 46.266,39.548C46.457,39.632 46.607,39.795 46.674,39.992C46.702,40.072 46.712,40.152 46.715,40.235L46.715,49.104C46.712,49.188 46.702,49.268 46.674,49.348C46.6,49.565 46.426,49.739 46.209,49.814C46.129,49.841 46.049,49.851 45.965,49.854ZM61.338,40.985L54.087,40.985L54.087,48.354L61.319,48.354C61.263,45.899 61.326,43.442 61.338,40.985ZM62.861,40.985C62.917,43.441 62.854,45.898 62.842,48.354L65.948,48.354L65.948,40.985L62.861,40.985ZM40.606,40.985L33.355,40.985L33.355,48.354L40.587,48.354C40.531,45.899 40.594,43.442 40.606,40.985ZM42.129,40.985C42.185,43.441 42.122,45.898 42.11,48.354L45.215,48.354L45.215,40.985L42.129,40.985ZM23.689,43.309L9.898,43.309C9.841,43.307 9.827,43.308 9.771,43.298C9.624,43.273 9.486,43.204 9.379,43.101C9.16,42.891 9.089,42.561 9.202,42.279C9.234,42.201 9.279,42.127 9.335,42.064C9.391,42 9.458,41.946 9.532,41.904C9.646,41.841 9.768,41.815 9.898,41.809C14.516,41.809 19.138,41.616 23.753,41.812C23.881,41.828 24,41.864 24.109,41.938C24.179,41.985 24.241,42.045 24.292,42.113C24.459,42.339 24.485,42.646 24.359,42.897C24.32,42.973 24.269,43.042 24.208,43.101C24.1,43.204 23.962,43.273 23.816,43.298C23.76,43.308 23.745,43.307 23.689,43.309ZM66.698,35.351L53.337,35.351C53.253,35.348 53.173,35.338 53.093,35.311C52.876,35.236 52.702,35.062 52.628,34.845C52.6,34.765 52.59,34.685 52.587,34.601L52.587,25.732C52.59,25.649 52.6,25.569 52.628,25.489C52.702,25.272 52.876,25.097 53.093,25.023C53.173,24.996 53.253,24.986 53.337,24.982C57.811,24.982 62.289,24.8 66.76,24.985C66.843,24.995 66.922,25.012 66.999,25.045C67.19,25.129 67.34,25.292 67.407,25.489C67.435,25.569 67.445,25.649 67.448,25.732L67.448,34.601C67.445,34.685 67.435,34.765 67.407,34.845C67.333,35.062 67.159,35.236 66.942,35.311C66.862,35.338 66.782,35.348 66.698,35.351ZM25.233,35.351L11.873,35.351C11.789,35.348 11.709,35.338 11.629,35.311C11.412,35.236 11.238,35.062 11.164,34.845C11.136,34.765 11.126,34.685 11.123,34.601L11.123,25.732C11.126,25.649 11.136,25.569 11.164,25.489C11.238,25.272 11.412,25.097 11.629,25.023C11.709,24.996 11.789,24.986 11.873,24.982C16.347,24.982 20.825,24.8 25.295,24.985C25.378,24.995 25.457,25.012 25.534,25.045C25.725,25.129 25.875,25.292 25.942,25.489C25.97,25.569 25.98,25.649 25.983,25.732L25.983,34.601C25.98,34.685 25.97,34.765 25.942,34.845C25.868,35.062 25.694,35.236 25.477,35.311C25.397,35.338 25.317,35.348 25.233,35.351ZM45.965,35.351L32.605,35.351C32.521,35.348 32.441,35.338 32.361,35.311C32.144,35.236 31.97,35.062 31.896,34.845C31.868,34.765 31.858,34.685 31.855,34.601L31.855,25.732C31.858,25.649 31.868,25.569 31.896,25.489C31.97,25.272 32.144,25.097 32.361,25.023C32.441,24.996 32.521,24.986 32.605,24.982C37.079,24.982 41.557,24.8 46.027,24.985C46.11,24.995 46.189,25.012 46.266,25.045C46.457,25.129 46.607,25.292 46.674,25.489C46.702,25.569 46.712,25.649 46.715,25.732L46.715,34.601C46.712,34.685 46.702,34.765 46.674,34.845C46.6,35.062 46.426,35.236 46.209,35.311C46.129,35.338 46.049,35.348 45.965,35.351ZM61.338,26.482L54.087,26.482L54.087,33.851L61.319,33.851C61.263,31.396 61.326,28.939 61.338,26.482ZM62.861,26.482C62.917,28.938 62.854,31.395 62.842,33.851L65.948,33.851L65.948,26.482L62.861,26.482ZM19.874,26.482L12.623,26.482L12.623,33.851L19.855,33.851C19.799,31.396 19.862,28.939 19.874,26.482ZM21.397,26.482C21.453,28.938 21.39,31.395 21.378,33.851L24.483,33.851L24.483,26.482L21.397,26.482ZM40.606,26.482L33.355,26.482L33.355,33.851L40.587,33.851C40.531,31.396 40.594,28.939 40.606,26.482ZM42.129,26.482C42.185,28.938 42.122,31.395 42.11,33.851L45.215,33.851L45.215,26.482L42.129,26.482ZM62.079,20.847L53.337,20.847C53.253,20.844 53.173,20.834 53.093,20.807C52.876,20.732 52.702,20.558 52.628,20.341C52.6,20.261 52.59,20.181 52.587,20.097L52.587,11.228C52.59,11.145 52.6,11.065 52.628,10.985C52.702,10.768 52.876,10.593 53.093,10.519C53.173,10.492 53.253,10.482 53.337,10.478C57.811,10.478 62.289,10.296 66.76,10.481C66.843,10.491 66.922,10.508 66.999,10.541C67.19,10.625 67.34,10.788 67.407,10.985C67.435,11.065 67.445,11.145 67.448,11.228L67.448,20.097C67.445,20.181 67.435,20.261 67.407,20.341C67.333,20.558 67.159,20.732 66.942,20.807C66.862,20.834 66.782,20.844 66.698,20.847L62.095,20.847C62.089,20.847 62.084,20.847 62.079,20.847ZM25.233,20.847L11.873,20.847C11.789,20.844 11.709,20.834 11.629,20.807C11.412,20.732 11.238,20.558 11.164,20.341C11.136,20.261 11.126,20.181 11.123,20.097L11.123,11.228C11.126,11.145 11.136,11.065 11.164,10.985C11.238,10.768 11.412,10.593 11.629,10.519C11.709,10.492 11.789,10.482 11.873,10.478C16.347,10.478 20.825,10.296 25.295,10.481C25.378,10.491 25.457,10.508 25.534,10.541C25.725,10.625 25.875,10.788 25.942,10.985C25.97,11.065 25.98,11.145 25.983,11.228L25.983,20.097C25.98,20.181 25.97,20.261 25.942,20.341C25.868,20.558 25.694,20.732 25.477,20.807C25.397,20.834 25.317,20.844 25.233,20.847ZM45.965,20.847L32.605,20.847C32.521,20.844 32.441,20.834 32.361,20.807C32.144,20.732 31.97,20.558 31.896,20.341C31.868,20.261 31.858,20.181 31.855,20.097L31.855,11.228C31.858,11.145 31.868,11.065 31.896,10.985C31.97,10.768 32.144,10.593 32.361,10.519C32.441,10.492 32.521,10.482 32.605,10.478C37.079,10.478 41.557,10.296 46.027,10.481C46.11,10.491 46.189,10.508 46.266,10.541C46.457,10.625 46.607,10.788 46.674,10.985C46.702,11.065 46.712,11.145 46.715,11.228L46.715,20.097C46.712,20.181 46.702,20.261 46.674,20.341C46.6,20.558 46.426,20.732 46.209,20.807C46.129,20.834 46.049,20.844 45.965,20.847ZM19.874,11.978L12.623,11.978L12.623,19.347L19.855,19.347C19.799,16.892 19.862,14.435 19.874,11.978ZM24.483,11.978L21.397,11.978C21.453,14.434 21.39,16.891 21.378,19.347L24.483,19.347L24.483,11.978ZM40.606,11.978L33.355,11.978L33.355,19.347L40.587,19.347C40.531,16.892 40.594,14.435 40.606,11.978ZM45.215,11.978L42.129,11.978C42.185,14.434 42.122,16.891 42.11,19.347L45.215,19.347L45.215,11.978ZM61.338,11.978L54.087,11.978L54.087,19.347L61.319,19.347C61.263,16.892 61.326,14.435 61.338,11.978ZM65.948,11.978L62.861,11.978C62.917,14.434 62.854,16.891 62.842,19.347L65.948,19.347L65.948,11.978ZM74.136,3.557L76.747,3.557L75.108,1.5C51.387,1.5 27.657,0.83 3.946,1.5C3.069,1.525 2.853,2.871 2.307,3.557L4.917,3.557L4.925,3.556L74.128,3.556L74.136,3.557Z" style="fill:rgb(255,140,0);"/>
    </g>
</svg>
