<svg id="Vrstva_1" data-name="Vrstva 1" xmlns="http://www.w3.org/2000/svg" viewBox="0 0 62.441 54.362"><path d="M45.126,51.771,20.182,26.827a4.514,4.514,0,0,0-4.112-1.265A12.347,12.347,0,0,1,1.464,10.6l7.531,7.532L16.2,16.2l1.932-7.209L10.6,1.464A12.346,12.346,0,0,1,25.562,16.07a4.514,4.514,0,0,0,1.265,4.112L51.879,45.234a4.711,4.711,0,0,1-.779,7.277A4.8,4.8,0,0,1,45.126,51.771Z" fill="none" stroke="#ff8c00" stroke-linecap="round" stroke-linejoin="round" stroke-width="2.25"/><path d="M17.315,51.771,42.259,26.827a4.514,4.514,0,0,1,4.112-1.265A12.347,12.347,0,0,0,60.977,10.6l-7.532,7.532L46.237,16.2,44.305,8.995l7.531-7.531A12.346,12.346,0,0,0,36.879,16.07a4.514,4.514,0,0,1-1.265,4.112L10.561,45.234a4.712,4.712,0,0,0,.78,7.277A4.8,4.8,0,0,0,17.315,51.771Z" fill="#fff" stroke="#ff8c00" stroke-linecap="round" stroke-linejoin="round" stroke-width="2.25"/></svg>