<svg xmlns="http://www.w3.org/2000/svg" width="139.777" height="139.082" viewBox="0 0 139.777 139.082">
  <g id="Group_385" data-name="Group 385" transform="translate(-992.112 -503.722)">
    <path id="Path_418" data-name="Path 418" d="M354.5,396.183l9.172-3.044a6.472,6.472,0,0,1,6.409,1.362l7.14,6.512a6.475,6.475,0,0,0,3.73,1.662l9.618.949a6.476,6.476,0,0,1,5.3,3.851l3.874,8.855a6.482,6.482,0,0,0,2.734,3.035l8.4,4.777a6.48,6.48,0,0,1,3.278,5.673l-.064,9.666a6.482,6.482,0,0,0,1.262,3.883l5.732,7.783a6.478,6.478,0,0,1,.683,6.516l-3.988,8.8a6.48,6.48,0,0,0-.425,4.062l2.071,9.44A6.481,6.481,0,0,1,417.4,486.2l-7.225,6.418a6.473,6.473,0,0,0-2.041,3.538l-1.947,9.467a6.485,6.485,0,0,1-4.386,4.868l-9.209,2.926a6.475,6.475,0,0,0-3.305,2.4l-5.629,7.856a6.484,6.484,0,0,1-5.986,2.665l-9.6-1.074a6.479,6.479,0,0,0-4,.85L355.738,531a6.489,6.489,0,0,1-6.553,0l-8.338-4.887a6.476,6.476,0,0,0-4-.85l-9.6,1.074a6.48,6.48,0,0,1-5.984-2.665l-5.63-7.856a6.493,6.493,0,0,0-3.3-2.4l-9.211-2.926a6.482,6.482,0,0,1-4.384-4.868l-1.947-9.467a6.476,6.476,0,0,0-2.043-3.538l-7.223-6.418a6.482,6.482,0,0,1-2.025-6.233l2.071-9.44a6.482,6.482,0,0,0-.427-4.062l-3.988-8.8a6.478,6.478,0,0,1,.686-6.516l5.73-7.783a6.47,6.47,0,0,0,1.264-3.883l-.064-9.666a6.473,6.473,0,0,1,3.275-5.673l8.4-4.777a6.494,6.494,0,0,0,2.734-3.035l3.872-8.855a6.476,6.476,0,0,1,5.3-3.851l9.618-.949a6.482,6.482,0,0,0,3.732-1.662l7.138-6.512a6.473,6.473,0,0,1,6.409-1.362l9.172,3.044A6.47,6.47,0,0,0,354.5,396.183Z" transform="translate(709.538 110.915)" fill="#559f00"/>
    <g id="Group_357" data-name="Group 357" transform="translate(1038.481 529.63)">
      <path id="Subtraction_1" data-name="Subtraction 1" d="M23.2,19.71a8.325,8.325,0,0,1-3.026-.564,8.545,8.545,0,0,0,.06-1.012,8.369,8.369,0,0,0-12.5-7.288A11.23,11.23,0,0,0,0,6.838,11.32,11.32,0,0,1,19.067,4.045,8.375,8.375,0,1,1,23.2,19.71Z" transform="translate(12.259 0)" fill="none" stroke="#fff" stroke-width="4"/>
      <path id="Union_3" data-name="Union 3" d="M0,11.5A11.329,11.329,0,0,1,11.151,0a11,11,0,0,1,8.541,4.1A8.015,8.015,0,0,1,23.758,3,8.374,8.374,0,0,1,32,11.5,8.374,8.374,0,0,1,23.758,20a8.016,8.016,0,0,1-4.067-1.1A11,11,0,0,1,11.151,23,11.329,11.329,0,0,1,0,11.5Z" transform="translate(-0.482 6.37)" fill="none" stroke="#fff" stroke-width="4"/>
    </g>
  </g>
</svg>
