<?xml version="1.0" standalone="no"?>
<!-- Generator: Adobe Fireworks 10, Export SVG Extension by Aaron Beall (http://fireworks.abeall.com) . Version: 0.6.0  -->
<!DOCTYPE svg PUBLIC "-//W3C//DTD SVG 1.1//EN" "http://www.w3.org/Graphics/SVG/1.1/DTD/svg11.dtd">
<svg id="" viewBox="0 0 38 38" style="background-color:#ffffff00" version="1.1"
	xmlns="http://www.w3.org/2000/svg" xmlns:xlink="http://www.w3.org/1999/xlink" xml:space="preserve"
	x="0px" y="0px" width="38px" height="38px"
>
	<g id="Vrstva%201">
		<path id="lang" d="M 22.2644 10.9271 C 22.3525 11.0447 22.4362 11.1647 22.5151 11.2871 C 22.6503 11.4929 22.7761 11.7047 22.8926 11.9212 C 23.015 12.1482 23.1292 12.38 23.2338 12.6153 C 23.4432 13.0835 23.6196 13.5659 23.769 14.0565 C 23.8903 14.0318 24.0103 14.0047 24.1316 13.9776 C 24.6786 13.8506 25.2197 13.6976 25.7456 13.4988 C 24.962 12.5412 23.9785 11.7506 22.8679 11.1988 C 22.6703 11.1 22.4691 11.0094 22.2644 10.9271 L 22.2644 10.9271 L 22.2644 10.9271 ZM 15.735 10.9271 C 15.5963 10.9835 15.4574 11.0435 15.3221 11.1071 C 14.1339 11.6612 13.082 12.4859 12.2549 13.4976 C 12.8973 13.7376 13.5597 13.9188 14.2316 14.0588 C 14.3809 13.5671 14.5574 13.0847 14.7667 12.6153 C 14.8715 12.38 14.9844 12.1482 15.1068 11.9212 C 15.2245 11.7047 15.3491 11.4929 15.4844 11.2871 C 15.5645 11.1647 15.6479 11.0447 15.735 10.9271 L 15.735 10.9271 L 15.735 10.9271 ZM 18.9633 10.2941 L 18.9526 10.2953 C 18.8291 10.2988 18.7068 10.3129 18.5869 10.34 C 17.8527 10.5024 17.2633 11.0565 16.8221 11.6365 C 16.7327 11.7529 16.6479 11.8741 16.568 11.9965 C 16.4526 12.1718 16.3457 12.3529 16.2468 12.5376 C 16.1116 12.7871 15.9902 13.0424 15.8785 13.3035 C 15.7433 13.6224 15.6244 13.9482 15.5186 14.2788 C 15.6786 14.3012 15.8397 14.3212 16.001 14.34 C 17.7291 14.5435 19.4833 14.5647 21.2173 14.4188 C 21.6396 14.3835 22.062 14.3377 22.4819 14.2788 C 22.3762 13.9482 22.2573 13.6224 22.1208 13.3035 C 22.0103 13.0424 21.8879 12.7871 21.7538 12.5376 C 21.6538 12.3529 21.5468 12.1718 21.4326 11.9965 C 21.3514 11.8741 21.2667 11.7529 21.1786 11.6365 C 20.7361 11.0565 20.1455 10.5024 19.4126 10.34 C 19.2927 10.3129 19.1726 10.3 19.0503 10.2953 C 19.0221 10.2953 18.9927 10.2941 18.9633 10.2941 L 18.9633 10.2941 L 18.9633 10.2941 ZM 22.8151 15.5388 C 22.7716 15.5447 22.7267 15.5518 22.682 15.5576 C 21.6597 15.7012 20.6281 15.7776 19.5961 15.7988 C 18.7151 15.8176 17.8339 15.7965 16.955 15.7318 C 16.3633 15.6882 15.7726 15.6259 15.1857 15.5388 C 15.0221 16.3 14.9185 17.0741 14.868 17.8506 C 14.8585 18 14.8503 18.1494 14.8445 18.2988 C 17.6138 18.2518 20.3844 18.1953 23.1527 18.2129 C 23.1469 18.0918 23.1409 17.9718 23.1326 17.8506 C 23.082 17.0741 22.9785 16.3 22.8151 15.5388 L 22.8151 15.5388 L 22.8151 15.5388 ZM 26.5068 14.5906 C 25.728 14.9094 24.9163 15.1412 24.0914 15.3141 C 24.2621 16.1212 24.3702 16.9424 24.4244 17.7659 C 24.4349 17.9188 24.4432 18.0729 24.4491 18.2259 C 25.5256 18.2424 26.6022 18.2718 27.6785 18.32 C 27.6563 18.0306 27.6198 17.7435 27.5692 17.4576 C 27.4185 16.6165 27.1421 15.7976 26.7526 15.0365 C 26.675 14.8859 26.5938 14.7365 26.5068 14.5906 L 26.5068 14.5906 L 26.5068 14.5906 ZM 11.4927 14.5894 C 11.4421 14.6753 11.3927 14.7624 11.3457 14.8506 C 10.9385 15.6 10.6432 16.4094 10.4714 17.2447 C 10.3973 17.6094 10.3456 17.98 10.3185 18.3506 C 11.395 18.3471 12.4716 18.3353 13.548 18.3188 C 13.5574 18.0541 13.5726 17.7894 13.5939 17.5247 C 13.6514 16.7812 13.755 16.0412 13.9092 15.3118 C 13.8774 15.3059 13.8457 15.2988 13.814 15.2918 C 13.0233 15.12 12.2408 14.8976 11.4927 14.5894 L 11.4927 14.5894 L 11.4927 14.5894 ZM 23.1586 19.6471 L 14.842 19.6471 C 14.8621 20.1835 14.9067 20.72 14.9774 21.2518 C 15.0303 21.6577 15.0997 22.0612 15.1843 22.4612 C 16.3479 22.2906 17.5244 22.2141 18.6997 22.1953 C 18.9998 22.1941 18.9998 22.1941 19.2998 22.1953 C 20.4762 22.2141 21.6515 22.2906 22.8162 22.4612 C 22.901 22.0612 22.9702 21.6577 23.0244 21.2518 C 23.0939 20.72 23.1384 20.1835 23.1586 19.6471 L 23.1586 19.6471 L 23.1586 19.6471 ZM 13.5457 19.6471 L 10.3185 19.6471 C 10.3303 19.8012 10.3456 19.9553 10.3645 20.1094 C 10.4773 20.9976 10.729 21.8671 11.1079 22.6777 C 11.2244 22.9282 11.3527 23.1718 11.4927 23.4094 C 12.2715 23.0894 13.0856 22.8612 13.9092 22.6871 C 13.8209 22.2682 13.749 21.8459 13.6926 21.4224 C 13.615 20.8341 13.5668 20.2412 13.5457 19.6471 L 13.5457 19.6471 L 13.5457 19.6471 ZM 27.6809 19.6471 L 24.455 19.6471 C 24.4314 20.3188 24.3727 20.9894 24.275 21.6541 C 24.2245 22 24.1633 22.3447 24.0914 22.6871 C 24.915 22.86 25.729 23.0882 26.5068 23.4094 C 26.6115 23.2329 26.7091 23.0518 26.8008 22.8682 C 27.1974 22.0694 27.4691 21.2082 27.6044 20.3259 C 27.6385 20.1012 27.6644 19.8741 27.6809 19.6471 L 27.6809 19.6471 ZM 23.769 23.9412 C 23.6786 24.24 23.5774 24.5365 23.4645 24.8282 C 23.3456 25.1376 23.2139 25.4412 23.0679 25.7377 C 22.9574 25.9647 22.8374 26.1859 22.709 26.4024 C 22.6161 26.5588 22.5184 26.7118 22.415 26.8624 C 22.3668 26.9329 22.3162 27.0024 22.2644 27.0729 C 23.2467 26.6741 24.1538 26.0953 24.9292 25.3729 C 25.2208 25.1012 25.4939 24.8106 25.7456 24.5024 C 25.1033 24.2624 24.4409 24.0812 23.769 23.9412 L 23.769 23.9412 L 23.769 23.9412 ZM 14.2316 23.9424 C 14.1102 23.9682 13.9891 23.9941 13.8679 24.0224 C 13.3209 24.1482 12.7786 24.3024 12.2539 24.5012 C 12.4609 24.7565 12.6832 24.9988 12.9186 25.2294 C 13.6949 25.9871 14.6127 26.5988 15.6115 27.0212 C 15.6527 27.0388 15.6938 27.0553 15.735 27.0729 C 15.6479 26.9541 15.5645 26.8341 15.4844 26.7129 C 15.3833 26.5588 15.288 26.4024 15.1973 26.2424 C 15.0726 26.02 14.9562 25.7941 14.8479 25.5624 C 14.7067 25.26 14.5785 24.9506 14.4644 24.6365 C 14.3798 24.4071 14.302 24.1765 14.2316 23.9424 L 14.2316 23.9424 L 14.2316 23.9424 ZM 22.4819 23.7212 C 22.3208 23.6988 22.1597 23.6776 21.9984 23.6588 C 20.2703 23.4565 18.5162 23.4341 16.7821 23.58 C 16.3597 23.6165 15.9385 23.6624 15.5186 23.72 C 15.5503 23.8188 15.5831 23.9176 15.6173 24.0165 C 15.7162 24.3012 15.8267 24.5812 15.9491 24.8565 C 16.0621 25.1118 16.1868 25.3612 16.3243 25.6035 C 16.4257 25.7824 16.5339 25.9577 16.6515 26.1271 C 16.7327 26.2459 16.8185 26.3612 16.908 26.4741 C 17.3644 27.0424 17.9773 27.5753 18.7233 27.6847 C 18.8149 27.6988 18.9069 27.7047 18.9985 27.7047 C 19.0914 27.7047 19.1832 27.6988 19.275 27.6847 C 20.0209 27.5753 20.6338 27.0424 21.0914 26.4741 C 21.1821 26.3612 21.2667 26.2459 21.349 26.1271 C 21.4656 25.9577 21.5737 25.7824 21.675 25.6035 C 21.8126 25.3612 21.9373 25.1118 22.0515 24.8565 C 22.1738 24.5812 22.2844 24.3012 22.3833 24.0165 C 22.4175 23.9176 22.4502 23.82 22.4819 23.7212 L 22.4819 23.7212 L 22.4819 23.7212 ZM 19.0221 9 C 19.0573 9 19.0927 9 19.1279 9 C 19.595 9.0094 20.0597 9.0435 20.522 9.1141 C 21.4562 9.2576 22.3691 9.5341 23.2257 9.9341 C 25.1573 10.8353 26.775 12.36 27.7926 14.2329 C 28.2607 15.0941 28.5997 16.0247 28.7963 16.9847 C 29.0173 18.0647 29.0586 19.18 28.9197 20.2729 C 28.7892 21.2941 28.501 22.2929 28.0657 23.2259 C 27.5562 24.3177 26.848 25.3141 25.9856 26.1553 C 25.0939 27.0259 24.041 27.7282 22.8926 28.2141 C 21.7031 28.7165 20.4186 28.9835 19.1279 28.9988 C 19.0914 29 19.0551 29 19.0186 29 C 19.0056 29 18.9927 29 18.9785 29 C 17.7338 28.9977 16.4916 28.7635 15.3328 28.3059 C 14.1726 27.8482 13.1008 27.1706 12.188 26.3212 C 11.3069 25.5012 10.575 24.5224 10.0398 23.4447 C 9.5833 22.5259 9.2703 21.5365 9.115 20.5224 C 8.9551 19.4741 8.962 18.4 9.135 17.3541 C 9.2961 16.3824 9.6021 15.4365 10.0398 14.5553 C 11.0068 12.6094 12.6104 11.0059 14.5551 10.0388 C 15.3986 9.62 16.3021 9.3212 17.2302 9.1553 C 17.688 9.0741 18.149 9.0271 18.6127 9.0071 C 18.7385 9.0024 18.8633 9 18.9891 9 L 19.0221 9 L 19.0221 9 Z" fill="#ff8c00"/>
	</g>
</svg>