<?xml version="1.0" standalone="no"?>
<!-- Generator: Adobe Fireworks 10, Export SVG Extension by Aaron Beall (http://fireworks.abeall.com) . Version: 0.6.0  -->
<!DOCTYPE svg PUBLIC "-//W3C//DTD SVG 1.1//EN" "http://www.w3.org/Graphics/SVG/1.1/DTD/svg11.dtd">
<svg id="" viewBox="0 0 49 17" style="background-color:#ffffff00" version="1.1"
	xmlns="http://www.w3.org/2000/svg" xmlns:xlink="http://www.w3.org/1999/xlink" xml:space="preserve"
	x="0px" y="0px" width="49px" height="17px"
>
	<g id="Vrstva%201">
		<path d="M 42 5 L 45 8 L 45 9 L 42 12 L 42 5 ZM 1.5 7 C 0.6715 7 0 7.6716 0 8.5 C 0 9.3284 0.6715 10 1.5 10 L 39 10 L 39 15 C 39 16.1046 39.8954 17 41 17 C 41 17 49 10.1046 49 9 L 49 8 C 49 6.8954 41 0 41 0 C 39.8954 0 39 0.8954 39 2 L 39 7 L 1.5 7 Z" fill="#ff8c00"/>
	</g>
</svg>