<?xml version="1.0" encoding="UTF-8"?>
<svg xmlns="http://www.w3.org/2000/svg" xmlns:xlink="http://www.w3.org/1999/xlink" width="31px" height="30px" viewBox="0 0 31 30" version="1.1">
<g id="surface1">
<path style="fill:none;stroke-width:0.8;stroke-linecap:round;stroke-linejoin:round;stroke:rgb(100%,54.901961%,0%);stroke-opacity:1;stroke-miterlimit:10;" d="M 16.054309 15.307292 L 16.054309 19.528646 L 11.56376 15.307292 L 2.593246 15.307292 C 1.383947 15.307292 0.399572 14.328125 0.399572 13.119792 L 0.399572 2.59375 C 0.399572 1.382812 1.383947 0.401042 2.593246 0.401042 L 18.404108 0.401042 C 19.613407 0.401042 20.597782 1.382812 20.597782 2.59375 L 20.597782 13.119792 C 20.597782 14.234375 19.758947 15.15625 18.679309 15.291667 " transform="matrix(1.47619,0,0,1.5,0,0)"/>
<path style="fill:none;stroke-width:0.6;stroke-linecap:round;stroke-linejoin:round;stroke:rgb(100%,54.901961%,0%);stroke-opacity:1;stroke-miterlimit:10;" d="M 16.879914 8.028646 C 16.879914 8.625 16.395665 9.109375 15.797631 9.109375 C 15.202243 9.109375 14.717994 8.625 14.717994 8.028646 C 14.717994 7.429688 15.202243 6.945312 15.797631 6.945312 C 16.395665 6.945312 16.879914 7.429688 16.879914 8.028646 Z M 16.879914 8.028646 " transform="matrix(1.47619,0,0,1.5,0,0)"/>
<path style="fill:none;stroke-width:0.6;stroke-linecap:round;stroke-linejoin:round;stroke:rgb(100%,54.901961%,0%);stroke-opacity:1;stroke-miterlimit:10;" d="M 11.579637 8.028646 C 11.579637 8.625 11.095388 9.109375 10.5 9.109375 C 9.901966 9.109375 9.417717 8.625 9.417717 8.028646 C 9.417717 7.429688 9.901966 6.945312 10.5 6.945312 C 11.095388 6.945312 11.579637 7.429688 11.579637 8.028646 Z M 11.579637 8.028646 " transform="matrix(1.47619,0,0,1.5,0,0)"/>
<path style="fill:none;stroke-width:0.6;stroke-linecap:round;stroke-linejoin:round;stroke:rgb(100%,54.901961%,0%);stroke-opacity:1;stroke-miterlimit:10;" d="M 4.11744 8.028646 C 4.11744 8.625 4.601689 9.109375 5.199723 9.109375 C 5.797757 9.109375 6.282006 8.625 6.282006 8.028646 C 6.282006 7.429688 5.797757 6.945312 5.199723 6.945312 C 4.601689 6.945312 4.11744 7.429688 4.11744 8.028646 Z M 4.11744 8.028646 " transform="matrix(1.47619,0,0,1.5,0,0)"/>
</g>
</svg>
