<?xml version="1.0" encoding="UTF-8" standalone="no"?>
<!DOCTYPE svg PUBLIC "-//W3C//DTD SVG 1.1//EN" "http://www.w3.org/Graphics/SVG/1.1/DTD/svg11.dtd">
<svg width="100%" height="100%" viewBox="0 0 58 58" version="1.1" xmlns="http://www.w3.org/2000/svg" xmlns:xlink="http://www.w3.org/1999/xlink" xml:space="preserve" style="fill-rule:evenodd;clip-rule:evenodd;stroke-linejoin:round;stroke-miterlimit:1.41421;">
    <g transform="matrix(2.83475,0,0,2.83475,0.000530658,-0.000566493)">
        <path d="M17.488,3.024C18.201,3.742 18.809,4.564 19.283,5.463C19.752,6.351 20.088,7.308 20.277,8.294C20.489,9.401 20.517,10.544 20.361,11.66C20.215,12.701 19.907,13.718 19.451,14.665C18.916,15.775 18.18,16.785 17.288,17.635C16.365,18.515 15.278,19.221 14.097,19.704C12.872,20.204 11.553,20.46 10.23,20.46C8.907,20.46 7.588,20.204 6.363,19.704C5.182,19.221 4.095,18.515 3.172,17.635C2.28,16.785 1.544,15.775 1.009,14.665C0.553,13.718 0.245,12.701 0.099,11.66C-0.057,10.544 -0.029,9.401 0.183,8.294C0.372,7.308 0.708,6.351 1.177,5.463C2.214,3.497 3.893,1.896 5.907,0.956C6.783,0.547 7.717,0.264 8.673,0.118C9.145,0.046 9.62,0.01 10.098,0.001C10.23,0 10.229,0 10.362,0.001C10.84,0.01 11.315,0.046 11.787,0.118C12.743,0.264 13.677,0.547 14.553,0.956C15.623,1.455 16.599,2.141 17.434,2.97C17.454,2.986 17.472,3.004 17.488,3.024ZM17.173,3.852L11.547,9.479C13.07,11.017 14.619,12.529 16.149,14.06C16.31,14.228 16.437,14.422 16.514,14.643C16.583,14.84 16.611,15.051 16.595,15.26C16.581,15.431 16.537,15.599 16.464,15.754C16.399,15.893 16.31,16.021 16.205,16.134C16.1,16.246 15.978,16.342 15.843,16.416C15.466,16.625 15.004,16.657 14.601,16.505C14.419,16.436 14.256,16.33 14.113,16.199C12.544,14.674 11.096,13.021 9.52,11.506L3.851,17.175C4.674,17.931 5.631,18.54 6.666,18.963C7.795,19.424 9.011,19.66 10.23,19.66C11.449,19.66 12.665,19.424 13.794,18.963C14.883,18.518 15.885,17.868 16.736,17.056C17.558,16.273 18.237,15.341 18.73,14.318C19.151,13.446 19.434,12.508 19.568,11.549C19.713,10.52 19.687,9.466 19.491,8.444C19.317,7.536 19.008,6.654 18.576,5.836C18.196,5.116 17.723,4.449 17.173,3.852ZM16.608,3.287C15.899,2.635 15.091,2.09 14.215,1.681C13.408,1.304 12.547,1.043 11.667,0.909C11.231,0.842 10.792,0.809 10.352,0.801C10.23,0.8 10.23,0.8 10.108,0.801C9.668,0.809 9.229,0.842 8.793,0.909C7.913,1.043 7.052,1.304 6.245,1.681C4.389,2.547 2.84,4.024 1.884,5.836C1.452,6.654 1.143,7.536 0.969,8.444C0.773,9.466 0.747,10.52 0.892,11.549C1.026,12.508 1.309,13.446 1.73,14.318C2.132,15.153 2.658,15.927 3.285,16.609L8.937,10.958C8.727,10.765 8.514,10.575 8.298,10.388C8.17,10.285 8.01,10.225 7.844,10.238C7.753,10.245 7.663,10.269 7.573,10.284C7.475,10.297 7.475,10.297 7.377,10.308C7.245,10.317 7.114,10.323 6.982,10.319C6.685,10.309 6.389,10.258 6.105,10.168C5.881,10.096 5.665,10 5.462,9.882C4.887,9.546 4.421,9.031 4.146,8.424C4.034,8.176 3.954,7.914 3.908,7.645C3.856,7.346 3.847,7.04 3.88,6.738C3.894,6.605 3.919,6.475 3.948,6.345L3.959,6.304C3.981,6.25 4.006,6.201 4.046,6.158C4.155,6.041 4.329,6.001 4.478,6.057C4.533,6.077 4.578,6.11 4.621,6.148L6.184,7.71L7.389,7.388L7.711,6.182L6.149,4.62L6.121,4.588C6.087,4.541 6.059,4.494 6.045,4.437C6.009,4.297 6.053,4.144 6.159,4.046C6.202,4.005 6.25,3.98 6.304,3.958C6.371,3.94 6.371,3.941 6.439,3.926C6.639,3.888 6.838,3.866 7.042,3.86C7.143,3.86 7.143,3.86 7.244,3.863C7.584,3.884 7.916,3.946 8.236,4.066C8.956,4.338 9.566,4.872 9.933,5.549C10.076,5.813 10.182,6.098 10.247,6.392C10.317,6.714 10.339,7.047 10.309,7.375C10.301,7.474 10.287,7.572 10.27,7.67C10.259,7.728 10.245,7.784 10.239,7.843C10.237,7.875 10.238,7.906 10.24,7.938C10.255,8.086 10.318,8.218 10.418,8.328C10.606,8.522 10.795,8.716 10.985,8.909L16.608,3.287ZM10.985,10.041L10.053,10.973C11.595,12.535 13.033,14.207 14.691,15.643C14.754,15.695 14.825,15.736 14.902,15.763C15.113,15.836 15.355,15.8 15.534,15.665C15.606,15.611 15.667,15.542 15.713,15.464C15.751,15.399 15.777,15.327 15.79,15.253C15.804,15.167 15.801,15.078 15.783,14.993C15.754,14.862 15.69,14.745 15.602,14.645C14.098,13.076 12.523,11.576 10.985,10.041ZM10.421,9.474C10.225,9.275 10.029,9.076 9.835,8.876C9.765,8.8 9.701,8.718 9.647,8.63C9.509,8.402 9.434,8.137 9.438,7.871C9.439,7.729 9.472,7.593 9.495,7.453C9.505,7.379 9.505,7.379 9.512,7.305C9.534,7.005 9.511,6.708 9.429,6.418C9.228,5.713 8.702,5.124 8.025,4.843C7.811,4.755 7.589,4.702 7.36,4.674L7.332,4.671C7.701,5.041 8.071,5.41 8.44,5.78C8.465,5.807 8.472,5.813 8.493,5.845C8.548,5.93 8.563,6.025 8.552,6.125C8.431,6.696 8.253,7.254 8.102,7.818C8.071,7.913 8.019,7.994 7.933,8.05C7.902,8.07 7.892,8.073 7.858,8.088C7.303,8.268 6.731,8.392 6.168,8.543C6.131,8.551 6.122,8.554 6.085,8.556C5.968,8.562 5.867,8.516 5.781,8.439L4.672,7.331C4.746,8.127 5.231,8.848 5.932,9.228C6.131,9.336 6.344,9.415 6.565,9.464C6.808,9.517 7.058,9.533 7.306,9.511C7.451,9.498 7.592,9.463 7.736,9.444C7.782,9.44 7.827,9.437 7.872,9.436C7.962,9.436 8.051,9.442 8.139,9.458C8.403,9.506 8.642,9.629 8.845,9.804C9.061,10.002 9.274,10.204 9.485,10.409L10.421,9.474Z" style="fill:#FF8C00;"/>
    </g>
</svg>
