<?xml version="1.0" encoding="UTF-8" standalone="no"?>
<!DOCTYPE svg PUBLIC "-//W3C//DTD SVG 1.1//EN" "http://www.w3.org/Graphics/SVG/1.1/DTD/svg11.dtd">
<svg width="100%" height="100%" viewBox="0 0 28 28" version="1.1" xmlns="http://www.w3.org/2000/svg" xmlns:xlink="http://www.w3.org/1999/xlink" xml:space="preserve" style="fill-rule:evenodd;clip-rule:evenodd;stroke-linejoin:round;stroke-miterlimit:1.41421;">
    <g transform="matrix(1.02448,0,0,1.02448,0.000614687,0)">
        <path d="M13.665,0C6.118,0 -0.001,6.118 -0.001,13.665C-0.001,21.212 6.118,27.331 13.665,27.331C21.212,27.331 27.33,21.212 27.33,13.665C27.33,6.118 21.212,0 13.665,0M13.665,1.7C20.263,1.7 25.63,7.067 25.63,13.665C25.63,20.263 20.263,25.63 13.665,25.63C7.067,25.63 1.7,20.263 1.7,13.665C1.7,7.067 7.067,1.7 13.665,1.7" style="fill:rgb(255,140,0);fill-rule:nonzero;"/>
        <path d="M15.563,5.137C15.664,5.15 15.761,5.173 15.854,5.217C16.093,5.332 16.268,5.558 16.32,5.819C16.34,5.92 16.338,6.019 16.325,6.12C15.806,8.721 15.104,11.281 14.492,13.861C14.456,13.995 14.398,14.118 14.306,14.223C14.267,14.268 14.223,14.306 14.177,14.343C12.5,15.521 10.745,16.583 9.028,17.702C8.905,17.776 8.775,17.826 8.63,17.837C8.529,17.845 8.427,17.835 8.33,17.807C8.252,17.785 8.178,17.751 8.109,17.708C7.813,17.52 7.66,17.158 7.732,16.815C7.766,16.656 7.845,16.508 7.959,16.393C8.002,16.349 8.05,16.313 8.1,16.278L12.916,13.138L14.659,5.788L14.675,5.729C14.696,5.672 14.717,5.616 14.748,5.563C14.849,5.386 15.012,5.25 15.204,5.182C15.281,5.155 15.36,5.142 15.441,5.135C15.502,5.134 15.502,5.134 15.563,5.137Z" style="fill:rgb(255,140,0);fill-rule:nonzero;"/>
    </g>
</svg>
