<?xml version="1.0" encoding="UTF-8" standalone="no"?>
<!DOCTYPE svg PUBLIC "-//W3C//DTD SVG 1.1//EN" "http://www.w3.org/Graphics/SVG/1.1/DTD/svg11.dtd">
<svg width="100%" height="100%" viewBox="0 0 24 35" version="1.1" xmlns="http://www.w3.org/2000/svg" xmlns:xlink="http://www.w3.org/1999/xlink" xml:space="preserve" style="fill-rule:evenodd;clip-rule:evenodd;stroke-linejoin:round;stroke-miterlimit:1.41421;">
    <g transform="matrix(1.00475,0,0,1,0.00140819,-0.00119372)">
        <path d="M12.097,0.002C12.554,0.01 13.009,0.039 13.463,0.096C14.441,0.221 15.404,0.467 16.321,0.829C17.663,1.358 18.905,2.133 19.972,3.103C21.071,4.102 21.982,5.304 22.643,6.634C23.144,7.642 23.5,8.721 23.698,9.829C23.787,10.325 23.844,10.826 23.869,11.329C23.885,11.645 23.892,11.962 23.875,12.279C23.858,12.602 23.818,12.924 23.763,13.243C23.657,13.854 23.497,14.455 23.31,15.045C23.111,15.67 22.88,16.285 22.63,16.891C21.977,18.476 21.199,20.009 20.373,21.512C19.359,23.357 18.263,25.159 17.126,26.931C15.895,28.849 14.614,30.734 13.286,32.586C12.845,33.203 12.393,33.812 11.943,34.423C11.648,34.024 11.353,33.625 11.06,33.225C9.931,31.67 8.837,30.092 7.776,28.49C6.79,27.002 5.832,25.494 4.917,23.961C4.132,22.644 3.377,21.309 2.678,19.945C1.997,18.615 1.361,17.256 0.85,15.851C0.638,15.268 0.448,14.677 0.299,14.076C0.179,13.598 0.085,13.113 0.035,12.623C-0.028,11.992 -0.003,11.352 0.061,10.722C0.21,9.255 0.634,7.818 1.307,6.505C1.765,5.609 2.338,4.772 3.007,4.019C3.928,2.981 5.029,2.105 6.249,1.442C7.366,0.836 8.579,0.41 9.829,0.187C10.426,0.08 11.029,0.024 11.635,0.004C11.789,0.002 11.943,0.001 12.097,0.002ZM11.807,1.501C11.407,1.509 11.009,1.534 10.612,1.585C9.756,1.693 8.915,1.908 8.113,2.225C6.979,2.672 5.926,3.32 5.014,4.129C4.074,4.963 3.286,5.966 2.7,7.077C2.242,7.944 1.908,8.876 1.712,9.837C1.615,10.31 1.551,10.79 1.521,11.271C1.503,11.558 1.492,11.846 1.504,12.133C1.513,12.368 1.539,12.603 1.575,12.836C1.647,13.308 1.761,13.773 1.895,14.232C2.062,14.804 2.262,15.366 2.48,15.921C3.049,17.366 3.738,18.763 4.47,20.132C5.564,22.179 6.768,24.168 8.021,26.121C9.276,28.077 10.585,30 11.943,31.886C12.198,31.532 12.45,31.176 12.702,30.819C13.696,29.403 14.668,27.971 15.608,26.518C16.5,25.139 17.366,23.743 18.191,22.323C18.897,21.107 19.574,19.874 20.197,18.613C20.755,17.485 21.274,16.335 21.693,15.148C21.859,14.676 22.009,14.199 22.13,13.714C22.232,13.305 22.314,12.891 22.356,12.472C22.388,12.161 22.389,11.85 22.377,11.538C22.367,11.272 22.347,11.007 22.316,10.742C22.17,9.464 21.785,8.215 21.184,7.077C20.774,6.298 20.264,5.573 19.672,4.921C18.884,4.054 17.95,3.32 16.919,2.76C15.982,2.251 14.967,1.888 13.92,1.687C13.4,1.588 12.875,1.532 12.347,1.508C12.167,1.503 11.987,1.5 11.807,1.501Z" style="fill:rgb(255,139,0);fill-rule:nonzero;"/>
        <path d="M12.076,7.123C12.296,7.132 12.515,7.148 12.733,7.181C13.28,7.265 13.814,7.438 14.307,7.69C15.273,8.185 16.072,8.984 16.567,9.95C16.8,10.405 16.965,10.894 17.055,11.396C17.155,11.959 17.162,12.539 17.076,13.105C16.999,13.611 16.846,14.105 16.623,14.567C16.352,15.13 15.978,15.642 15.526,16.074C15.072,16.506 14.541,16.855 13.964,17.099C13.326,17.369 12.635,17.508 11.943,17.508C11.25,17.508 10.559,17.369 9.921,17.099C9.344,16.855 8.813,16.506 8.36,16.074C7.907,15.642 7.533,15.13 7.262,14.567C7.04,14.105 6.887,13.611 6.809,13.105C6.723,12.539 6.73,11.959 6.831,11.396C6.92,10.894 7.085,10.405 7.318,9.95C7.813,8.984 8.612,8.185 9.578,7.69C10.071,7.438 10.605,7.265 11.153,7.181C11.37,7.148 11.589,7.132 11.809,7.123C11.943,7.122 11.943,7.122 12.076,7.123ZM11.847,8.623C11.69,8.629 11.534,8.641 11.379,8.664C10.99,8.724 10.612,8.846 10.262,9.025C9.574,9.377 9.005,9.946 8.653,10.634C8.488,10.956 8.371,11.303 8.307,11.66C8.236,12.061 8.231,12.475 8.292,12.878C8.347,13.237 8.456,13.588 8.613,13.915C8.807,14.316 9.073,14.681 9.395,14.988C9.717,15.295 10.095,15.544 10.505,15.718C10.959,15.91 11.45,16.008 11.943,16.008C12.435,16.008 12.926,15.91 13.38,15.718C13.79,15.544 14.168,15.295 14.491,14.988C14.812,14.681 15.079,14.316 15.272,13.915C15.43,13.588 15.538,13.237 15.593,12.878C15.655,12.475 15.65,12.061 15.578,11.66C15.514,11.303 15.397,10.956 15.232,10.634C14.88,9.946 14.311,9.377 13.623,9.025C13.273,8.846 12.895,8.724 12.506,8.664C12.351,8.641 12.195,8.629 12.038,8.623C11.942,8.622 11.943,8.622 11.847,8.623Z" style="fill:rgb(255,139,0);fill-rule:nonzero;"/>
    </g>
</svg>
