<svg xmlns="http://www.w3.org/2000/svg" width="15.906" height="15.906" viewBox="0 0 15.906 15.906">
  <g id="Group_376" data-name="Group 376" transform="translate(48 -41)">
    <path id="Path_422" data-name="Path 422" d="M-34.424,45.008h-.435V43.33A2.333,2.333,0,0,0-37.189,41h-5.716a2.333,2.333,0,0,0-2.33,2.33v1.678h-.435A2.333,2.333,0,0,0-48,47.338v3.728a2.333,2.333,0,0,0,2.33,2.33h.435v2.113a1.4,1.4,0,0,0,1.4,1.4h7.58a1.4,1.4,0,0,0,1.4-1.4V53.4h.435a2.333,2.333,0,0,0,2.33-2.33V47.338A2.333,2.333,0,0,0-34.424,45.008ZM-44.3,43.33a1.4,1.4,0,0,1,1.4-1.4h5.716a1.4,1.4,0,0,1,1.4,1.4v1.678H-44.3Zm8.512,12.178a.467.467,0,0,1-.466.466h-7.58a.467.467,0,0,1-.466-.466v-4.6h8.512Zm2.765-4.442a1.4,1.4,0,0,1-1.4,1.4h-.435V50.91h.28a.466.466,0,0,0,.466-.466.466.466,0,0,0-.466-.466H-45.515a.466.466,0,0,0-.466.466.466.466,0,0,0,.466.466h.28v1.553h-.435a1.4,1.4,0,0,1-1.4-1.4V47.338a1.4,1.4,0,0,1,1.4-1.4h11.246a1.4,1.4,0,0,1,1.4,1.4Z" fill="#ff8b00"/>
    <path id="Path_423" data-name="Path 423" d="M155.951,394h-2.485a.466.466,0,1,0,0,.932h2.485a.466.466,0,1,0,0-.932Z" transform="translate(-194.756 -342.034)" fill="#ff8b00"/>
    <path id="Path_424" data-name="Path 424" d="M155.951,458h-2.485a.466.466,0,0,0,0,.932h2.485a.466.466,0,1,0,0-.932Z" transform="translate(-194.756 -404.045)" fill="#ff8b00"/>
    <path id="Path_425" data-name="Path 425" d="M18.957,234H17.466a.466.466,0,1,0,0,.932h1.491a.466.466,0,1,0,0-.932Z" transform="translate(-62.981 -187.004)" fill="#ff8b00"/>
  </g>
</svg>
