<svg xmlns="http://www.w3.org/2000/svg" width="65.995" height="46.047" viewBox="0 0 65.995 46.047">
  <g id="Vector_Smart_Object" data-name="Vector Smart Object" transform="translate(1.023 0.75)">
    <g id="Group_226" data-name="Group 226" transform="translate(0 0)">
      <path id="Path_103" data-name="Path 103" d="M87.62,279.354l19.3-11.049,19.135,10.72" transform="translate(-87.62 -264.069)" fill="none" stroke="#fff" stroke-linecap="round" stroke-linejoin="round" stroke-width="1.5"/>
      <path id="Path_104" data-name="Path 104" d="M95.145,281.983v28.538h25.481V296.009" transform="translate(-88.668 -265.975)" fill="none" stroke="#fff" stroke-linecap="round" stroke-linejoin="round" stroke-width="1.5"/>
      <path id="Path_105" data-name="Path 105" d="M117.26,267.917l7.918-4.533,27.284,15.285" transform="translate(-91.749 -263.384)" fill="none" stroke="#fff" stroke-linecap="round" stroke-linejoin="round" stroke-width="1.5"/>
      <rect id="Rectangle_57" data-name="Rectangle 57" width="12.588" height="7.191" transform="translate(12.924 16.409)" fill="none" stroke="#fff" stroke-linecap="round" stroke-linejoin="round" stroke-width="1.5"/>
      <rect id="Rectangle_58" data-name="Rectangle 58" width="12.588" height="7.191" transform="translate(12.924 31.373)" fill="none" stroke="#fff" stroke-linecap="round" stroke-linejoin="round" stroke-width="1.5"/>
      <path id="Path_106" data-name="Path 106" d="M156.283,296.35H122.535l2.812-6.1h28.123Z" transform="translate(-92.484 -267.127)" fill="none" stroke="#fff" stroke-miterlimit="10" stroke-width="1.5"/>
      <path id="Path_107" data-name="Path 107" d="M122.535,312.66h32.342V297.337" transform="translate(-92.484 -268.113)" fill="none" stroke="#fff" stroke-linecap="round" stroke-linejoin="round" stroke-width="1.5"/>
      <rect id="Rectangle_59" data-name="Rectangle 59" width="12.588" height="7.191" transform="translate(45.183 33.29)" fill="none" stroke="#fff" stroke-linecap="round" stroke-linejoin="round" stroke-width="1.5"/>
      <line id="Line_85" data-name="Line 85" y1="9.261" transform="translate(31.966 15.813)" fill="none" stroke="#fff" stroke-linecap="round" stroke-linejoin="round" stroke-width="1.5"/>
      <line id="Line_86" data-name="Line 86" y2="6.717" transform="translate(56.487 15.759)" fill="none" stroke="#fff" stroke-linecap="round" stroke-linejoin="round" stroke-width="1.5"/>
      <path id="Path_108" data-name="Path 108" d="M128.743,313.318V302.061h5.343v11.257" transform="translate(-93.348 -268.771)" fill="none" stroke="#fff" stroke-linecap="round" stroke-linejoin="round" stroke-width="1.5"/>
    </g>
  </g>
</svg>
