<?xml version="1.0" encoding="UTF-8" standalone="no"?>
<!DOCTYPE svg PUBLIC "-//W3C//DTD SVG 1.1//EN" "http://www.w3.org/Graphics/SVG/1.1/DTD/svg11.dtd">
<svg id="icon" width="100%" height="100%" viewBox="0 0 20 21" version="1.1" xmlns="http://www.w3.org/2000/svg" xmlns:xlink="http://www.w3.org/1999/xlink" xml:space="preserve" style="fill-rule:evenodd;clip-rule:evenodd;stroke-linejoin:round;stroke-miterlimit:1.41421;">
    <g transform="matrix(2.40043,0,0,2.40043,-0.00438847,-0.000941372)">
        <path d="M5.257,5.857C5.025,6.036 4.768,6.184 4.495,6.294C4.106,6.452 3.687,6.533 3.266,6.533C2.846,6.533 2.427,6.452 2.037,6.294C1.686,6.151 1.36,5.946 1.078,5.692C0.793,5.434 0.553,5.127 0.374,4.786C-0.083,3.918 -0.121,2.864 0.27,1.964C0.4,1.666 0.574,1.388 0.786,1.141C1.072,0.807 1.425,0.532 1.819,0.337C2.247,0.126 2.712,0.018 3.188,0.001C3.267,0 3.266,0 3.345,0.001C3.821,0.018 4.286,0.126 4.714,0.337C5.108,0.532 5.461,0.807 5.747,1.141C5.959,1.388 6.134,1.666 6.264,1.964C6.654,2.864 6.616,3.918 6.16,4.786C6.073,4.951 5.972,5.108 5.858,5.256C6.706,6.008 7.506,6.821 8.244,7.681C8.281,7.729 8.309,7.783 8.323,7.843C8.336,7.896 8.337,7.951 8.327,8.004C8.289,8.219 8.078,8.366 7.863,8.327C7.789,8.314 7.723,8.279 7.666,8.23C6.849,7.454 6.013,6.692 5.257,5.857ZM3.207,0.801C2.848,0.814 2.496,0.895 2.173,1.055C1.894,1.193 1.643,1.384 1.435,1.615C1.27,1.797 1.132,2.005 1.028,2.228C0.717,2.899 0.726,3.696 1.054,4.36C1.183,4.62 1.358,4.855 1.568,5.055C1.777,5.253 2.019,5.415 2.283,5.53C2.574,5.656 2.89,5.725 3.207,5.733C3.504,5.74 3.802,5.693 4.083,5.595C4.312,5.515 4.529,5.4 4.725,5.257C4.944,5.095 5.137,4.898 5.293,4.674C5.73,4.048 5.849,3.233 5.614,2.507C5.521,2.217 5.373,1.946 5.181,1.71C4.983,1.468 4.74,1.263 4.467,1.111C4.151,0.935 3.803,0.837 3.444,0.807C3.365,0.802 3.286,0.8 3.207,0.801Z" style="fill:currentColor"/>
    </g>
</svg>
