<?xml version="1.0" encoding="UTF-8" standalone="no"?>
<!DOCTYPE svg PUBLIC "-//W3C//DTD SVG 1.1//EN" "http://www.w3.org/Graphics/SVG/1.1/DTD/svg11.dtd">
<svg width="100%" height="100%" viewBox="0 0 26 24" version="1.1" xmlns="http://www.w3.org/2000/svg" xmlns:xlink="http://www.w3.org/1999/xlink" xml:space="preserve" style="fill-rule:evenodd;clip-rule:evenodd;stroke-linejoin:round;stroke-miterlimit:1.41421;">
    <g transform="matrix(0.929739,0,0,0.929739,-0.00014129,0.000305326)">
        <path d="M27.158,0.002C27.189,0.006 27.22,0.008 27.251,0.014C27.312,0.026 27.372,0.044 27.429,0.068C27.515,0.104 27.596,0.154 27.666,0.216C27.807,0.339 27.906,0.507 27.946,0.691C27.965,0.782 27.97,0.877 27.96,0.97C27.956,1.001 27.95,1.031 27.945,1.062L22.841,24.312C22.832,24.342 22.825,24.373 22.815,24.403C22.785,24.493 22.74,24.578 22.683,24.654C22.625,24.729 22.555,24.795 22.477,24.849C22.372,24.92 22.252,24.967 22.127,24.988C22.002,25.008 21.873,25.001 21.751,24.967C21.659,24.942 21.572,24.901 21.494,24.848C21.468,24.83 21.444,24.809 21.418,24.79L14.865,19.204L8.752,25.318L8.682,25.381C8.656,25.399 8.632,25.419 8.605,25.436C8.526,25.487 8.439,25.524 8.348,25.548C8.256,25.571 8.161,25.579 8.068,25.572C7.974,25.565 7.881,25.543 7.794,25.506C7.62,25.433 7.472,25.303 7.377,25.14C7.314,25.032 7.275,24.91 7.262,24.785C7.259,24.754 7.259,24.722 7.258,24.691L7.337,16.236C7.342,16.154 7.34,16.133 7.358,16.052C7.386,15.931 7.439,15.817 7.513,15.718C7.563,15.652 7.581,15.639 7.64,15.582L11.102,12.59L5.855,14.088L5.768,14.108C5.69,14.118 5.67,14.123 5.591,14.121C5.473,14.118 5.355,14.09 5.247,14.04C5.22,14.028 5.195,14.013 5.168,13.999L0.428,11.185C0.402,11.167 0.375,11.151 0.35,11.132C0.25,11.057 0.166,10.96 0.106,10.85C0.061,10.768 0.03,10.678 0.013,10.585C-0.019,10.399 0.009,10.205 0.095,10.037C0.137,9.953 0.193,9.876 0.26,9.81C0.327,9.744 0.404,9.689 0.489,9.647C0.517,9.633 0.546,9.623 0.575,9.61L26.79,0.052C26.87,0.028 26.889,0.019 26.971,0.007C27.002,0.003 27.033,0.002 27.065,0C27.096,0 27.127,0.001 27.158,0.002ZM2.909,10.622L5.737,12.301L14.433,9.82C14.464,9.813 14.494,9.804 14.525,9.799C14.65,9.778 14.779,9.784 14.901,9.816C14.992,9.841 15.08,9.881 15.159,9.933C15.264,10.004 15.353,10.097 15.419,10.204C15.485,10.312 15.527,10.434 15.542,10.56C15.553,10.654 15.549,10.75 15.529,10.842C15.503,10.966 15.45,11.084 15.374,11.185C15.323,11.253 15.306,11.265 15.245,11.323L9.083,16.648L9.028,22.567L14.199,17.396C14.222,17.375 14.244,17.353 14.269,17.333C14.317,17.294 14.369,17.26 14.425,17.233C14.649,17.12 14.916,17.109 15.148,17.204C15.205,17.227 15.26,17.257 15.312,17.292C15.337,17.309 15.361,17.33 15.386,17.348L21.444,22.513L25.894,2.242C18.232,5.035 10.571,7.829 2.909,10.622Z" style="fill:white;fill-rule:nonzero;"/>
    </g>
</svg>
