<?xml version="1.0" encoding="UTF-8" standalone="no"?>
<!DOCTYPE svg PUBLIC "-//W3C//DTD SVG 1.1//EN" "http://www.w3.org/Graphics/SVG/1.1/DTD/svg11.dtd">
<svg width="100%" height="100%" viewBox="0 0 20 20" version="1.1" xmlns="http://www.w3.org/2000/svg" xmlns:xlink="http://www.w3.org/1999/xlink" xml:space="preserve" style="fill-rule:evenodd;clip-rule:evenodd;stroke-linejoin:round;stroke-miterlimit:1.41421;">
    <g id="Google.2b.-w.2f.-circle" transform="matrix(1.04167,0,0,1.04167,0,1.85037e-15)">
        <path d="M8.697,6.885C8.455,6.035 8.065,5.783 7.459,5.783C7.394,5.783 7.328,5.793 7.265,5.81C7.002,5.885 6.793,6.104 6.677,6.43C6.558,6.76 6.551,7.104 6.653,7.496C6.838,8.197 7.336,8.705 7.838,8.705C7.904,8.705 7.97,8.697 8.032,8.678C8.581,8.524 8.925,7.686 8.697,6.885M7.823,10.75C7.771,10.75 7.719,10.752 7.666,10.756C7.222,10.789 6.812,10.955 6.516,11.225C6.222,11.491 6.072,11.827 6.093,12.166C6.138,12.877 6.901,13.293 7.828,13.227C8.74,13.161 9.348,12.635 9.304,11.924C9.262,11.256 8.681,10.75 7.823,10.75M14.1,9.6L12.6,9.6L12.6,11.1L11.6,11.1L11.6,9.6L10.1,9.6L10.1,8.6L11.6,8.6L11.6,7.1L12.6,7.1L12.6,8.6L14.1,8.6L14.1,9.6ZM9.047,13.721C8.444,14.014 7.795,14.045 7.544,14.045L7.469,14.045L7.415,14.045C7.023,14.045 5.072,13.955 5.072,12.178C5.072,10.432 7.197,10.295 7.848,10.295L7.865,10.295C7.489,9.793 7.567,9.287 7.567,9.287C7.534,9.289 7.486,9.291 7.427,9.291C7.182,9.291 6.709,9.252 6.303,8.99C5.805,8.67 5.553,8.125 5.553,7.371C5.553,5.24 7.88,5.154 7.903,5.152L10.227,5.152L10.227,5.203C10.227,5.463 9.76,5.514 9.442,5.557C9.334,5.573 9.117,5.594 9.056,5.625C9.645,5.94 9.74,6.434 9.74,7.17C9.74,8.008 9.412,8.451 9.064,8.762C8.848,8.955 8.679,9.106 8.679,9.309C8.679,9.508 8.911,9.711 9.181,9.948C9.622,10.337 10.227,10.866 10.227,11.759C10.227,12.682 9.83,13.342 9.047,13.721M9.6,0C4.298,0 0,4.298 0,9.6C0,14.902 4.298,19.2 9.6,19.2C14.902,19.2 19.2,14.902 19.2,9.6C19.2,4.298 14.902,0 9.6,0" style="fill:rgb(220,78,65);fill-rule:nonzero;"/>
    </g>
</svg>
