<?xml version="1.0" encoding="UTF-8" standalone="no"?>
<!DOCTYPE svg PUBLIC "-//W3C//DTD SVG 1.1//EN" "http://www.w3.org/Graphics/SVG/1.1/DTD/svg11.dtd">
<svg width="100%" height="100%" viewBox="0 0 20 20" version="1.1" xmlns="http://www.w3.org/2000/svg" xmlns:xlink="http://www.w3.org/1999/xlink" xml:space="preserve" style="fill-rule:evenodd;clip-rule:evenodd;stroke-linejoin:round;stroke-miterlimit:1.41421;">
    <g transform="matrix(1.04167,0,0,1.04167,0,0)">
        <path d="M13.505,7.864C13.509,7.946 13.51,8.028 13.51,8.108C13.51,10.608 11.609,13.489 8.131,13.489C7.063,13.489 6.069,13.177 5.233,12.639C5.38,12.657 5.531,12.664 5.684,12.664C6.57,12.664 7.385,12.363 8.032,11.855C7.205,11.839 6.507,11.293 6.266,10.543C6.381,10.564 6.499,10.576 6.621,10.576C6.793,10.576 6.961,10.553 7.119,10.51C6.254,10.336 5.602,9.572 5.602,8.656L5.602,8.633C5.857,8.774 6.149,8.86 6.459,8.87C5.951,8.53 5.618,7.952 5.618,7.295C5.618,6.949 5.711,6.623 5.874,6.344C6.807,7.488 8.199,8.24 9.771,8.321C9.738,8.182 9.722,8.038 9.722,7.889C9.722,6.846 10.568,5.998 11.613,5.998C12.156,5.998 12.648,6.228 12.993,6.596C13.424,6.51 13.828,6.354 14.193,6.137C14.052,6.578 13.753,6.949 13.362,7.184C13.745,7.137 14.109,7.036 14.448,6.885C14.195,7.264 13.874,7.598 13.505,7.864M9.6,0C4.298,0 0,4.298 0,9.6C0,14.902 4.298,19.2 9.6,19.2C14.902,19.2 19.2,14.902 19.2,9.6C19.2,4.298 14.902,0 9.6,0" style="fill:rgb(85,172,238);fill-rule:nonzero;"/>
    </g>
</svg>
