<?xml version="1.0" encoding="UTF-8" standalone="no"?>
<!DOCTYPE svg PUBLIC "-//W3C//DTD SVG 1.1//EN" "http://www.w3.org/Graphics/SVG/1.1/DTD/svg11.dtd">
<svg width="100%" height="100%" viewBox="0 0 20 20" version="1.1" xmlns="http://www.w3.org/2000/svg" xmlns:xlink="http://www.w3.org/1999/xlink" xml:space="preserve" style="fill-rule:evenodd;clip-rule:evenodd;stroke-linejoin:round;stroke-miterlimit:1.41421;">
    <g id="Facebook-w.2f.-circle" transform="matrix(1.04167,0,0,1.04167,0,9.25186e-16)">
        <path d="M11.874,6.634L10.431,6.634C10.26,6.634 10.07,6.859 10.07,7.158L10.07,8.2L11.875,8.2L11.602,9.686L10.07,9.686L10.07,14.147L8.367,14.147L8.367,9.686L6.822,9.686L6.822,8.2L8.367,8.2L8.367,7.326C8.367,6.072 9.237,5.053 10.431,5.053L11.874,5.053L11.874,6.634ZM9.6,0C4.298,0 0,4.298 0,9.6C0,14.902 4.298,19.2 9.6,19.2C14.902,19.2 19.2,14.902 19.2,9.6C19.2,4.298 14.902,0 9.6,0" style="fill:rgb(59,89,152);fill-rule:nonzero;"/>
    </g>
</svg>
