<?xml version="1.0" encoding="utf-8"?>
<!-- Generator: Adobe Illustrator 22.0.1, SVG Export Plug-In . SVG Version: 6.00 Build 0)  -->
<svg version="1.1" id="Vrstva_1" xmlns="http://www.w3.org/2000/svg" xmlns:xlink="http://www.w3.org/1999/xlink" x="0px" y="0px"
	 viewBox="0 0 55 55" style="enable-background:new 0 0 55 55;" xml:space="preserve">
<style type="text/css">
	.st0{fill:none;stroke:#F29100;stroke-width:2.25;stroke-linecap:round;stroke-linejoin:round;stroke-miterlimit:10;}
</style>
<g>
	<polyline class="st0" points="21.227,25.084 26.067,29.924 33.773,22.218 	"/>
	<path class="st0" d="M24.865,2.824c-3.661,4.178-9.899,7.173-17.208,7.955c-1.697,0.182-2.904,1.757-2.637,3.443
		c3.85,24.323,16.216,35.172,20.801,38.43c1.041,0.74,2.423,0.744,3.466,0.007c4.544-3.209,16.722-13.84,20.69-37.738
		c0.28-1.687-0.922-3.279-2.622-3.462c-7.715-0.83-14.257-4.077-17.926-8.577C28.257,1.445,26.086,1.43,24.865,2.824z"/>
	<path class="st0" d="M31.752,42.116c1.914-1.676,4.547-4.366,6.833-8.25c2.313-3.93,3.386-7.581,3.917-10.083"/>
	<path class="st0" d="M11.912,21.622c0,0-1.043-2.334-1.446-5.099c-0.081-0.552,0.296-1.066,0.848-1.145
		c1.502-0.213,4.411-0.742,6.161-1.819"/>
</g>
</svg>
