<?xml version="1.0" encoding="UTF-8" standalone="no"?>
<!DOCTYPE svg PUBLIC "-//W3C//DTD SVG 1.1//EN" "http://www.w3.org/Graphics/SVG/1.1/DTD/svg11.dtd">
<svg width="100%" height="100%" viewBox="0 0 80 40" version="1.1" xmlns="http://www.w3.org/2000/svg" xmlns:xlink="http://www.w3.org/1999/xlink" xml:space="preserve" style="fill-rule:evenodd;clip-rule:evenodd;stroke-linejoin:round;stroke-miterlimit:1.41421;">
    <g transform="matrix(3.63126,0,0,3.63126,28.0426,-0.000436327)">
        <path d="M0.453,0.003C0.521,0.016 0.576,0.038 0.634,0.075C2.654,1.689 4.512,3.496 6.451,5.208C6.489,5.246 6.523,5.285 6.546,5.334C6.599,5.443 6.599,5.572 6.546,5.681C6.529,5.718 6.505,5.749 6.479,5.78C4.628,7.586 2.603,9.204 0.665,10.915C0.581,10.982 0.484,11.022 0.375,11.015C0.323,11.012 0.271,10.998 0.224,10.975C0.042,10.886 -0.046,10.666 0.025,10.476C0.049,10.413 0.087,10.362 0.135,10.316L5.582,5.508L0.135,0.699L0.107,0.672C0.064,0.621 0.03,0.567 0.013,0.502C-0.031,0.333 0.042,0.151 0.19,0.059C0.247,0.024 0.309,0.008 0.375,0C0.414,0 0.414,0 0.453,0.003Z" style="fill:rgb(255,140,0);fill-rule:nonzero;"/>
    </g>
</svg>
