<?xml version="1.0" encoding="UTF-8" standalone="no"?>
<!DOCTYPE svg PUBLIC "-//W3C//DTD SVG 1.1//EN" "http://www.w3.org/Graphics/SVG/1.1/DTD/svg11.dtd">
<svg width="100%" height="100%" viewBox="0 0 36 38" version="1.1" xmlns="http://www.w3.org/2000/svg" xmlns:xlink="http://www.w3.org/1999/xlink" xml:space="preserve" style="fill-rule:evenodd;clip-rule:evenodd;stroke-linejoin:round;stroke-miterlimit:1.41421;">
    <g transform="matrix(2.28838,0,0,2.28838,0.000618922,-0.000572096)">
        <path d="M7.297,8.39C7.136,8.416 6.974,8.439 6.812,8.457C5.918,8.559 5.007,8.55 4.116,8.424C3.233,8.3 2.345,8.062 1.558,7.633C1.468,7.584 1.381,7.533 1.294,7.479C0.753,7.137 0.245,6.653 0.066,6.019C0.035,5.909 0.014,5.795 0.005,5.681C0,5.613 -0.005,5.542 0.008,5.475C0.031,5.355 0.11,5.249 0.22,5.194C0.269,5.169 0.32,5.158 0.375,5.151C0.416,5.151 0.415,5.151 0.456,5.154C0.496,5.162 0.534,5.171 0.572,5.189C0.683,5.242 0.765,5.345 0.791,5.465C0.805,5.53 0.8,5.599 0.808,5.665C0.814,5.712 0.824,5.757 0.836,5.802C0.915,6.07 1.093,6.296 1.297,6.483C1.675,6.828 2.149,7.062 2.625,7.239C3.489,7.559 4.418,7.699 5.336,7.722C6.324,7.747 7.328,7.639 8.272,7.339C8.432,7.288 8.59,7.231 8.746,7.167C9.177,6.991 9.604,6.762 9.941,6.435C10.111,6.271 10.262,6.075 10.338,5.848C10.36,5.781 10.376,5.712 10.383,5.642C10.387,5.597 10.387,5.551 10.39,5.505L10.397,5.465C10.415,5.399 10.441,5.339 10.487,5.286C10.636,5.117 10.905,5.107 11.067,5.264C11.137,5.333 11.172,5.419 11.186,5.515C11.187,5.556 11.187,5.596 11.185,5.637C11.178,5.753 11.162,5.866 11.133,5.978C11.029,6.384 10.789,6.73 10.489,7.018C10.548,7.014 10.607,7.012 10.665,7.01C10.789,7.008 10.788,7.008 10.911,7.01C11.119,7.018 11.325,7.033 11.531,7.063C12.063,7.141 12.582,7.301 13.064,7.54C13.628,7.819 14.137,8.206 14.554,8.677C14.936,9.108 15.24,9.609 15.442,10.148C15.619,10.62 15.717,11.121 15.73,11.625C15.741,12.067 15.686,12.511 15.57,12.938C15.476,13.285 15.341,13.621 15.169,13.936C15.019,14.211 14.841,14.471 14.64,14.71C14.061,15.398 13.291,15.915 12.441,16.205C11.909,16.386 11.348,16.478 10.787,16.478C10.041,16.477 9.296,16.314 8.62,15.998C7.978,15.699 7.402,15.262 6.945,14.721C6.756,14.497 6.587,14.255 6.443,14L6.415,14.002C5.275,14.081 4.12,14.006 3.014,13.708C2.382,13.538 1.759,13.295 1.211,12.932C0.669,12.572 0.17,12.059 0.035,11.401C0.018,11.317 0.007,11.231 0.003,11.145C0,11.097 -0.002,11.048 0.005,11C0.018,10.907 0.066,10.819 0.137,10.757C0.16,10.736 0.186,10.718 0.214,10.704C0.262,10.679 0.311,10.666 0.364,10.659C0.396,10.658 0.395,10.658 0.427,10.659C0.469,10.663 0.509,10.671 0.549,10.686C0.667,10.733 0.757,10.836 0.788,10.959C0.806,11.029 0.8,11.102 0.808,11.172C0.814,11.219 0.824,11.264 0.836,11.309C0.902,11.534 1.037,11.729 1.199,11.895C1.476,12.18 1.825,12.391 2.182,12.56C2.615,12.765 3.076,12.91 3.544,13.015C4.215,13.166 4.906,13.233 5.593,13.233C5.759,13.233 5.925,13.229 6.091,13.221C6.042,13.078 6,12.932 5.965,12.785C5.866,12.367 5.827,11.934 5.85,11.504C5.855,11.428 5.861,11.352 5.869,11.276C4.791,11.296 3.704,11.183 2.673,10.855C2.1,10.673 1.537,10.424 1.051,10.067C0.924,9.974 0.803,9.873 0.69,9.764C0.583,9.66 0.483,9.548 0.394,9.427C0.342,9.357 0.294,9.284 0.25,9.208C0.215,9.146 0.182,9.081 0.153,9.016C0.13,8.963 0.109,8.91 0.091,8.855C0.073,8.801 0.057,8.746 0.045,8.69C0.025,8.606 0.012,8.521 0.005,8.435C0.001,8.374 -0.004,8.311 0.004,8.25C0.017,8.161 0.059,8.077 0.125,8.015C0.146,7.994 0.17,7.976 0.196,7.961C0.24,7.935 0.286,7.92 0.336,7.91C0.366,7.906 0.395,7.905 0.425,7.905C0.568,7.919 0.694,7.996 0.759,8.126C0.777,8.163 0.787,8.2 0.795,8.24C0.804,8.307 0.802,8.375 0.811,8.442C0.88,8.857 1.198,9.182 1.524,9.422C1.588,9.469 1.654,9.513 1.722,9.556C1.818,9.617 1.918,9.673 2.019,9.726C2.433,9.941 2.877,10.096 3.328,10.21C3.943,10.366 4.576,10.448 5.209,10.472C5.425,10.48 5.641,10.482 5.857,10.476C5.914,10.475 5.97,10.472 6.027,10.469C6.064,10.34 6.107,10.213 6.156,10.088C6.355,9.575 6.647,9.099 7.011,8.686C7.102,8.583 7.198,8.485 7.297,8.39ZM10.684,7.809C10.479,7.817 10.276,7.833 10.073,7.867C9.646,7.938 9.23,8.074 8.844,8.269C8.378,8.504 7.956,8.825 7.611,9.216C7.309,9.558 7.067,9.952 6.902,10.377C6.757,10.751 6.671,11.147 6.649,11.547C6.63,11.901 6.662,12.257 6.744,12.601C6.809,12.879 6.907,13.15 7.033,13.406C7.16,13.663 7.316,13.907 7.495,14.13C7.887,14.618 8.392,15.009 8.958,15.273C9.529,15.54 10.158,15.677 10.788,15.678C12.051,15.679 13.297,15.111 14.089,14.12C14.252,13.917 14.394,13.698 14.512,13.467C14.648,13.202 14.753,12.92 14.823,12.631C14.902,12.309 14.938,11.977 14.93,11.645C14.919,11.23 14.838,10.818 14.693,10.429C14.525,9.981 14.272,9.566 13.955,9.208C13.606,8.814 13.18,8.49 12.708,8.256C12.302,8.055 11.864,7.92 11.415,7.854C11.241,7.829 11.067,7.816 10.891,7.81C10.787,7.808 10.788,7.808 10.684,7.809ZM5.733,0.001C6.635,0.018 7.536,0.129 8.402,0.39C8.923,0.547 9.433,0.757 9.893,1.047C10.235,1.263 10.553,1.526 10.794,1.852C11.07,2.227 11.226,2.682 11.179,3.149C11.164,3.291 11.131,3.432 11.083,3.567C11.014,3.757 10.914,3.936 10.794,4.098C10.612,4.345 10.384,4.556 10.137,4.738C9.65,5.095 9.088,5.344 8.514,5.526C7.574,5.825 6.579,5.95 5.593,5.95C4.608,5.95 3.614,5.825 2.673,5.526C2.1,5.344 1.537,5.095 1.051,4.738C0.804,4.556 0.576,4.345 0.394,4.098C0.274,3.936 0.174,3.757 0.105,3.567C0.057,3.432 0.024,3.291 0.009,3.149C-0.039,2.682 0.117,2.227 0.394,1.852C0.635,1.526 0.953,1.263 1.294,1.047C1.755,0.757 2.265,0.547 2.785,0.39C3.651,0.129 4.552,0.018 5.454,0.001C5.594,0 5.593,0 5.733,0.001ZM5.464,0.801C4.708,0.815 3.954,0.9 3.222,1.097C2.808,1.209 2.4,1.355 2.019,1.554C1.918,1.606 1.818,1.663 1.721,1.724C1.654,1.766 1.588,1.811 1.524,1.858C1.464,1.902 1.406,1.948 1.35,1.997C1.064,2.243 0.8,2.581 0.8,2.975C0.8,3.037 0.807,3.098 0.819,3.158C0.835,3.237 0.861,3.314 0.895,3.386C0.962,3.526 1.051,3.651 1.155,3.766C1.301,3.926 1.472,4.063 1.653,4.183C2.069,4.459 2.539,4.651 3.016,4.795C3.808,5.033 4.639,5.139 5.464,5.15C6.34,5.161 7.225,5.065 8.069,4.825C8.556,4.686 9.037,4.498 9.466,4.227C9.672,4.097 9.868,3.946 10.033,3.766C10.124,3.665 10.206,3.555 10.269,3.435C10.314,3.347 10.349,3.255 10.369,3.158C10.381,3.098 10.387,3.037 10.387,2.975C10.387,2.605 10.154,2.284 9.891,2.043C9.837,1.995 9.782,1.948 9.724,1.904C9.663,1.856 9.599,1.811 9.535,1.768C9.441,1.706 9.345,1.649 9.247,1.595C8.875,1.393 8.476,1.242 8.069,1.126C7.388,0.932 6.684,0.839 5.978,0.808C5.807,0.802 5.636,0.8 5.464,0.801Z" style="fill:rgb(255,140,0);"/>
    </g>
</svg>
