<?xml version="1.0" encoding="UTF-8" standalone="no"?>
<!DOCTYPE svg PUBLIC "-//W3C//DTD SVG 1.1//EN" "http://www.w3.org/Graphics/SVG/1.1/DTD/svg11.dtd">
<svg width="100%" height="100%" viewBox="0 0 58 58" version="1.1" xmlns="http://www.w3.org/2000/svg" xmlns:xlink="http://www.w3.org/1999/xlink" xml:space="preserve" style="fill-rule:evenodd;clip-rule:evenodd;stroke-linejoin:round;stroke-miterlimit:1.41421;">
    <g transform="matrix(1.74957,0,0,1.74957,0,0)">
        <path d="M22.349,13.324C19.764,13.324 17.661,11.22 17.661,8.636C17.661,6.052 19.765,3.948 22.349,3.948C24.933,3.948 27.037,6.052 27.037,8.636C27.037,11.22 24.934,13.324 22.349,13.324ZM22.349,5.098C20.398,5.098 18.811,6.685 18.811,8.636C18.811,10.587 20.398,12.174 22.349,12.174C24.3,12.174 25.887,10.587 25.887,8.636C25.887,6.685 24.3,5.098 22.349,5.098Z" style="fill:rgb(255,140,0);fill-rule:nonzero;"/>
        <g>
            <path d="M3.11,22.478L2.195,22.478C0.985,22.478 0,21.492 0,20.282L0,17.248C0,16.627 0.265,16.033 0.727,15.617L1.857,14.6C2.092,14.388 2.456,14.406 2.669,14.643C2.881,14.879 2.862,15.243 2.626,15.456L1.496,16.473C1.277,16.67 1.151,16.953 1.151,17.249L1.151,20.283C1.151,20.859 1.619,21.328 2.195,21.328L3.11,21.328C3.179,21.328 3.222,21.293 3.241,21.271C3.263,21.248 3.289,21.206 3.284,21.146C3.081,18.626 3.091,10.146 11.743,6.824C12.039,6.713 12.372,6.858 12.486,7.155C12.6,7.452 12.452,7.784 12.155,7.898C4.248,10.933 4.243,18.735 4.43,21.054C4.459,21.419 4.333,21.783 4.085,22.051C3.836,22.322 3.48,22.478 3.11,22.478Z" style="fill:rgb(255,140,0);fill-rule:nonzero;"/>
            <path d="M32.426,15.616L31.296,14.599C31.061,14.387 30.697,14.406 30.484,14.642C30.272,14.878 30.291,15.242 30.527,15.455L31.657,16.471C31.877,16.669 32.003,16.952 32.003,17.248L32.003,20.282C32.003,20.858 31.534,21.327 30.958,21.327L29.298,21.327C29.91,18.139 29.126,15.329 28.796,14.356L29.101,14.051C29.508,13.643 29.508,12.979 29.101,12.571L28.98,12.45C29.311,11.878 29.564,11.267 29.736,10.628L29.936,10.628C30.514,10.628 30.983,10.158 30.983,9.581L30.983,7.691C30.983,7.113 30.513,6.643 29.936,6.643L29.736,6.643C29.564,6.004 29.311,5.394 28.98,4.821L29.1,4.7C29.298,4.502 29.407,4.239 29.407,3.959C29.407,3.679 29.297,3.416 29.1,3.221L27.765,1.885C27.356,1.477 26.692,1.478 26.284,1.884L26.163,2.004C25.589,1.673 24.978,1.42 24.341,1.248L24.341,1.048C24.34,0.47 23.871,0 23.293,0L21.404,0C20.826,0 20.357,0.47 20.357,1.048L20.357,1.248C19.719,1.42 19.109,1.673 18.535,2.005L18.415,1.885C18.007,1.477 17.342,1.477 16.934,1.885L15.599,3.22C15.401,3.416 15.291,3.679 15.291,3.959C15.291,4.239 15.399,4.502 15.598,4.7L15.719,4.821C15.387,5.395 15.135,6.005 14.962,6.643L14.794,6.643C14.209,6.643 13.715,7.122 13.715,7.691L13.715,9.58C13.715,10.148 14.209,10.628 14.794,10.628L14.962,10.628C15.134,11.267 15.388,11.876 15.718,12.449L15.598,12.57C15.19,12.978 15.19,13.642 15.598,14.05L16.933,15.386C17.341,15.794 18.006,15.794 18.414,15.386L18.535,15.266C19.108,15.597 19.718,15.85 20.357,16.022L20.357,16.222C20.357,16.8 20.827,17.27 21.404,17.27L23.293,17.27C23.871,17.27 24.34,16.8 24.34,16.222L24.34,16.022C24.979,15.85 25.589,15.597 26.162,15.266L26.283,15.387C26.692,15.794 27.355,15.793 27.763,15.386L27.871,15.278C28.291,16.792 28.904,20.095 27.489,23.322C26.297,26.04 23.909,28.129 20.415,29.554C20.226,28.896 19.626,28.41 18.907,28.41L14.907,28.41C14.038,28.41 13.332,29.117 13.332,29.985L13.332,31.193C13.332,32.061 14.039,32.768 14.907,32.768L18.907,32.768C19.776,32.768 20.482,32.061 20.482,31.193L20.482,30.77C24.467,29.23 27.183,26.883 28.542,23.784C28.734,23.347 28.882,22.911 29.011,22.477L30.956,22.477C32.166,22.477 33.151,21.492 33.151,20.282L33.151,17.248C33.153,16.627 32.888,16.033 32.426,15.616ZM27.023,14.501L26.654,14.132C26.461,13.938 26.158,13.907 25.93,14.059C25.234,14.52 24.467,14.838 23.65,15.005C23.382,15.06 23.19,15.295 23.19,15.568L23.19,16.12L21.507,16.12L21.507,15.568C21.507,15.295 21.315,15.059 21.047,15.005C20.23,14.838 19.463,14.52 18.767,14.059C18.539,13.908 18.236,13.938 18.043,14.132L17.673,14.501L16.483,13.311L16.853,12.941C17.046,12.748 17.077,12.445 16.926,12.217C16.472,11.531 16.145,10.742 15.98,9.938C15.925,9.67 15.689,9.478 15.417,9.478L14.865,9.478L14.865,7.794L15.417,7.794C15.69,7.794 15.926,7.602 15.98,7.334C16.147,6.519 16.465,5.751 16.926,5.054C17.077,4.825 17.047,4.524 16.853,4.33L16.484,3.961L17.674,2.771L18.044,3.14C18.238,3.333 18.541,3.364 18.767,3.212C19.465,2.751 20.232,2.433 21.047,2.266C21.315,2.211 21.507,1.976 21.507,1.703L21.507,1.15L23.19,1.15L23.19,1.702C23.19,1.975 23.382,2.211 23.65,2.265C24.465,2.432 25.232,2.75 25.931,3.211C26.158,3.362 26.461,3.331 26.654,3.139L27.024,2.77L28.214,3.96L27.844,4.33C27.651,4.523 27.621,4.826 27.772,5.054C28.232,5.75 28.551,6.518 28.718,7.334C28.773,7.602 29.009,7.794 29.281,7.794L29.832,7.794L29.832,9.477L29.281,9.477C29.008,9.477 28.773,9.669 28.718,9.937C28.55,10.755 28.232,11.522 27.772,12.217C27.621,12.445 27.651,12.747 27.845,12.941L28.215,13.311L27.727,13.799C27.726,13.8 27.725,13.801 27.723,13.803L27.023,14.501ZM19.333,31.193C19.333,31.427 19.143,31.618 18.908,31.618L14.908,31.618C14.674,31.618 14.483,31.428 14.483,31.193L14.483,29.985C14.483,29.751 14.673,29.56 14.908,29.56L18.908,29.56C19.142,29.56 19.333,29.75 19.333,29.985L19.333,31.193Z" style="fill:rgb(255,140,0);fill-rule:nonzero;"/>
        </g>
    </g>
</svg>
