<?xml version="1.0" encoding="UTF-8" standalone="no"?>
<!DOCTYPE svg PUBLIC "-//W3C//DTD SVG 1.1//EN" "http://www.w3.org/Graphics/SVG/1.1/DTD/svg11.dtd">
<svg width="100%" height="100%" viewBox="0 0 10 8" version="1.1" xmlns="http://www.w3.org/2000/svg" xmlns:xlink="http://www.w3.org/1999/xlink" xml:space="preserve" style="fill-rule:evenodd;clip-rule:evenodd;stroke-linejoin:round;stroke-miterlimit:1.41421;">
    <g transform="matrix(1.1209,0,0,1,0.000230727,0.000212638)">
        <path d="M8.2,0C8.31,0.007 8.416,0.03 8.515,0.081C8.815,0.234 8.977,0.58 8.904,0.909C8.879,1.017 8.83,1.113 8.765,1.203C7.185,3.11 5.488,4.917 3.849,6.774C3.795,6.832 3.737,6.882 3.669,6.923C3.466,7.043 3.211,7.059 2.994,6.965C2.906,6.927 2.832,6.873 2.763,6.808C1.874,5.864 1.045,4.865 0.187,3.893C0.085,3.771 0.018,3.63 0.003,3.47C-0.03,3.118 0.197,2.782 0.537,2.683C0.612,2.661 0.69,2.651 0.769,2.654C0.862,2.657 0.955,2.677 1.041,2.715C1.144,2.759 1.229,2.825 1.305,2.906L3.29,5.153L7.616,0.252C7.649,0.218 7.648,0.218 7.683,0.186C7.719,0.155 7.756,0.127 7.796,0.103C7.892,0.046 7.996,0.016 8.106,0.003C8.153,0 8.153,0 8.2,0Z" style="fill:white;fill-rule:nonzero;"/>
    </g>
</svg>
