<?xml version="1.0" encoding="UTF-8"?>
<svg xmlns="http://www.w3.org/2000/svg" xmlns:xlink="http://www.w3.org/1999/xlink" width="31px" height="31px" viewBox="0 0 31 31" version="1.1">
<g id="surface1">
<path style="fill:none;stroke-width:0.8;stroke-linecap:round;stroke-linejoin:round;stroke:rgb(100%,54.901961%,0%);stroke-opacity:1;stroke-miterlimit:10;" d="M 5.644279 19.555192 L 0.399572 20.854461 L 1.701487 15.612399 C 0.873236 14.138483 0.399572 12.436996 0.399572 10.627016 C 0.399572 5.003906 5.003906 0.399572 10.627016 0.399572 C 16.252772 0.399572 20.854461 5.003906 20.854461 10.627016 C 20.854461 16.252772 16.252772 20.854461 10.627016 20.854461 C 9.735257 20.854461 8.86996 20.740675 8.047001 20.526336 " transform="matrix(1.47619,0,0,1.47619,0,0)"/>
<path style="fill:none;stroke-width:0.6;stroke-linecap:round;stroke-linejoin:round;stroke:rgb(100%,54.901961%,0%);stroke-opacity:1;stroke-miterlimit:10;" d="M 9.428301 11.828377 C 9.004914 11.40499 7.311366 9.523564 7.927923 8.907006 C 8.097278 8.737651 8.774698 8.274572 9.039315 8.009955 C 9.939012 7.110257 8.907006 5.99622 8.245464 5.332031 C 8.189894 5.279108 7.171119 4.180948 5.81628 5.535786 C 3.397681 7.954385 6.84564 12.294103 7.898816 13.357863 C 8.959929 14.408392 13.299647 17.858997 15.720892 15.437752 C 17.073085 14.085559 15.977571 13.064138 15.922001 13.011215 C 15.260459 12.349672 14.146421 11.31502 13.244078 12.214718 C 12.982107 12.479335 12.519027 13.156754 12.349672 13.326109 C 11.733115 13.942666 9.851689 12.249118 9.428301 11.828377 Z M 9.428301 11.828377 " transform="matrix(1.47619,0,0,1.47619,0,0)"/>
</g>
</svg>
