<?xml version="1.0" encoding="UTF-8" standalone="no"?>
<!DOCTYPE svg PUBLIC "-//W3C//DTD SVG 1.1//EN" "http://www.w3.org/Graphics/SVG/1.1/DTD/svg11.dtd">
<svg width="100%" height="100%" viewBox="0 0 35 26" version="1.1" xmlns="http://www.w3.org/2000/svg" xmlns:xlink="http://www.w3.org/1999/xlink" xml:space="preserve" style="fill-rule:evenodd;clip-rule:evenodd;stroke-linejoin:round;stroke-miterlimit:1.41421;">
    <g transform="matrix(0.954528,0,0,0.954528,0.000538874,-1.74453e-06)">
        <g transform="matrix(1.66619,0,0,1.66619,-782.083,-685.026)">
            <path d="M480.396,411.133C480.465,411.134 480.534,411.148 480.597,411.176C480.65,411.2 480.699,411.233 480.741,411.273C480.892,411.418 480.936,411.649 480.849,411.84C480.827,411.888 480.798,411.932 480.763,411.971C480.721,412.017 480.671,412.054 480.615,412.082C480.557,412.111 480.492,412.128 480.427,412.132C480.35,412.137 480.271,412.128 480.198,412.099C480.138,412.076 480.083,412.04 480.036,411.996C479.991,411.954 479.955,411.903 479.928,411.848C479.904,411.796 479.888,411.741 479.883,411.684C479.862,411.481 479.971,411.28 480.154,411.187C480.203,411.162 480.257,411.146 480.312,411.138C480.339,411.134 480.367,411.133 480.396,411.133Z" style="fill:#FF8C00;fill-rule:nonzero;"/>
        </g>
        <g transform="matrix(1.66619,0,0,1.66619,-782.083,-685.026)">
            <path d="M480.68,411.134C481.77,411.139 482.859,411.157 483.948,411.187C484.741,411.21 485.533,411.238 486.325,411.277C486.66,411.293 486.995,411.311 487.33,411.334C487.481,411.345 487.632,411.356 487.783,411.37C487.893,411.38 488.003,411.39 488.113,411.407C488.698,411.498 489.284,411.681 489.766,412.035C490.046,412.24 490.283,412.499 490.472,412.791C490.667,413.091 490.811,413.421 490.922,413.76C490.976,413.924 491.026,414.091 491.063,414.259C491.087,414.366 491.103,414.474 491.117,414.582C491.14,414.748 491.157,414.915 491.174,415.082C491.217,415.519 491.25,415.957 491.279,416.395C491.311,416.868 491.338,417.34 491.358,417.814C491.381,418.315 491.394,418.816 491.39,419.318C491.384,419.893 491.355,420.468 491.323,421.043C491.297,421.514 491.266,421.986 491.228,422.456C491.202,422.793 491.172,423.129 491.132,423.464C491.115,423.596 491.098,423.728 491.072,423.858C491.051,423.964 491.021,424.069 490.991,424.173C490.942,424.344 490.886,424.514 490.82,424.68C490.694,425.002 490.531,425.311 490.319,425.584C490.199,425.737 490.065,425.879 489.917,426.005C489.803,426.101 489.682,426.188 489.554,426.265C489.117,426.529 488.615,426.673 488.113,426.752C488.003,426.769 487.892,426.779 487.782,426.789C487.631,426.803 487.48,426.814 487.329,426.824C487.068,426.842 486.806,426.857 486.545,426.87C485.961,426.901 485.377,426.924 484.793,426.944C483.418,426.991 482.043,427.02 480.668,427.024C479.685,427.027 478.702,427.014 477.719,426.993C476.708,426.97 475.696,426.939 474.686,426.893C474.331,426.876 473.977,426.858 473.622,426.836C473.412,426.823 473.201,426.808 472.991,426.789C472.881,426.779 472.77,426.769 472.66,426.752C472.054,426.657 471.447,426.464 470.956,426.085C470.68,425.872 470.448,425.606 470.265,425.31C470.088,425.025 469.955,424.715 469.851,424.397C469.818,424.298 469.788,424.197 469.76,424.095C469.739,424.017 469.717,423.938 469.701,423.858C469.675,423.728 469.658,423.596 469.642,423.464C469.626,423.335 469.612,423.205 469.6,423.075C469.562,422.698 469.533,422.319 469.507,421.94C469.47,421.409 469.439,420.877 469.416,420.344C469.394,419.843 469.38,419.342 469.385,418.84C469.39,418.205 469.424,417.57 469.461,416.935C469.488,416.469 469.52,416.003 469.558,415.538C469.585,415.219 469.613,414.899 469.656,414.582C469.669,414.487 469.682,414.393 469.701,414.3C469.723,414.194 469.752,414.089 469.782,413.985C469.838,413.79 469.903,413.597 469.98,413.409C470.103,413.113 470.257,412.828 470.455,412.574C470.574,412.42 470.708,412.279 470.857,412.153C470.97,412.057 471.092,411.97 471.219,411.893C471.657,411.629 472.159,411.485 472.66,411.407C472.77,411.39 472.881,411.38 472.991,411.37C473.142,411.356 473.293,411.345 473.444,411.334C473.705,411.316 473.966,411.302 474.228,411.288C474.72,411.262 475.214,411.242 475.707,411.224C476.976,411.177 478.246,411.15 479.517,411.137C479.904,411.134 480.292,411.133 480.68,411.134ZM480.107,412.134C478.835,412.139 477.563,412.163 476.291,412.204C475.621,412.226 474.95,412.252 474.28,412.287C473.971,412.303 473.662,412.32 473.354,412.343C473.135,412.36 472.915,412.375 472.699,412.415C472.378,412.474 472.057,412.565 471.772,412.728C471.642,412.803 471.52,412.894 471.413,412.999C471.128,413.276 470.949,413.642 470.821,414.013C470.785,414.116 470.754,414.221 470.725,414.326C470.709,414.383 470.693,414.44 470.681,414.498C470.66,414.602 470.647,414.709 470.634,414.815C470.62,414.937 470.607,415.058 470.595,415.18C470.575,415.38 470.558,415.581 470.542,415.781C470.519,416.067 470.499,416.353 470.481,416.638C470.424,417.527 470.376,418.418 470.385,419.309C470.388,419.639 470.4,419.97 470.415,420.301C470.435,420.766 470.461,421.231 470.492,421.696C470.518,422.077 470.546,422.458 470.581,422.838C470.605,423.094 470.631,423.351 470.671,423.605C470.676,423.63 470.68,423.655 470.686,423.68C470.713,423.796 470.746,423.911 470.781,424.024C470.845,424.226 470.921,424.424 471.018,424.612C471.109,424.788 471.219,424.955 471.355,425.1C471.429,425.18 471.511,425.253 471.599,425.317C471.95,425.575 472.387,425.696 472.812,425.763C472.865,425.771 472.919,425.777 472.972,425.782C473.099,425.795 473.227,425.806 473.354,425.815C473.526,425.828 473.699,425.839 473.871,425.849C474.238,425.871 474.605,425.889 474.972,425.904C475.895,425.944 476.818,425.973 477.741,425.993C479.008,426.021 480.275,426.031 481.542,426.018C482.705,426.005 483.868,425.977 485.03,425.935C485.654,425.912 486.278,425.886 486.902,425.849C487.074,425.839 487.247,425.828 487.419,425.815C487.547,425.806 487.674,425.795 487.801,425.782C487.854,425.777 487.908,425.771 487.961,425.763C488.108,425.74 488.253,425.71 488.396,425.671C488.633,425.608 488.865,425.519 489.072,425.387C489.188,425.314 489.294,425.228 489.39,425.13C489.658,424.856 489.829,424.503 489.952,424.144C489.988,424.041 490.02,423.937 490.048,423.832C490.066,423.766 490.084,423.701 490.097,423.634C490.114,423.538 490.127,423.44 490.139,423.343C490.159,423.174 490.176,423.006 490.192,422.837C490.211,422.629 490.229,422.421 490.244,422.212C490.267,421.922 490.286,421.632 490.304,421.342C490.355,420.512 490.397,419.681 490.39,418.849C490.387,418.518 490.374,418.188 490.359,417.858C490.339,417.392 490.313,416.927 490.281,416.462C490.256,416.081 490.227,415.7 490.192,415.32C490.168,415.064 490.142,414.807 490.102,414.552C490.097,414.527 490.093,414.502 490.087,414.477C490.06,414.362 490.028,414.247 489.992,414.134C489.934,413.948 489.865,413.766 489.779,413.592C489.677,413.387 489.551,413.192 489.39,413.028C489.323,412.96 489.251,412.897 489.174,412.841C488.823,412.583 488.386,412.462 487.961,412.396C487.908,412.387 487.854,412.382 487.801,412.376C487.674,412.363 487.547,412.353 487.42,412.343C487.248,412.33 487.076,412.319 486.904,412.309C486.618,412.292 486.331,412.278 486.045,412.265C484.451,412.191 482.854,412.153 481.258,412.137C480.875,412.134 480.491,412.133 480.107,412.134ZM478.253,415.565C478.274,415.568 478.296,415.57 478.316,415.575C478.372,415.588 478.384,415.596 478.436,415.619L484.016,418.531C484.035,418.542 484.053,418.552 484.071,418.564C484.123,418.6 484.168,418.646 484.203,418.7C484.322,418.881 484.309,419.125 484.171,419.292C484.144,419.325 484.113,419.354 484.079,419.379C484.062,419.391 484.043,419.402 484.025,419.413L478.445,422.467C478.426,422.476 478.407,422.486 478.387,422.494C478.346,422.51 478.304,422.52 478.261,422.525C478.041,422.55 477.826,422.422 477.742,422.218C477.726,422.178 477.715,422.136 477.709,422.093C477.707,422.071 477.706,422.05 477.705,422.028L477.705,416.062C477.709,416.006 477.707,415.991 477.721,415.935C477.76,415.789 477.865,415.666 478.003,415.605C478.042,415.588 478.083,415.576 478.125,415.569C478.146,415.565 478.168,415.565 478.189,415.563C478.21,415.563 478.232,415.564 478.253,415.565ZM478.705,421.185L482.724,418.985L478.705,416.887C478.705,418.32 478.705,419.752 478.705,421.185Z" style="fill:#FF8C00;fill-rule:nonzero;"/>
        </g>
    </g>
</svg>
