<svg id="Group_942" data-name="Group 942" xmlns="http://www.w3.org/2000/svg" xmlns:xlink="http://www.w3.org/1999/xlink" width="151.91" height="80.04" viewBox="0 0 151.91 80.04">
  <defs>
    <clipPath id="clip-path">
      <rect id="Rectangle_512" data-name="Rectangle 512" width="151.91" height="80.04" transform="translate(0 0)" fill="none"/>
    </clipPath>
    <clipPath id="clip-path-2">
      <path id="Path_1428" data-name="Path 1428" d="M33.82,43.3a1.827,1.827,0,0,1-.91-.6,1.73,1.73,0,0,1-.32-1.08,3.383,3.383,0,0,1,.33-1.36,6.081,6.081,0,0,1,.89-1.38,8.21,8.21,0,0,1,1.31-1.25,8.761,8.761,0,0,1,1.61-.98,6.333,6.333,0,0,1,1.63-.51,3.592,3.592,0,0,1,1.36.03,1.808,1.808,0,0,1,.95.55,1.7,1.7,0,0,1,.39,1.05,3.2,3.2,0,0,1-.28,1.37,6,6,0,0,1-.89,1.43,8.4,8.4,0,0,1-1.35,1.31,8.147,8.147,0,0,1-1.68,1.01,6.077,6.077,0,0,1-1.68.5,4.629,4.629,0,0,1-.51.03,2.815,2.815,0,0,1-.85-.12m5.27-12.14a13.237,13.237,0,0,0-3.34,1.09,17.768,17.768,0,0,0-3.29,2.01,17.216,17.216,0,0,0-2.69,2.55,13.4,13.4,0,0,0-1.86,2.81,7.492,7.492,0,0,0-.76,2.8,3.759,3.759,0,0,0,.59,2.27A3.441,3.441,0,0,0,29.56,46a6.588,6.588,0,0,0,2.83.21,13.83,13.83,0,0,0,3.51-1.32,16.1,16.1,0,0,0,3.35-2.22,16.725,16.725,0,0,0,2.87-2.75,15.99,15.99,0,0,0,2.1-2.73,5.566,5.566,0,0,0,.79-2.92,3.394,3.394,0,0,0-1.03-2.11,3.918,3.918,0,0,0-2.07-1,6.282,6.282,0,0,0-1.34-.13,8.467,8.467,0,0,0-1.48.13" fill="none"/>
    </clipPath>
    <radialGradient id="radial-gradient" cx="0.61" cy="0.075" r="1.036" gradientTransform="matrix(0.852, 0, 0, -1, -0.223, 6.402)" gradientUnits="objectBoundingBox">
      <stop offset="0" stop-color="#fff"/>
      <stop offset="0.18" stop-color="#fbe2d8"/>
      <stop offset="0.47" stop-color="#f6af93"/>
      <stop offset="0.57" stop-color="#f28976"/>
      <stop offset="0.78" stop-color="#ec3f3e"/>
      <stop offset="0.93" stop-color="#e8111b"/>
      <stop offset="1" stop-color="#e7000e"/>
    </radialGradient>
    <clipPath id="clip-path-3">
      <path id="Path_1429" data-name="Path 1429" d="M1.45,19.47l.008-.186c0,.065-.008.127-.008.186M15.51,1.89l.01-.01a23.161,23.161,0,0,0-2.91,1.56C9.33,5.48,7.37,6.56,4.97,9.5a15.152,15.152,0,0,0-2.21,3.23c-.33.68-.73,1.8-.73,1.8l-.17,1.26L1.6,17.5l-.13,1.53-.012.254.012-.134c.01-.14.03-.27.05-.41s.05-.28.08-.43.07-.29.1-.44A18.293,18.293,0,0,1,3.83,13,19.742,19.742,0,0,1,7.52,8.46a38.044,38.044,0,0,1,4.63-4.14c1.19-.87,4.07-2.69,5.78-2.92.12-.02.15-.02.11-.02a9.406,9.406,0,0,0-2.53.51" fill="none"/>
    </clipPath>
    <radialGradient id="radial-gradient-2" cx="0.06" cy="0.701" r="0.849" gradientTransform="matrix(1.088, 0, 0, -1, 0.008, 8.697)" gradientUnits="objectBoundingBox">
      <stop offset="0" stop-color="#fff"/>
      <stop offset="0" stop-color="#fefefe"/>
      <stop offset="0.06" stop-color="#fce6dd"/>
      <stop offset="0.12" stop-color="#f9d2c2"/>
      <stop offset="0.19" stop-color="#f8c2ad"/>
      <stop offset="0.27" stop-color="#f6b79e"/>
      <stop offset="0.36" stop-color="#f6b095"/>
      <stop offset="0.5" stop-color="#f6af93"/>
      <stop offset="0.59" stop-color="#f28976"/>
      <stop offset="0.79" stop-color="#ec3f3e"/>
      <stop offset="0.93" stop-color="#e8111b"/>
      <stop offset="1" stop-color="#e7000e"/>
    </radialGradient>
    <clipPath id="clip-path-4">
      <path id="Path_1430" data-name="Path 1430" d="M2.62,33.98l-.069-.11c.023.038.046.076.069.11m-.069-.11c-.018-.027-.034-.055-.051-.08ZM36.46,4.77a3.569,3.569,0,0,0-.27-.28ZM24.83.3a17.341,17.341,0,0,0-3.55,1.18,35.073,35.073,0,0,0-4.47,2.33,44.863,44.863,0,0,0-6.08,4.5A45.385,45.385,0,0,0,5.6,13.58a34.522,34.522,0,0,0-3.82,5.59A17.21,17.21,0,0,0,.06,24.62c-.05.33,0,.65-.03.96v.06a26.733,26.733,0,0,0,.61,3.67c.15.61.22.96.42,1.56.24.7.75,1.74.75,1.74l.25.44.45.73a5.182,5.182,0,0,1-.4-.86,6.5,6.5,0,0,1-.31-1.21,8.445,8.445,0,0,1-.1-1.36,9.869,9.869,0,0,1,.12-1.5,18.928,18.928,0,0,1,2.02-5.84A35.2,35.2,0,0,1,7.8,17.08a45.74,45.74,0,0,1,5.36-5.54,45.134,45.134,0,0,1,6.38-4.69,33.888,33.888,0,0,1,5.27-2.62,21.158,21.158,0,0,1,4.76-1.27,10.925,10.925,0,0,1,4,.14,5.666,5.666,0,0,1,2.62,1.39l-.98-1.02L33.89,2.3l-.67-.52-1.51-.6A17.239,17.239,0,0,0,28.79.39,17.642,17.642,0,0,0,26.27.17,7.417,7.417,0,0,0,24.83.3" fill="none"/>
    </clipPath>
    <radialGradient id="radial-gradient-3" cx="0.689" cy="0.011" r="1.105" gradientTransform="matrix(0.928, 0, 0, -1, 0, 4.725)" gradientUnits="objectBoundingBox">
      <stop offset="0" stop-color="#fff"/>
      <stop offset="0.05" stop-color="#fdf1ec"/>
      <stop offset="0.2" stop-color="#f9cdbc"/>
      <stop offset="0.31" stop-color="#f6b79e"/>
      <stop offset="0.38" stop-color="#f6af93"/>
      <stop offset="0.45" stop-color="#f5a88e"/>
      <stop offset="0.55" stop-color="#f49781"/>
      <stop offset="0.66" stop-color="#f17b6c"/>
      <stop offset="0.79" stop-color="#ee544e"/>
      <stop offset="0.92" stop-color="#e92228"/>
      <stop offset="1" stop-color="#e7000e"/>
      <stop offset="1" stop-color="#1f1f1c"/>
    </radialGradient>
    <clipPath id="clip-path-5">
      <path id="Path_1431" data-name="Path 1431" d="M13.04,43.54l-.55-.2c.18.07.36.14.55.2M34.685,5.18c-.49.021-.968.057-1.405.1l-.01.02a21.581,21.581,0,0,0-5.61,1.46,35.608,35.608,0,0,0-6.18,3.25,46.863,46.863,0,0,0-6.62,5.23,45.513,45.513,0,0,0-5.39,6.08,34.837,34.837,0,0,0-3.8,6.42,18.308,18.308,0,0,0-1.65,6.22,10.634,10.634,0,0,0,.07,2.06,7.412,7.412,0,0,0,.47,1.77,5.972,5.972,0,0,0,.86,1.47A5.56,5.56,0,0,0,6.65,40.4l1.62,1.03,1.54.82,1.71.75.98.35a6.879,6.879,0,0,1-1.41-.78,5.485,5.485,0,0,1-1.41-1.51,6.548,6.548,0,0,1-.84-2,9.035,9.035,0,0,1-.23-2.45,16.589,16.589,0,0,1,1.4-5.86,30.669,30.669,0,0,1,3.45-6.03,40.534,40.534,0,0,1,4.99-5.68,41.81,41.81,0,0,1,6.18-4.85,31.536,31.536,0,0,1,6.42-3.18,22.362,22.362,0,0,1,6.49-1.23,8.151,8.151,0,0,1,4.48,1.2c1.22.81,1.46,2.17,1.86,3.82l.64-.14L42.46,9.22l-.53-1.19a6.075,6.075,0,0,0-3.24-2.48,8.373,8.373,0,0,0-2.277-.37Z" fill="none"/>
    </clipPath>
    <radialGradient id="radial-gradient-4" cx="0.609" cy="0.106" r="1.184" gradientTransform="matrix(0.946, 0, 0, -1, -0.005, 3.903)" gradientUnits="objectBoundingBox">
      <stop offset="0" stop-color="#fff"/>
      <stop offset="0.02" stop-color="#fef8f6"/>
      <stop offset="0.15" stop-color="#fad8cb"/>
      <stop offset="0.26" stop-color="#f8c1ac"/>
      <stop offset="0.35" stop-color="#f6b499"/>
      <stop offset="0.42" stop-color="#f6af93"/>
      <stop offset="0.52" stop-color="#f49878"/>
      <stop offset="1" stop-color="#e7000e"/>
    </radialGradient>
    <clipPath id="clip-path-6">
      <path id="Path_1432" data-name="Path 1432" d="M29.76,46.16c.28-.1.57-.2.86-.32Zm.86-.32h.02l.06-.03a.412.412,0,0,0-.08.03m.08-.03c.08-.03.16-.06.25-.1Zm8.9-29.59a17.974,17.974,0,0,0-4.852.94,29.916,29.916,0,0,0-6.28,3,37.855,37.855,0,0,0-5.96,4.58,36.951,36.951,0,0,0-4.75,5.36,27.5,27.5,0,0,0-3.2,5.66,14.239,14.239,0,0,0-1.15,5.45,7.457,7.457,0,0,0,.54,2.82,5.528,5.528,0,0,0,1.48,2.09,5.3,5.3,0,0,0,2.36,1.24,17.268,17.268,0,0,0,3.13.43h.25l1.81-.12,1.77-.22.88-.15,1.61-.36,1.56-.45.43-.14.54-.2a14.937,14.937,0,0,1-3.39.76,8.609,8.609,0,0,1-3.64-.36,4.865,4.865,0,0,1-2.42-1.77,5.6,5.6,0,0,1-.97-3.03,11.222,11.222,0,0,1,.8-4.37,20.785,20.785,0,0,1,2.49-4.56,28.689,28.689,0,0,1,3.79-4.32,30.408,30.408,0,0,1,4.8-3.66,23.289,23.289,0,0,1,5.06-2.34,12.906,12.906,0,0,1,4.49-.65,6.349,6.349,0,0,1,3.46,1.1,4.83,4.83,0,0,1,1.88,2.95c.14-.4,1-.69,1.12-1.1s.21-.81.29-1.22.33-2.66.35-3.07a4.549,4.549,0,0,0-.19-.7,5.616,5.616,0,0,0-2.25-2.28,10.627,10.627,0,0,0-4.79-1.31Z" fill="none"/>
    </clipPath>
    <radialGradient id="radial-gradient-5" cx="0.655" cy="0.039" r="1.158" gradientTransform="matrix(0.915, 0, 0, -1, -0.033, 4.043)" gradientUnits="objectBoundingBox">
      <stop offset="0" stop-color="#fff"/>
      <stop offset="0.18" stop-color="#fbe2d8"/>
      <stop offset="0.47" stop-color="#f6af93"/>
      <stop offset="0.57" stop-color="#f28976"/>
      <stop offset="0.78" stop-color="#ec3f3e"/>
      <stop offset="0.93" stop-color="#e8111b"/>
      <stop offset="1" stop-color="#e7000e"/>
      <stop offset="1" stop-color="#1f1f1c"/>
    </radialGradient>
    <clipPath id="clip-path-7">
      <rect id="Rectangle_518" data-name="Rectangle 518" width="48.21" height="48.18" transform="translate(0.02 0)" fill="none"/>
    </clipPath>
  </defs>
  <g id="Group_929" data-name="Group 929">
    <g id="Group_928" data-name="Group 928" clip-path="url(#clip-path)">
      <path id="Path_1425" data-name="Path 1425" d="M64.41,79.82l2.03-9.04H64.79l-1.43,6.55h-.04l-1.98-6.55H60.05l-1.98,6.55h-.04l-1.42-6.55H54.96l2.09,9.04h1.8l1.82-6.27h.04l1.88,6.27h1.82Zm6.27-13.11H68.63v1.94h2.05Zm-.17,4.07H68.8v9.04h1.71Zm10.07,9.04V73.55c0-1.58-.63-2.98-2.43-2.98a2.991,2.991,0,0,0-2.87,2.15h-.04V70.78H73.53v9.04h1.71V75.98c0-1.33.72-3.7,2.39-3.7.97,0,1.16.65,1.22,1.48.02.38.02.76.02,1.12v4.94Zm9.86,0V73.55c0-1.58-.63-2.98-2.43-2.98a2.991,2.991,0,0,0-2.87,2.15H85.1V70.78H83.39v9.04H85.1V75.98c0-1.33.72-3.7,2.39-3.7.97,0,1.16.65,1.22,1.48.02.38.02.76.02,1.12v4.94Zm8.91-1.44a4.68,4.68,0,0,1-1.71.32c-2.28,0-3.32-2.03-3.32-4.07h5.24v-.44c0-2.07-1.06-3.63-3.27-3.63-2.6,0-3.69,1.82-3.69,4.29,0,2.96,1.25,5.17,4.48,5.17a10.155,10.155,0,0,0,2.26-.3V78.37ZM94.39,73.5a1.575,1.575,0,0,1,.13-.55,1.745,1.745,0,0,1,1.67-1.04,1.551,1.551,0,0,1,1.65,1.6H94.38Zm9.01,6.33V75.99c0-1.98.65-3.55,2.83-3.55V70.58a2.825,2.825,0,0,0-2.79,2.03h-.04V70.79h-1.71v9.04Zm17.59,0V78.5h-5.47c2.28-1.98,5.38-4.33,5.38-7.64,0-2.18-1.69-3.29-3.72-3.29s-3.67.82-3.91,2.98h2.09a1.63,1.63,0,0,1,1.81-1.65,1.673,1.673,0,0,1,1.84,1.82c0,2.47-3.93,6.19-5.76,7.71v1.39H121Zm6.54.21c3.61,0,4.43-3.25,4.43-6.23s-.82-6.23-4.43-6.23-4.39,3.27-4.39,6.23.78,6.23,4.39,6.23m0-1.33c-2.38,0-2.49-3.19-2.49-4.9s.11-4.9,2.49-4.9,2.53,3.17,2.53,4.9-.11,4.9-2.53,4.9m13.51,1.12V78.5h-5.47c2.28-1.98,5.38-4.33,5.38-7.64,0-2.18-1.69-3.29-3.72-3.29s-3.67.82-3.91,2.98h2.09a1.626,1.626,0,0,1,1.8-1.65,1.673,1.673,0,0,1,1.84,1.82c0,2.47-3.93,6.19-5.76,7.71v1.39h7.75Zm2.68-2.64c.15,2.17,2.13,2.85,4.03,2.85,2.34,0,4.16-1.2,4.16-3.71,0-2.34-1.29-3.88-3.69-3.88a3.473,3.473,0,0,0-2.09.59l.17-3.93h4.71V67.78h-6.44l-.34,6.86h1.88a1.878,1.878,0,0,1,1.77-.86,2.039,2.039,0,0,1,2.13,2.3c0,1.63-.55,2.62-2.28,2.62-.91,0-1.92-.51-1.92-1.52h-2.09Z" fill="#fff"/>
      <path id="Path_1426" data-name="Path 1426" d="M30.99,79.82V66.71H29.28v5.32h-.04a2.506,2.506,0,0,0-2.41-1.46c-2.58,0-3.19,2.83-3.19,4.88s.59,4.58,3.1,4.58a2.634,2.634,0,0,0,2.51-1.6h.04v1.39h1.7ZM27.32,78.7c-1.65,0-1.79-2.2-1.79-3.4s.15-3.4,1.77-3.4,1.98,2.13,1.98,3.38C29.28,76.44,28.86,78.7,27.32,78.7Zm9.82,1.33c2.89,0,3.99-2.09,3.99-4.73s-1.1-4.73-3.99-4.73-4.01,2.09-4.01,4.73,1.1,4.73,4.01,4.73m0-1.33c-1.88,0-2.11-1.96-2.11-3.4s.23-3.4,2.11-3.4,2.09,1.98,2.09,3.4-.23,3.4-2.09,3.4m10.94-.13a2.785,2.785,0,0,1-.91.13c-1.2,0-1.44-.76-1.44-1.77V72.1h2.51V70.77H45.73V67.58l-1.71,1.06v2.13H42.41V72.1h1.61v5.72c0,1.73,1.12,2.2,2.72,2.2a6.717,6.717,0,0,0,1.35-.13V78.56Z" fill="#e7000e"/>
      <path id="Path_1427" data-name="Path 1427" d="M1.73,79.82V75.98c0-1.98.65-3.55,2.83-3.55V70.57A2.825,2.825,0,0,0,1.77,72.6H1.73V70.78H.02v9.04Zm10.72-1.44a4.68,4.68,0,0,1-1.71.32c-2.28,0-3.32-2.03-3.32-4.07h5.24v-.44c0-2.07-1.06-3.63-3.27-3.63-2.6,0-3.69,1.82-3.69,4.29,0,2.96,1.25,5.17,4.48,5.17a10.155,10.155,0,0,0,2.26-.3V78.37ZM7.49,73.5a1.575,1.575,0,0,1,.13-.55,1.745,1.745,0,0,1,1.67-1.04,1.551,1.551,0,0,1,1.65,1.6H7.48Zm14,6.33V66.72H19.78v5.32h-.04a2.515,2.515,0,0,0-2.41-1.46c-2.58,0-3.19,2.83-3.19,4.88s.59,4.58,3.1,4.58a2.634,2.634,0,0,0,2.51-1.6h.04v1.39h1.7Zm-3.67-1.12c-1.65,0-1.79-2.2-1.79-3.4s.15-3.4,1.77-3.4,1.98,2.13,1.98,3.38C19.78,76.45,19.36,78.71,17.82,78.71Z" fill="#fff"/>
    </g>
  </g>
  <g id="Group_931" data-name="Group 931">
    <g id="Group_930" data-name="Group 930" clip-path="url(#clip-path-2)">
      <rect id="Rectangle_513" data-name="Rectangle 513" width="17.96" height="15.31" transform="translate(27.12 31.03)" fill="url(#radial-gradient)"/>
    </g>
  </g>
  <g id="Group_933" data-name="Group 933">
    <g id="Group_932" data-name="Group 932" clip-path="url(#clip-path-3)">
      <rect id="Rectangle_514" data-name="Rectangle 514" width="16.63" height="18.09" transform="translate(1.45 1.38)" fill="url(#radial-gradient-2)"/>
    </g>
  </g>
  <g id="Group_935" data-name="Group 935">
    <g id="Group_934" data-name="Group 934" clip-path="url(#clip-path-4)">
      <rect id="Rectangle_515" data-name="Rectangle 515" width="36.45" height="33.81" transform="translate(0.01 0.17)" fill="url(#radial-gradient-3)"/>
    </g>
  </g>
  <g id="Group_937" data-name="Group 937">
    <g id="Group_936" data-name="Group 936" clip-path="url(#clip-path-5)">
      <rect id="Rectangle_516" data-name="Rectangle 516" width="40.54" height="38.36" transform="translate(3.98 5.18)" fill="url(#radial-gradient-4)"/>
    </g>
  </g>
  <g id="Group_939" data-name="Group 939">
    <g id="Group_938" data-name="Group 938" clip-path="url(#clip-path-6)">
      <rect id="Rectangle_517" data-name="Rectangle 517" width="34.5" height="31.57" transform="translate(13.38 16.22)" fill="url(#radial-gradient-5)"/>
    </g>
  </g>
  <g id="Group_941" data-name="Group 941">
    <g id="Group_940" data-name="Group 940" clip-path="url(#clip-path-7)">
      <path id="Path_1433" data-name="Path 1433" d="M26.29,3.12a6.7,6.7,0,0,1-1.52,2.44,17.5,17.5,0,0,1-2.93,2.52,26.816,26.816,0,0,1-3.92,2.26A28.281,28.281,0,0,1,13.51,12a17.707,17.707,0,0,1-3.98.69,7.152,7.152,0,0,1-2.8-.35,2.219,2.219,0,0,1-1.38-1.25,2.643,2.643,0,0,1,.2-2,6.359,6.359,0,0,1,.39-.72,6.49,6.49,0,0,1,.52-.72c.19-.24.41-.48.64-.73s.48-.48.74-.72l.71-.62.7-.56.66-.5.66-.46.65-.43.63-.38.63-.36a13.135,13.135,0,0,0-1.89,1.76,5.581,5.581,0,0,0-.8,1.21,1.174,1.174,0,0,0-.06.96,1.14,1.14,0,0,0,.72.58,3.682,3.682,0,0,0,1.4.13,8.841,8.841,0,0,0,1.95-.36,13.877,13.877,0,0,0,2.14-.82,14.458,14.458,0,0,0,1.91-1.09,9.23,9.23,0,0,0,1.46-1.22,3.707,3.707,0,0,0,.8-1.19,1.055,1.055,0,0,0-.04-.93,1.286,1.286,0,0,0-.8-.52,3.18,3.18,0,0,0-1.4.03A15.482,15.482,0,0,0,16,1.79a6.834,6.834,0,0,0-1.14.43A18.72,18.72,0,0,1,18.39.77,17.5,17.5,0,0,1,20.78.16a9.475,9.475,0,0,1,2.56-.1,5.075,5.075,0,0,1,1.88.47,2.107,2.107,0,0,1,1.05,1.03,2.21,2.21,0,0,1,.02,1.57" fill="#e7000e"/>
      <path id="Path_1434" data-name="Path 1434" d="M44.74,35.98a12.922,12.922,0,0,1-.62,1.41,11.431,11.431,0,0,1-.81,1.18s-.18.23-.3.39c-.33.42-.88,1.05-.88,1.05l-.73.8a21.9,21.9,0,0,1-2.57,2.25,25.585,25.585,0,0,1-3.1,1.98,26.116,26.116,0,0,1-3.48,1.59,25.364,25.364,0,0,1-3.68,1.08c-.25.05-.49.1-.73.14s-.48.08-.71.11-.47.06-.69.09l-.68.06-1.36.06h-.3l-1.45-.04L21.17,48l-.41-.05c-.62-.08-.96-.14-1.57-.27s-1.57-.38-1.57-.38l-.79-.26-.22-.11a10.46,10.46,0,0,0,2.01.54,18.782,18.782,0,0,0,2.33.19,23.741,23.741,0,0,0,2.61-.13,28.7,28.7,0,0,0,2.86-.46,33.515,33.515,0,0,0,6.64-2.18,35.181,35.181,0,0,0,5.93-3.36,26.788,26.788,0,0,0,4.61-4.07,14.051,14.051,0,0,0,1.17-1.5c.01-.02,0,.02,0,.02" fill="#e7000e"/>
      <path id="Path_1435" data-name="Path 1435" d="M31.74,1.19l1.59.6,1.57.72.55.29a4.861,4.861,0,0,1,1.14.81,3.885,3.885,0,0,1,.78,1.04,3.588,3.588,0,0,1,.37,1.28,4.905,4.905,0,0,1-.08,1.51,10.93,10.93,0,0,1-2.4,4.54,27.965,27.965,0,0,1-5.13,4.72,45.093,45.093,0,0,1-7.09,4.2,45.723,45.723,0,0,1-8.07,2.96,29.926,29.926,0,0,1-6.61,1,13.453,13.453,0,0,1-4.79-.64,5.016,5.016,0,0,1-2.68-2,4.122,4.122,0,0,1-.42-3.08l.11-.51.45-1.68.57-1.63.58-1.38.53-1.12-.09.23-.02.05A4.013,4.013,0,0,0,2.25,16a3.248,3.248,0,0,0,1.91,1.92,9.471,9.471,0,0,0,3.99.64,24.254,24.254,0,0,0,5.76-.9,38.477,38.477,0,0,0,6.42-2.39A36.9,36.9,0,0,0,26,11.95a24.2,24.2,0,0,0,4.17-3.7,9.1,9.1,0,0,0,2.06-3.57A3.738,3.738,0,0,0,32.3,3.1a2.785,2.785,0,0,0-.58-1.24A3.767,3.767,0,0,0,30.56.97,6.109,6.109,0,0,0,29.49.56L28.9.4c.25.04.39.06.59.11,0,0,.57.14.93.24.52.15,1.32.43,1.32.43" fill="#e7000e"/>
      <path id="Path_1436" data-name="Path 1436" d="M42.28,8.27l1.18,1.48,1.07,1.59.48.81a5.629,5.629,0,0,1,.36.79,5.06,5.06,0,0,1,.23.87,5.777,5.777,0,0,1,.09.95,7.147,7.147,0,0,1-.06,1.02,12.711,12.711,0,0,1-2.59,5.74,30.561,30.561,0,0,1-5.99,5.91,48.055,48.055,0,0,1-8.49,5.16,48.515,48.515,0,0,1-9.76,3.47,33.9,33.9,0,0,1-6.55.93,19.33,19.33,0,0,1-5.19-.44,10,10,0,0,1-3.64-1.59,5.564,5.564,0,0,1-1.96-2.53l-.38-1.08L.57,29.51.21,27.65l-.07-.52-.1-1.05h0a4.566,4.566,0,0,0,1.24,2.6,7.455,7.455,0,0,0,3.3,1.86,16.881,16.881,0,0,0,5.19.56,32.744,32.744,0,0,0,6.84-1,49,49,0,0,0,9.21-3.32,47.933,47.933,0,0,0,8.06-4.84,30,30,0,0,0,5.74-5.48,12.025,12.025,0,0,0,2.57-5.28,6.787,6.787,0,0,0,.07-1.33,4.935,4.935,0,0,0-.22-1.18,4.493,4.493,0,0,0-.49-1.04,4.544,4.544,0,0,0-.42-.56l.98,1.03.15.17Z" fill="#e7000e"/>
      <path id="Path_1437" data-name="Path 1437" d="M48.11,22.12a13.208,13.208,0,0,1-.05,3.87,11.918,11.918,0,0,1-2.26,5.53,26.617,26.617,0,0,1-5.34,5.55,40.68,40.68,0,0,1-7.63,4.74,40.956,40.956,0,0,1-8.84,3.06,30.389,30.389,0,0,1-4.46.65,21.483,21.483,0,0,1-3.87-.05,14.689,14.689,0,0,1-3.2-.67A9.741,9.741,0,0,1,10,43.58L8.54,42.44l-1.22-1.1s-.83-.81-1.31-1.37c-.34-.4-.84-1.06-.84-1.06h0a7.123,7.123,0,0,0,2.12,1.65,12.128,12.128,0,0,0,3.62,1.18,21.681,21.681,0,0,0,4.75.26,33.978,33.978,0,0,0,5.73-.81,45.612,45.612,0,0,0,9.62-3.37,45.7,45.7,0,0,0,8.33-5.13,29.353,29.353,0,0,0,5.84-5.94,12.764,12.764,0,0,0,2.48-5.84c.02-.2.04-.4.04-.59a5.462,5.462,0,0,0-.04-.58,7.207,7.207,0,0,1,.24.85s.15.92.21,1.52" fill="#e7000e"/>
    </g>
  </g>
</svg>
