<svg id="Group_927" data-name="Group 927" xmlns="http://www.w3.org/2000/svg" xmlns:xlink="http://www.w3.org/1999/xlink" width="105.796" height="63.798" viewBox="0 0 105.796 63.798">
  <defs>
    <clipPath id="clip-path">
      <rect id="Rectangle_511" data-name="Rectangle 511" width="105.796" height="63.798" fill="none"/>
    </clipPath>
  </defs>
  <g id="Group_926" data-name="Group 926" clip-path="url(#clip-path)">
    <path id="Path_1399" data-name="Path 1399" d="M162.886,5.089h-1.548V3.541h3.493V7.963a8.666,8.666,0,0,1-3.91.786c-1.394,0-2.731-.465-2.731-2.491V2.932c0-2.016.8-2.932,3.028-2.932A20.591,20.591,0,0,1,164.6.335l-.345,1.5a18.8,18.8,0,0,0-2.826-.273c-1.169,0-1.3.455-1.3,1.466V6.234c0,.834.321.977,1.193.977a6.62,6.62,0,0,0,1.562-.239V5.089Z" transform="translate(-104.128)" fill="#fff"/>
    <path id="Path_1400" data-name="Path 1400" d="M183.13,8.847V.31h5.888l-.249,1.6h-3.694V3.611h3.646l-.249,1.6h-3.4V7.244h3.9v1.6h-5.841Z" transform="translate(-120.545 -0.204)" fill="#fff"/>
    <path id="Path_1401" data-name="Path 1401" d="M210.108,8.847l-1.572-3.421H207.4V8.847H205.46V.31h3.291c1.753,0,3.1.273,3.1,2.491V3.16a1.985,1.985,0,0,1-1.408,2.085l1.859,3.6h-2.194Zm-.2-6.21c0-.523-.249-.762-1.036-.762H207.4V3.96h1.644c.608,0,.858-.249.858-.776Z" transform="translate(-135.244 -0.204)" fill="#fff"/>
    <path id="Path_1402" data-name="Path 1402" d="M236.789,8.847V3.218l-2.061,4.316h-1.251l-2.064-4.316V8.844H229.53V.31h2.361l2.2,4.757L236.314.31h2.361V8.844h-1.883Z" transform="translate(-151.088 -0.204)" fill="#fff"/>
    <path id="Path_1403" data-name="Path 1403" d="M266.042,8.847l-.5-1.552h-2.874l-.5,1.552H260.01l3-8.537h2.18l2.99,8.534h-2.146ZM264.1,2.2l-1.073,3.551h2.156Z" transform="translate(-171.151 -0.204)" fill="#fff"/>
    <path id="Path_1404" data-name="Path 1404" d="M292.673,8.847l-3.11-5.365V8.847H287.68V.31h1.873L292.734,5.6V.31h1.9V8.844h-1.955Z" transform="translate(-189.365 -0.204)" fill="#fff"/>
    <path id="Path_1405" data-name="Path 1405" d="M158.793,41.407V31.23h3.793c2.772,0,4.067.755,4.067,3.482v3.212c0,2.276-.711,3.482-3.8,3.482h-4.063Zm5.543-6.582c0-1.124-.058-1.736-1.507-1.736H161.11v6.469h1.606c1.364,0,1.62-.383,1.62-1.35Z" transform="translate(-104.523 -20.557)" fill="#fff"/>
    <path id="Path_1406" data-name="Path 1406" d="M187.63,41.407V31.23h7.023l-.3,1.9h-4.409v2.033h4.35l-.3,1.9h-4.053V39.5h4.648v1.9H187.63Z" transform="translate(-123.507 -20.557)" fill="#fff"/>
    <path id="Path_1407" data-name="Path 1407" d="M220.842,38.3c0,1.835-1.278,2.983-3.937,2.983a15.443,15.443,0,0,1-3.865-.513l.625-1.849a13.366,13.366,0,0,0,3.226.455c1.152,0,1.593-.455,1.593-1.193v-.243c0-.824-.383-1.066-1.35-1.066h-1.251a2.537,2.537,0,0,1-2.83-2.785v-.27c.041-1.948,1.193-2.97,3.185-2.97h.342a34.979,34.979,0,0,1,4.234.369l-.684,1.8c-1.053-.126-2.56-.256-3.342-.27h-.383a.887.887,0,0,0-1.008,1.008v.284c0,.513.212.868.923.868h1.463c1.876,0,3.055.769,3.055,2.871V38.3Z" transform="translate(-140.233 -20.307)" fill="#fff"/>
    <rect id="Rectangle_509" data-name="Rectangle 509" width="2.317" height="10.177" transform="translate(82.588 10.673)" fill="#fff"/>
    <path id="Path_1408" data-name="Path 1408" d="M260.158,36.936h-1.849V35.087h4.166V40.36a10.321,10.321,0,0,1-4.661.94c-1.664,0-3.253-.554-3.253-2.97V34.366c0-2.4.953-3.5,3.609-3.5a24.864,24.864,0,0,1,4.036.4l-.414,1.791a22.215,22.215,0,0,0-3.37-.328c-1.394,0-1.548.54-1.548,1.746V38.3c0,.994.383,1.165,1.422,1.165a7.951,7.951,0,0,0,1.863-.284Z" transform="translate(-167.564 -20.32)" fill="#fff"/>
    <path id="Path_1409" data-name="Path 1409" d="M289.707,41.407,286,35.01v6.4H283.75V31.23h2.232l3.8,6.312V31.23h2.259V41.407Z" transform="translate(-186.778 -20.557)" fill="#fff"/>
    <path id="Path_1410" data-name="Path 1410" d="M163,77.28l-.588-1.822h-3.376l-.588,1.822H155.91l3.53-10.03H162l3.517,10.03Zm-2.283-7.816-1.261,4.176h2.536Z" transform="translate(-102.628 -44.267)" fill="#fff"/>
    <path id="Path_1411" data-name="Path 1411" d="M192.848,77.28l-1.822-6.92-1.808,6.92h-3.024L183.98,67.25h2.495l1.316,7.59,1.948-7.283h2.59l1.948,7.283,1.316-7.59h2.478l-2.215,10.03h-3.007Z" transform="translate(-121.105 -44.267)" fill="#fff"/>
    <path id="Path_1412" data-name="Path 1412" d="M232.268,77.28l-.588-1.822H228.3l-.588,1.822H225.18l3.53-10.03h2.563l3.517,10.03Zm-2.283-7.816-1.261,4.176h2.536Z" transform="translate(-148.224 -44.267)" fill="#fff"/>
    <path id="Path_1413" data-name="Path 1413" d="M262.941,77.28l-1.849-4.019h-1.329V77.28H257.48V67.25h3.865c2.061,0,3.643.321,3.643,2.929v.42a2.334,2.334,0,0,1-1.654,2.45l2.184,4.231Zm-.239-7.3c0-.615-.294-.9-1.22-.9h-1.722v2.45h1.934c.714,0,1.008-.294,1.008-.912Z" transform="translate(-169.486 -44.267)" fill="#fff"/>
    <path id="Path_1414" data-name="Path 1414" d="M285.95,77.28V67.25h3.739c2.731,0,4.005.742,4.005,3.431v3.165c0,2.242-.7,3.431-3.739,3.431H285.95Zm5.461-6.486c0-1.107-.055-1.709-1.487-1.709h-1.7v6.374h1.582c1.346,0,1.6-.379,1.6-1.329V70.8Z" transform="translate(-188.226 -44.267)" fill="#fff"/>
    <path id="Path_1415" data-name="Path 1415" d="M164.531,112.35l-1.644-6.251-1.634,6.251h-2.734l-2-9.06h2.252l1.189,6.859,1.76-6.579h2.341l1.76,6.579,1.189-6.859h2.238l-2,9.06Z" transform="translate(-103.029 -67.991)" fill="#fff"/>
    <rect id="Rectangle_510" data-name="Rectangle 510" width="2.064" height="9.06" transform="translate(67.701 35.299)" fill="#fff"/>
    <path id="Path_1416" data-name="Path 1416" d="M215.2,112.35l-3.3-5.694v5.694h-2v-9.06h1.986l3.38,5.618V103.29h2.013v9.06H215.2Z" transform="translate(-138.166 -67.991)" fill="#fff"/>
    <path id="Path_1417" data-name="Path 1417" d="M242.621,112.35l-3.3-5.694v5.694h-2v-9.06h1.986l3.38,5.618V103.29H244.7v9.06h-2.078Z" transform="translate(-156.216 -67.991)" fill="#fff"/>
    <path id="Path_1418" data-name="Path 1418" d="M264.74,112.35v-9.06h6.251l-.267,1.7H266.8V106.8h3.872l-.267,1.7H266.8v2.163h4.139v1.7Z" transform="translate(-174.265 -67.991)" fill="#fff"/>
    <path id="Path_1419" data-name="Path 1419" d="M293.048,112.35l-1.671-3.633h-1.2v3.633H288.11v-9.06H291.6c1.859,0,3.291.29,3.291,2.645v.379a2.109,2.109,0,0,1-1.493,2.215l1.975,3.821Zm-.215-6.592c0-.557-.267-.81-1.1-.81h-1.555v2.215h1.746c.646,0,.913-.267.913-.824v-.581Z" transform="translate(-189.648 -67.991)" fill="#fff"/>
    <path id="Path_1420" data-name="Path 1420" d="M27.706,15.72V9.992C32.357,8.427,35.4,4.705,35.491.16H28.567A4.318,4.318,0,0,1,24.22,4.247,4.318,4.318,0,0,1,19.873.16H12.949c.1,4.545,3.134,8.267,7.782,9.832V15.72a24.22,24.22,0,1,0,6.979,0ZM24.22,57.461A17.8,17.8,0,0,1,6.78,43.118h7.16a10.937,10.937,0,0,0,10.184,7.754V43.945a4.3,4.3,0,0,1,0-8.609V28.409A10.937,10.937,0,0,0,13.94,36.163H6.8a17.777,17.777,0,1,1,17.422,21.3Z" transform="translate(0 -0.105)" fill="#fff"/>
    <path id="Path_1421" data-name="Path 1421" d="M157.724,153.119v-3.2c0-3.2.54-4.1,3.271-5.547.7-.383,2.526-1.309,3.158-1.668a1.4,1.4,0,0,0,.9-1.285v-.475c0-.926-.721-1.172-1.736-1.172a30.022,30.022,0,0,0-4.757.608l-.991-2.819a29.167,29.167,0,0,1,6.111-.789c3.226,0,5.051,1.015,5.051,3.971v.789c0,1.873-1.015,2.843-2.57,3.7-.745.407-2.84,1.49-3.585,1.938a2.337,2.337,0,0,0-1.172,2.279v.677h7.443v3H157.731Z" transform="translate(-103.72 -90.029)" fill="#fff"/>
    <path id="Path_1422" data-name="Path 1422" d="M202.208,153.314c-4.443,0-6-1.781-6-5.571v-5.413c0-3.79,1.555-5.571,6-5.571h.362c4.443,0,6,1.781,6,5.571v5.413c0,3.79-1.555,5.571-6,5.571Zm2.683-10.96c0-2.006-.338-2.662-2.211-2.662h-.588c-1.873,0-2.211.653-2.211,2.662v5.369c0,2.006.338,2.662,2.211,2.662h.588c1.873,0,2.211-.653,2.211-2.662Z" transform="translate(-129.155 -90.022)" fill="#fff"/>
    <path id="Path_1423" data-name="Path 1423" d="M238.064,153.119v-3.2c0-3.2.54-4.1,3.271-5.547.7-.383,2.526-1.309,3.158-1.668a1.4,1.4,0,0,0,.9-1.285v-.475c0-.926-.721-1.172-1.736-1.172a30.022,30.022,0,0,0-4.757.608l-.991-2.819a29.167,29.167,0,0,1,6.111-.789c3.226,0,5.051,1.015,5.051,3.971v.789c0,1.873-1.015,2.843-2.57,3.7-.745.407-2.843,1.49-3.585,1.938a2.337,2.337,0,0,0-1.172,2.279v.677h7.443v3H238.071Z" transform="translate(-156.604 -90.029)" fill="#fff"/>
    <path id="Path_1424" data-name="Path 1424" d="M287.459,149.065c0,3.541-2.481,4.644-6.022,4.644a20.8,20.8,0,0,1-5.458-.745l.789-2.819a21.97,21.97,0,0,0,4.306.632c1.893,0,2.731-.451,2.731-1.668v-1.285c0-.926-.27-1.736-1.8-1.736a19.133,19.133,0,0,0-4.1.588l-1.4-1.873V137.36h10.42v2.956h-6.811v3.089a10.964,10.964,0,0,1,2.481-.294c3.5,0,4.87,1.466,4.87,4.556Z" transform="translate(-181.664 -90.417)" fill="#fff"/>
  </g>
</svg>
