<svg xmlns="http://www.w3.org/2000/svg" width="63.813" height="67.271" viewBox="0 0 63.813 67.271">
  <g id="eko" transform="translate(-960.307 -2718.83)">
    <line id="Line_732" data-name="Line 732" x2="48.502" transform="translate(961.307 2741.615)" fill="none" stroke="#f29100" stroke-linecap="round" stroke-linejoin="round" stroke-width="2"/>
    <line id="Line_733" data-name="Line 733" y1="42.864" x2="22.701" transform="translate(974.208 2720.182)" fill="none" stroke="#f29100" stroke-linecap="round" stroke-linejoin="round" stroke-width="2"/>
    <line id="Line_734" data-name="Line 734" x1="22.701" y1="42.864" transform="translate(974.207 2720.182)" fill="none" stroke="#f29100" stroke-linecap="round" stroke-linejoin="round" stroke-width="2"/>
    <path id="Path_1397" data-name="Path 1397" d="M11.216,47.753l2.045-7.9a1.351,1.351,0,0,1-1.221-.315c-4.025-3.695-4.561-9.826-1.468-16.814C17.029,8.133,42.636,8.654,43.727,8.685A1.338,1.338,0,0,1,44.6,11c-.682.629-6.637,6.347-7.143,13.813-.571,8.348-4.626,13.825-12.4,16.749a14.165,14.165,0,0,1-5.015.925,12.561,12.561,0,0,1-4.95-.984,1.336,1.336,0,0,1-.749-1.622A50.529,50.529,0,0,1,19.8,28.216a38.825,38.825,0,0,1,5.588-6.973,41.93,41.93,0,0,1,4.854-4.2" transform="translate(978.06 2737.13)" fill="#f3f5f6" stroke="#707070" stroke-width="2"/>
    <path id="Path_1398" data-name="Path 1398" d="M11.216,47.753l2.045-7.9a1.351,1.351,0,0,1-1.221-.315c-4.025-3.695-4.561-9.826-1.468-16.814C17.029,8.133,42.636,8.654,43.727,8.685A1.338,1.338,0,0,1,44.6,11c-.682.629-6.637,6.347-7.143,13.813-.571,8.348-4.626,13.825-12.4,16.749a14.165,14.165,0,0,1-5.015.925,12.561,12.561,0,0,1-4.95-.984,1.336,1.336,0,0,1-.749-1.622A50.529,50.529,0,0,1,19.8,28.216a38.825,38.825,0,0,1,5.588-6.973,41.93,41.93,0,0,1,4.854-4.2" transform="translate(978.06 2737.13)" fill="none" stroke="#f29100" stroke-linecap="round" stroke-linejoin="round" stroke-width="2"/>
  </g>
</svg>
