<svg xmlns="http://www.w3.org/2000/svg" width="59.291" height="61.199" viewBox="0 0 59.291 61.199">
  <g id="oceneni" transform="translate(-312.675 -2633.42)">
    <path id="Path_1392" data-name="Path 1392" d="M16.9,3.879l2.615,4.467a.815.815,0,0,0,.529.386L25.1,9.838a.816.816,0,0,1,.435,1.338L22.1,15.047a.8.8,0,0,0-.2.62l.508,5.154a.815.815,0,0,1-1.137.827l-4.743-2.077a.815.815,0,0,0-.654,0l-4.743,2.077a.814.814,0,0,1-1.137-.827l.508-5.154a.814.814,0,0,0-.2-.62L6.854,11.176a.816.816,0,0,1,.435-1.338l5.056-1.107a.814.814,0,0,0,.532-.386l2.615-4.467A.816.816,0,0,1,16.9,3.879Z" transform="translate(326.124 2640.392)" fill="none" stroke="#f29100" stroke-linecap="round" stroke-linejoin="round" stroke-width="2"/>
    <path id="Path_1393" data-name="Path 1393" d="M22.99,14.65c.754,6.014,2.828,9.672,8.258,10.015a.951.951,0,0,1,.879.955v3.849a.958.958,0,0,1-.955.955H6.347a.96.96,0,0,1-.955-.955V25.62a.953.953,0,0,1,.879-.955c5.433-.344,7.507-4,8.261-10.015" transform="translate(323.561 2663.194)" fill="none" stroke="#f29100" stroke-linecap="round" stroke-linejoin="round" stroke-width="2"/>
    <path id="Path_1394" data-name="Path 1394" d="M21.87,40.469h0c-8.626,0-15.8-7.331-16.48-16.832L3.873,2.411A1.909,1.909,0,0,1,5.78.368H37.96a1.909,1.909,0,0,1,1.906,2.043L38.35,23.637C37.672,33.139,30.5,40.469,21.87,40.469Z" transform="translate(320.452 2634.052)" fill="none" stroke="#f29100" stroke-linecap="round" stroke-linejoin="round" stroke-width="2"/>
    <path id="Path_1395" data-name="Path 1395" d="M16.339,23.5c3.782-2.521,8.231-8.717,8.726-19.544a1.924,1.924,0,0,0-1.919-2.016H18.02" transform="translate(345.898 2637.255)" fill="none" stroke="#f29100" stroke-linecap="round" stroke-linejoin="round" stroke-width="2"/>
    <path id="Path_1396" data-name="Path 1396" d="M7.417,1.938H2.291A1.927,1.927,0,0,0,.369,3.954C.868,14.781,5.316,20.978,9.1,23.5" transform="translate(313.308 2637.255)" fill="none" stroke="#f29100" stroke-linecap="round" stroke-linejoin="round" stroke-width="2"/>
  </g>
</svg>
