<svg xmlns="http://www.w3.org/2000/svg" xmlns:xlink="http://www.w3.org/1999/xlink" width="32.085" height="61.436" viewBox="0 0 32.085 61.436">
  <defs>
    <clipPath id="clip-path">
      <rect id="Rectangle_302" data-name="Rectangle 302" width="32.085" height="61.436" fill="none" stroke="#ff8b00" stroke-width="2"/>
    </clipPath>
  </defs>
  <g id="teplota" transform="translate(6288 2513.7)">
    <g id="Group_522" data-name="Group 522" transform="translate(-6288 -2513.699)">
      <g id="Group_613" data-name="Group 613" transform="translate(0 0)" clip-path="url(#clip-path)">
        <path id="Path_645" data-name="Path 645" d="M17.122,22.391A7.594,7.594,0,1,1,9.53,14.8,7.593,7.593,0,0,1,17.122,22.391Z" transform="translate(3.413 26.103)" fill="none" stroke="#ff8b00" stroke-linecap="round" stroke-linejoin="round" stroke-width="2"/>
        <path id="Path_646" data-name="Path 646" d="M16.8,36.868V4.969a4.569,4.569,0,0,0-9.137,0v31.9a11.837,11.837,0,1,0,9.137,0Z" transform="translate(0.706 0.707)" fill="none" stroke="#ff8b00" stroke-linecap="round" stroke-linejoin="round" stroke-width="2"/>
        <line id="Line_513" data-name="Line 513" y2="22.279" transform="translate(12.941 18.624)" fill="none" stroke="#ff8b00" stroke-linecap="round" stroke-linejoin="round" stroke-width="2"/>
        <line id="Line_514" data-name="Line 514" x2="4.48" transform="translate(22.774 21.39)" fill="none" stroke="#ff8b00" stroke-linecap="round" stroke-linejoin="round" stroke-width="2"/>
        <line id="Line_515" data-name="Line 515" x2="8.206" transform="translate(22.774 26.922)" fill="none" stroke="#ff8b00" stroke-linecap="round" stroke-linejoin="round" stroke-width="2"/>
        <line id="Line_516" data-name="Line 516" x2="4.48" transform="translate(22.774 32.454)" fill="none" stroke="#ff8b00" stroke-linecap="round" stroke-linejoin="round" stroke-width="2"/>
      </g>
    </g>
  </g>
</svg>
