<svg xmlns="http://www.w3.org/2000/svg" xmlns:xlink="http://www.w3.org/1999/xlink" width="167.982" height="99.533"
     viewBox="0 0 167.982 99.533">
    <defs>
        <clipPath id="a">
            <rect width="167.982" height="99.533" fill="none" stroke="#707070" stroke-width="2.5"/>
        </clipPath>
    </defs>
    <g clip-path="url(#a)">
        <path d="M6-1.25H73.751A7.258,7.258,0,0,1,81,6V84.975a7.258,7.258,0,0,1-7.25,7.25H6a7.258,7.258,0,0,1-7.25-7.25V6A7.258,7.258,0,0,1,6-1.25ZM73.751,89.725a4.755,4.755,0,0,0,4.75-4.75V6a4.755,4.755,0,0,0-4.75-4.75H6A4.755,4.755,0,0,0,1.25,6V84.975A4.755,4.755,0,0,0,6,89.725Z"
              transform="translate(1.262 1.262)" fill="#ff8c00"/>
        <path d="M15.561-1.25a16.807,16.807,0,0,1,11.887,28.7A16.811,16.811,0,1,1,9.017.072,16.707,16.707,0,0,1,15.561-1.25Zm0,31.123A14.311,14.311,0,1,0,1.25,15.561,14.328,14.328,0,0,0,15.561,29.873Z"
              transform="translate(12.358 12.027)" fill="#ff8c00"/>
        <path d="M5.187-1.25A6.437,6.437,0,1,1-1.25,5.187,6.445,6.445,0,0,1,5.187-1.25Zm0,10.375A3.937,3.937,0,1,0,1.25,5.187,3.942,3.942,0,0,0,5.187,9.125Z"
              transform="translate(22.732 22.4)" fill="#ff8c00"/>
        <path d="M15.561-1.25a16.807,16.807,0,0,1,11.887,28.7A16.811,16.811,0,1,1,9.017.072,16.707,16.707,0,0,1,15.561-1.25Zm0,31.123A14.311,14.311,0,1,0,1.25,15.561,14.328,14.328,0,0,0,15.561,29.873Z"
              transform="translate(12.358 50.349)" fill="#ff8c00"/>
        <path d="M5.187-1.25A6.437,6.437,0,1,1-1.25,5.187,6.445,6.445,0,0,1,5.187-1.25Zm0,10.375A3.937,3.937,0,1,0,1.25,5.187,3.942,3.942,0,0,0,5.187,9.125Z"
              transform="translate(22.732 60.724)" fill="#ff8c00"/>
        <path d="M14.964,1.25H0A1.25,1.25,0,0,1-1.25,0,1.25,1.25,0,0,1,0-1.25H14.964A1.25,1.25,0,0,1,16.214,0,1.25,1.25,0,0,1,14.964,1.25Z"
              transform="translate(55.207 15.564)" fill="#ff8c00"/>
        <path d="M14.964,1.25H0A1.25,1.25,0,0,1-1.25,0,1.25,1.25,0,0,1,0-1.25H14.964A1.25,1.25,0,0,1,16.214,0,1.25,1.25,0,0,1,14.964,1.25Z"
              transform="translate(55.207 34.222)" fill="#ff8c00"/>
        <path d="M14.964,1.25H0A1.25,1.25,0,0,1-1.25,0,1.25,1.25,0,0,1,0-1.25H14.964A1.25,1.25,0,0,1,16.214,0,1.25,1.25,0,0,1,14.964,1.25Z"
              transform="translate(55.207 52.881)" fill="#ff8c00"/>
        <path d="M14.964,1.25H0A1.25,1.25,0,0,1-1.25,0,1.25,1.25,0,0,1,0-1.25H14.964A1.25,1.25,0,0,1,16.214,0,1.25,1.25,0,0,1,14.964,1.25Z"
              transform="translate(55.207 43.552)" fill="#ff8c00"/>
        <path d="M14.964,1.25H0A1.25,1.25,0,0,1-1.25,0,1.25,1.25,0,0,1,0-1.25H14.964A1.25,1.25,0,0,1,16.214,0,1.25,1.25,0,0,1,14.964,1.25Z"
              transform="translate(55.207 24.893)" fill="#ff8c00"/>
        <path d="M13.1,108.37H29.3a1.25,1.25,0,0,1,1.25,1.25v4.351a2.936,2.936,0,0,1-2.933,2.933H14.781a2.936,2.936,0,0,1-2.933-2.933V109.62A1.25,1.25,0,0,1,13.1,108.37Zm14.956,2.5H14.348v3.1a.433.433,0,0,0,.433.433h12.84a.433.433,0,0,0,.433-.433Z"
              transform="translate(-2.077 -17.383)" fill="#ff8c00"/>
        <path d="M65.423,108.37H81.629a1.25,1.25,0,0,1,1.25,1.25v4.351a2.936,2.936,0,0,1-2.933,2.933H67.106a2.936,2.936,0,0,1-2.933-2.933V109.62A1.25,1.25,0,0,1,65.423,108.37Zm14.956,2.5H66.673v3.1a.433.433,0,0,0,.433.433h12.84a.433.433,0,0,0,.433-.433Z"
              transform="translate(-10.374 -17.383)" fill="#ff8c00"/>
        <path d="M0-1.25H14.964A1.25,1.25,0,0,1,16.214,0V10.9a1.25,1.25,0,0,1-1.25,1.25H0A1.25,1.25,0,0,1-1.25,10.9V0A1.25,1.25,0,0,1,0-1.25Zm13.714,2.5H1.25v8.4H13.714Z"
              transform="translate(55.207 67.658)" fill="#ff8c00"/>
        <path d="M0,8.586a1.246,1.246,0,0,1-.884-.366,1.25,1.25,0,0,1,0-1.768L6.452-.884a1.25,1.25,0,0,1,1.768,0,1.25,1.25,0,0,1,0,1.768L.884,8.219A1.246,1.246,0,0,1,0,8.586Z"
              transform="translate(31.587 54.908)" fill="#ff8c00"/>
        <path d="M0,8.586a1.246,1.246,0,0,1-.884-.366,1.25,1.25,0,0,1,0-1.768L6.452-.884a1.25,1.25,0,0,1,1.768,0,1.25,1.25,0,0,1,0,1.768L.884,8.219A1.246,1.246,0,0,1,0,8.586Z"
              transform="translate(16.952 69.543)" fill="#ff8c00"/>
        <path d="M7.336,8.586a1.246,1.246,0,0,1-.884-.366L-.884.884a1.25,1.25,0,0,1,0-1.768,1.25,1.25,0,0,1,1.768,0L8.219,6.452a1.25,1.25,0,0,1-.884,2.134Z"
              transform="translate(31.587 69.543)" fill="#ff8c00"/>
        <path d="M7.336,8.586a1.246,1.246,0,0,1-.884-.366L-.884.884a1.25,1.25,0,0,1,0-1.768,1.25,1.25,0,0,1,1.768,0L8.219,6.452a1.25,1.25,0,0,1-.884,2.134Z"
              transform="translate(16.952 54.908)" fill="#ff8c00"/>
        <path d="M10.374,1.25H0A1.25,1.25,0,0,1-1.25,0,1.25,1.25,0,0,1,0-1.25H10.374A1.25,1.25,0,0,1,11.624,0,1.25,1.25,0,0,1,10.374,1.25Z"
              transform="translate(33.099 65.893)" fill="#ff8c00"/>
        <path d="M10.374,1.25H0A1.25,1.25,0,0,1-1.25,0,1.25,1.25,0,0,1,0-1.25H10.374A1.25,1.25,0,0,1,11.624,0,1.25,1.25,0,0,1,10.374,1.25Z"
              transform="translate(12.402 65.893)" fill="#ff8c00"/>
        <path d="M0,11.624a1.25,1.25,0,0,1-1.25-1.25V0A1.25,1.25,0,0,1,0-1.25,1.25,1.25,0,0,1,1.25,0V10.374A1.25,1.25,0,0,1,0,11.624Z"
              transform="translate(27.937 71.055)" fill="#ff8c00"/>
        <path d="M0,11.624a1.25,1.25,0,0,1-1.25-1.25V0A1.25,1.25,0,0,1,0-1.25,1.25,1.25,0,0,1,1.25,0V10.374A1.25,1.25,0,0,1,0,11.624Z"
              transform="translate(27.937 50.358)" fill="#ff8c00"/>
        <path d="M0,8.586a1.246,1.246,0,0,1-.884-.366,1.25,1.25,0,0,1,0-1.768L6.452-.884a1.25,1.25,0,0,1,1.768,0,1.25,1.25,0,0,1,0,1.768L.884,8.219A1.246,1.246,0,0,1,0,8.586Z"
              transform="translate(31.587 16.603)" fill="#ff8c00"/>
        <path d="M0,8.586a1.246,1.246,0,0,1-.884-.366,1.25,1.25,0,0,1,0-1.768L6.452-.884a1.25,1.25,0,0,1,1.768,0,1.25,1.25,0,0,1,0,1.768L.884,8.219A1.246,1.246,0,0,1,0,8.586Z"
              transform="translate(16.952 31.238)" fill="#ff8c00"/>
        <path d="M7.336,8.586a1.246,1.246,0,0,1-.884-.366L-.884.884a1.25,1.25,0,0,1,0-1.768,1.25,1.25,0,0,1,1.768,0L8.219,6.452a1.25,1.25,0,0,1-.884,2.134Z"
              transform="translate(31.587 31.239)" fill="#ff8c00"/>
        <path d="M7.336,8.586a1.246,1.246,0,0,1-.884-.366L-.884.884a1.25,1.25,0,0,1,0-1.768,1.25,1.25,0,0,1,1.768,0L8.219,6.452a1.25,1.25,0,0,1-.884,2.134Z"
              transform="translate(16.952 16.603)" fill="#ff8c00"/>
        <path d="M10.374,1.25H0A1.25,1.25,0,0,1-1.25,0,1.25,1.25,0,0,1,0-1.25H10.374A1.25,1.25,0,0,1,11.624,0,1.25,1.25,0,0,1,10.374,1.25Z"
              transform="translate(33.099 27.589)" fill="#ff8c00"/>
        <path d="M10.374,1.25H0A1.25,1.25,0,0,1-1.25,0,1.25,1.25,0,0,1,0-1.25H10.374A1.25,1.25,0,0,1,11.624,0,1.25,1.25,0,0,1,10.374,1.25Z"
              transform="translate(12.402 27.589)" fill="#ff8c00"/>
        <path d="M0,11.624a1.25,1.25,0,0,1-1.25-1.25V0A1.25,1.25,0,0,1,0-1.25,1.25,1.25,0,0,1,1.25,0V10.374A1.25,1.25,0,0,1,0,11.624Z"
              transform="translate(27.937 32.751)" fill="#ff8c00"/>
        <path d="M0,11.624a1.25,1.25,0,0,1-1.25-1.25V0A1.25,1.25,0,0,1,0-1.25,1.25,1.25,0,0,1,1.25,0V10.374A1.25,1.25,0,0,1,0,11.624Z"
              transform="translate(27.937 12.053)" fill="#ff8c00"/>
        <path d="M6-1.25H73.751A7.258,7.258,0,0,1,81,6V47.111a7.258,7.258,0,0,1-7.25,7.25H6a7.258,7.258,0,0,1-7.25-7.25V6A7.258,7.258,0,0,1,6-1.25ZM73.751,51.861a4.755,4.755,0,0,0,4.75-4.75V6a4.755,4.755,0,0,0-4.75-4.75H6A4.755,4.755,0,0,0,1.25,6V47.111A4.755,4.755,0,0,0,6,51.861Z"
              transform="translate(86.968 39.126)" fill="#ff8c00"/>
        <path d="M15.561-1.25a16.807,16.807,0,0,1,11.887,28.7A16.811,16.811,0,1,1,9.017.072,16.707,16.707,0,0,1,15.561-1.25Zm0,31.123A14.311,14.311,0,1,0,1.25,15.561,14.328,14.328,0,0,0,15.561,29.873Z"
              transform="matrix(0.23, -0.973, 0.973, 0.23, 94.905, 77.48)" fill="#ff8c00"/>
        <path d="M5.187-1.25A6.437,6.437,0,1,1-1.25,5.187,6.445,6.445,0,0,1,5.187-1.25Zm0,10.375A3.937,3.937,0,1,0,1.25,5.187,3.942,3.942,0,0,0,5.187,9.125Z"
              transform="translate(108.438 60.724)" fill="#ff8c00"/>
        <path d="M14.964,1.25H0A1.25,1.25,0,0,1-1.25,0,1.25,1.25,0,0,1,0-1.25H14.964A1.25,1.25,0,0,1,16.214,0,1.25,1.25,0,0,1,14.964,1.25Z"
              transform="translate(140.913 61.017)" fill="#ff8c00"/>
        <path d="M14.964,1.25H0A1.25,1.25,0,0,1-1.25,0,1.25,1.25,0,0,1,0-1.25H14.964A1.25,1.25,0,0,1,16.214,0,1.25,1.25,0,0,1,14.964,1.25Z"
              transform="translate(140.913 79.676)" fill="#ff8c00"/>
        <path d="M14.964,1.25H0A1.25,1.25,0,0,1-1.25,0,1.25,1.25,0,0,1,0-1.25H14.964A1.25,1.25,0,0,1,16.214,0,1.25,1.25,0,0,1,14.964,1.25Z"
              transform="translate(140.913 70.346)" fill="#ff8c00"/>
        <path d="M14.964,1.25H0A1.25,1.25,0,0,1-1.25,0,1.25,1.25,0,0,1,0-1.25H14.964A1.25,1.25,0,0,1,16.214,0,1.25,1.25,0,0,1,14.964,1.25Z"
              transform="translate(140.913 51.688)" fill="#ff8c00"/>
        <path d="M114.956,108.37h16.206a1.25,1.25,0,0,1,1.25,1.25v4.351a2.936,2.936,0,0,1-2.933,2.933h-12.84a2.936,2.936,0,0,1-2.933-2.933V109.62A1.25,1.25,0,0,1,114.956,108.37Zm14.956,2.5H116.206v3.1a.433.433,0,0,0,.433.433h12.84a.433.433,0,0,0,.433-.433Z"
              transform="translate(-18.229 -17.383)" fill="#ff8c00"/>
        <path d="M167.281,108.37h16.206a1.25,1.25,0,0,1,1.25,1.25v4.351A2.936,2.936,0,0,1,181.8,116.9h-12.84a2.936,2.936,0,0,1-2.933-2.933V109.62A1.25,1.25,0,0,1,167.281,108.37Zm14.956,2.5H168.531v3.1a.433.433,0,0,0,.433.433H181.8a.433.433,0,0,0,.433-.433Z"
              transform="translate(-26.526 -17.383)" fill="#ff8c00"/>
        <path d="M0,8.586a1.246,1.246,0,0,1-.884-.366,1.25,1.25,0,0,1,0-1.768L6.452-.884a1.25,1.25,0,0,1,1.768,0,1.25,1.25,0,0,1,0,1.768L.884,8.219A1.246,1.246,0,0,1,0,8.586Z"
              transform="translate(117.294 54.908)" fill="#ff8c00"/>
        <path d="M0,8.586a1.246,1.246,0,0,1-.884-.366,1.25,1.25,0,0,1,0-1.768L6.452-.884a1.25,1.25,0,0,1,1.768,0,1.25,1.25,0,0,1,0,1.768L.884,8.219A1.246,1.246,0,0,1,0,8.586Z"
              transform="translate(102.658 69.543)" fill="#ff8c00"/>
        <path d="M7.336,8.586a1.246,1.246,0,0,1-.884-.366L-.884.884a1.25,1.25,0,0,1,0-1.768,1.25,1.25,0,0,1,1.768,0L8.219,6.452a1.25,1.25,0,0,1-.884,2.134Z"
              transform="translate(117.294 69.543)" fill="#ff8c00"/>
        <path d="M7.336,8.586a1.246,1.246,0,0,1-.884-.366L-.884.884a1.25,1.25,0,0,1,0-1.768,1.25,1.25,0,0,1,1.768,0L8.219,6.452a1.25,1.25,0,0,1-.884,2.134Z"
              transform="translate(102.658 54.908)" fill="#ff8c00"/>
        <path d="M10.374,1.25H0A1.25,1.25,0,0,1-1.25,0,1.25,1.25,0,0,1,0-1.25H10.374A1.25,1.25,0,0,1,11.624,0,1.25,1.25,0,0,1,10.374,1.25Z"
              transform="translate(118.806 65.893)" fill="#ff8c00"/>
        <path d="M10.374,1.25H0A1.25,1.25,0,0,1-1.25,0,1.25,1.25,0,0,1,0-1.25H10.374A1.25,1.25,0,0,1,11.624,0,1.25,1.25,0,0,1,10.374,1.25Z"
              transform="translate(98.108 65.893)" fill="#ff8c00"/>
        <path d="M0,11.624a1.25,1.25,0,0,1-1.25-1.25V0A1.25,1.25,0,0,1,0-1.25,1.25,1.25,0,0,1,1.25,0V10.374A1.25,1.25,0,0,1,0,11.624Z"
              transform="translate(113.644 71.055)" fill="#ff8c00"/>
        <path d="M0,11.624a1.25,1.25,0,0,1-1.25-1.25V0A1.25,1.25,0,0,1,0-1.25,1.25,1.25,0,0,1,1.25,0V10.374A1.25,1.25,0,0,1,0,11.624Z"
              transform="translate(113.644 50.358)" fill="#ff8c00"/>
    </g>
</svg>