<svg xmlns="http://www.w3.org/2000/svg" xmlns:xlink="http://www.w3.org/1999/xlink" width="146.16" height="115.671"
     viewBox="0 0 146.16 115.671">
    <defs>
        <clipPath id="a">
            <rect width="146.16" height="115.671" transform="translate(0 0)" fill="none" stroke="#707070"
                  stroke-width="2.5"/>
        </clipPath>
    </defs>
    <g clip-path="url(#a)">
        <path d="M111.244,64.6a1.25,1.25,0,0,1-.6-2.348A19.708,19.708,0,1,0,85.266,33.4a1.25,1.25,0,0,1-2.024-1.467,22.538,22.538,0,0,1,7.742-6.7A22.252,22.252,0,0,1,121.7,36.293a21.94,21.94,0,0,1,1.754,8.628,22.229,22.229,0,0,1-11.609,19.522A1.245,1.245,0,0,1,111.244,64.6Z"
              fill="#ff8c00"/>
        <path d="M0,17.046A1.25,1.25,0,0,1-1.25,15.8V0A1.25,1.25,0,0,1,0-1.25,1.25,1.25,0,0,1,1.25,0V15.8A1.25,1.25,0,0,1,0,17.046Z"
              transform="translate(104.947 68.838)" fill="#ff8c00"/>
        <path d="M11.153,12.4a1.246,1.246,0,0,1-.884-.366L-.884.884a1.25,1.25,0,0,1,0-1.768,1.25,1.25,0,0,1,1.768,0L12.037,10.269a1.25,1.25,0,0,1-.884,2.134Z"
              transform="translate(120.777 64.464)" fill="#ff8c00"/>
        <path d="M15.8,1.25H0A1.25,1.25,0,0,1-1.25,0,1.25,1.25,0,0,1,0-1.25H15.8A1.25,1.25,0,0,1,17.046,0,1.25,1.25,0,0,1,15.8,1.25Z"
              transform="translate(128.864 44.921)" fill="#ff8c00"/>
        <path d="M0,12.4a1.246,1.246,0,0,1-.884-.366,1.25,1.25,0,0,1,0-1.768L10.269-.884a1.25,1.25,0,0,1,1.768,0,1.25,1.25,0,0,1,0,1.768L.884,12.037A1.246,1.246,0,0,1,0,12.4Z"
              transform="translate(120.777 14.23)" fill="#ff8c00"/>
        <path d="M0,17.046A1.25,1.25,0,0,1-1.25,15.8V0A1.25,1.25,0,0,1,0-1.25,1.25,1.25,0,0,1,1.25,0V15.8A1.25,1.25,0,0,1,0,17.046Z"
              transform="translate(101.234 1.5)" fill="#ff8c00"/>
        <path d="M11.153,12.4a1.246,1.246,0,0,1-.884-.366L-.884.884a1.25,1.25,0,0,1,0-1.768,1.25,1.25,0,0,1,1.768,0L12.037,10.269a1.25,1.25,0,0,1-.884,2.134Z"
              transform="translate(70.543 14.23)" fill="#ff8c00"/>
        <path d="M5.262-1.25H98.187A6.519,6.519,0,0,1,104.7,5.262V68.677a6.519,6.519,0,0,1-6.512,6.512H5.262A6.519,6.519,0,0,1-1.25,68.677V5.262A6.519,6.519,0,0,1,5.262-1.25ZM98.187,72.689a4.017,4.017,0,0,0,4.012-4.012V5.262A4.017,4.017,0,0,0,98.187,1.25H5.262A4.017,4.017,0,0,0,1.25,5.262V68.677a4.017,4.017,0,0,0,4.012,4.012Z"
              transform="translate(1.5 40.232)" fill="#ff8c00"/>
        <path d="M94.809,1.25H0A1.25,1.25,0,0,1-1.25,0,1.25,1.25,0,0,1,0-1.25H94.809A1.25,1.25,0,0,1,96.059,0,1.25,1.25,0,0,1,94.809,1.25Z"
              transform="translate(10.14 58.717)" fill="#ff8c00"/>
        <path d="M94.809,1.25H0A1.25,1.25,0,0,1-1.25,0,1.25,1.25,0,0,1,0-1.25H94.809A1.25,1.25,0,0,1,96.059,0,1.25,1.25,0,0,1,94.809,1.25Z"
              transform="translate(10.14 77.202)" fill="#ff8c00"/>
        <path d="M94.809,1.25H0A1.25,1.25,0,0,1-1.25,0,1.25,1.25,0,0,1,0-1.25H94.809A1.25,1.25,0,0,1,96.059,0,1.25,1.25,0,0,1,94.809,1.25Z"
              transform="translate(10.141 95.686)" fill="#ff8c00"/>
        <path d="M0,66.549A1.25,1.25,0,0,1-1.25,65.3V0A1.25,1.25,0,0,1,0-1.25,1.25,1.25,0,0,1,1.25,0V65.3A1.25,1.25,0,0,1,0,66.549Z"
              transform="translate(22.19 48.872)" fill="#ff8c00"/>
        <path d="M0,66.549A1.25,1.25,0,0,1-1.25,65.3V0A1.25,1.25,0,0,1,0-1.25,1.25,1.25,0,0,1,1.25,0V65.3A1.25,1.25,0,0,1,0,66.549Z"
              transform="translate(42.88 48.872)" fill="#ff8c00"/>
        <path d="M0,66.549A1.25,1.25,0,0,1-1.25,65.3V0A1.25,1.25,0,0,1,0-1.25,1.25,1.25,0,0,1,1.25,0V65.3A1.25,1.25,0,0,1,0,66.549Z"
              transform="translate(63.57 48.872)" fill="#ff8c00"/>
        <path d="M0,66.549A1.25,1.25,0,0,1-1.25,65.3V0A1.25,1.25,0,0,1,0-1.25,1.25,1.25,0,0,1,1.25,0V65.3A1.25,1.25,0,0,1,0,66.549Z"
              transform="translate(84.26 48.872)" fill="#ff8c00"/>
    </g>
</svg>