<?xml version="1.0" encoding="UTF-8" standalone="no"?>
<!DOCTYPE svg PUBLIC "-//W3C//DTD SVG 1.1//EN" "http://www.w3.org/Graphics/SVG/1.1/DTD/svg11.dtd">
<svg width="100%" height="100%" viewBox="0 0 26 26" version="1.1" xmlns="http://www.w3.org/2000/svg" xmlns:xlink="http://www.w3.org/1999/xlink" xml:space="preserve" style="fill-rule:evenodd;clip-rule:evenodd;stroke-linejoin:round;stroke-miterlimit:1.41421;">
    <g transform="matrix(0.991123,0,0,0.991123,3.00017,2.29679)">
        <path d="M1.95,16.526L1.95,0.625C1.953,0.561 1.959,0.5 1.978,0.438C2.029,0.276 2.147,0.139 2.3,0.064C2.358,0.035 2.417,0.02 2.48,0.007C2.544,0.001 2.543,0.001 2.606,0.001C2.671,0.008 2.731,0.017 2.792,0.039C2.972,0.106 3.114,0.255 3.171,0.438C3.191,0.5 3.197,0.561 3.2,0.625L3.2,16.526C3.369,16.567 3.533,16.626 3.692,16.702C4.409,17.048 4.938,17.724 5.098,18.504C5.154,18.782 5.165,19.069 5.129,19.35C5.097,19.603 5.027,19.85 4.922,20.083C4.794,20.365 4.615,20.624 4.396,20.844C4.176,21.063 3.918,21.242 3.635,21.37C3.323,21.511 2.983,21.588 2.641,21.597C2.297,21.606 1.951,21.545 1.631,21.419C1.341,21.305 1.073,21.138 0.843,20.929C0.614,20.72 0.423,20.471 0.282,20.195C0.166,19.97 0.085,19.727 0.04,19.478C-0.006,19.22 -0.012,18.955 0.021,18.696C0.121,17.903 0.6,17.187 1.293,16.789C1.5,16.67 1.721,16.583 1.95,16.526ZM9.448,8.307C9.381,5.747 9.464,3.185 9.464,0.625C9.467,0.55 9.477,0.477 9.504,0.406C9.561,0.252 9.68,0.125 9.83,0.056C9.885,0.031 9.941,0.017 10,0.006C10.046,0.001 10.089,0 10.134,0.001C10.209,0.01 10.28,0.025 10.349,0.056C10.499,0.125 10.617,0.252 10.675,0.406C10.696,0.463 10.706,0.521 10.713,0.58C10.805,3.153 10.726,5.728 10.716,8.302C10.884,8.344 11.048,8.402 11.206,8.478C11.923,8.824 12.452,9.5 12.612,10.281C12.669,10.558 12.679,10.845 12.644,11.126C12.611,11.379 12.541,11.627 12.436,11.859C12.309,12.142 12.129,12.401 11.91,12.62C11.691,12.839 11.432,13.019 11.149,13.146C11.014,13.207 10.874,13.256 10.731,13.293C10.798,15.852 10.714,18.413 10.714,20.973C10.709,21.124 10.662,21.266 10.562,21.382C10.393,21.577 10.113,21.649 9.871,21.558C9.815,21.538 9.762,21.509 9.715,21.473C9.655,21.429 9.604,21.373 9.564,21.311C9.506,21.221 9.477,21.123 9.466,21.017C9.374,18.446 9.452,15.871 9.463,13.297C9.355,13.27 9.249,13.236 9.145,13.195C8.856,13.081 8.588,12.914 8.358,12.705C8.129,12.497 7.937,12.247 7.796,11.972C7.681,11.746 7.599,11.504 7.554,11.254C7.508,10.996 7.502,10.732 7.535,10.472C7.636,9.679 8.114,8.964 8.807,8.566C9.009,8.449 9.225,8.364 9.448,8.307ZM16.979,5.073C16.871,5.046 16.764,5.012 16.66,4.971C16.37,4.857 16.102,4.69 15.872,4.481C15.643,4.273 15.452,4.023 15.311,3.748C15.195,3.522 15.114,3.279 15.069,3.03C15.023,2.772 15.017,2.507 15.05,2.248C15.15,1.455 15.629,0.74 16.322,0.341C16.655,0.15 17.024,0.041 17.406,0.007C17.494,0.002 17.582,0 17.67,0.001C18.035,0.015 18.391,0.095 18.721,0.254C19.438,0.6 19.967,1.276 20.127,2.057C20.183,2.334 20.194,2.621 20.158,2.902C20.126,3.155 20.056,3.403 19.951,3.635C19.823,3.918 19.644,4.176 19.425,4.396C19.205,4.615 18.947,4.794 18.664,4.922C18.524,4.986 18.378,5.036 18.229,5.073L18.229,20.973C18.224,21.081 18.203,21.181 18.15,21.276C18.12,21.332 18.081,21.382 18.035,21.426C17.847,21.604 17.561,21.648 17.329,21.534C17.272,21.506 17.219,21.47 17.173,21.426C17.081,21.338 17.017,21.223 16.992,21.099C16.98,21.043 16.982,21.029 16.979,20.973L16.979,5.073ZM2.54,17.698C2.342,17.706 2.149,17.752 1.972,17.842C1.628,18.019 1.371,18.346 1.284,18.723C1.248,18.876 1.241,19.036 1.261,19.192C1.277,19.322 1.313,19.449 1.367,19.568C1.433,19.713 1.525,19.847 1.638,19.96C1.751,20.073 1.884,20.165 2.03,20.231C2.19,20.303 2.365,20.343 2.54,20.347C2.718,20.352 2.896,20.321 3.061,20.256C3.21,20.197 3.347,20.111 3.466,20.004C3.584,19.896 3.682,19.768 3.755,19.626C3.814,19.51 3.856,19.386 3.879,19.258C3.905,19.114 3.907,18.965 3.885,18.82C3.824,18.425 3.58,18.072 3.234,17.873C3.063,17.774 2.874,17.719 2.678,17.702C2.632,17.699 2.586,17.698 2.54,17.698ZM10.055,9.475C9.856,9.482 9.663,9.528 9.486,9.619C9.142,9.795 8.885,10.122 8.798,10.499C8.763,10.653 8.755,10.812 8.775,10.969C8.791,11.098 8.827,11.225 8.881,11.344C8.947,11.49 9.039,11.623 9.152,11.736C9.265,11.849 9.399,11.941 9.544,12.007C9.704,12.08 9.879,12.119 10.055,12.124C10.232,12.128 10.41,12.097 10.575,12.032C10.724,11.974 10.862,11.888 10.98,11.78C11.098,11.673 11.197,11.544 11.27,11.402C11.329,11.286 11.371,11.162 11.393,11.034C11.419,10.89 11.421,10.741 11.399,10.597C11.339,10.201 11.094,9.848 10.748,9.649C10.577,9.551 10.388,9.495 10.192,9.478C10.146,9.475 10.101,9.474 10.055,9.475ZM17.569,1.25C17.371,1.258 17.178,1.304 17.001,1.395C16.657,1.571 16.4,1.898 16.313,2.275C16.277,2.428 16.27,2.588 16.29,2.744C16.306,2.874 16.342,3.001 16.396,3.12C16.462,3.266 16.554,3.399 16.667,3.512C16.78,3.625 16.913,3.717 17.059,3.783C17.219,3.856 17.394,3.895 17.569,3.899C17.747,3.904 17.925,3.873 18.09,3.808C18.239,3.749 18.376,3.663 18.495,3.556C18.613,3.448 18.711,3.32 18.784,3.178C18.843,3.062 18.885,2.938 18.908,2.81C18.934,2.666 18.936,2.517 18.914,2.372C18.853,1.977 18.609,1.624 18.263,1.425C18.092,1.327 17.903,1.271 17.707,1.254C17.661,1.251 17.615,1.25 17.569,1.25Z" style="fill:rgb(159,159,159);"/>
    </g>
</svg>
