<?xml version="1.0" encoding="UTF-8" standalone="no"?>
<!DOCTYPE svg PUBLIC "-//W3C//DTD SVG 1.1//EN" "http://www.w3.org/Graphics/SVG/1.1/DTD/svg11.dtd">
<svg width="100%" height="100%" viewBox="0 0 26 26" version="1.1" xmlns="http://www.w3.org/2000/svg" xmlns:xlink="http://www.w3.org/1999/xlink" xml:space="preserve" style="fill-rule:evenodd;clip-rule:evenodd;stroke-linejoin:round;stroke-miterlimit:1.41421;">
    <g transform="matrix(1.02659,0,0,1.02659,4.5002,0.655381)">
        <path d="M13.768,0.003C13.865,0.02 13.953,0.046 14.036,0.099C14.24,0.231 14.351,0.477 14.315,0.717C14.3,0.815 14.261,0.898 14.21,0.981L9.047,8.408L15.935,8.408L16.009,8.413C16.108,8.431 16.199,8.458 16.284,8.515C16.492,8.655 16.598,8.915 16.547,9.161C16.526,9.261 16.48,9.343 16.421,9.426L4.755,23.883C4.739,23.901 4.723,23.92 4.705,23.938C4.634,24.007 4.547,24.059 4.452,24.088C4.381,24.11 4.306,24.119 4.232,24.114C3.953,24.098 3.713,23.89 3.657,23.617C3.636,23.516 3.645,23.422 3.667,23.323L6.165,14.353L0.625,14.353L0.553,14.349C0.457,14.333 0.369,14.307 0.286,14.254C0.104,14.136 -0.007,13.926 0,13.709C0.002,13.635 0.02,13.569 0.043,13.5L5.189,0.396C5.217,0.336 5.221,0.319 5.26,0.264C5.346,0.142 5.477,0.053 5.623,0.017C5.687,0.001 5.705,0.003 5.771,-0.001C8.437,-0.001 11.107,-0.149 13.768,0.003ZM6.197,1.249L1.542,13.103L6.988,13.103C7.086,13.109 7.177,13.124 7.266,13.168C7.462,13.266 7.595,13.464 7.611,13.682C7.617,13.756 7.606,13.824 7.59,13.896L5.683,20.743L14.627,9.658L7.852,9.658C7.754,9.653 7.664,9.638 7.575,9.594C7.334,9.475 7.194,9.206 7.234,8.941C7.248,8.843 7.287,8.76 7.339,8.677L12.501,1.249C10.4,1.249 8.298,1.249 6.197,1.249Z" style="fill:rgb(159,159,159);fill-rule:nonzero;"/>
    </g>
</svg>
