<?xml version="1.0" encoding="UTF-8" standalone="no"?>
<!DOCTYPE svg PUBLIC "-//W3C//DTD SVG 1.1//EN" "http://www.w3.org/Graphics/SVG/1.1/DTD/svg11.dtd">
<svg width="100%" height="100%" viewBox="0 0 26 22" version="1.1" xmlns="http://www.w3.org/2000/svg" xmlns:xlink="http://www.w3.org/1999/xlink" xml:space="preserve" style="fill-rule:evenodd;clip-rule:evenodd;stroke-linejoin:round;stroke-miterlimit:1.41421;">
    <g transform="matrix(1.01794,0,0,1.01794,0.0479439,0.0624771)">
        <path d="M1.345,4.852C1.351,3.975 1.36,3.098 1.371,2.222C1.381,1.974 1.424,1.73 1.51,1.497C1.74,0.873 2.244,0.369 2.868,0.14C3.102,0.054 3.345,0.011 3.593,0.001C10.139,-0.082 16.687,-0.082 23.232,0.001C23.499,0.011 23.761,0.061 24.009,0.159C24.61,0.397 25.092,0.891 25.315,1.497C25.401,1.73 25.444,1.974 25.453,2.222C25.508,6.554 25.509,10.888 25.453,15.22C25.444,15.468 25.4,15.711 25.315,15.945C25.092,16.551 24.61,17.045 24.01,17.282C23.761,17.381 23.499,17.431 23.232,17.441C19.518,17.488 15.804,17.509 12.09,17.502C12.086,18.147 12.083,18.792 12.083,19.437C12.079,19.61 12.057,19.778 12.005,19.943C11.855,20.423 11.491,20.823 11.028,21.019C10.841,21.098 10.646,21.138 10.445,21.153C7.537,21.227 4.627,21.155 1.717,21.155C1.545,21.151 1.377,21.129 1.213,21.077C0.732,20.927 0.333,20.564 0.137,20.101C0.057,19.914 0.018,19.719 0.002,19.518C-0.108,15.188 0,10.856 0,6.525C0.005,6.353 0.027,6.185 0.078,6.02C0.228,5.54 0.591,5.14 1.054,4.944C1.149,4.903 1.246,4.873 1.345,4.852ZM1.197,16.789C1.211,17.677 1.229,18.566 1.251,19.454C1.255,19.509 1.266,19.562 1.288,19.613C1.359,19.781 1.52,19.891 1.701,19.904C4.593,19.978 7.489,19.978 10.381,19.904C10.562,19.891 10.724,19.781 10.796,19.612C10.818,19.561 10.828,19.509 10.833,19.454C10.855,18.572 10.873,17.69 10.886,16.808C7.659,16.913 4.427,16.802 1.197,16.789ZM12.098,16.305C15.809,16.34 19.519,16.332 23.227,16.19C23.338,16.183 23.446,16.161 23.549,16.12C23.821,16.012 24.04,15.788 24.141,15.513C24.18,15.409 24.199,15.299 24.203,15.188C24.259,10.868 24.368,6.544 24.202,2.227C24.195,2.117 24.173,2.008 24.132,1.905C24.025,1.633 23.8,1.414 23.526,1.313C23.421,1.274 23.312,1.255 23.2,1.251C16.686,1.168 10.171,1.251 3.656,1.251C3.534,1.252 3.414,1.271 3.299,1.313C3.025,1.414 2.8,1.633 2.692,1.905C2.651,2.009 2.629,2.117 2.622,2.227C2.59,3.081 2.563,3.935 2.544,4.789C3.124,4.777 3.705,4.768 4.285,4.762C4.287,4.395 4.288,4.028 4.288,3.66C4.291,3.54 4.307,3.422 4.343,3.307C4.449,2.97 4.703,2.69 5.028,2.551C5.16,2.495 5.297,2.468 5.439,2.457C10.753,2.321 16.073,2.321 21.387,2.457C21.529,2.468 21.666,2.495 21.798,2.551C22.104,2.682 22.349,2.938 22.464,3.251C22.506,3.366 22.527,3.484 22.537,3.606C22.612,6.562 22.538,9.519 22.538,12.475C22.535,12.596 22.519,12.713 22.483,12.828C22.378,13.165 22.123,13.446 21.798,13.584C21.666,13.64 21.529,13.668 21.387,13.679C18.298,13.758 15.209,13.745 12.119,13.721C12.112,14.582 12.104,15.444 12.098,16.305ZM10.903,15.516C10.933,12.514 10.909,9.51 10.833,6.509C10.828,6.454 10.818,6.401 10.796,6.351C10.724,6.181 10.562,6.072 10.381,6.058C7.499,5.985 4.616,6.057 1.733,6.057C1.675,6.059 1.619,6.066 1.564,6.086C1.384,6.152 1.266,6.32 1.251,6.509C1.175,9.51 1.152,12.513 1.181,15.516C4.42,15.397 7.664,15.397 10.903,15.516ZM21.288,3.705L5.538,3.705L5.538,4.754C7.174,4.749 8.81,4.768 10.445,4.809C10.618,4.823 10.786,4.852 10.95,4.913C11.395,5.076 11.761,5.424 11.947,5.861C12.026,6.048 12.066,6.243 12.081,6.445C12.132,8.44 12.137,10.435 12.127,12.43L21.288,12.43L21.288,3.705Z" style="fill:rgb(159,159,159);"/>
        <path d="M6.976,17.66C7.073,17.665 7.167,17.689 7.253,17.735C7.522,17.88 7.647,18.21 7.543,18.497C7.517,18.569 7.479,18.635 7.429,18.693C7.375,18.755 7.309,18.807 7.235,18.844C7.154,18.884 7.066,18.905 6.976,18.909C6.38,18.919 5.783,18.938 5.187,18.908C5.09,18.9 4.997,18.873 4.913,18.824C4.656,18.674 4.539,18.352 4.641,18.072C4.667,18.001 4.705,17.934 4.755,17.877C4.809,17.814 4.875,17.762 4.949,17.725C5.03,17.685 5.118,17.665 5.208,17.66C5.797,17.65 6.387,17.65 6.976,17.66Z" style="fill:rgb(159,159,159);fill-rule:nonzero;"/>
    </g>
</svg>
