<?xml version="1.0" encoding="UTF-8" standalone="no"?>
<!DOCTYPE svg PUBLIC "-//W3C//DTD SVG 1.1//EN" "http://www.w3.org/Graphics/SVG/1.1/DTD/svg11.dtd">
<svg width="100%" height="100%" viewBox="0 0 26 27" version="1.1" xmlns="http://www.w3.org/2000/svg" xmlns:xlink="http://www.w3.org/1999/xlink" xml:space="preserve" style="fill-rule:evenodd;clip-rule:evenodd;stroke-linejoin:round;stroke-miterlimit:1.41421;">
    <g transform="matrix(1.01324,0,0,1.01324,-0.00173014,-0.000355836)">
        <path d="M21.823,7.504C22.779,8.453 23.738,9.398 24.678,10.362C24.943,10.649 25.167,10.967 25.331,11.322C25.759,12.244 25.772,13.33 25.367,14.262C25.2,14.648 24.963,14.994 24.678,15.302C21.591,18.465 18.465,21.591 15.302,24.678C15.015,24.944 14.697,25.167 14.342,25.332C13.42,25.76 12.334,25.773 11.402,25.368C11.016,25.2 10.67,24.964 10.362,24.678C7.199,21.591 4.071,18.467 0.985,15.302C0.7,14.994 0.464,14.648 0.296,14.262C-0.109,13.33 -0.095,12.244 0.332,11.322C0.497,10.967 0.72,10.649 0.985,10.362C4.07,7.196 7.198,4.072 10.363,0.986C10.54,0.821 10.728,0.671 10.934,0.543C11.329,0.296 11.773,0.128 12.233,0.05C12.403,0.022 12.574,0.007 12.746,0.001C12.832,0 12.832,0 12.918,0.001C13.119,0.008 13.318,0.027 13.516,0.066C14.034,0.166 14.528,0.381 14.953,0.694C15.05,0.766 15.144,0.842 15.234,0.923C15.297,0.98 15.363,1.039 15.417,1.105C15.471,1.171 15.513,1.245 15.542,1.324C15.571,1.403 15.586,1.487 15.587,1.571C15.591,1.856 15.426,2.125 15.171,2.252C15.096,2.289 15.014,2.314 14.93,2.325C14.791,2.342 14.648,2.32 14.52,2.26C14.452,2.229 14.438,2.215 14.377,2.173C14.313,2.117 14.252,2.057 14.188,2.001C14.029,1.868 13.855,1.755 13.664,1.672C13.122,1.437 12.49,1.445 11.954,1.693C11.747,1.789 11.563,1.919 11.396,2.073C8.249,5.141 5.139,8.247 2.073,11.395C1.919,11.562 1.789,11.747 1.693,11.953C1.444,12.49 1.437,13.122 1.672,13.664C1.769,13.889 1.907,14.089 2.073,14.268C5.141,17.415 8.251,20.521 11.396,23.591C11.563,23.745 11.748,23.875 11.954,23.971C12.49,24.22 13.122,24.227 13.664,23.992C13.888,23.895 14.089,23.757 14.268,23.591C17.413,20.522 20.521,17.413 23.591,14.268C23.757,14.089 23.894,13.889 23.992,13.664C24.227,13.122 24.219,12.49 23.971,11.954C23.875,11.747 23.745,11.562 23.59,11.396C22.659,10.441 21.709,9.505 20.763,8.564L19.071,10.257L17.446,4.189L23.513,5.815L21.823,7.504ZM9.927,12.832C9.927,13.564 9.332,14.158 8.6,14.158C7.867,14.158 7.274,13.564 7.274,12.832C7.274,12.099 7.867,11.505 8.6,11.505C9.332,11.505 9.927,12.099 9.927,12.832ZM18.39,12.832C18.39,13.564 17.796,14.158 17.064,14.158C16.331,14.158 15.738,13.564 15.738,12.832C15.738,12.099 16.331,11.505 17.064,11.505C17.796,11.505 18.39,12.099 18.39,12.832ZM14.159,12.832C14.159,13.564 13.565,14.158 12.833,14.158C12.099,14.158 11.506,13.564 11.506,12.832C11.506,12.099 12.099,11.505 12.833,11.505C13.565,11.505 14.159,12.099 14.159,12.832Z" style="fill:rgb(159,159,159);"/>
    </g>
</svg>
