<?xml version="1.0" encoding="UTF-8" standalone="no"?>
<!DOCTYPE svg PUBLIC "-//W3C//DTD SVG 1.1//EN" "http://www.w3.org/Graphics/SVG/1.1/DTD/svg11.dtd">
<svg width="100%" height="100%" viewBox="0 0 26 26" version="1.1" xmlns="http://www.w3.org/2000/svg" xmlns:xlink="http://www.w3.org/1999/xlink" xml:space="preserve" style="fill-rule:evenodd;clip-rule:evenodd;stroke-linejoin:round;stroke-miterlimit:1.41421;">
    <g transform="matrix(1.01034,0,0,1.01034,1.00033,0.99991)">
        <path d="M12.03,0.001C12.585,0.011 13.137,0.053 13.685,0.137C14.795,0.306 15.879,0.635 16.896,1.11C18.02,1.634 19.06,2.337 19.968,3.182C20.909,4.058 21.707,5.085 22.32,6.215C22.876,7.238 23.279,8.343 23.513,9.484C23.775,10.766 23.823,12.091 23.659,13.389C23.504,14.601 23.161,15.789 22.644,16.896C22.039,18.192 21.198,19.376 20.174,20.375C19.115,21.409 17.864,22.244 16.501,22.82C15.088,23.418 13.563,23.734 12.03,23.753C10.492,23.773 8.953,23.494 7.522,22.93C6.143,22.386 4.871,21.582 3.786,20.572C2.74,19.598 1.871,18.436 1.235,17.156C0.692,16.064 0.321,14.89 0.137,13.685C-0.054,12.44 -0.046,11.164 0.16,9.922C0.343,8.816 0.685,7.737 1.172,6.727C1.751,5.525 2.535,4.422 3.479,3.478C4.423,2.535 5.525,1.751 6.727,1.171C7.737,0.685 8.816,0.343 9.922,0.16C10.468,0.07 11.018,0.021 11.571,0.004C11.724,0.001 11.877,0 12.03,0.001ZM11.743,1.501C11.258,1.51 10.775,1.546 10.296,1.62C9.327,1.768 8.38,2.054 7.492,2.469C5.449,3.423 3.745,5.047 2.693,7.042C2.218,7.942 1.877,8.912 1.686,9.912C1.47,11.036 1.442,12.196 1.601,13.329C1.748,14.384 2.06,15.415 2.523,16.375C3.065,17.501 3.813,18.526 4.718,19.389C5.654,20.281 6.757,20.998 7.955,21.487C9.197,21.995 10.535,22.254 11.877,22.254C13.219,22.254 14.557,21.995 15.799,21.487C16.997,20.998 18.1,20.282 19.037,19.389C19.941,18.526 20.689,17.501 21.231,16.375C21.694,15.415 22.006,14.384 22.153,13.329C22.312,12.196 22.284,11.036 22.068,9.912C21.885,8.953 21.564,8.022 21.119,7.153C20.072,5.109 18.343,3.441 16.262,2.469C15.374,2.054 14.427,1.768 13.458,1.62C12.979,1.546 12.496,1.51 12.011,1.501C11.877,1.5 11.877,1.5 11.743,1.501ZM11.112,9.747C11.07,7.617 11.127,5.487 11.127,3.357C11.129,3.281 11.138,3.207 11.161,3.134C11.224,2.93 11.375,2.76 11.569,2.673C11.639,2.641 11.711,2.624 11.787,2.612C11.832,2.608 11.876,2.607 11.922,2.608C11.998,2.615 12.071,2.628 12.143,2.656C12.342,2.731 12.503,2.892 12.578,3.091C12.605,3.162 12.619,3.236 12.626,3.312C12.69,5.454 12.638,7.598 12.628,9.742C12.707,9.769 12.783,9.8 12.859,9.837C13.507,10.149 13.979,10.768 14.105,11.477C14.146,11.704 14.152,11.936 14.123,12.164C14.094,12.387 14.033,12.605 13.94,12.809C13.828,13.058 13.67,13.285 13.477,13.478C13.285,13.671 13.057,13.828 12.809,13.941C12.534,14.065 12.236,14.133 11.935,14.14C11.632,14.148 11.328,14.095 11.046,13.984C10.996,13.964 10.946,13.942 10.896,13.918C9.991,14.858 9.1,15.816 8.126,16.685C8.038,16.758 7.938,16.812 7.827,16.841C7.735,16.865 7.639,16.872 7.545,16.86C7.461,16.85 7.378,16.825 7.302,16.786C6.989,16.63 6.823,16.265 6.912,15.926C6.943,15.805 7.005,15.698 7.087,15.606C7.986,14.673 8.871,13.721 9.836,12.856C9.748,12.673 9.685,12.477 9.649,12.277C9.608,12.05 9.603,11.818 9.632,11.59C9.72,10.893 10.14,10.264 10.749,9.914C10.866,9.847 10.987,9.791 11.112,9.747ZM11.857,11.113C11.743,11.118 11.632,11.144 11.53,11.196C11.239,11.345 11.073,11.671 11.122,11.994C11.134,12.068 11.156,12.141 11.189,12.208C11.229,12.291 11.284,12.367 11.35,12.43C11.417,12.494 11.495,12.545 11.58,12.581C11.674,12.621 11.775,12.641 11.877,12.641C11.978,12.641 12.08,12.621 12.174,12.581C12.259,12.545 12.337,12.494 12.404,12.43C12.47,12.366 12.526,12.291 12.566,12.208C12.598,12.14 12.62,12.068 12.632,11.994C12.681,11.671 12.515,11.345 12.224,11.196C12.122,11.144 12.011,11.118 11.897,11.113C11.877,11.113 11.877,11.113 11.857,11.113Z" style="fill:rgb(159,159,159);"/>
    </g>
</svg>
