<?xml version="1.0" encoding="UTF-8" standalone="no"?>
<!DOCTYPE svg PUBLIC "-//W3C//DTD SVG 1.1//EN" "http://www.w3.org/Graphics/SVG/1.1/DTD/svg11.dtd">
<svg width="100%" height="100%" viewBox="0 0 26 23" version="1.1" xmlns="http://www.w3.org/2000/svg" xmlns:xlink="http://www.w3.org/1999/xlink" xml:space="preserve" style="fill-rule:evenodd;clip-rule:evenodd;stroke-linejoin:round;stroke-miterlimit:1.41421;">
    <g transform="matrix(1.00605,0,0,1.00605,0.00020121,-0.0648715)">
        <path d="M22.422,9.109L20.45,10.287L20.356,4.006L25.844,7.063L23.76,8.308C23.836,8.566 23.902,8.827 23.96,9.09C24.442,11.307 24.246,13.654 23.397,15.759C22.539,17.889 21.022,19.735 19.108,21.002C18.216,21.592 17.241,22.054 16.219,22.371C14.837,22.799 13.375,22.959 11.933,22.843C10.994,22.767 10.064,22.575 9.172,22.27C8.756,22.128 8.35,21.959 7.952,21.771L7.855,21.725C7.803,21.696 7.789,21.691 7.74,21.656C7.613,21.563 7.517,21.43 7.469,21.28C7.377,20.997 7.466,20.679 7.69,20.484C7.741,20.44 7.798,20.402 7.859,20.373C7.94,20.335 8.027,20.311 8.117,20.303C8.232,20.293 8.339,20.313 8.448,20.348C8.616,20.421 8.779,20.503 8.947,20.577C9.326,20.738 9.713,20.879 10.109,20.993C10.954,21.237 11.832,21.367 12.711,21.379C13.874,21.395 15.038,21.206 16.135,20.819C17.045,20.498 17.905,20.042 18.681,19.471C19.749,18.684 20.662,17.683 21.34,16.543C22.338,14.866 22.814,12.899 22.704,10.951C22.668,10.328 22.573,9.712 22.422,9.109ZM3.421,13.771L5.393,12.593L5.488,18.874L0,15.817L2.083,14.571C2.036,14.409 1.992,14.246 1.951,14.083L1.934,14.009C1.916,13.919 1.907,13.833 1.919,13.742C1.949,13.494 2.106,13.273 2.33,13.162C2.412,13.121 2.497,13.101 2.587,13.087C2.654,13.084 2.654,13.084 2.721,13.086C2.789,13.094 2.854,13.105 2.918,13.128C3.066,13.182 3.196,13.283 3.284,13.413C3.322,13.47 3.349,13.53 3.373,13.593C3.39,13.652 3.406,13.712 3.421,13.771ZM3.03,7.174C3.12,7.188 3.205,7.209 3.287,7.25C3.531,7.374 3.691,7.627 3.698,7.901C3.7,7.992 3.683,8.078 3.657,8.165C3.608,8.305 3.565,8.447 3.522,8.589C3.378,9.09 3.269,9.599 3.203,10.116C3.181,10.288 3.164,10.46 3.151,10.633C3.147,10.69 3.143,10.748 3.14,10.806C3.138,10.833 3.134,10.917 3.136,10.889L3.13,10.956C3.117,11.023 3.103,11.087 3.076,11.15C3.014,11.295 2.907,11.419 2.772,11.5C2.695,11.546 2.609,11.578 2.521,11.594C2.229,11.647 1.925,11.518 1.761,11.27C1.711,11.195 1.675,11.111 1.655,11.024C1.625,10.891 1.64,10.755 1.648,10.621C1.661,10.422 1.68,10.224 1.703,10.026C1.798,9.23 1.979,8.448 2.235,7.688C2.247,7.653 2.248,7.653 2.265,7.611C2.292,7.558 2.297,7.543 2.331,7.494C2.42,7.364 2.55,7.265 2.699,7.212C2.764,7.189 2.828,7.179 2.896,7.171C2.963,7.17 2.963,7.17 3.03,7.174ZM6.456,2.337C6.568,2.356 6.672,2.389 6.769,2.452C7.059,2.64 7.183,3.015 7.064,3.339C7.024,3.447 6.96,3.536 6.882,3.619C6.747,3.739 6.604,3.851 6.468,3.97C5.892,4.486 5.369,5.058 4.923,5.69L4.882,5.743C4.841,5.787 4.832,5.8 4.786,5.838C4.682,5.923 4.555,5.98 4.421,6C4.333,6.013 4.242,6.01 4.154,5.991C4.088,5.977 4.024,5.954 3.964,5.923C3.701,5.786 3.54,5.497 3.563,5.201C3.571,5.086 3.609,4.984 3.661,4.882C3.7,4.822 3.74,4.765 3.782,4.707C4.052,4.339 4.34,3.985 4.651,3.651C5.016,3.257 5.409,2.892 5.823,2.55L5.889,2.497C5.98,2.429 6.076,2.377 6.188,2.35C6.247,2.337 6.262,2.337 6.321,2.331C6.389,2.331 6.388,2.331 6.456,2.337ZM14.878,0.16C14.932,0.167 14.931,0.166 14.985,0.175C15.127,0.201 15.269,0.229 15.411,0.259C15.837,0.354 16.258,0.469 16.671,0.61C17.087,0.752 17.494,0.921 17.892,1.109L17.988,1.155C18.088,1.209 18.177,1.274 18.248,1.364C18.304,1.434 18.347,1.515 18.375,1.6C18.395,1.664 18.407,1.731 18.41,1.798C18.423,2.095 18.253,2.378 17.985,2.507C17.843,2.575 17.68,2.596 17.525,2.568C17.466,2.557 17.453,2.55 17.396,2.532C17.228,2.459 17.064,2.377 16.896,2.303C16.187,2.002 15.449,1.777 14.689,1.646L14.624,1.632C14.567,1.614 14.552,1.611 14.497,1.586C14.396,1.538 14.305,1.467 14.235,1.38C14.017,1.112 14.013,0.717 14.227,0.445C14.282,0.374 14.35,0.314 14.427,0.267C14.525,0.207 14.63,0.177 14.743,0.161C14.811,0.157 14.81,0.157 14.878,0.16ZM11.877,0.065C11.937,0.072 11.952,0.072 12.01,0.086C12.141,0.119 12.262,0.187 12.358,0.282C12.421,0.346 12.473,0.421 12.511,0.502C12.654,0.817 12.558,1.2 12.284,1.41C12.192,1.48 12.091,1.52 11.98,1.548C11.803,1.577 11.624,1.594 11.446,1.621C10.682,1.746 9.935,1.952 9.219,2.249L9.156,2.272C9.098,2.287 9.084,2.293 9.024,2.3C8.89,2.317 8.753,2.296 8.629,2.242C8.547,2.206 8.472,2.155 8.407,2.092C8.195,1.884 8.125,1.561 8.233,1.284C8.257,1.221 8.29,1.162 8.33,1.108C8.397,1.018 8.484,0.943 8.584,0.891C8.622,0.871 8.657,0.858 8.696,0.842C8.832,0.787 8.968,0.734 9.106,0.683C9.517,0.536 9.935,0.409 10.36,0.308C10.783,0.208 11.211,0.134 11.642,0.08L11.743,0.069C11.81,0.064 11.81,0.064 11.877,0.065Z" style="fill:rgb(159,159,159);"/>
    </g>
</svg>
