<?xml version="1.0" encoding="UTF-8" standalone="no"?>
<!DOCTYPE svg PUBLIC "-//W3C//DTD SVG 1.1//EN" "http://www.w3.org/Graphics/SVG/1.1/DTD/svg11.dtd">
<svg width="100%" height="100%" viewBox="0 0 26 27" version="1.1" xmlns="http://www.w3.org/2000/svg" xmlns:xlink="http://www.w3.org/1999/xlink" xml:space="preserve" style="fill-rule:evenodd;clip-rule:evenodd;stroke-linejoin:round;stroke-miterlimit:1.41421;">
    <g transform="matrix(1.01152,0,0,1.01152,0.000184579,-0.000846127)">
        <path d="M16.448,8.19C17.05,7.577 17.673,6.984 18.28,6.376C18.413,6.252 18.575,6.171 18.758,6.158C18.824,6.154 18.888,6.16 18.953,6.17L22.996,6.948L22.215,2.895C22.208,2.847 22.208,2.847 22.203,2.798C22.199,2.65 22.228,2.507 22.303,2.377C22.328,2.335 22.357,2.297 22.388,2.259C23.045,1.558 23.745,0.899 24.424,0.22C24.461,0.186 24.498,0.153 24.541,0.125C24.655,0.05 24.782,0.013 24.917,0.001C24.967,0.001 24.967,0 25.017,0.003C25.135,0.017 25.246,0.049 25.348,0.112C25.64,0.291 25.774,0.659 25.667,0.985C25.63,1.098 25.566,1.194 25.485,1.281L23.763,3.002L24.678,7.753C24.686,7.801 24.686,7.801 24.69,7.849C24.693,7.948 24.683,8.044 24.651,8.138C24.566,8.387 24.349,8.577 24.091,8.629C23.993,8.649 23.897,8.646 23.8,8.631L19.06,7.718L17.542,9.236C17.878,9.651 18.159,10.111 18.373,10.601C18.864,11.724 18.995,12.992 18.75,14.193C18.632,14.766 18.429,15.322 18.15,15.836C17.83,16.424 17.411,16.958 16.915,17.408C16.4,17.877 15.803,18.254 15.158,18.517C14.467,18.8 13.725,18.949 12.979,18.958C12.23,18.968 11.481,18.837 10.781,18.571C10.234,18.363 9.719,18.073 9.256,17.716C8.757,18.221 8.242,18.712 7.74,19.214C7.607,19.339 7.446,19.419 7.262,19.432C7.196,19.437 7.133,19.431 7.068,19.42L3.014,18.639L3.793,22.683C3.801,22.731 3.801,22.731 3.805,22.78C3.81,22.928 3.781,23.071 3.706,23.201C3.681,23.244 3.652,23.282 3.62,23.32C2.866,24.125 2.061,24.881 1.28,25.661C1.168,25.766 1.038,25.84 0.887,25.868C0.549,25.931 0.203,25.749 0.064,25.435C0.03,25.359 0.009,25.277 0.002,25.193C-0.006,25.093 0.006,24.992 0.037,24.897C0.075,24.783 0.139,24.687 0.22,24.6L2.245,22.576L1.331,17.835C1.324,17.787 1.324,17.787 1.319,17.738C1.316,17.639 1.326,17.544 1.358,17.45C1.444,17.2 1.66,17.01 1.919,16.958C2.016,16.938 2.112,16.941 2.21,16.956L6.961,17.872L8.185,16.648C8.016,16.43 7.862,16.201 7.725,15.962C7.422,15.434 7.2,14.86 7.07,14.265C6.815,13.092 6.921,11.847 7.375,10.735C7.621,10.134 7.965,9.575 8.389,9.085C8.906,8.488 9.542,7.995 10.249,7.643C10.775,7.382 11.34,7.199 11.92,7.103C12.194,7.058 12.471,7.033 12.748,7.025C12.825,7.023 12.902,7.023 12.979,7.023C13.257,7.028 13.535,7.049 13.81,7.091C14.368,7.177 14.913,7.342 15.424,7.58C15.785,7.749 16.128,7.953 16.448,8.19ZM12.844,8.523C12.211,8.535 11.588,8.672 11.014,8.94C10.478,9.19 9.993,9.548 9.594,9.987C9.244,10.372 8.961,10.819 8.764,11.302C8.431,12.118 8.348,13.029 8.525,13.892C8.612,14.321 8.764,14.736 8.973,15.12C9.212,15.561 9.526,15.961 9.898,16.298C10.284,16.649 10.73,16.932 11.213,17.129C11.73,17.34 12.286,17.451 12.844,17.458C13.405,17.465 13.965,17.368 14.49,17.169C14.978,16.983 15.432,16.711 15.826,16.369C16.205,16.041 16.529,15.649 16.779,15.214C17.006,14.82 17.172,14.391 17.269,13.946C17.448,13.121 17.39,12.247 17.1,11.454C16.926,10.981 16.672,10.538 16.351,10.149C15.974,9.693 15.507,9.312 14.984,9.036C14.41,8.734 13.779,8.565 13.132,8.529C13.036,8.524 12.94,8.522 12.844,8.523Z" style="fill:rgb(159,159,159);"/>
    </g>
</svg>
