<?xml version="1.0" encoding="UTF-8" standalone="no"?>
<!DOCTYPE svg PUBLIC "-//W3C//DTD SVG 1.1//EN" "http://www.w3.org/Graphics/SVG/1.1/DTD/svg11.dtd">
<svg width="100%" height="100%" viewBox="0 0 24 20" version="1.1" xmlns="http://www.w3.org/2000/svg" xmlns:xlink="http://www.w3.org/1999/xlink" xml:space="preserve" style="fill-rule:evenodd;clip-rule:evenodd;stroke-linejoin:round;stroke-miterlimit:1.41421;">
    <g transform="matrix(1.03637,0,0,1.03637,-0.000617343,-0.000518186)">
        <path d="M17.718,16.809L11.825,16.809C11.763,16.806 11.748,16.808 11.687,16.796C11.527,16.767 11.379,16.684 11.27,16.564C11.222,16.512 11.187,16.454 11.153,16.393L4.949,3.891L0.75,3.891L0.679,3.888C0.558,3.871 0.447,3.838 0.344,3.772C0.264,3.721 0.194,3.654 0.139,3.576C0.097,3.518 0.064,3.454 0.041,3.387C-0.054,3.112 0.022,2.799 0.232,2.598C0.336,2.5 0.467,2.432 0.608,2.405C0.67,2.393 0.687,2.394 0.75,2.391C2.304,2.391 3.859,2.391 5.414,2.391C5.484,2.395 5.551,2.401 5.619,2.42C5.775,2.465 5.915,2.56 6.013,2.69C6.05,2.739 6.056,2.754 6.086,2.808L12.29,15.309L17.718,15.309L17.718,12.919L23.158,16.06L17.718,19.201L17.718,16.809ZM6.683,12.823C6.78,12.83 6.874,12.85 6.962,12.891C7.23,13.015 7.403,13.292 7.398,13.586C7.396,13.684 7.373,13.777 7.337,13.868C6.937,14.733 6.513,15.588 6.066,16.43C5.964,16.599 5.811,16.726 5.619,16.781C5.565,16.796 5.511,16.804 5.455,16.809C3.874,16.853 2.29,16.852 0.708,16.809C0.555,16.796 0.411,16.747 0.289,16.652C0.224,16.601 0.167,16.539 0.122,16.47C-0.064,16.186 -0.032,15.801 0.198,15.552C0.263,15.481 0.342,15.423 0.43,15.382C0.531,15.334 0.638,15.313 0.75,15.31L4.949,15.31C5.297,14.607 5.627,13.895 5.995,13.202C6.017,13.166 6.017,13.167 6.04,13.133C6.142,12.999 6.276,12.899 6.438,12.852C6.491,12.836 6.545,12.828 6.6,12.823C6.642,12.822 6.641,12.822 6.683,12.823ZM12.29,3.892L11.387,5.711C11.365,5.754 11.365,5.753 11.339,5.794C11.273,5.887 11.195,5.965 11.097,6.024C11.014,6.072 10.922,6.105 10.827,6.119C10.747,6.131 10.666,6.13 10.587,6.117C10.281,6.063 10.034,5.818 9.978,5.513C9.951,5.367 9.972,5.225 10.024,5.088C10.376,4.317 10.776,3.568 11.153,2.808C11.175,2.767 11.197,2.728 11.225,2.691C11.319,2.567 11.45,2.474 11.597,2.427C11.656,2.408 11.716,2.399 11.778,2.393C13.757,2.332 15.739,2.322 17.718,2.367L17.718,0.001L23.158,3.142L17.718,6.283L17.718,3.892L12.29,3.892Z" style="fill:rgb(159,159,159);"/>
    </g>
</svg>
