<?xml version="1.0" encoding="UTF-8" standalone="no"?>
<!DOCTYPE svg PUBLIC "-//W3C//DTD SVG 1.1//EN" "http://www.w3.org/Graphics/SVG/1.1/DTD/svg11.dtd">
<svg width="100%" height="100%" viewBox="0 0 26 29" version="1.1" xmlns="http://www.w3.org/2000/svg" xmlns:xlink="http://www.w3.org/1999/xlink" xml:space="preserve" style="fill-rule:evenodd;clip-rule:evenodd;stroke-linejoin:round;stroke-miterlimit:1.41421;">
    <g transform="matrix(1.44297,0,0,1.44297,-39.544,-49.5011)">
        <path d="M41.203,53.415L31.594,53.415C30.588,53.415 29.768,52.643 29.673,51.661L31.232,51.661L29.319,48.622L27.405,51.661L28.874,51.661C28.971,53.083 30.147,54.216 31.594,54.216L41.203,54.216C41.424,54.216 41.603,54.036 41.603,53.815C41.603,53.595 41.424,53.415 41.203,53.415" style="fill:rgb(159,159,159);fill-rule:nonzero;"/>
    </g>
    <g transform="matrix(1.44297,0,0,1.44297,-39.544,-49.5011)">
        <path d="M28.403,37.231L30.768,37.231L30.768,45.675L28.403,45.675L28.403,37.231ZM33.223,38.825C35.25,38.825 36.923,40.372 37.124,42.347L35.78,42.347C35.587,41.109 34.514,40.159 33.223,40.159L31.568,40.159L31.568,38.825L33.223,38.825ZM43.883,50.81C43.75,49.423 42.592,48.33 41.17,48.33L33.507,48.33C32.467,48.33 31.622,47.505 31.577,46.477L44.673,46.477C44.894,46.477 45.073,46.297 45.073,46.076C45.073,45.855 44.894,45.676 44.673,45.676L31.568,45.676L31.568,40.959L33.223,40.959C34.209,40.959 35.011,41.761 35.011,42.747C35.011,42.968 35.19,43.147 35.411,43.147L37.544,43.147C37.765,43.147 37.944,42.968 37.944,42.747C37.944,40.144 35.826,38.025 33.223,38.025L31.568,38.025L31.568,36.832C31.568,36.611 31.389,36.432 31.168,36.432L29.985,36.432L29.985,35.104L31.168,35.104C31.389,35.104 31.568,34.925 31.568,34.705C31.568,34.484 31.389,34.305 31.168,34.305L28.003,34.305C27.782,34.305 27.603,34.484 27.603,34.705C27.603,34.925 27.782,35.104 28.003,35.104L29.186,35.104L29.186,36.432L28.003,36.432C27.782,36.432 27.603,36.611 27.603,36.832L27.603,46.076C27.603,46.297 27.782,46.477 28.003,46.477L30.777,46.477C30.823,47.946 32.026,49.131 33.507,49.131L41.17,49.131C42.151,49.131 42.955,49.864 43.083,50.81L41.596,50.81L43.509,53.849L45.423,50.81L43.883,50.81Z" style="fill:rgb(159,159,159);fill-rule:nonzero;"/>
    </g>
</svg>
