<?xml version="1.0" encoding="UTF-8" standalone="no"?>
<!DOCTYPE svg PUBLIC "-//W3C//DTD SVG 1.1//EN" "http://www.w3.org/Graphics/SVG/1.1/DTD/svg11.dtd">
<svg width="100%" height="100%" viewBox="0 0 26 23" version="1.1" xmlns="http://www.w3.org/2000/svg" xmlns:xlink="http://www.w3.org/1999/xlink" xml:space="preserve" style="fill-rule:evenodd;clip-rule:evenodd;stroke-linejoin:round;stroke-miterlimit:1.41421;">
    <g transform="matrix(1.17364,0,0,1.17364,-108.762,-40.4853)">
        <path d="M102.608,34.496C102.387,34.496 102.208,34.675 102.208,34.896L102.208,38.209C101.943,38.79 100.895,38.817 100.885,38.817C100.15,38.817 99.471,38.384 99.157,37.715C98.952,37.278 98.506,36.995 98.023,36.995C97.54,36.995 97.095,37.277 96.89,37.714C96.575,38.384 95.897,38.817 95.161,38.817C94.426,38.817 93.747,38.384 93.432,37.715C93.338,37.516 93.101,37.429 92.9,37.523C92.7,37.617 92.614,37.855 92.709,38.056C93.154,39.004 94.117,39.617 95.161,39.617C96.205,39.617 97.168,39.004 97.613,38.055C97.762,37.739 98.285,37.74 98.433,38.055C98.879,39.004 99.841,39.617 100.885,39.617C100.929,39.617 101.613,39.606 102.208,39.288L102.208,44.164C101.943,44.744 100.895,44.77 100.885,44.77C100.15,44.77 99.471,44.339 99.157,43.67C98.951,43.232 98.506,42.949 98.023,42.949C97.54,42.949 97.095,43.232 96.89,43.67C96.575,44.339 95.897,44.77 95.161,44.77C94.426,44.77 93.747,44.339 93.432,43.67C93.338,43.47 93.101,43.385 92.9,43.477C92.7,43.572 92.614,43.81 92.709,44.01C93.154,44.958 94.117,45.571 95.161,45.571C96.205,45.571 97.168,44.958 97.613,44.01C97.763,43.693 98.285,43.694 98.433,44.01C98.879,44.958 99.841,45.571 100.885,45.571C100.929,45.571 101.613,45.56 102.208,45.243L102.208,50.378C101.943,50.957 100.895,50.984 100.885,50.984C100.15,50.984 99.471,50.553 99.157,49.884C98.951,49.446 98.506,49.163 98.023,49.163C97.54,49.163 97.095,49.446 96.89,49.884C96.575,50.553 95.897,50.984 95.161,50.984C94.426,50.984 93.747,50.553 93.432,49.884C93.338,49.684 93.101,49.6 92.9,49.691C92.7,49.786 92.614,50.024 92.709,50.224C93.154,51.172 94.117,51.785 95.161,51.785C96.205,51.785 97.168,51.172 97.613,50.224C97.763,49.907 98.285,49.908 98.433,50.224C98.879,51.172 99.841,51.785 100.885,51.785C100.929,51.785 101.613,51.774 102.208,51.457L102.208,53.625C102.208,53.846 102.387,54.025 102.608,54.025C102.829,54.025 103.008,53.846 103.008,53.625L103.008,34.896C103.008,34.675 102.829,34.496 102.608,34.496" style="fill:rgb(159,159,159);fill-rule:nonzero;"/>
    </g>
    <g transform="matrix(1.17364,0,0,1.17364,-108.762,-40.4853)">
        <path d="M106.609,45.571C107.653,45.571 108.616,44.958 109.061,44.009C109.21,43.693 109.731,43.693 109.881,44.009C110.327,44.958 111.29,45.571 112.333,45.571C113.378,45.571 114.34,44.958 114.785,44.009C114.88,43.809 114.794,43.571 114.593,43.477C114.393,43.384 114.155,43.469 114.062,43.67C113.747,44.339 113.069,44.77 112.333,44.77C111.598,44.77 110.92,44.339 110.605,43.67C110.399,43.232 109.954,42.949 109.471,42.949C108.988,42.949 108.543,43.232 108.338,43.67C108.023,44.339 107.345,44.77 106.61,44.77C106.599,44.77 105.551,44.743 105.286,44.164L105.286,39.289C105.88,39.606 106.565,39.617 106.609,39.617C107.653,39.617 108.616,39.004 109.061,38.055C109.21,37.739 109.732,37.738 109.881,38.055C110.327,39.004 111.29,39.617 112.333,39.617C113.377,39.617 114.34,39.004 114.785,38.055C114.88,37.855 114.794,37.617 114.593,37.523C114.393,37.429 114.155,37.516 114.062,37.715C113.747,38.384 113.068,38.817 112.333,38.817C111.598,38.817 110.92,38.384 110.605,37.714C110.399,37.277 109.954,36.995 109.471,36.995C108.988,36.995 108.543,37.278 108.338,37.715C108.023,38.384 107.344,38.817 106.609,38.817C106.598,38.817 105.552,38.795 105.286,38.209L105.286,34.896C105.286,34.675 105.107,34.496 104.886,34.496C104.666,34.496 104.486,34.675 104.486,34.896L104.486,53.625C104.486,53.845 104.666,54.025 104.886,54.025C105.107,54.025 105.286,53.845 105.286,53.625L105.286,51.457C105.88,51.774 106.565,51.785 106.609,51.785C107.653,51.785 108.616,51.172 109.061,50.223C109.21,49.907 109.731,49.907 109.881,50.223C110.327,51.172 111.29,51.785 112.333,51.785C113.378,51.785 114.34,51.172 114.785,50.223C114.88,50.023 114.794,49.785 114.593,49.691C114.393,49.599 114.155,49.683 114.062,49.883C113.747,50.552 113.069,50.984 112.333,50.984C111.598,50.984 110.92,50.552 110.605,49.883C110.399,49.446 109.954,49.163 109.471,49.163C108.988,49.163 108.543,49.446 108.338,49.883C108.023,50.552 107.345,50.984 106.61,50.984C106.599,50.984 105.551,50.957 105.286,50.378L105.286,45.243C105.88,45.56 106.565,45.571 106.609,45.571" style="fill:rgb(159,159,159);fill-rule:nonzero;"/>
    </g>
    <g transform="matrix(1.17364,0,0,1.17364,-108.762,-40.4853)">
        <path d="M100,36.343C100.457,36.343 100.827,35.973 100.827,35.516C100.827,35.059 100.457,34.689 100,34.689C99.543,34.689 99.173,35.059 99.173,35.516C99.173,35.973 99.543,36.343 100,36.343" style="fill:rgb(159,159,159);fill-rule:nonzero;"/>
    </g>
    <g transform="matrix(1.17364,0,0,1.17364,-108.762,-40.4853)">
        <path d="M96.007,48.654C96.007,48.197 95.636,47.827 95.18,47.827C94.723,47.827 94.353,48.197 94.353,48.654C94.353,49.111 94.723,49.481 95.18,49.481C95.636,49.481 96.007,49.111 96.007,48.654" style="fill:rgb(159,159,159);fill-rule:nonzero;"/>
    </g>
    <g transform="matrix(1.17364,0,0,1.17364,-108.762,-40.4853)">
        <path d="M96.834,41.474C96.834,41.017 96.464,40.647 96.007,40.647C95.55,40.647 95.18,41.017 95.18,41.474C95.18,41.931 95.55,42.301 96.007,42.301C96.464,42.301 96.834,41.931 96.834,41.474" style="fill:rgb(159,159,159);fill-rule:nonzero;"/>
    </g>
    <g transform="matrix(1.17364,0,0,1.17364,-108.762,-40.4853)">
        <path d="M100.827,47.827C100.827,47.37 100.457,47 100,47C99.543,47 99.173,47.37 99.173,47.827C99.173,48.284 99.543,48.654 100,48.654C100.457,48.654 100.827,48.284 100.827,47.827" style="fill:rgb(159,159,159);fill-rule:nonzero;"/>
    </g>
</svg>
