<?xml version="1.0" encoding="UTF-8" standalone="no"?>
<!DOCTYPE svg PUBLIC "-//W3C//DTD SVG 1.1//EN" "http://www.w3.org/Graphics/SVG/1.1/DTD/svg11.dtd">
<svg width="100%" height="100%" viewBox="0 0 26 27" version="1.1" xmlns="http://www.w3.org/2000/svg" xmlns:xlink="http://www.w3.org/1999/xlink" xml:space="preserve" style="fill-rule:evenodd;clip-rule:evenodd;stroke-linejoin:round;stroke-miterlimit:1.41421;">
    <g transform="matrix(1.33614,0,0,1.33614,-79.3014,-45.7896)">
        <path d="M75.661,53.45L72.907,53.45L72.907,50.2C72.907,48.09 71.191,46.373 69.081,46.373C66.971,46.373 65.254,48.09 65.254,50.2L65.254,53.45L62.5,53.45L62.5,45.461L75.661,45.461L75.661,53.45ZM72.107,53.45L66.054,53.45L66.054,50.2C66.054,48.531 67.412,47.174 69.081,47.174C70.749,47.174 72.107,48.531 72.107,50.2L72.107,53.45ZM76.061,44.66L62.1,44.66C61.88,44.66 61.701,44.84 61.701,45.06L61.701,53.85C61.701,54.071 61.88,54.251 62.1,54.251L76.061,54.251C76.282,54.251 76.461,54.071 76.461,53.85L76.461,45.06C76.461,44.84 76.282,44.66 76.061,44.66" style="fill:rgb(159,159,159);fill-rule:nonzero;"/>
    </g>
    <g transform="matrix(1.33614,0,0,1.33614,-79.3014,-45.7896)">
        <path d="M65.462,35.07L72.698,35.07L72.698,42.556L65.462,42.556L65.462,35.07ZM78.41,42.556L73.498,42.556L73.498,34.67C73.498,34.449 73.319,34.27 73.098,34.27L65.063,34.27C64.842,34.27 64.663,34.449 64.663,34.67L64.663,42.556L59.75,42.556C59.53,42.556 59.351,42.736 59.351,42.957C59.351,43.177 59.53,43.357 59.75,43.357L78.41,43.357C78.631,43.357 78.81,43.177 78.81,42.957C78.81,42.736 78.631,42.556 78.41,42.556" style="fill:rgb(159,159,159);fill-rule:nonzero;"/>
    </g>
</svg>
