<?xml version="1.0" encoding="UTF-8" standalone="no"?>
<!DOCTYPE svg PUBLIC "-//W3C//DTD SVG 1.1//EN" "http://www.w3.org/Graphics/SVG/1.1/DTD/svg11.dtd">
<svg width="100%" height="100%" viewBox="0 0 26 29" version="1.1" xmlns="http://www.w3.org/2000/svg" xmlns:xlink="http://www.w3.org/1999/xlink" xml:space="preserve" style="fill-rule:evenodd;clip-rule:evenodd;stroke-linejoin:round;stroke-miterlimit:1.41421;">
    <g transform="matrix(0.355532,0,0,0.355532,0,0)">
        <g transform="matrix(4.16667,0,0,4.16667,-688.771,-144.17)">
            <path d="M181.65,51.813C181.454,51.721 181.213,51.804 181.118,52.005C180.8,52.682 180.114,53.118 179.371,53.118C178.627,53.118 177.94,52.682 177.623,52.005C177.416,51.565 176.968,51.28 176.482,51.28C175.996,51.28 175.547,51.565 175.34,52.005C175.023,52.682 174.337,53.118 173.592,53.118C172.849,53.118 172.163,52.682 171.845,52.005C171.638,51.565 171.19,51.28 170.704,51.28C170.217,51.28 169.77,51.564 169.563,52.004C169.245,52.681 168.558,53.118 167.815,53.118C167.071,53.118 166.384,52.682 166.067,52.005C165.972,51.804 165.733,51.721 165.535,51.813C165.335,51.908 165.249,52.146 165.342,52.344C165.792,53.301 166.762,53.919 167.815,53.919C168.867,53.919 169.837,53.301 170.288,52.344C170.438,52.024 170.97,52.023 171.121,52.344C171.57,53.301 172.541,53.919 173.592,53.919C174.645,53.919 175.616,53.301 176.065,52.344C176.215,52.023 176.748,52.023 176.898,52.344C177.347,53.301 178.318,53.919 179.371,53.919C180.422,53.919 181.393,53.301 181.842,52.344C181.936,52.146 181.85,51.908 181.65,51.813" style="fill:rgb(159,159,159);fill-rule:nonzero;"/>
        </g>
        <g transform="matrix(4.16667,0,0,4.16667,-688.771,-144.17)">
            <path d="M179.437,45.653C180.35,45.653 181.092,46.395 181.092,47.308C181.092,48.221 180.35,48.964 179.437,48.964C178.523,48.964 177.782,48.221 177.782,47.308C177.782,46.395 178.523,45.653 179.437,45.653M179.437,49.62C180.711,49.62 181.749,48.583 181.749,47.308C181.749,46.146 180.883,45.191 179.765,45.03L179.765,39.505C179.765,39.324 179.618,39.177 179.437,39.177C179.255,39.177 179.109,39.324 179.109,39.505L179.109,45.03C177.991,45.191 177.124,46.146 177.124,47.308C177.124,48.583 178.163,49.62 179.437,49.62" style="fill:rgb(159,159,159);fill-rule:nonzero;"/>
        </g>
        <g transform="matrix(4.16667,0,0,4.16667,-688.771,-144.17)">
            <path d="M178.37,44.759C178.492,44.708 178.571,44.588 178.571,44.456L178.571,36.123C178.571,35.646 178.96,35.258 179.436,35.258C179.913,35.258 180.302,35.646 180.302,36.123L180.302,44.456C180.302,44.589 180.381,44.708 180.503,44.759C181.534,45.191 182.2,46.192 182.2,47.309C182.2,48.832 180.96,50.072 179.436,50.072C177.913,50.072 176.673,48.832 176.673,47.309C176.673,46.192 177.339,45.191 178.37,44.759M179.436,50.729C181.322,50.729 182.856,49.195 182.856,47.309C182.856,46 182.118,44.821 180.958,44.245L180.958,36.123C180.958,35.284 180.275,34.601 179.436,34.601C178.598,34.601 177.915,35.284 177.915,36.123L177.915,44.245C176.755,44.821 176.016,46 176.016,47.309C176.016,49.195 177.551,50.729 179.436,50.729" style="fill:rgb(159,159,159);fill-rule:nonzero;"/>
        </g>
        <g transform="matrix(4.16667,0,0,4.16667,-688.771,-144.17)">
            <path d="M173.192,47.114L168.346,47.114L168.346,43.933L173.192,43.933L173.192,47.114ZM167.946,52.523C168.167,52.523 168.347,52.344 168.347,52.123L168.347,47.915L173.192,47.915L173.192,52.123C173.192,52.344 173.372,52.523 173.593,52.523C173.813,52.523 173.993,52.344 173.993,52.123L173.993,42.582C173.993,41.452 174.912,40.533 176.042,40.533C176.263,40.533 176.442,40.354 176.442,40.133C176.442,39.913 176.263,39.733 176.042,39.733C174.471,39.733 173.192,41.011 173.192,42.582L173.192,43.133L168.347,43.133L168.347,42.582C168.347,41.452 169.265,40.533 170.395,40.533C170.615,40.533 170.795,40.354 170.795,40.133C170.795,39.913 170.615,39.733 170.395,39.733C168.824,39.733 167.546,41.011 167.546,42.582L167.546,52.123C167.546,52.344 167.726,52.523 167.946,52.523" style="fill:rgb(159,159,159);fill-rule:nonzero;"/>
        </g>
    </g>
</svg>
