<?xml version="1.0" encoding="UTF-8" standalone="no"?>
<!DOCTYPE svg PUBLIC "-//W3C//DTD SVG 1.1//EN" "http://www.w3.org/Graphics/SVG/1.1/DTD/svg11.dtd">
<svg width="100%" height="100%" viewBox="0 0 26 28" version="1.1" xmlns="http://www.w3.org/2000/svg" xmlns:xlink="http://www.w3.org/1999/xlink" xml:space="preserve" style="fill-rule:evenodd;clip-rule:evenodd;stroke-linejoin:round;stroke-miterlimit:1.41421;">
    <g transform="matrix(0.761511,0,0,0.761511,-0.000576585,-0.000462766)">
        <path d="M12.527,6.05C12.825,6.056 13.121,6.078 13.416,6.124C14.013,6.216 14.596,6.394 15.143,6.65C16.473,7.273 17.568,8.355 18.208,9.677C18.459,10.196 18.639,10.749 18.741,11.317C18.861,11.982 18.874,12.667 18.78,13.336C18.689,13.986 18.497,14.621 18.212,15.213C17.89,15.883 17.449,16.496 16.917,17.017C16.347,17.575 15.674,18.025 14.939,18.337C14.178,18.66 13.355,18.831 12.527,18.841C11.698,18.852 10.868,18.701 10.096,18.396C9.353,18.102 8.668,17.668 8.084,17.123C7.541,16.615 7.086,16.014 6.747,15.352C6.449,14.769 6.242,14.141 6.135,13.495C6.024,12.828 6.02,12.143 6.123,11.475C6.211,10.903 6.378,10.344 6.617,9.817C7.224,8.481 8.293,7.373 9.607,6.718C10.146,6.449 10.723,6.257 11.316,6.15C11.608,6.098 11.903,6.068 12.199,6.054C12.308,6.051 12.417,6.05 12.527,6.05ZM12.382,7.55C11.691,7.563 11.01,7.714 10.383,8.008C9.382,8.477 8.553,9.287 8.059,10.277C7.863,10.67 7.72,11.09 7.637,11.522C7.535,12.051 7.522,12.596 7.596,13.128C7.666,13.625 7.813,14.11 8.03,14.562C8.286,15.094 8.639,15.578 9.065,15.986C9.507,16.408 10.027,16.747 10.592,16.979C11.179,17.219 11.811,17.342 12.445,17.342C13.079,17.342 13.711,17.219 14.298,16.979C14.864,16.747 15.384,16.408 15.826,15.986C16.252,15.578 16.605,15.094 16.861,14.563C17.078,14.111 17.225,13.625 17.294,13.128C17.369,12.596 17.356,12.051 17.254,11.522C17.17,11.09 17.028,10.67 16.831,10.277C16.338,9.287 15.508,8.477 14.507,8.008C13.88,7.714 13.199,7.563 12.508,7.55C12.445,7.55 12.445,7.55 12.382,7.55Z" style="fill:rgb(159,159,159);fill-rule:nonzero;"/>
        <path d="M12.48,19.137C12.564,19.143 12.645,19.159 12.724,19.19C12.924,19.271 13.083,19.437 13.154,19.641C13.177,19.709 13.189,19.779 13.194,19.851C13.228,21.293 13.228,22.736 13.194,24.177C13.185,24.297 13.155,24.412 13.094,24.517C12.917,24.824 12.535,24.966 12.199,24.85C12.109,24.819 12.026,24.771 11.954,24.708C11.882,24.646 11.822,24.57 11.778,24.485C11.728,24.389 11.703,24.285 11.696,24.177C11.661,22.736 11.661,21.293 11.696,19.851C11.701,19.779 11.712,19.709 11.736,19.641C11.803,19.449 11.948,19.289 12.133,19.204C12.21,19.169 12.29,19.15 12.374,19.14C12.409,19.137 12.444,19.137 12.48,19.137Z" style="fill:rgb(159,159,159);fill-rule:nonzero;"/>
        <path d="M17.731,16.959C17.914,16.968 18.08,17.036 18.217,17.158C19.253,18.153 20.269,19.169 21.264,20.204C21.344,20.294 21.405,20.397 21.437,20.514C21.509,20.776 21.43,21.065 21.233,21.254C21.176,21.309 21.11,21.355 21.038,21.389C20.957,21.428 20.87,21.452 20.781,21.46C20.682,21.469 20.581,21.458 20.486,21.428C20.381,21.394 20.287,21.337 20.205,21.264C19.169,20.269 18.153,19.253 17.158,18.218C17.078,18.128 17.017,18.024 16.985,17.908C16.893,17.573 17.05,17.209 17.357,17.046C17.455,16.994 17.561,16.968 17.671,16.96C17.701,16.959 17.701,16.959 17.731,16.959Z" style="fill:rgb(159,159,159);fill-rule:nonzero;"/>
        <path d="M24.177,11.696C24.297,11.705 24.412,11.735 24.516,11.796C24.824,11.973 24.966,12.355 24.85,12.691C24.819,12.781 24.77,12.864 24.708,12.936C24.646,13.008 24.57,13.068 24.485,13.112C24.388,13.162 24.285,13.187 24.177,13.194C22.736,13.229 21.293,13.229 19.852,13.194C19.732,13.186 19.617,13.155 19.512,13.095C19.205,12.917 19.062,12.535 19.178,12.2C19.21,12.11 19.258,12.026 19.32,11.954C19.383,11.882 19.459,11.822 19.544,11.779C19.64,11.729 19.744,11.704 19.852,11.696C21.293,11.662 22.736,11.662 24.177,11.696Z" style="fill:rgb(159,159,159);fill-rule:nonzero;"/>
        <path d="M20.751,3.429C20.871,3.438 20.986,3.469 21.091,3.53C21.391,3.705 21.534,4.075 21.428,4.406C21.395,4.512 21.338,4.605 21.264,4.687C20.269,5.723 19.253,6.739 18.217,7.734C18.127,7.813 18.024,7.874 17.907,7.906C17.831,7.927 17.751,7.936 17.671,7.932C17.399,7.918 17.15,7.752 17.032,7.507C16.994,7.426 16.969,7.339 16.961,7.249C16.953,7.15 16.964,7.05 16.994,6.955C17.027,6.849 17.084,6.756 17.158,6.674C18.153,5.638 19.169,4.622 20.205,3.627C20.342,3.505 20.508,3.438 20.691,3.429C20.721,3.429 20.721,3.429 20.751,3.429Z" style="fill:rgb(159,159,159);fill-rule:nonzero;"/>
        <path d="M12.48,0.001C12.564,0.007 12.645,0.022 12.724,0.054C12.924,0.134 13.083,0.301 13.154,0.504C13.177,0.573 13.189,0.642 13.194,0.714C13.228,2.156 13.228,3.599 13.194,5.04C13.186,5.148 13.161,5.252 13.111,5.348C13.068,5.433 13.008,5.509 12.936,5.572C12.864,5.634 12.78,5.682 12.69,5.714C12.355,5.83 11.973,5.687 11.795,5.38C11.735,5.275 11.704,5.16 11.696,5.04C11.661,3.599 11.661,2.156 11.696,0.714C11.702,0.63 11.717,0.549 11.749,0.471C11.824,0.282 11.977,0.129 12.166,0.054C12.233,0.027 12.302,0.012 12.374,0.003C12.409,0.001 12.444,0 12.48,0.001Z" style="fill:rgb(159,159,159);fill-rule:nonzero;"/>
        <path d="M4.2,3.429C4.384,3.438 4.549,3.506 4.687,3.628C5.722,4.623 6.738,5.638 7.733,6.674C7.813,6.764 7.873,6.867 7.905,6.984C7.926,7.06 7.935,7.14 7.931,7.22C7.918,7.492 7.752,7.741 7.507,7.859C7.426,7.897 7.338,7.922 7.249,7.929C7.15,7.938 7.049,7.927 6.955,7.897C6.849,7.864 6.756,7.807 6.673,7.733C5.638,6.738 4.622,5.723 3.627,4.687C3.554,4.605 3.497,4.511 3.463,4.406C3.358,4.075 3.501,3.705 3.801,3.53C3.905,3.469 4.021,3.438 4.141,3.429C4.171,3.429 4.17,3.429 4.2,3.429Z" style="fill:rgb(159,159,159);fill-rule:nonzero;"/>
        <path d="M5.04,11.696C5.148,11.704 5.252,11.729 5.348,11.779C5.433,11.822 5.509,11.882 5.571,11.954C5.634,12.026 5.682,12.11 5.713,12.2C5.829,12.535 5.687,12.917 5.379,13.095C5.275,13.155 5.16,13.186 5.04,13.194C3.598,13.229 2.155,13.229 0.714,13.194C0.606,13.187 0.502,13.162 0.406,13.112C0.321,13.068 0.245,13.008 0.183,12.936C0.12,12.864 0.072,12.781 0.041,12.691C-0.075,12.355 0.067,11.973 0.374,11.796C0.479,11.735 0.594,11.705 0.714,11.696C2.155,11.662 3.598,11.662 5.04,11.696Z" style="fill:rgb(159,159,159);fill-rule:nonzero;"/>
        <path d="M7.219,16.96C7.339,16.968 7.455,17 7.559,17.061C7.859,17.235 8.002,17.605 7.897,17.936C7.863,18.042 7.806,18.135 7.733,18.218C6.738,19.253 5.722,20.269 4.687,21.264C4.597,21.344 4.494,21.404 4.377,21.436C4.114,21.508 3.826,21.429 3.637,21.233C3.582,21.175 3.536,21.109 3.502,21.037C3.463,20.957 3.439,20.869 3.431,20.78C3.422,20.681 3.433,20.58 3.463,20.485C3.497,20.38 3.554,20.287 3.627,20.204C4.622,19.169 5.638,18.153 6.673,17.158C6.811,17.036 6.976,16.968 7.16,16.959C7.19,16.959 7.189,16.959 7.219,16.96Z" style="fill:rgb(159,159,159);fill-rule:nonzero;"/>
        <path d="M33.474,19.346C33.5,19.35 33.526,19.353 33.551,19.359C33.654,19.38 33.751,19.424 33.836,19.486C34.119,19.691 34.222,20.078 34.08,20.398C34.037,20.493 33.975,20.58 33.897,20.65C33.877,20.667 33.856,20.683 33.836,20.699L13.086,35.761C13.064,35.775 13.042,35.791 13.02,35.804C12.929,35.856 12.827,35.889 12.723,35.9C12.645,35.908 12.566,35.904 12.489,35.888C12.202,35.827 11.972,35.597 11.911,35.31C11.895,35.233 11.891,35.154 11.899,35.075C11.916,34.919 11.982,34.769 12.088,34.652C12.135,34.6 12.15,34.591 12.204,34.547L32.954,19.485C33.013,19.447 33.026,19.435 33.09,19.407C33.189,19.363 33.289,19.348 33.395,19.342C33.421,19.344 33.448,19.345 33.474,19.346Z" style="fill:rgb(159,159,159);fill-rule:nonzero;"/>
        <path d="M26.66,21.266C26.777,21.278 26.886,21.306 26.988,21.364C27.295,21.541 27.439,21.922 27.324,22.258C27.279,22.388 27.2,22.494 27.1,22.586C23.464,25.444 19.617,28.021 15.875,30.737C15.826,30.769 15.779,30.799 15.725,30.821C15.601,30.873 15.464,30.891 15.331,30.873C15.255,30.862 15.181,30.84 15.111,30.807C14.829,30.672 14.657,30.366 14.688,30.055C14.696,29.979 14.715,29.904 14.745,29.833C14.792,29.725 14.862,29.637 14.948,29.558C18.584,26.701 22.431,24.124 26.174,21.408C26.238,21.365 26.303,21.328 26.377,21.303C26.433,21.285 26.488,21.275 26.546,21.268C26.603,21.265 26.603,21.265 26.66,21.266Z" style="fill:rgb(159,159,159);fill-rule:nonzero;"/>
    </g>
</svg>
