<?xml version="1.0" encoding="UTF-8" standalone="no"?>
<!DOCTYPE svg PUBLIC "-//W3C//DTD SVG 1.1//EN" "http://www.w3.org/Graphics/SVG/1.1/DTD/svg11.dtd">
<svg width="100%" height="100%" viewBox="0 0 26 21" version="1.1" xmlns="http://www.w3.org/2000/svg" xmlns:xlink="http://www.w3.org/1999/xlink" xml:space="preserve" style="fill-rule:evenodd;clip-rule:evenodd;stroke-linejoin:round;stroke-miterlimit:1.41421;">
    <g transform="matrix(0.248586,0,0,0.248586,0,0)">
        <g transform="matrix(4.16667,0,0,4.16667,-527.206,-143.48)">
            <path d="M142.874,39.359C142.677,39.265 142.437,39.35 142.342,39.55C142.023,40.228 141.338,40.665 140.594,40.665C139.851,40.665 139.164,40.228 138.848,39.551C138.64,39.111 138.192,38.827 137.705,38.827C137.219,38.827 136.771,39.111 136.564,39.55C136.247,40.228 135.561,40.665 134.817,40.665C134.073,40.665 133.388,40.228 133.068,39.55C132.861,39.111 132.413,38.827 131.928,38.827C131.443,38.827 130.994,39.11 130.786,39.55C130.468,40.228 129.782,40.665 129.039,40.665C128.295,40.665 127.609,40.228 127.291,39.551C127.197,39.352 126.959,39.265 126.758,39.359C126.559,39.453 126.473,39.692 126.567,39.892C127.016,40.847 127.986,41.465 129.039,41.465C130.092,41.465 131.061,40.847 131.51,39.892C131.663,39.569 132.194,39.571 132.345,39.891C132.794,40.847 133.765,41.465 134.817,41.465C135.867,41.465 136.838,40.847 137.289,39.891C137.439,39.569 137.973,39.569 138.122,39.892C138.571,40.847 139.543,41.465 140.594,41.465C141.646,41.465 142.616,40.847 143.067,39.891C143.16,39.691 143.074,39.453 142.874,39.359" style="fill:rgb(159,159,159);fill-rule:nonzero;"/>
        </g>
        <g transform="matrix(4.16667,0,0,4.16667,-527.206,-143.48)">
            <path d="M142.874,43.375C142.677,43.283 142.437,43.366 142.342,43.567C142.025,44.244 141.338,44.681 140.594,44.681C139.851,44.681 139.164,44.244 138.848,43.567C138.64,43.127 138.193,42.843 137.705,42.843C137.219,42.843 136.771,43.127 136.564,43.566C136.247,44.244 135.561,44.681 134.817,44.681C134.073,44.681 133.388,44.244 133.068,43.566C132.861,43.127 132.413,42.843 131.928,42.843C131.443,42.843 130.994,43.127 130.786,43.567C130.469,44.244 129.782,44.681 129.039,44.681C128.295,44.681 127.609,44.244 127.291,43.567C127.197,43.367 126.959,43.283 126.758,43.375C126.559,43.47 126.473,43.708 126.567,43.907C127.016,44.863 127.986,45.481 129.039,45.481C130.092,45.481 131.061,44.863 131.51,43.908C131.663,43.586 132.194,43.587 132.345,43.907C132.794,44.863 133.765,45.481 134.817,45.481C135.868,45.481 136.838,44.863 137.289,43.907C137.439,43.587 137.973,43.587 138.122,43.907C138.571,44.863 139.543,45.481 140.594,45.481C141.646,45.481 142.617,44.863 143.067,43.907C143.16,43.708 143.074,43.47 142.874,43.375" style="fill:rgb(159,159,159);fill-rule:nonzero;"/>
        </g>
        <g transform="matrix(4.16667,0,0,4.16667,-527.206,-143.48)">
            <path d="M141.456,48.491C140.512,48.967 139.293,48.529 138.848,47.583C138.641,47.142 138.193,46.858 137.706,46.858C137.22,46.858 136.772,47.142 136.565,47.582C136.247,48.26 135.56,48.697 134.817,48.697C134.073,48.697 133.388,48.26 133.069,47.582C132.862,47.142 132.414,46.858 131.929,46.858C131.443,46.858 130.995,47.142 130.787,47.583C130.469,48.26 129.783,48.697 129.04,48.697C128.296,48.697 127.61,48.26 127.291,47.583C127.198,47.383 126.96,47.299 126.759,47.39C126.56,47.485 126.474,47.723 126.568,47.923C127.018,48.88 127.988,49.498 129.04,49.498C130.092,49.498 131.061,48.88 131.511,47.924C131.663,47.601 132.195,47.602 132.346,47.923C132.795,48.88 133.765,49.498 134.817,49.498C135.868,49.498 136.839,48.88 137.29,47.923C137.44,47.602 137.973,47.602 138.123,47.923C138.573,48.88 139.543,49.498 140.595,49.498C141.014,49.498 141.436,49.396 141.815,49.206C142.013,49.106 142.093,48.866 141.993,48.669C141.893,48.47 141.653,48.39 141.456,48.491" style="fill:rgb(159,159,159);fill-rule:nonzero;"/>
        </g>
        <g transform="matrix(4.16667,0,0,4.16667,-527.206,-143.48)">
            <path d="M141.456,52.508C140.517,52.981 139.291,52.546 138.848,51.6C138.641,51.159 138.192,50.874 137.706,50.874C137.22,50.874 136.772,51.159 136.565,51.599C136.247,52.277 135.56,52.713 134.817,52.713C134.073,52.713 133.388,52.277 133.069,51.599C132.861,51.159 132.414,50.874 131.929,50.874C131.443,50.874 130.995,51.158 130.787,51.599C130.47,52.276 129.783,52.713 129.04,52.713C128.296,52.713 127.61,52.277 127.291,51.6C127.198,51.4 126.96,51.315 126.759,51.407C126.56,51.502 126.474,51.74 126.568,51.94C127.017,52.896 127.987,53.514 129.04,53.514C130.092,53.514 131.062,52.896 131.511,51.94C131.663,51.617 132.193,51.619 132.346,51.94C132.794,52.896 133.765,53.514 134.817,53.514C135.869,53.514 136.839,52.896 137.29,51.94C137.44,51.617 137.973,51.617 138.123,51.94C138.572,52.896 139.543,53.514 140.595,53.514C141.016,53.514 141.437,53.413 141.815,53.223C142.013,53.123 142.093,52.883 141.993,52.686C141.893,52.487 141.653,52.407 141.456,52.508" style="fill:rgb(159,159,159);fill-rule:nonzero;"/>
        </g>
        <g transform="matrix(4.16667,0,0,4.16667,-527.206,-143.48)">
            <path d="M147.464,51.935C146.352,51.935 145.447,51.031 145.447,49.918C145.447,48.806 146.352,47.902 147.464,47.902C148.575,47.902 149.48,48.806 149.48,49.918C149.48,51.031 148.575,51.935 147.464,51.935M147.864,47.141L147.864,40.411C147.864,40.19 147.685,40.011 147.464,40.011C147.243,40.011 147.064,40.19 147.064,40.411L147.064,47.141C145.701,47.338 144.647,48.501 144.647,49.918C144.647,51.472 145.91,52.736 147.464,52.736C149.017,52.736 150.28,51.472 150.28,49.918C150.28,48.502 149.227,47.338 147.864,47.141" style="fill:rgb(159,159,159);fill-rule:nonzero;"/>
        </g>
        <g transform="matrix(4.16667,0,0,4.16667,-527.206,-143.48)">
            <path d="M147.464,53.284C145.608,53.284 144.097,51.774 144.097,49.918C144.097,48.557 144.908,47.338 146.164,46.811C146.314,46.749 146.41,46.603 146.41,46.442L146.41,36.289C146.41,35.708 146.883,35.235 147.464,35.235C148.045,35.235 148.517,35.708 148.517,36.289L148.517,46.442C148.517,46.603 148.613,46.749 148.763,46.811C150.019,47.338 150.83,48.557 150.83,49.918C150.83,51.774 149.32,53.284 147.464,53.284M149.318,46.185L149.318,36.289C149.318,35.267 148.485,34.435 147.464,34.435C146.442,34.435 145.61,35.267 145.61,36.289L145.61,46.185C144.196,46.888 143.296,48.324 143.296,49.918C143.296,52.216 145.166,54.085 147.464,54.085C149.762,54.085 151.631,52.216 151.631,49.918C151.631,48.324 150.731,46.888 149.318,46.185" style="fill:rgb(159,159,159);fill-rule:nonzero;"/>
        </g>
    </g>
</svg>
