<?xml version="1.0" encoding="UTF-8" standalone="no"?>
<!DOCTYPE svg PUBLIC "-//W3C//DTD SVG 1.1//EN" "http://www.w3.org/Graphics/SVG/1.1/DTD/svg11.dtd">
<svg width="100%" height="100%" viewBox="0 0 26 22" version="1.1" xmlns="http://www.w3.org/2000/svg" xmlns:xlink="http://www.w3.org/1999/xlink" xml:space="preserve" style="fill-rule:evenodd;clip-rule:evenodd;stroke-linejoin:round;stroke-miterlimit:1.41421;">
    <g transform="matrix(1.16761,0,0,1.16761,0.999674,-0.000876284)">
        <path d="M8.949,8.306L5.148,1.13C5.107,1.042 5.075,0.956 5.064,0.86C5.03,0.573 5.165,0.284 5.407,0.125C5.509,0.059 5.619,0.025 5.738,0.005C5.809,0 5.808,0 5.88,0.002C5.943,0.009 5.959,0.008 6.02,0.024C6.158,0.06 6.285,0.134 6.384,0.237C6.434,0.289 6.471,0.347 6.508,0.409L10.278,7.528L14.048,0.409C14.085,0.347 14.122,0.289 14.173,0.237C14.271,0.134 14.398,0.06 14.536,0.024C14.597,0.008 14.614,0.009 14.676,0.002C14.748,0 14.747,0 14.818,0.005C14.937,0.025 15.048,0.059 15.15,0.125C15.391,0.284 15.526,0.573 15.492,0.86C15.481,0.956 15.449,1.042 15.408,1.13L11.624,8.275C14.372,8.253 17.118,8.272 19.862,8.407C19.928,8.417 19.946,8.417 20.01,8.436C20.155,8.48 20.285,8.567 20.381,8.684C20.429,8.743 20.469,8.808 20.498,8.878C20.615,9.163 20.548,9.499 20.331,9.717C20.277,9.77 20.216,9.816 20.149,9.851C20.035,9.912 19.915,9.936 19.787,9.942L11.556,9.942L15.408,17.215C15.46,17.324 15.494,17.434 15.497,17.556C15.499,17.627 15.491,17.699 15.473,17.767C15.395,18.072 15.13,18.303 14.818,18.34C14.724,18.351 14.628,18.344 14.536,18.321C14.375,18.279 14.229,18.185 14.126,18.054C14.086,18.005 14.08,17.99 14.048,17.936L10.278,10.817L6.508,17.936C6.476,17.99 6.47,18.005 6.43,18.054C6.327,18.185 6.181,18.279 6.02,18.321C5.716,18.399 5.386,18.279 5.203,18.024C5.161,17.966 5.128,17.902 5.104,17.835C5.072,17.746 5.057,17.651 5.059,17.556C5.062,17.434 5.097,17.324 5.148,17.215L9,9.942L0.77,9.942C0.641,9.936 0.521,9.912 0.407,9.851C0.135,9.706 -0.026,9.404 0.004,9.097C0.011,9.022 0.03,8.948 0.059,8.878C0.097,8.785 0.154,8.7 0.225,8.628C0.333,8.521 0.471,8.447 0.619,8.418C0.685,8.405 0.703,8.406 0.77,8.403C3.495,8.403 6.222,8.346 8.949,8.306Z" style="fill:rgb(159,159,159);"/>
    </g>
</svg>
