<svg xmlns="http://www.w3.org/2000/svg" width="34.339" height="25.854" viewBox="0 0 34.339 25.854">
  <g id="Group_744" data-name="Group 744" transform="translate(-976.25 -1680.073)">
    <g id="Group_727" data-name="Group 727" transform="translate(977 1680.823)">
      <rect id="Rectangle_217" data-name="Rectangle 217" width="32.839" height="21.87" rx="6" transform="translate(0 0)" fill="none" stroke="#ff8c00" stroke-linecap="round" stroke-linejoin="round" stroke-width="1.5"/>
      <ellipse id="Ellipse_80" data-name="Ellipse 80" cx="6.408" cy="6.408" rx="6.408" ry="6.408" transform="matrix(0.23, -0.973, 0.973, 0.23, 3.268, 15.793)" fill="none" stroke="#ff8c00" stroke-linecap="round" stroke-linejoin="round" stroke-width="1.5"/>
      <ellipse id="Ellipse_81" data-name="Ellipse 81" cx="2.136" cy="2.136" rx="2.136" ry="2.136" transform="translate(8.841 8.893)" fill="none" stroke="#ff8c00" stroke-linecap="round" stroke-linejoin="round" stroke-width="1.5"/>
      <line id="Line_355" data-name="Line 355" x1="6.162" transform="translate(22.213 9.014)" fill="none" stroke="#ff8c00" stroke-linecap="round" stroke-linejoin="round" stroke-width="1.5"/>
      <line id="Line_356" data-name="Line 356" x1="6.162" transform="translate(22.213 16.697)" fill="none" stroke="#ff8c00" stroke-linecap="round" stroke-linejoin="round" stroke-width="1.5"/>
      <line id="Line_357" data-name="Line 357" x1="6.162" transform="translate(22.213 12.856)" fill="none" stroke="#ff8c00" stroke-linecap="round" stroke-linejoin="round" stroke-width="1.5"/>
      <line id="Line_358" data-name="Line 358" x1="6.162" transform="translate(22.213 5.173)" fill="none" stroke="#ff8c00" stroke-linecap="round" stroke-linejoin="round" stroke-width="1.5"/>
      <path id="Path_474" data-name="Path 474" d="M114.956,109.62h6.673v1.792a.693.693,0,0,1-.693.693h-5.287a.693.693,0,0,1-.693-.693Z" transform="translate(-110.938 -87.75)" fill="none" stroke="#ff8c00" stroke-linecap="round" stroke-linejoin="round" stroke-width="1.5"/>
      <path id="Path_475" data-name="Path 475" d="M167.281,109.62h6.673v1.792a.693.693,0,0,1-.693.693h-5.287a.693.693,0,0,1-.693-.693Z" transform="translate(-145.133 -87.75)" fill="none" stroke="#ff8c00" stroke-linecap="round" stroke-linejoin="round" stroke-width="1.5"/>
      <line id="Line_359" data-name="Line 359" y1="3.021" x2="3.021" transform="translate(12.487 6.498)" fill="none" stroke="#ff8c00" stroke-linecap="round" stroke-linejoin="round" stroke-width="1.5"/>
      <line id="Line_360" data-name="Line 360" y1="3.021" x2="3.021" transform="translate(6.46 12.525)" fill="none" stroke="#ff8c00" stroke-linecap="round" stroke-linejoin="round" stroke-width="1.5"/>
      <line id="Line_361" data-name="Line 361" x2="3.021" y2="3.021" transform="translate(12.487 12.525)" fill="none" stroke="#ff8c00" stroke-linecap="round" stroke-linejoin="round" stroke-width="1.5"/>
      <line id="Line_362" data-name="Line 362" x2="3.021" y2="3.021" transform="translate(6.46 6.499)" fill="none" stroke="#ff8c00" stroke-linecap="round" stroke-linejoin="round" stroke-width="1.5"/>
      <line id="Line_363" data-name="Line 363" x2="4.272" transform="translate(13.109 11.022)" fill="none" stroke="#ff8c00" stroke-linecap="round" stroke-linejoin="round" stroke-width="1.5"/>
      <line id="Line_364" data-name="Line 364" x2="4.272" transform="translate(4.587 11.022)" fill="none" stroke="#ff8c00" stroke-linecap="round" stroke-linejoin="round" stroke-width="1.5"/>
      <line id="Line_365" data-name="Line 365" y2="4.272" transform="translate(10.984 13.148)" fill="none" stroke="#ff8c00" stroke-linecap="round" stroke-linejoin="round" stroke-width="1.5"/>
      <line id="Line_366" data-name="Line 366" y2="4.272" transform="translate(10.984 4.625)" fill="none" stroke="#ff8c00" stroke-linecap="round" stroke-linejoin="round" stroke-width="1.5"/>
    </g>
  </g>
</svg>
