<svg id="Group_545" data-name="Group 545" xmlns="http://www.w3.org/2000/svg" xmlns:xlink="http://www.w3.org/1999/xlink" width="57.948" height="58.142" viewBox="0 0 57.948 58.142">
  <defs>
    <clipPath id="clip-path">
      <rect id="Rectangle_231" data-name="Rectangle 231" width="57.948" height="58.142" fill="none" stroke="#889ba2" stroke-width="1"/>
    </clipPath>
  </defs>
  <g id="Group_542" data-name="Group 542">
    <g id="Group_541" data-name="Group 541" clip-path="url(#clip-path)">
      <rect id="Rectangle_230" data-name="Rectangle 230" width="9.48" height="2.092" transform="translate(8.458 0.75)" fill="none" stroke="#889ba2" stroke-linecap="round" stroke-linejoin="round" stroke-width="1.5"/>
    </g>
  </g>
  <line id="Line_413" data-name="Line 413" x2="12.756" transform="translate(6.821 49.082)" fill="none" stroke="#889ba2" stroke-linecap="round" stroke-linejoin="round" stroke-width="1.5"/>
  <line id="Line_414" data-name="Line 414" x2="12.756" transform="translate(6.821 41.978)" fill="none" stroke="#889ba2" stroke-linecap="round" stroke-linejoin="round" stroke-width="1.5"/>
  <line id="Line_415" data-name="Line 415" x2="12.756" transform="translate(6.821 34.874)" fill="none" stroke="#889ba2" stroke-linecap="round" stroke-linejoin="round" stroke-width="1.5"/>
  <line id="Line_416" data-name="Line 416" x2="12.756" transform="translate(6.821 27.77)" fill="none" stroke="#889ba2" stroke-linecap="round" stroke-linejoin="round" stroke-width="1.5"/>
  <g id="Group_544" data-name="Group 544">
    <g id="Group_543" data-name="Group 543" clip-path="url(#clip-path)">
      <path id="Rectangle_232" data-name="Rectangle 232" d="M3.543,0H21.352A3.544,3.544,0,0,1,24.9,3.544V51.005a3.543,3.543,0,0,1-3.543,3.543H3.543A3.543,3.543,0,0,1,0,51.005V3.543A3.543,3.543,0,0,1,3.543,0Z" transform="translate(32.302 2.844)" fill="none" stroke="#889ba2" stroke-linecap="round" stroke-linejoin="round" stroke-width="1.5"/>
      <rect id="Rectangle_233" data-name="Rectangle 233" width="9.48" height="2.092" transform="translate(40.01 0.75)" fill="none" stroke="#889ba2" stroke-linecap="round" stroke-linejoin="round" stroke-width="1.5"/>
      <line id="Line_417" data-name="Line 417" x2="12.756" transform="translate(38.373 49.082)" fill="none" stroke="#889ba2" stroke-linecap="round" stroke-linejoin="round" stroke-width="1.5"/>
      <line id="Line_418" data-name="Line 418" x2="12.756" transform="translate(38.373 41.978)" fill="none" stroke="#889ba2" stroke-linecap="round" stroke-linejoin="round" stroke-width="1.5"/>
      <path id="Rectangle_234" data-name="Rectangle 234" d="M3.543,0H21.352A3.544,3.544,0,0,1,24.9,3.544V51.005a3.543,3.543,0,0,1-3.543,3.543H3.543A3.543,3.543,0,0,1,0,51.005V3.543A3.543,3.543,0,0,1,3.543,0Z" transform="translate(0.75 2.844)" fill="none" stroke="#889ba2" stroke-linecap="round" stroke-linejoin="round" stroke-width="1.5"/>
    </g>
  </g>
</svg>
