<svg xmlns="http://www.w3.org/2000/svg" xmlns:xlink="http://www.w3.org/1999/xlink" width="57.948" height="58.142" viewBox="0 0 57.948 58.142"><defs><clipPath id="a"><rect width="57.948" height="58.142" fill="none" stroke="#889ba2" stroke-width="1"/></clipPath></defs><g clip-path="url(#a)"><path d="M0-.75H9.48a.75.75,0,0,1,.75.75V2.092a.75.75,0,0,1-.75.75H0a.75.75,0,0,1-.75-.75V0A.75.75,0,0,1,0-.75ZM8.73.75H.75v.592H8.73Z" transform="translate(8.458 0.75)" fill="#889ba2"/></g><path d="M12.756.75H0A.75.75,0,0,1-.75,0,.75.75,0,0,1,0-.75H12.756a.75.75,0,0,1,.75.75A.75.75,0,0,1,12.756.75Z" transform="translate(6.821 49.082)" fill="#889ba2"/><path d="M12.756.75H0A.75.75,0,0,1-.75,0,.75.75,0,0,1,0-.75H12.756a.75.75,0,0,1,.75.75A.75.75,0,0,1,12.756.75Z" transform="translate(6.821 41.978)" fill="#889ba2"/><path d="M12.756.75H0A.75.75,0,0,1-.75,0,.75.75,0,0,1,0-.75H12.756a.75.75,0,0,1,.75.75A.75.75,0,0,1,12.756.75Z" transform="translate(6.821 34.874)" fill="#889ba2"/><path d="M12.756.75H0A.75.75,0,0,1-.75,0,.75.75,0,0,1,0-.75H12.756a.75.75,0,0,1,.75.75A.75.75,0,0,1,12.756.75Z" transform="translate(6.821 27.77)" fill="#889ba2"/><g clip-path="url(#a)"><path d="M3.543-.75H21.352a4.3,4.3,0,0,1,4.294,4.294V51.005A4.3,4.3,0,0,1,21.353,55.3H3.543A4.3,4.3,0,0,1-.75,51.005V3.543A4.3,4.3,0,0,1,3.543-.75ZM21.353,53.8a2.8,2.8,0,0,0,2.793-2.793V3.544A2.8,2.8,0,0,0,21.352.75H3.543A2.8,2.8,0,0,0,.75,3.543V51.005A2.8,2.8,0,0,0,3.543,53.8Z" transform="translate(32.302 2.844)" fill="#889ba2"/><path d="M0-.75H9.48a.75.75,0,0,1,.75.75V2.092a.75.75,0,0,1-.75.75H0a.75.75,0,0,1-.75-.75V0A.75.75,0,0,1,0-.75ZM8.73.75H.75v.592H8.73Z" transform="translate(40.01 0.75)" fill="#889ba2"/><path d="M12.756.75H0A.75.75,0,0,1-.75,0,.75.75,0,0,1,0-.75H12.756a.75.75,0,0,1,.75.75A.75.75,0,0,1,12.756.75Z" transform="translate(38.373 49.082)" fill="#889ba2"/><path d="M12.756.75H0A.75.75,0,0,1-.75,0,.75.75,0,0,1,0-.75H12.756a.75.75,0,0,1,.75.75A.75.75,0,0,1,12.756.75Z" transform="translate(38.373 41.978)" fill="#889ba2"/><path d="M3.543-.75H21.352a4.3,4.3,0,0,1,4.294,4.294V51.005A4.3,4.3,0,0,1,21.353,55.3H3.543A4.3,4.3,0,0,1-.75,51.005V3.543A4.3,4.3,0,0,1,3.543-.75ZM21.353,53.8a2.8,2.8,0,0,0,2.793-2.793V3.544A2.8,2.8,0,0,0,21.352.75H3.543A2.8,2.8,0,0,0,.75,3.543V51.005A2.8,2.8,0,0,0,3.543,53.8Z" transform="translate(0.75 2.844)" fill="#889ba2"/></g></svg>