<?xml version="1.0" encoding="UTF-8" standalone="no"?>
<!DOCTYPE svg PUBLIC "-//W3C//DTD SVG 1.1//EN" "http://www.w3.org/Graphics/SVG/1.1/DTD/svg11.dtd">
<svg viewBox="0 0 52 65" version="1.1" xmlns="http://www.w3.org/2000/svg" xmlns:xlink="http://www.w3.org/1999/xlink" xml:space="preserve" style="fill-rule:evenodd;clip-rule:evenodd;stroke-linejoin:round;stroke-miterlimit:1.41421;">
    <g transform="matrix(2.6316,0,0,2.6316,-0.00136795,-0.000163952)">
        <path d="M11.464,22.181C11.508,22.184 11.55,22.193 11.591,22.209C11.625,22.223 11.657,22.241 11.686,22.263C11.767,22.325 11.822,22.419 11.838,22.52C11.846,22.573 11.842,22.628 11.84,22.681C11.835,22.78 11.822,22.878 11.802,22.975C11.789,23.039 11.773,23.101 11.754,23.163C11.735,23.224 11.713,23.285 11.688,23.344C11.471,23.856 11.036,24.26 10.509,24.438C10.323,24.501 10.127,24.536 9.931,24.541C9.733,24.546 9.534,24.521 9.343,24.467C8.793,24.31 8.328,23.909 8.093,23.387C8.06,23.314 8.031,23.24 8.007,23.163C7.988,23.101 7.972,23.038 7.959,22.975C7.939,22.878 7.927,22.78 7.922,22.681C7.919,22.628 7.916,22.573 7.924,22.52C7.938,22.426 7.986,22.339 8.058,22.277C8.086,22.253 8.117,22.233 8.15,22.218C8.19,22.199 8.232,22.189 8.276,22.183C9.335,22.096 10.402,22.152 11.464,22.181ZM8.79,22.98C8.846,23.129 8.93,23.266 9.04,23.381C9.13,23.476 9.236,23.555 9.352,23.614C9.654,23.769 10.019,23.782 10.332,23.65C10.47,23.592 10.596,23.507 10.702,23.401C10.815,23.288 10.901,23.153 10.962,23.006L10.971,22.98C10.244,22.98 9.517,22.98 8.79,22.98ZM12.367,20.265C12.424,20.268 12.479,20.281 12.531,20.306C12.576,20.329 12.617,20.36 12.651,20.398C12.784,20.546 12.785,20.777 12.655,20.927C12.61,20.979 12.553,21.016 12.489,21.041C11.878,21.247 11.252,21.414 10.62,21.541C10.558,21.551 10.496,21.549 10.436,21.531C10.257,21.478 10.137,21.302 10.151,21.116C10.155,21.071 10.166,21.027 10.184,20.985C10.205,20.939 10.235,20.896 10.271,20.861C10.312,20.821 10.361,20.792 10.414,20.771C11.025,20.565 11.651,20.398 12.283,20.271C12.311,20.266 12.339,20.264 12.367,20.265ZM12.388,19.026C12.472,19.037 12.55,19.066 12.615,19.123C12.784,19.269 12.798,19.534 12.645,19.697C12.6,19.746 12.545,19.779 12.483,19.803C10.833,20.307 9.165,20.754 7.484,21.142C7.419,21.153 7.355,21.152 7.291,21.132C7.098,21.073 6.977,20.872 7.015,20.673C7.024,20.628 7.041,20.583 7.065,20.544C7.114,20.461 7.189,20.405 7.278,20.371C8.927,19.867 10.596,19.42 12.277,19.032C12.305,19.028 12.304,19.028 12.332,19.025C12.36,19.025 12.36,19.025 12.388,19.026ZM9.926,18.375C9.087,18.364 8.247,18.341 7.408,18.341C7.362,18.338 7.32,18.334 7.276,18.318C7.177,18.284 7.094,18.209 7.048,18.114C7.028,18.073 7.018,18.031 7.011,17.986C7.001,17.811 7.011,17.637 7.005,17.462C6.994,17.257 6.967,17.054 6.921,16.854C6.786,16.268 6.498,15.726 6.114,15.265C6.001,15.129 5.88,15 5.752,14.878C5.622,14.756 5.485,14.641 5.355,14.519C5.279,14.445 5.203,14.369 5.129,14.292C4.959,14.11 4.796,13.921 4.645,13.722C4.277,13.235 3.978,12.697 3.759,12.127C3.169,10.593 3.179,8.836 3.791,7.31C4.135,6.454 4.666,5.675 5.332,5.037C5.859,4.532 6.469,4.114 7.133,3.81C7.95,3.436 8.834,3.25 9.73,3.224C9.826,3.222 9.922,3.222 10.017,3.223C10.269,3.23 10.519,3.248 10.768,3.282C11.342,3.359 11.905,3.514 12.439,3.74C13.205,4.065 13.908,4.538 14.498,5.125C15.089,5.711 15.567,6.409 15.898,7.173C16.153,7.761 16.32,8.387 16.393,9.023C16.471,9.702 16.444,10.394 16.31,11.064C16.096,12.138 15.607,13.15 14.903,13.989C14.734,14.19 14.554,14.38 14.362,14.56C14.228,14.686 14.086,14.802 13.949,14.926C13.876,14.995 13.876,14.995 13.805,15.066C13.644,15.233 13.495,15.408 13.363,15.599C13.072,16.022 12.868,16.506 12.79,17.015C12.742,17.322 12.752,17.63 12.752,17.941L12.75,17.986C12.745,18.012 12.74,18.038 12.733,18.063C12.774,18.196 12.746,18.349 12.645,18.457C12.6,18.506 12.545,18.539 12.483,18.563C10.833,19.067 9.165,19.514 7.484,19.902C7.391,19.917 7.298,19.906 7.214,19.859C7.037,19.761 6.961,19.539 7.04,19.353C7.058,19.31 7.084,19.271 7.115,19.237C7.161,19.188 7.216,19.155 7.278,19.131C8.156,18.863 9.039,18.611 9.926,18.375ZM9.833,4.022C9.086,4.034 8.344,4.17 7.652,4.456C7.153,4.663 6.685,4.943 6.265,5.281C5.556,5.851 4.982,6.589 4.613,7.421C4.038,8.714 3.969,10.227 4.409,11.569C4.645,12.289 5.025,12.959 5.52,13.532C5.642,13.674 5.772,13.81 5.908,13.94C6.006,14.034 6.108,14.123 6.21,14.213C6.302,14.298 6.302,14.298 6.392,14.385C6.625,14.622 6.841,14.874 7.028,15.15C7.353,15.63 7.592,16.168 7.714,16.736C7.768,16.984 7.797,17.236 7.806,17.489L7.808,17.541L11.952,17.541C11.952,17.465 11.954,17.39 11.957,17.315C11.97,17.073 12.001,16.834 12.056,16.598C12.204,15.962 12.508,15.368 12.917,14.86C13.067,14.674 13.231,14.5 13.406,14.338C13.521,14.232 13.642,14.133 13.759,14.028C13.834,13.958 13.908,13.888 13.98,13.815C14.52,13.26 14.951,12.61 15.236,11.889C15.471,11.295 15.604,10.663 15.631,10.025C15.658,9.398 15.583,8.766 15.407,8.163C15.216,7.507 14.906,6.887 14.497,6.34C13.904,5.545 13.106,4.908 12.199,4.508C11.556,4.225 10.868,4.069 10.168,4.029C10.056,4.024 9.945,4.022 9.833,4.022ZM2.788,13.585C2.846,13.588 2.902,13.601 2.954,13.628C3.115,13.709 3.203,13.896 3.163,14.072C3.152,14.119 3.133,14.165 3.106,14.205C3.074,14.253 3.032,14.293 2.984,14.324C2.605,14.551 2.234,14.797 1.834,14.985C1.781,15.008 1.725,15.021 1.667,15.02C1.614,15.02 1.562,15.009 1.513,14.988C1.468,14.969 1.427,14.942 1.392,14.908C1.258,14.78 1.232,14.569 1.329,14.411C1.362,14.358 1.406,14.314 1.459,14.281C1.837,14.054 2.209,13.808 2.608,13.62C2.637,13.607 2.666,13.598 2.696,13.592C2.727,13.586 2.757,13.584 2.788,13.585ZM16.999,13.585C17.062,13.587 17.12,13.603 17.176,13.631C17.562,13.846 17.961,14.044 18.324,14.295C18.374,14.332 18.416,14.379 18.445,14.434C18.531,14.598 18.491,14.806 18.349,14.926C18.312,14.957 18.269,14.982 18.223,14.998C18.173,15.015 18.12,15.023 18.067,15.02C18.009,15.016 17.954,15 17.903,14.973C17.517,14.759 17.118,14.561 16.755,14.309C16.705,14.272 16.663,14.226 16.634,14.171C16.543,13.998 16.593,13.778 16.751,13.662C16.798,13.628 16.85,13.605 16.907,13.593C16.937,13.587 16.968,13.584 16.999,13.585ZM19.375,9.481C19.432,9.484 19.487,9.496 19.538,9.522C19.585,9.545 19.626,9.577 19.661,9.616C19.692,9.651 19.717,9.692 19.734,9.736C19.804,9.916 19.73,10.128 19.563,10.226C19.505,10.259 19.441,10.277 19.375,10.28C18.933,10.288 18.487,10.317 18.046,10.278C17.985,10.271 17.926,10.251 17.874,10.218C17.719,10.12 17.65,9.922 17.71,9.749C17.726,9.704 17.749,9.663 17.779,9.626C17.812,9.586 17.853,9.553 17.898,9.528C17.949,9.501 18.003,9.486 18.06,9.481C18.498,9.458 18.937,9.473 19.375,9.481ZM1.687,9.481C1.744,9.484 1.799,9.496 1.85,9.522C1.897,9.545 1.938,9.577 1.973,9.616C2.004,9.651 2.029,9.692 2.046,9.736C2.116,9.916 2.043,10.128 1.875,10.226C1.817,10.259 1.753,10.277 1.687,10.28C1.245,10.288 0.799,10.317 0.358,10.278C0.297,10.271 0.238,10.251 0.186,10.218C0.031,10.12 -0.038,9.922 0.022,9.749C0.038,9.704 0.061,9.663 0.091,9.626C0.124,9.586 0.165,9.553 0.21,9.528C0.261,9.501 0.315,9.486 0.372,9.481C0.81,9.458 1.249,9.473 1.687,9.481ZM1.681,4.74C1.744,4.743 1.803,4.759 1.859,4.787C2.245,5.002 2.643,5.2 3.006,5.452C3.056,5.489 3.098,5.536 3.127,5.591C3.214,5.755 3.173,5.964 3.031,6.083C2.994,6.114 2.951,6.139 2.905,6.155C2.855,6.172 2.802,6.18 2.749,6.176C2.691,6.173 2.636,6.156 2.585,6.13C2.198,5.915 1.8,5.717 1.437,5.465C1.387,5.428 1.345,5.382 1.316,5.327C1.225,5.154 1.276,4.934 1.433,4.818C1.48,4.784 1.533,4.761 1.589,4.748C1.62,4.743 1.65,4.74 1.681,4.74ZM18.106,4.74C18.164,4.744 18.219,4.757 18.271,4.783C18.433,4.865 18.52,5.051 18.481,5.228C18.47,5.275 18.451,5.32 18.424,5.361C18.392,5.409 18.35,5.448 18.302,5.48C17.923,5.707 17.552,5.953 17.152,6.142C17.095,6.166 17.034,6.179 16.972,6.177C16.786,6.17 16.626,6.03 16.594,5.847C16.585,5.8 16.585,5.75 16.594,5.703C16.604,5.651 16.625,5.601 16.654,5.557C16.686,5.508 16.728,5.469 16.776,5.438C17.155,5.21 17.526,4.964 17.926,4.776C17.954,4.763 17.983,4.754 18.014,4.748C18.044,4.742 18.075,4.74 18.106,4.74ZM5.149,1.27C5.275,1.275 5.389,1.335 5.465,1.437C5.721,1.807 5.949,2.201 6.141,2.608C6.166,2.665 6.179,2.726 6.177,2.788C6.169,2.974 6.03,3.134 5.847,3.167C5.799,3.175 5.75,3.175 5.702,3.166C5.65,3.156 5.6,3.136 5.556,3.107C5.508,3.075 5.469,3.033 5.437,2.984C5.21,2.605 4.964,2.234 4.775,1.835C4.696,1.651 4.76,1.431 4.934,1.327C4.98,1.299 5.03,1.283 5.083,1.274C5.105,1.271 5.126,1.27 5.149,1.27ZM14.638,1.27C14.692,1.274 14.743,1.285 14.792,1.308C14.938,1.377 15.03,1.533 15.02,1.694C15.017,1.752 15,1.807 14.974,1.858C14.759,2.245 14.561,2.643 14.309,3.006C14.272,3.056 14.225,3.098 14.17,3.127C14.006,3.213 13.797,3.173 13.678,3.031C13.647,2.994 13.622,2.951 13.606,2.905C13.589,2.855 13.581,2.802 13.585,2.749C13.588,2.691 13.605,2.636 13.631,2.585C13.846,2.198 14.044,1.8 14.296,1.437C14.372,1.335 14.485,1.275 14.612,1.27C14.625,1.27 14.625,1.27 14.638,1.27ZM9.888,0C9.935,0.002 9.981,0.01 10.025,0.027C10.17,0.083 10.266,0.219 10.28,0.372C10.303,0.819 10.318,1.27 10.278,1.715C10.271,1.776 10.252,1.835 10.218,1.887C10.12,2.042 9.922,2.111 9.749,2.051C9.705,2.035 9.663,2.012 9.627,1.982C9.586,1.949 9.553,1.908 9.528,1.863C9.501,1.812 9.487,1.758 9.482,1.701C9.458,1.254 9.443,0.803 9.483,0.358C9.505,0.183 9.631,0.045 9.803,0.008C9.831,0.003 9.859,0 9.888,0Z" style="fill:#FF8C00;"/>
    </g>
</svg>
