<?xml version="1.0" encoding="utf-8"?>
<!-- Generator: Adobe Illustrator 24.2.1, SVG Export Plug-In . SVG Version: 6.00 Build 0)  -->
<svg version="1.1" id="Vrstva_1" xmlns="http://www.w3.org/2000/svg" xmlns:xlink="http://www.w3.org/1999/xlink" x="0px" y="0px"
	 width="39.685px" height="39.685px" viewBox="0 0 39.685 39.685" style="enable-background:new 0 0 39.685 39.685;"
	 xml:space="preserve">
<style type="text/css">
	.st0{fill:none;stroke:#FF8C00;stroke-width:0.753;}
	.st1{fill:none;stroke:#FF8C00;stroke-width:0.753;stroke-linecap:round;stroke-linejoin:round;stroke-miterlimit:10;}
</style>
<g>
	<path class="st1" d="M22.069,16.316v11.926 M17.437,16.316v11.926 M13.062,24.081h9.007 M13.062,20.199h13.382 M13.062,16.316
		h13.382 M25.744,28.242H13.762c-0.386,0-0.7-0.313-0.7-0.7V12.233c0-0.386,0.314-0.7,0.7-0.7h11.982c0.387,0,0.7,0.314,0.7,0.7
		v15.309C26.444,27.929,26.131,28.242,25.744,28.242z"/>
	<path class="st0" d="M19.753,37.953c9.977,0,18.066-8.088,18.066-18.066c0-9.977-8.089-18.065-18.066-18.065
		S1.687,9.91,1.687,19.887C1.687,29.865,9.776,37.953,19.753,37.953z"/>
</g>
</svg>
