<svg xmlns="http://www.w3.org/2000/svg" xmlns:xlink="http://www.w3.org/1999/xlink" width="63.77" height="63.463" viewBox="0 0 63.77 63.463">
  <defs>
    <clipPath id="clip-path">
      <rect id="Rectangle_180" data-name="Rectangle 180" width="63.77" height="63.463" fill="none" stroke="#707070" stroke-width="1.75"/>
    </clipPath>
  </defs>
  <g id="Group_441" data-name="Group 441" transform="translate(0 0)">
    <g id="Group_440" data-name="Group 440" transform="translate(0 0)" clip-path="url(#clip-path)">
      <path id="Path_436" data-name="Path 436" d="M32.213,1.893,36.27.546a2.871,2.871,0,0,1,2.834.6l3.158,2.883a2.872,2.872,0,0,0,1.65.733l4.252.419a2.863,2.863,0,0,1,2.344,1.7L52.222,10.8a2.876,2.876,0,0,0,1.209,1.343l3.716,2.113a2.863,2.863,0,0,1,1.45,2.51l-.029,4.274a2.884,2.884,0,0,0,.558,1.718L61.662,26.2a2.867,2.867,0,0,1,.3,2.883L60.2,32.975a2.853,2.853,0,0,0-.188,1.8l.914,4.174a2.861,2.861,0,0,1-.894,2.756l-3.195,2.839a2.866,2.866,0,0,0-.9,1.564l-.86,4.186a2.867,2.867,0,0,1-1.94,2.154l-4.074,1.294A2.866,2.866,0,0,0,47.6,54.8l-2.49,3.473a2.868,2.868,0,0,1-2.646,1.179l-4.25-.475a2.856,2.856,0,0,0-1.767.378l-3.687,2.159a2.856,2.856,0,0,1-2.9,0l-3.689-2.159a2.853,2.853,0,0,0-1.767-.378l-4.247.475a2.866,2.866,0,0,1-2.646-1.179L15.021,54.8a2.872,2.872,0,0,0-1.462-1.062L9.487,52.448a2.867,2.867,0,0,1-1.94-2.154l-.86-4.186a2.9,2.9,0,0,0-.9-1.564L2.588,41.7a2.868,2.868,0,0,1-.9-2.756l.916-4.174a2.887,2.887,0,0,0-.188-1.8L.656,29.084a2.867,2.867,0,0,1,.3-2.883L3.492,22.76a2.852,2.852,0,0,0,.558-1.718l-.027-4.274a2.863,2.863,0,0,1,1.45-2.51l3.714-2.113A2.85,2.85,0,0,0,10.4,10.8l1.713-3.916a2.87,2.87,0,0,1,2.344-1.7l4.255-.419a2.879,2.879,0,0,0,1.65-.733l3.158-2.883a2.869,2.869,0,0,1,2.834-.6l4.057,1.348A2.861,2.861,0,0,0,32.213,1.893Z" transform="translate(0.575 0.576)" fill="none" stroke="#ff8c00" stroke-linecap="round" stroke-linejoin="round" stroke-width="1.75"/>
      <path id="Path_437" data-name="Path 437" d="M8.223,15.214l9.438,9.438L31.914,10.4" transform="translate(11.815 14.943)" fill="none" stroke="#ff8c00" stroke-linecap="round" stroke-linejoin="round" stroke-width="1.75"/>
    </g>
  </g>
</svg>
