<?xml version="1.0" standalone="no"?>
<!-- Generator: Adobe Fireworks 10, Export SVG Extension by Aaron Beall (http://fireworks.abeall.com) . Version: 0.6.0  -->
<!DOCTYPE svg PUBLIC "-//W3C//DTD SVG 1.1//EN" "http://www.w3.org/Graphics/SVG/1.1/DTD/svg11.dtd">
<svg id="" viewBox="0 0 90 90" version="1.1"
	xmlns="http://www.w3.org/2000/svg" xmlns:xlink="http://www.w3.org/1999/xlink" xml:space="preserve"
	x="0px" y="0px" width="90px" height="90px"
>
	<g id="Vrstva%201">
		<path id="Elipsa" d="M 37.7561 49.1585 C 37.7561 48.4177 38.3567 47.8171 39.0976 47.8171 C 39.8384 47.8171 40.439 48.4177 40.439 49.1585 C 40.439 49.8994 39.8384 50.5 39.0976 50.5 C 38.3567 50.5 37.7561 49.8994 37.7561 49.1585 Z" fill="#ff8b00"/>
		<path id="Elipsa2" d="M 48.7561 49.1585 C 48.7561 48.4177 49.3567 47.8171 50.0976 47.8171 C 50.8384 47.8171 51.439 48.4177 51.439 49.1585 C 51.439 49.8994 50.8384 50.5 50.0976 50.5 C 49.3567 50.5 48.7561 49.8994 48.7561 49.1585 Z" fill="#ff8b00"/>
		<path d="M 54.482 48.2967 C 54.482 48.7003 54.0693 51.2569 53.9317 52.6024 C 53.7942 55.2935 49.9671 64.9743 44.8774 64.9743 C 38.9622 64.9743 34.9665 55.2683 34.8289 52.7118 C 34.6914 51.6353 34.8108 48.5658 34.8108 48.2967 C 34.8108 42.3761 42.9974 42.7094 45.4735 40.9602 C 46.574 40.1528 49.2547 39.685 50.3551 38.2049 C 53.6566 40.7614 54.482 45.2018 54.482 48.2967 ZM 50.4927 27.7095 C 51.1805 28.2477 51.7307 29.4587 52.6937 29.7278 C 53.5191 30.1315 54.7571 29.8624 55.8576 30.1315 C 61.9103 31.7462 62.8732 38.2049 62.8732 42.3761 L 62.1641 53.7336 C 62.0266 55.6174 63.0877 57.8959 64.4633 59.7797 C 62.5375 60.1834 53.0832 60.805 53.0832 60.805 C 55.3824 58.3355 56.7141 45.7289 56.7141 45.7289 C 56.0263 41.8268 54.9389 38.462 49.9867 34.8289 C 47.9234 39.1347 42.7893 40.0887 39.6254 40.6269 C 33.9854 41.5688 32.7852 44.063 32.7852 48.3688 C 32.7852 51.329 33.7276 58.0911 35.5159 60.5131 C 32.2144 60.1095 28.4532 58.4034 25.2893 57.3269 C 25.702 56.385 27.5201 45.3364 27.5201 45.0673 C 27.5201 44.7982 28.3455 41.1651 28.6206 39.2813 C 29.446 29.8624 37.2869 25.6911 44.0274 25.6911 C 44.44 25.6911 48.9795 26.4985 50.4927 27.7095 ZM 28.1867 32.0188 C 27.774 30.9423 22.1552 60.945 23.1181 59.7339 C 26.282 60.8104 30.2713 61.8869 33.5728 62.4251 C 34.6733 62.5596 35.9113 62.4251 37.0118 62.8288 C 37.8371 63.2324 38.2498 64.1743 39.0752 64.7125 C 40.8635 66.1927 42.9269 67 44.7152 67 C 47.0537 67 49.9425 65.3853 52.281 62.8288 C 52.281 62.8288 66.1747 61.4832 66.5873 61.0795 C 66.8625 60.8104 67 60.4067 67 60.0031 C 67 58.7921 66.0371 58.9266 65.0742 57.3119 C 64.2488 55.9663 64.3864 54.7553 64.2488 53.8134 L 64.9743 42.5781 C 64.8367 37.8687 64.5943 31.5234 57.9914 28.6977 C 57.1661 28.294 56.1246 28.0658 55.4367 27.9313 C 54.7489 27.7967 53.8057 28.0301 53.393 27.761 C 52.43 27.2227 51.6637 26.1703 50.8383 25.632 C 49.6002 24.6902 44.183 23.8438 43.7703 23.8438 C 38.4054 23.8438 32.3136 25.291 28.1867 32.0188 Z" fill="#ff8b00"/>
	</g>
</svg>