<?xml version="1.0" standalone="no"?>
<!-- Generator: Adobe Fireworks 10, Export SVG Extension by Aaron Beall (http://fireworks.abeall.com) . Version: 0.6.0  -->
<!DOCTYPE svg PUBLIC "-//W3C//DTD SVG 1.1//EN" "http://www.w3.org/Graphics/SVG/1.1/DTD/svg11.dtd">
<svg id="" viewBox="0 0 90 90" version="1.1"
	xmlns="http://www.w3.org/2000/svg" xmlns:xlink="http://www.w3.org/1999/xlink" xml:space="preserve"
	x="0px" y="0px" width="90px" height="90px"
>
	<g id="Vrstva%201">
		<g id="contact-man">
			<path id="Elipsa" d="M 38.0472 48.5989 C 38.0472 47.9407 38.566 47.4071 39.206 47.4071 C 39.846 47.4071 40.3648 47.9407 40.3648 48.5989 C 40.3648 49.2572 39.846 49.7908 39.206 49.7908 C 38.566 49.7908 38.0472 49.2572 38.0472 48.5989 L 38.0472 48.5989 Z" fill="#ff8b00"/>
			<path d="M 56.3948 29.7276 C 55.7511 29.3303 54.9785 28.933 54.3348 28.8006 C 53.9485 28.6682 53.4335 28.8006 53.176 28.5357 C 52.4034 28.006 52.0172 26.9466 51.3734 26.2844 C 50.0858 24.9601 48.7983 24.4304 47.5107 24.1655 C 46.6094 23.9007 44.9356 24.0331 44.6781 24.0331 C 37.9828 24.0331 30.7725 27.079 30 37.4086 L 30 39.9247 C 30 40.1896 31.4163 45.7517 31.4163 46.149 C 31.4163 46.4138 30.515 46.9436 30.3863 47.4733 C 30.1288 47.8706 30.1288 48.5327 30 48.93 L 30 49.4597 C 30 49.857 30 50.5192 30.1288 50.9165 C 30.2575 51.8435 30.9013 53.1678 31.6738 53.9624 C 32.0601 54.3597 32.8326 54.6245 33.0901 55.1543 C 33.7339 56.3461 33.9914 57.8029 34.5064 58.9947 C 35.1502 60.4515 36.9528 62.7028 38.4979 64.1595 C 39.5279 65.219 40.6867 65.8811 41.9742 66.8081 C 43.0043 67.6027 43.7768 68 44.8069 68 C 45.1931 68 46.0944 67.7351 46.7382 67.4703 C 49.3133 66.146 52.9185 63.4974 54.5923 60.4515 C 54.763 60.5202 56.0086 57.8029 56.0086 57.8029 C 56.3948 57.0083 56.3948 55.9488 56.9099 55.1543 C 57.0386 54.757 57.8112 54.6245 58.1974 54.0948 C 59.2275 52.7705 60 50.9165 60 49.4597 C 60 49.1949 59.7425 48.003 59.485 47.4733 C 59.3562 46.9436 58.7124 46.4138 58.7124 46.149 C 58.7124 45.7517 59.485 42.4409 59.7425 40.5869 C 59.7425 33.6546 57.4249 30.2573 56.3948 29.7276 L 56.3948 29.7276 ZM 47.7149 26.2709 C 48.3587 26.5358 49.4247 26.794 50.3261 27.8534 C 50.7123 28.3832 50.829 29.4876 51.9878 29.7525 C 52.3741 29.8849 53.5302 30.0948 54.0452 30.2273 C 57.0066 31.1543 57.8434 35.9681 57.8434 38.2194 C 57.8434 41.6626 56.7356 45.341 55.7511 46.5463 C 55.7511 46.9436 57.8434 48.083 57.8434 48.3479 C 57.8434 49.0101 57.4383 51.9862 57.0521 52.3835 C 56.6658 52.7808 55.6976 52.9874 55.3113 53.6495 C 54.925 54.3117 54.6983 55.3871 54.4408 56.1817 C 53.9258 57.9033 52.5243 60.0508 50.7218 62.0372 C 50.4643 62.3021 46.0049 66.1519 45.1036 66.1519 C 44.0736 66.1519 41.2758 63.9105 41.1471 63.7781 C 39.8595 62.7186 38.992 61.8306 38.2194 60.7712 C 37.5756 59.8442 36.2317 58.3489 35.8455 57.2895 C 35.4592 56.4949 35.6779 55.1822 35.2916 54.52 C 34.9054 53.7254 33.7492 53.388 33.2342 52.8582 C 32.7191 52.3286 32.0473 50.4344 32.0473 49.7722 C 32.0473 48.3155 33.3925 47.4292 33.3925 46.3697 C 33.3925 45.9724 32.2056 40.6208 32.2056 40.3559 L 32.0473 36.7159 C 32.691 28.6376 38.5786 25.717 43.6001 25.717 C 44.5014 25.717 47.7149 26.2709 47.7149 26.2709 Z" fill="#ff8b00"/>
			<path d="M 54.9785 42.8382 C 54.9785 43.6328 54.206 44.295 53.691 44.295 C 51.8884 44.295 53.4028 41.6785 53.0165 40.7515 C 52.6302 39.5596 51.5734 37.2748 50.8009 36.0829 C 47.7107 38.599 44.3164 38.9557 41.2263 39.4854 C 40.0675 39.6178 38.1214 40.4026 37.3489 41.8593 C 36.7051 42.7863 37.5966 44.4274 36.4378 44.4274 C 35.5365 44.4274 35.279 43.368 35.279 42.9706 C 35.279 40.4545 37.9828 38.2032 40.3004 37.6734 C 41.8455 37.2762 43.7768 37.2762 45.5794 37.0113 C 46.3519 36.8788 47.5107 36.614 48.5408 35.8194 C 50.2146 34.4951 49.6996 33.8329 50.9871 33.8329 C 53.691 33.8329 54.9785 42.0436 54.9785 42.8382 L 54.9785 42.8382 Z" fill="#ff8b00"/>
			<path id="Elipsa2" d="M 49.8927 48.5989 C 49.8927 47.9407 50.4115 47.4071 51.0515 47.4071 C 51.6915 47.4071 52.2103 47.9407 52.2103 48.5989 C 52.2103 49.2572 51.6915 49.7908 51.0515 49.7908 C 50.4115 49.7908 49.8927 49.2572 49.8927 48.5989 L 49.8927 48.5989 Z" fill="#ff8b00"/>
		</g>
	</g>
</svg>