<svg xmlns="http://www.w3.org/2000/svg" width="157.697" height="94.338" viewBox="0 0 157.697 94.338">
  <g id="Group_732" data-name="Group 732" transform="translate(2.159 2.159)">
    <path id="Path_917" data-name="Path 917" d="M.4,54.821l8.932,2.517A3.637,3.637,0,0,0,13.8,54.626L25.663,8.07a3.851,3.851,0,0,0-2.578-4.694L14.159.859" transform="translate(-0.4 1.697)" fill="none" stroke="#ff8c00" stroke-linecap="round" stroke-linejoin="round" stroke-width="3.5"/>
    <path id="Path_918" data-name="Path 918" d="M4.8,7.349c9.366,3.28,25.235,3.4,36.055-1.231S55,.511,64.557,3.061" transform="translate(19.691 5.475)" fill="none" stroke="#ff8c00" stroke-linecap="round" stroke-linejoin="round" stroke-width="3.5"/>
    <path id="Path_919" data-name="Path 919" d="M42.919,13.773l3.92,2.4c3.608,5.529-3.141,12.072-9.383,9.511L14.977,11.29" transform="translate(66.192 49.349)" fill="none" stroke="#ff8c00" stroke-linecap="round" stroke-linejoin="round" stroke-width="3.5"/>
    <path id="Path_920" data-name="Path 920" d="M39.894,14.38c4.109,3.714-.785,10.9-7.211,9.193L14.146,13.589" transform="translate(62.396 59.851)" fill="none" stroke="#ff8c00" stroke-linecap="round" stroke-linejoin="round" stroke-width="3.5"/>
    <path id="Path_921" data-name="Path 921" d="M28.084,14.627l.006.006c3.9,3.525-.757,10.351-6.855,8.731l-7.79-4.193" transform="translate(59.193 64.593)" fill="none" stroke="#ff8c00" stroke-linecap="round" stroke-linejoin="round" stroke-width="3.5"/>
    <path id="Path_922" data-name="Path 922" d="M22.348,31.678a6.249,6.249,0,0,1-9.026,1.192,7.022,7.022,0,0,1-1.136-9.494l5.919-8a6.242,6.242,0,0,1,9.026-1.186,7.015,7.015,0,0,1,1.13,9.488Z" transform="translate(47.294 56.14)" fill="none" stroke="#ff8c00" stroke-linecap="round" stroke-linejoin="round" stroke-width="3.5"/>
    <path id="Path_923" data-name="Path 923" d="M20.043,33.875a6.249,6.249,0,0,1-9.026,1.192,7.022,7.022,0,0,1-1.136-9.494l8.631-11.666a6.246,6.246,0,0,1,9.032-1.192,7.021,7.021,0,0,1,1.13,9.488Z" transform="translate(36.765 49.393)" fill="none" stroke="#ff8c00" stroke-linecap="round" stroke-linejoin="round" stroke-width="3.5"/>
    <path id="Path_924" data-name="Path 924" d="M17.729,36.252A6.249,6.249,0,0,1,8.7,37.443a7.028,7.028,0,0,1-1.136-9.494l11.526-15.58a6.246,6.246,0,0,1,9.032-1.192,7.021,7.021,0,0,1,1.13,9.488Z" transform="translate(26.205 42.367)" fill="none" stroke="#ff8c00" stroke-linecap="round" stroke-linejoin="round" stroke-width="3.5"/>
    <path id="Path_925" data-name="Path 925" d="M15.883,27.99a6.249,6.249,0,0,1-9.026,1.192,7.028,7.028,0,0,1-1.136-9.494l5.424-7.328a6.249,6.249,0,0,1,9.026-1.192,7.016,7.016,0,0,1,1.136,9.488Z" transform="translate(17.772 42.343)" fill="none" stroke="#ff8c00" stroke-linecap="round" stroke-linejoin="round" stroke-width="3.5"/>
    <path id="Path_926" data-name="Path 926" d="M13.321,16.457c-3.358-2.4-6.376-5.329-10.446-6.209" transform="translate(10.907 44.588)" fill="none" stroke="#ff8c00" stroke-linecap="round" stroke-linejoin="round" stroke-width="3.5"/>
    <path id="Path_927" data-name="Path 927" d="M48.775,54.362l-8.932,2.517a3.637,3.637,0,0,1-4.466-2.712L23.512,7.611A3.851,3.851,0,0,1,26.09,2.917L35.016.4" transform="translate(104.604 -0.4)" fill="none" stroke="#ff8c00" stroke-linecap="round" stroke-linejoin="round" stroke-width="3.5"/>
    <path id="Path_928" data-name="Path 928" d="M76.734,4.518c-12.111,5.5-30.965-4.856-43.46-2.305-3.586.735-17.941,6.626-21.354,14.227" transform="translate(52.222 6.001)" fill="none" stroke="#ff8c00" stroke-linecap="round" stroke-linejoin="round" stroke-width="3.5"/>
    <path id="Path_929" data-name="Path 929" d="M22.67,13.95c7.194.952,9.867-1.409,15.769-4.037" transform="translate(101.336 43.058)" fill="none" stroke="#ff8c00" stroke-linecap="round" stroke-linejoin="round" stroke-width="3.5"/>
    <path id="Path_930" data-name="Path 930" d="M16.555,4.43,11.1,20.055a3.411,3.411,0,0,0,2.088,4.393c3.029.969,7.762,1.242,11.866-3.981,2.968-4.137,4.833-7.539,5.451-8.458a1.457,1.457,0,0,1,1.075-.64l6.476-.551a3.143,3.143,0,0,1,2.094.585l33.4,24.038a9.569,9.569,0,0,1,3.469,5.379c1.114,6.777-5.518,10.429-9.689,7.857S41.885,32.1,41.885,32.1" transform="translate(47.586 18.01)" fill="none" stroke="#ff8c00" stroke-linecap="round" stroke-linejoin="round" stroke-width="3.5"/>
  </g>
</svg>
