<svg id="Vrstva_1" data-name="Vrstva 1" xmlns="http://www.w3.org/2000/svg" viewBox="0 0 36.885 36.884"><path d="M20.538,20.1l4.418,4.418a1.487,1.487,0,0,1-.245,2.3,1.515,1.515,0,0,1-1.884-.234l-4.385-4.384" fill="none" stroke="#ff8c00" stroke-linecap="round" stroke-linejoin="round" stroke-width="0.753"/><path d="M16.347,20.1l-1.385-1.386a1.423,1.423,0,0,0-1.3-.4A3.893,3.893,0,0,1,9.06,13.6l2.375,2.375,2.273-.609.609-2.273-2.375-2.375a3.893,3.893,0,0,1,4.716,4.606,1.425,1.425,0,0,0,.4,1.3L18.442,18" fill="none" stroke="#ff8c00" stroke-linecap="round" stroke-linejoin="round" stroke-width="0.753"/><path d="M14.058,26.578l7.865-7.865a1.423,1.423,0,0,1,1.3-.4A3.893,3.893,0,0,0,27.825,13.6L25.45,15.973l-2.273-.609-.609-2.273,2.375-2.375a3.893,3.893,0,0,0-4.716,4.606,1.425,1.425,0,0,1-.4,1.3l-7.9,7.9a1.487,1.487,0,0,0,.245,2.3A1.515,1.515,0,0,0,14.058,26.578Z" fill="none" stroke="#ff8c00" stroke-linecap="round" stroke-linejoin="round" stroke-width="0.753"/><path d="M18.443,36.508A18.066,18.066,0,1,0,.377,18.442,18.067,18.067,0,0,0,18.443,36.508Z" fill="none" stroke="#ff8c00" stroke-width="0.753"/></svg>