<svg xmlns="http://www.w3.org/2000/svg" width="1125.5" height="194.5" viewBox="0 0 1125.5 194.5">
  <g id="Group_525" data-name="Group 525" transform="translate(-389 -4902.5)">
    <g id="Group_56" data-name="Group 56" transform="translate(0 2883)">
      <g id="Group_55" data-name="Group 55">
        <line id="Line_18" data-name="Line 18" y2="181" transform="translate(393.5 2020.5)" fill="none" stroke="#ff8b00" stroke-linecap="round" stroke-width="2" stroke-dasharray="3 6"/>
        <line id="Line_19" data-name="Line 19" y2="80" transform="translate(775.5 2020.5)" fill="none" stroke="#ff8b00" stroke-linecap="round" stroke-width="2" stroke-dasharray="3 6"/>
        <line id="Line_20" data-name="Line 20" y2="80" transform="translate(1144.5 2020.5)" fill="none" stroke="#ff8b00" stroke-linecap="round" stroke-width="2" stroke-dasharray="3 6"/>
        <line id="Line_21" data-name="Line 21" y2="80" transform="translate(1513.5 2020.5)" fill="none" stroke="#ff8b00" stroke-linecap="round" stroke-width="2" stroke-dasharray="3 6"/>
        <line id="Line_22" data-name="Line 22" x1="1120" transform="translate(393.5 2100.5)" fill="none" stroke="#ff8b00" stroke-linecap="round" stroke-width="2" stroke-dasharray="3 6"/>
      </g>
      <g id="Polygon_1" data-name="Polygon 1" transform="translate(396 2212) rotate(180)" fill="none" stroke-linecap="round" stroke-linejoin="round">
        <path d="M2.5,0,5,4H0Z" stroke="none"/>
        <path d="M 2.5 0 L 0 4 L 5 4 L 2.5 0 M 2.5 -2 C 3.189579963684082 -2 3.830520153045654 -1.644760131835938 4.196000099182129 -1.059999942779541 L 6.696000099182129 2.940000057220459 C 7.081330299377441 3.556540012359619 7.101739883422852 4.333630084991455 6.749279975891113 4.969540119171143 C 6.396830081939697 5.60545015335083 5.727049827575684 6 5 6 L 0 6 C -0.7270498275756836 6 -1.396830081939697 5.60545015335083 -1.749279975891113 4.969540119171143 C -2.101739883422852 4.333630084991455 -2.081329822540283 3.556540012359619 -1.696000099182129 2.940000057220459 L 0.8039999008178711 -1.059999942779541 C 1.169480085372925 -1.644760131835938 1.810420036315918 -2 2.5 -2 Z" stroke="none" fill="#ff8b00"/>
      </g>
    </g>
  </g>
</svg>
