<?xml version="1.0" encoding="UTF-8" standalone="no"?>
<!DOCTYPE svg PUBLIC "-//W3C//DTD SVG 1.1//EN" "http://www.w3.org/Graphics/SVG/1.1/DTD/svg11.dtd">
<svg id="logo" width="100%" height="100%" viewBox="0 0 194 54" version="1.1" xmlns="http://www.w3.org/2000/svg" xmlns:xlink="http://www.w3.org/1999/xlink" xml:space="preserve" style="fill-rule:evenodd;clip-rule:evenodd;stroke-linejoin:round;stroke-miterlimit:1.41421;">
    <g transform="matrix(1.10201,0,0,1.10201,-0.000771409,0.000220402)">
        <path d="M10.527,14.656C10.17,13.409 9.99,11.951 9.99,11.951L9.933,11.951C9.933,11.951 9.755,13.409 9.397,14.656L7.494,21.288L12.431,21.288L10.527,14.656ZM14.631,29.316L13.382,24.946L6.543,24.946L5.293,29.316L0.001,29.316L6.958,7.787L12.965,7.787L19.923,29.316L14.631,29.316Z" style="fill:rgb(242,145,0);fill-rule:nonzero;"/>
        <path d="M59.404,29.331L59.404,20.551L50.822,20.551L50.822,29.331L45.762,29.331L45.762,7.781L50.822,7.781L50.822,16.414L59.404,16.414L59.404,7.781L64.466,7.781L64.466,29.331L59.404,29.331Z" style="fill:rgb(87,87,86);fill-rule:nonzero;"/>
        <path d="M116.199,12.008L116.199,29.33L111.139,29.33L111.139,12.008L105.238,12.008L105.238,7.78L122.444,7.78L122.444,12.008L116.199,12.008Z" style="fill:rgb(87,87,86);fill-rule:nonzero;"/>
        <path d="M162.816,29.794C155.837,29.794 151.877,25.212 151.877,18.596C151.877,11.948 156.167,7.397 163.307,7.397C165.761,7.397 168.156,7.906 169.367,8.565L167.663,12.546C166.746,12.068 165.338,11.707 163.537,11.707C160.062,11.707 157.445,13.894 157.445,18.567C157.445,23.206 159.835,25.542 162.421,25.542C163.273,25.542 163.895,25.422 164.256,25.301L164.256,20.184L161.406,20.184L161.406,16.378L169.464,16.378L169.464,28.626C168.121,29.287 165.6,29.794 162.816,29.794" style="fill:rgb(87,87,86);fill-rule:nonzero;"/>
        <path d="M29.503,29.794C22.524,29.794 18.564,25.212 18.564,18.596C18.564,11.948 22.854,7.397 29.995,7.397C32.451,7.397 34.844,7.906 36.056,8.565L34.351,12.546C33.434,12.068 32.027,11.707 30.225,11.707C26.752,11.707 24.131,13.894 24.131,18.567C24.131,23.206 26.804,25.368 29.39,25.409C31.23,25.47 32.899,24.62 34.147,23.985L36.153,28.626C34.809,29.287 32.288,29.794 29.503,29.794" style="fill:rgb(242,145,0);fill-rule:nonzero;"/>
        <path d="M76.113,11.28C73.28,11.28 71.284,13.353 71.204,17.385L80.22,16.147C80.22,12.914 78.626,11.28 76.113,11.28M85.41,18.941L71.562,20.817C72.042,23.968 74.358,25.524 77.509,25.524C79.665,25.524 81.978,24.965 83.495,24.169L85.051,28.237C83.255,29.157 80.22,29.794 77.111,29.794C70.006,29.794 66.258,25.167 66.258,18.542C66.258,11.959 69.967,7.328 76.232,7.328C82.177,7.328 85.49,11.241 85.49,17.105C85.49,17.703 85.49,18.301 85.41,18.941" style="fill:rgb(87,87,86);fill-rule:nonzero;"/>
        <path d="M99.147,18.941C95.156,19.14 91.644,19.501 91.644,22.733C91.644,24.767 93.241,25.924 96.074,25.924C97.23,25.924 98.587,25.725 99.147,25.485L99.147,18.941ZM96.233,29.794C89.77,29.794 86.537,27.239 86.537,22.85C86.537,16.985 92.641,15.828 99.147,15.468L99.147,14.354C99.147,12.118 97.59,11.28 95.117,11.28C93.08,11.28 90.607,11.917 89.09,12.556L87.734,8.886C89.529,8.128 92.602,7.328 95.714,7.328C101.221,7.328 104.294,9.483 104.294,14.99L104.294,28.237C102.697,29.075 99.463,29.794 96.233,29.794" style="fill:rgb(87,87,86);fill-rule:nonzero;"/>
        <path d="M127.113,5.864C125.398,5.864 124,4.549 124,2.911C124,1.277 125.398,0 127.113,0C128.829,0 130.225,1.277 130.225,2.911C130.225,4.549 128.829,5.864 127.113,5.864" style="fill:rgb(242,145,0);fill-rule:nonzero;"/>
        <rect x="124.399" y="7.807" width="5.426" height="21.509" style="fill:rgb(87,87,86);fill-rule:nonzero;"/>
        <path d="M144.482,29.316L144.482,15.15C144.482,12.996 143.165,11.68 140.69,11.68C139.414,11.68 138.176,11.917 137.46,12.197L137.46,29.316L132.032,29.316L132.032,8.886C134.306,7.97 137.06,7.329 140.611,7.329C146.996,7.329 149.95,9.964 149.95,14.591L149.95,29.316L144.482,29.316Z" style="fill:rgb(87,87,86);fill-rule:nonzero;"/>
        <path d="M5.746,40.712C3.912,40.818 1.926,40.926 1.926,42.637C1.926,43.6 2.643,44.227 4.08,44.227C4.707,44.227 5.455,44.104 5.746,43.967L5.746,40.712ZM4.11,45.19C1.85,45.19 0.719,44.227 0.719,42.668C0.719,40.315 3.255,39.963 5.746,39.825L5.746,39.199C5.746,37.977 4.935,37.594 3.79,37.594C3.026,37.594 2.078,37.839 1.543,38.099L1.207,37.197C1.834,36.906 2.873,36.616 3.897,36.616C5.746,36.616 6.953,37.35 6.953,39.306L6.953,44.608C6.372,44.929 5.196,45.19 4.11,45.19" style="fill:rgb(87,87,86);fill-rule:nonzero;"/>
        <path d="M12.014,37.67C11.463,37.67 10.853,37.808 10.471,38.006L10.471,43.89C10.745,44.027 11.295,44.15 11.861,44.15C13.327,44.15 14.474,43.187 14.474,40.818C14.474,38.847 13.495,37.67 12.014,37.67M11.8,45.189C10.791,45.189 9.814,44.929 9.187,44.608L9.187,33.024L10.471,33.024L10.471,37.028C10.898,36.83 11.555,36.662 12.182,36.662C14.306,36.662 15.758,38.205 15.758,40.742C15.758,43.844 14.108,45.189 11.8,45.189" style="fill:rgb(87,87,86);fill-rule:nonzero;"/>
        <path d="M19.641,45.189C18.754,45.189 17.792,44.929 17.197,44.608L17.655,43.63C18.098,43.89 18.969,44.15 19.626,44.15C20.68,44.15 21.383,43.63 21.383,42.82C21.383,41.949 20.68,41.613 19.717,41.261C18.556,40.833 17.41,40.314 17.41,38.832C17.41,37.548 18.403,36.615 20.146,36.615C21.078,36.615 21.887,36.86 22.438,37.197L21.995,38.098C21.613,37.854 20.91,37.609 20.268,37.609C19.275,37.609 18.708,38.144 18.708,38.832C18.708,39.702 19.381,40.008 20.298,40.344C21.521,40.803 22.712,41.277 22.712,42.82C22.712,44.241 21.581,45.189 19.641,45.189" style="fill:rgb(87,87,86);fill-rule:nonzero;"/>
        <path d="M27.787,37.655C26.289,37.655 25.557,38.984 25.557,40.879C25.557,42.774 26.289,44.134 27.787,44.134C29.286,44.134 30.018,42.774 30.018,40.879C30.018,38.984 29.286,37.655 27.787,37.655M27.787,45.189C25.51,45.189 24.289,43.34 24.289,40.894C24.289,38.449 25.51,36.615 27.787,36.615C30.065,36.615 31.287,38.449 31.287,40.894C31.287,43.34 30.065,45.189 27.787,45.189" style="fill:rgb(87,87,86);fill-rule:nonzero;"/>
        <rect x="33.29" y="33.024" width="1.269" height="11.996" style="fill:rgb(87,87,86);fill-rule:nonzero;"/>
        <path d="M40.031,45.189C37.984,45.189 36.853,44.288 36.853,42.3L36.853,36.784L38.136,36.784L38.136,42.315C38.136,43.539 38.763,44.119 40.031,44.119C40.78,44.119 41.452,43.981 41.773,43.844L41.773,36.784L43.042,36.784L43.042,44.608C42.415,44.929 41.239,45.189 40.031,45.189" style="fill:rgb(87,87,86);fill-rule:nonzero;"/>
        <path d="M48.025,45.113C46.68,45.113 45.855,44.379 45.855,42.881L45.855,37.746L44.664,37.746L44.664,36.784L45.855,36.784L45.855,34.797L47.093,34.385L47.093,36.784L48.866,36.784L48.866,37.746L47.093,37.746L47.093,42.82C47.093,43.661 47.659,43.982 48.331,43.982C48.53,43.982 48.744,43.951 48.866,43.905L48.866,44.975C48.698,45.051 48.377,45.113 48.025,45.113" style="fill:rgb(87,87,86);fill-rule:nonzero;"/>
        <path d="M53.696,37.594C52.244,37.594 51.312,38.756 51.281,40.62L55.774,39.978C55.759,38.358 54.933,37.594 53.696,37.594M56.981,40.696L51.358,41.506C51.496,43.263 52.55,44.15 54.124,44.15C54.949,44.15 55.82,43.951 56.37,43.646L56.768,44.608C56.172,44.945 55.147,45.189 54.062,45.189C51.602,45.189 50.12,43.6 50.12,40.895C50.12,38.358 51.48,36.615 53.712,36.615C55.744,36.615 56.997,37.946 56.997,40.146C56.997,40.314 56.997,40.497 56.981,40.696" style="fill:rgb(87,87,86);fill-rule:nonzero;"/>
        <rect x="59" y="33.024" width="1.269" height="11.996" style="fill:rgb(87,87,86);fill-rule:nonzero;"/>
        <path d="M65.082,48.306L63.754,48.306L64.991,45.02L61.904,36.784L63.295,36.784L65.343,42.774C65.526,43.309 65.633,43.951 65.633,43.951L65.663,43.951C65.663,43.951 65.77,43.309 65.954,42.774L67.986,36.784L69.393,36.784L65.082,48.306Z" style="fill:rgb(87,87,86);fill-rule:nonzero;"/>
        <path d="M78.335,45.189C76.578,45.189 74.805,43.92 74.805,40.895C74.805,37.869 76.578,36.615 78.335,36.615C79.16,36.615 79.893,36.845 80.382,37.181L79.939,38.114C79.572,37.854 79.023,37.686 78.472,37.686C77.296,37.686 76.119,38.571 76.119,40.879C76.119,43.187 77.311,44.104 78.472,44.104C79.023,44.104 79.572,43.92 79.939,43.661L80.382,44.624C79.878,44.975 79.16,45.189 78.335,45.189" style="fill:rgb(87,87,86);fill-rule:nonzero;"/>
        <rect x="82.218" y="33.024" width="1.269" height="11.996" style="fill:rgb(87,87,86);fill-rule:nonzero;"/>
        <path d="M89.05,37.594C87.599,37.594 86.666,38.756 86.636,40.62L91.128,39.978C91.113,38.358 90.288,37.594 89.05,37.594M92.335,40.696L86.712,41.506C86.849,43.263 87.904,44.15 89.478,44.15C90.303,44.15 91.173,43.951 91.724,43.646L92.122,44.608C91.525,44.945 90.501,45.189 89.416,45.189C86.957,45.189 85.474,43.6 85.474,40.895C85.474,38.358 86.834,36.615 89.065,36.615C91.097,36.615 92.351,37.946 92.351,40.146C92.351,40.314 92.351,40.497 92.335,40.696" style="fill:rgb(87,87,86);fill-rule:nonzero;"/>
        <path d="M97.976,45.021L96.509,45.021L93.498,36.784L94.889,36.784L96.877,42.637C97.075,43.203 97.228,43.875 97.228,43.875L97.258,43.875C97.258,43.875 97.411,43.203 97.611,42.637L99.58,36.784L100.987,36.784L97.976,45.021Z" style="fill:rgb(87,87,86);fill-rule:nonzero;"/>
        <path d="M105.635,37.594C104.183,37.594 103.25,38.756 103.22,40.62L107.712,39.978C107.698,38.358 106.872,37.594 105.635,37.594M108.92,40.696L103.297,41.506C103.435,43.263 104.489,44.15 106.064,44.15C106.888,44.15 107.76,43.951 108.309,43.646L108.706,44.608C108.111,44.945 107.087,45.189 106.001,45.189C103.541,45.189 102.059,43.6 102.059,40.895C102.059,38.358 103.418,36.615 105.651,36.615C107.683,36.615 108.936,37.946 108.936,40.146C108.936,40.314 108.936,40.497 108.92,40.696" style="fill:rgb(87,87,86);fill-rule:nonzero;"/>
        <path d="M114.44,37.746C114.224,37.701 113.965,37.685 113.706,37.685C113.14,37.685 112.529,37.777 112.147,37.945L112.147,45.02L110.864,45.02L110.864,37.197C111.613,36.86 112.743,36.615 113.874,36.615C114.18,36.615 114.454,36.646 114.684,36.677L114.44,37.746Z" style="fill:rgb(87,87,86);fill-rule:nonzero;"/>
        <path d="M125.445,45.021L125.445,39.474C125.445,38.267 124.65,37.686 123.396,37.686C122.8,37.686 122.144,37.869 121.685,38.145L121.685,45.021L120.401,45.021L120.401,33.025L121.685,33.025L121.685,37.136C122.219,36.861 122.954,36.647 123.641,36.647C125.537,36.647 126.713,37.61 126.713,39.382L126.713,45.021L125.445,45.021Z" style="fill:rgb(87,87,86);fill-rule:nonzero;"/>
        <path d="M132.216,37.594C130.764,37.594 129.832,38.756 129.801,40.62L134.294,39.978C134.279,38.358 133.453,37.594 132.216,37.594M135.501,40.696L129.878,41.506C130.015,43.263 131.07,44.15 132.644,44.15C133.47,44.15 134.34,43.951 134.889,43.646L135.287,44.608C134.691,44.945 133.667,45.189 132.581,45.189C130.122,45.189 128.64,43.6 128.64,40.895C128.64,38.358 130,36.615 132.231,36.615C134.264,36.615 135.517,37.946 135.517,40.146C135.517,40.314 135.517,40.497 135.501,40.696" style="fill:rgb(87,87,86);fill-rule:nonzero;"/>
        <path d="M141.952,40.712C140.119,40.818 138.133,40.926 138.133,42.637C138.133,43.6 138.85,44.227 140.286,44.227C140.914,44.227 141.662,44.104 141.952,43.967L141.952,40.712ZM140.317,45.19C138.056,45.19 136.925,44.227 136.925,42.668C136.925,40.315 139.462,39.963 141.952,39.825L141.952,39.199C141.952,37.977 141.142,37.594 139.996,37.594C139.232,37.594 138.286,37.839 137.75,38.099L137.414,37.197C138.04,36.906 139.08,36.616 140.103,36.616C141.952,36.616 143.161,37.35 143.161,39.306L143.161,44.608C142.58,44.929 141.403,45.19 140.317,45.19" style="fill:rgb(87,87,86);fill-rule:nonzero;"/>
        <path d="M148.037,45.113C146.692,45.113 145.867,44.379 145.867,42.881L145.867,37.746L144.676,37.746L144.676,36.784L145.867,36.784L145.867,34.797L147.104,34.385L147.104,36.784L148.878,36.784L148.878,37.746L147.104,37.746L147.104,42.82C147.104,43.661 147.67,43.982 148.343,43.982C148.54,43.982 148.755,43.951 148.878,43.905L148.878,44.975C148.71,45.051 148.389,45.113 148.037,45.113" style="fill:rgb(87,87,86);fill-rule:nonzero;"/>
        <path d="M150.666,36.784L151.934,36.784L151.934,45.021L150.666,45.021L150.666,36.784ZM151.292,35.118C150.85,35.118 150.483,34.767 150.483,34.338C150.483,33.911 150.85,33.544 151.292,33.544C151.736,33.544 152.103,33.911 152.103,34.338C152.103,34.767 151.736,35.118 151.292,35.118" style="fill:rgb(87,87,86);fill-rule:nonzero;"/>
        <path d="M159.271,45.021L159.271,39.459C159.271,38.358 158.598,37.656 157.268,37.656C156.55,37.656 155.909,37.793 155.511,37.946L155.511,45.021L154.227,45.021L154.227,37.197C155.022,36.861 156.046,36.616 157.253,36.616C159.423,36.616 160.539,37.625 160.539,39.352L160.539,45.021L159.271,45.021Z" style="fill:rgb(87,87,86);fill-rule:nonzero;"/>
        <path d="M167.769,37.9C167.479,37.762 166.929,37.64 166.347,37.64C164.897,37.64 163.736,38.511 163.736,40.743C163.736,42.713 164.759,43.707 166.196,43.707C166.746,43.707 167.402,43.585 167.769,43.386L167.769,37.9ZM165.629,48.46C164.544,48.46 163.505,48.169 162.879,47.848L163.276,46.839C163.796,47.115 164.682,47.374 165.539,47.374C167.02,47.374 167.769,46.534 167.769,45.052L167.769,44.349C167.327,44.563 166.638,44.715 165.996,44.715C163.934,44.715 162.466,43.294 162.466,40.788C162.466,37.9 164.147,36.616 166.424,36.616C167.432,36.616 168.395,36.861 169.022,37.197L169.022,45.052C169.022,47.222 167.769,48.46 165.629,48.46" style="fill:rgb(87,87,86);fill-rule:nonzero;"/>
        <path d="M176.042,2.952C176.042,1.317 174.594,0 172.754,0C170.913,0 169.464,1.317 169.464,2.952C169.464,4.587 170.913,5.902 172.754,5.902C174.594,5.902 176.042,4.587 176.042,2.952M175.548,2.952C175.548,4.363 174.332,5.5 172.754,5.5C171.172,5.5 169.945,4.363 169.945,2.952C169.945,1.541 171.172,0.404 172.754,0.404C174.332,0.404 175.548,1.541 175.548,2.952M174.298,4.576L173.543,3.324C173.448,3.175 173.342,3.059 173.213,2.995L173.213,2.973C173.707,2.877 174.085,2.601 174.085,2.113C174.085,1.53 173.567,1.179 172.67,1.179C172.315,1.179 171.916,1.233 171.62,1.359L171.62,4.576L172.08,4.576L172.08,3.111L172.481,3.111C172.8,3.111 172.966,3.194 173.095,3.419L173.767,4.576L174.298,4.576ZM173.613,2.124C173.613,2.591 173.261,2.761 172.576,2.761L172.08,2.761L172.08,1.604C172.222,1.561 172.457,1.541 172.682,1.541C173.32,1.541 173.613,1.762 173.613,2.124" style="fill:rgb(87,87,86);fill-rule:nonzero;"/>
    </g>
</svg>
