<?xml version="1.0" encoding="UTF-8" standalone="no"?>
<!DOCTYPE svg PUBLIC "-//W3C//DTD SVG 1.1//EN" "http://www.w3.org/Graphics/SVG/1.1/DTD/svg11.dtd">
<svg width="100%" height="100%" viewBox="0 0 86 15" version="1.1" xmlns="http://www.w3.org/2000/svg" xmlns:xlink="http://www.w3.org/1999/xlink" xml:space="preserve" style="fill-rule:evenodd;clip-rule:evenodd;stroke-linejoin:round;stroke-miterlimit:1.41421;">
    <g transform="matrix(0.488521,0,0,0.488521,0,0.000146556)">
        <g transform="matrix(1,0,0,1,-0.0007,-0.0001)">
            <path d="M10.527,14.656C10.17,13.409 9.99,11.951 9.99,11.951L9.933,11.951C9.933,11.951 9.755,13.409 9.397,14.656L7.494,21.288L12.431,21.288L10.527,14.656ZM14.631,29.316L13.382,24.946L6.543,24.946L5.293,29.316L0.001,29.316L6.958,7.787L12.965,7.787L19.923,29.316L14.631,29.316Z" style="fill:rgb(148,148,148);fill-rule:nonzero;"/>
        </g>
        <g transform="matrix(1,0,0,1,-0.0007,-0.0001)">
            <path d="M59.404,29.331L59.404,20.551L50.822,20.551L50.822,29.331L45.762,29.331L45.762,7.781L50.822,7.781L50.822,16.414L59.404,16.414L59.404,7.781L64.466,7.781L64.466,29.331L59.404,29.331Z" style="fill:rgb(148,148,148);fill-rule:nonzero;"/>
        </g>
        <g transform="matrix(1,0,0,1,-0.0007,-0.0001)">
            <path d="M116.199,12.008L116.199,29.33L111.139,29.33L111.139,12.008L105.238,12.008L105.238,7.78L122.444,7.78L122.444,12.008L116.199,12.008Z" style="fill:rgb(148,148,148);fill-rule:nonzero;"/>
        </g>
        <g transform="matrix(1,0,0,1,-0.0007,-0.0001)">
            <path d="M162.816,29.794C155.837,29.794 151.877,25.212 151.877,18.596C151.877,11.948 156.167,7.397 163.307,7.397C165.761,7.397 168.156,7.906 169.367,8.565L167.663,12.546C166.746,12.068 165.338,11.707 163.537,11.707C160.062,11.707 157.445,13.894 157.445,18.567C157.445,23.206 159.835,25.542 162.421,25.542C163.273,25.542 163.895,25.422 164.256,25.301L164.256,20.184L161.406,20.184L161.406,16.378L169.464,16.378L169.464,28.626C168.121,29.287 165.6,29.794 162.816,29.794" style="fill:rgb(148,148,148);fill-rule:nonzero;"/>
        </g>
        <g transform="matrix(1,0,0,1,-0.0007,-0.0001)">
            <path d="M29.503,29.794C22.524,29.794 18.564,25.212 18.564,18.596C18.564,11.948 22.854,7.397 29.995,7.397C32.451,7.397 34.844,7.906 36.056,8.565L34.351,12.546C33.434,12.068 32.027,11.707 30.225,11.707C26.752,11.707 24.131,13.894 24.131,18.567C24.131,23.206 26.804,25.368 29.39,25.409C31.23,25.47 32.899,24.62 34.147,23.985L36.153,28.626C34.809,29.287 32.288,29.794 29.503,29.794" style="fill:rgb(148,148,148);fill-rule:nonzero;"/>
        </g>
        <g transform="matrix(1,0,0,1,-0.0007,-0.0001)">
            <path d="M76.113,11.28C73.28,11.28 71.284,13.353 71.204,17.385L80.22,16.147C80.22,12.914 78.626,11.28 76.113,11.28M85.41,18.941L71.562,20.817C72.042,23.968 74.358,25.524 77.509,25.524C79.665,25.524 81.978,24.965 83.495,24.169L85.051,28.237C83.255,29.157 80.22,29.794 77.111,29.794C70.006,29.794 66.258,25.167 66.258,18.542C66.258,11.959 69.967,7.328 76.232,7.328C82.177,7.328 85.49,11.241 85.49,17.105C85.49,17.703 85.49,18.301 85.41,18.941" style="fill:rgb(148,148,148);fill-rule:nonzero;"/>
        </g>
        <g transform="matrix(1,0,0,1,-0.0007,-0.0001)">
            <path d="M99.147,18.941C95.156,19.141 91.644,19.501 91.644,22.734C91.644,24.767 93.241,25.924 96.074,25.924C97.23,25.924 98.587,25.725 99.147,25.485L99.147,18.941ZM96.233,29.795C89.77,29.795 86.537,27.239 86.537,22.85C86.537,16.985 92.641,15.828 99.147,15.468L99.147,14.354C99.147,12.118 97.59,11.28 95.117,11.28C93.08,11.28 90.607,11.917 89.09,12.556L87.734,8.886C89.529,8.128 92.602,7.328 95.714,7.328C101.221,7.328 104.294,9.483 104.294,14.99L104.294,28.237C102.697,29.075 99.463,29.795 96.233,29.795" style="fill:rgb(148,148,148);fill-rule:nonzero;"/>
        </g>
        <g transform="matrix(1,0,0,1,-0.0007,-0.0001)">
            <path d="M127.113,5.864C125.398,5.864 124,4.549 124,2.911C124,1.277 125.398,0 127.113,0C128.829,0 130.225,1.277 130.225,2.911C130.225,4.549 128.829,5.864 127.113,5.864" style="fill:rgb(148,148,148);fill-rule:nonzero;"/>
        </g>
        <g transform="matrix(1,0,0,1,-0.0007,-0.0001)">
            <rect x="124.399" y="7.807" width="5.426" height="21.509" style="fill:rgb(148,148,148);fill-rule:nonzero;"/>
        </g>
        <g transform="matrix(1,0,0,1,-0.0007,-0.0001)">
            <path d="M144.482,29.316L144.482,15.15C144.482,12.996 143.165,11.68 140.69,11.68C139.414,11.68 138.176,11.917 137.46,12.197L137.46,29.316L132.032,29.316L132.032,8.886C134.306,7.97 137.06,7.329 140.611,7.329C146.996,7.329 149.95,9.964 149.95,14.591L149.95,29.316L144.482,29.316Z" style="fill:rgb(148,148,148);fill-rule:nonzero;"/>
        </g>
        <g transform="matrix(1,0,0,1,-0.0007,-0.0001)">
            <path d="M176.042,2.952C176.042,1.317 174.594,0 172.754,0C170.913,0 169.464,1.317 169.464,2.952C169.464,4.587 170.913,5.902 172.754,5.902C174.594,5.902 176.042,4.587 176.042,2.952M175.548,2.952C175.548,4.363 174.332,5.5 172.754,5.5C171.172,5.5 169.945,4.363 169.945,2.952C169.945,1.541 171.172,0.404 172.754,0.404C174.332,0.404 175.548,1.541 175.548,2.952M174.298,4.576L173.543,3.324C173.448,3.175 173.342,3.059 173.213,2.995L173.213,2.973C173.707,2.877 174.085,2.601 174.085,2.113C174.085,1.53 173.567,1.179 172.67,1.179C172.315,1.179 171.916,1.233 171.62,1.359L171.62,4.576L172.08,4.576L172.08,3.111L172.481,3.111C172.8,3.111 172.966,3.194 173.095,3.419L173.767,4.576L174.298,4.576ZM173.613,2.124C173.613,2.591 173.261,2.761 172.576,2.761L172.08,2.761L172.08,1.604C172.222,1.561 172.457,1.541 172.682,1.541C173.32,1.541 173.613,1.762 173.613,2.124" style="fill:rgb(148,148,148);fill-rule:nonzero;"/>
        </g>
    </g>
</svg>
