<svg width="456" height="124" viewBox="0 0 456 124" fill="none" xmlns="http://www.w3.org/2000/svg">
<path d="M38.5 76.5L35.3 65.2H17.6L14.4 76.5H0.699997L18.7 20.8H34.2L52.2 76.5H38.5ZM27.9 38.6C27 35.4 26.5 31.6 26.5 31.6H26.4C26.4 31.6 25.9 35.4 25 38.6L20.1 55.8H32.9L27.9 38.6Z" fill="#F29100"/>
<path d="M154.3 76.6V53.9H132.1V76.6H119V20.8H132.1V43.1H154.3V20.8H167.4V76.5L154.3 76.6Z" fill="#585858"/>
<path d="M301.2 31.8V76.6H288.1V31.8H272.8V20.8H317.3V31.7L301.2 31.8Z" fill="#585858"/>
<path d="M421.8 77.8C403.8 77.8 393.5 66 393.5 48.8C393.5 31.6 404.6 19.8 423.1 19.8C429.4 19.8 435.6 21.1 438.8 22.8L434.4 33.1C432 31.9 428.4 30.9 423.7 30.9C414.7 30.9 407.9 36.6 407.9 48.6C407.9 60.6 414.1 66.6 420.8 66.6C423 66.6 424.6 66.3 425.5 66V52.8H418.1V43H439V74.7C435.5 76.4 429 77.8 421.8 77.8Z" fill="#585858"/>
<path d="M77 77.8C59 77.8 48.7 66 48.7 48.8C48.7 31.6 59.8 19.8 78.3 19.8C84.7 19.8 90.8 21.1 94 22.8L89.6 33.1C87.2 31.9 83.6 30.9 78.9 30.9C69.9 30.9 63.1 36.6 63.1 48.6C63.1 60.6 70 66.2 76.7 66.3C81.5 66.5 85.8 64.3 89 62.6L94.2 74.6C90.7 76.4 84.2 77.8 77 77.8Z" fill="#F29100"/>
<path d="M221.6 49.7L185.8 54.6C187 62.7 193 66.8 201.2 66.8C206.8 66.8 212.8 65.4 216.7 63.3L220.7 73.8C216.1 76.2 208.2 77.8 200.2 77.8C181.8 77.8 172.1 65.8 172.1 48.7C172.1 31.7 181.7 19.7 197.9 19.7C213.3 19.7 221.8 29.8 221.8 45C221.8 46.5 221.8 48 221.6 49.7ZM197.5 29.9C190.2 29.9 185 35.3 184.8 45.7L208.1 42.5C208.2 34.1 204 29.9 197.5 29.9Z" fill="#585858"/>
<path d="M249.6 77.8C232.9 77.8 224.5 71.2 224.5 59.8C224.5 44.6 240.3 41.6 257.1 40.7V37.8C257.1 32 253.1 29.9 246.7 29.9C241.4 29.9 235 31.5 231.1 33.2L227.6 23.7C232.2 21.7 240.2 19.7 248.2 19.7C262.4 19.7 270.4 25.3 270.4 39.5V73.8C266.3 75.9 257.9 77.8 249.6 77.8ZM257.1 49.7C246.8 50.2 237.7 51.1 237.7 59.5C237.7 64.8 241.8 67.8 249.2 67.8C252.2 67.8 255.7 67.3 257.1 66.7C257.1 66.6 257.1 49.7 257.1 49.7Z" fill="#585858"/>
<path d="M329.4 15.9C325 15.9 321.3 12.5 321.3 8.3C321.3 4.1 324.9 0.799999 329.4 0.799999C333.8 0.799999 337.4 4.1 337.4 8.3C337.5 12.5 333.9 15.9 329.4 15.9Z" fill="#F29100"/>
<path d="M336.4 20.9H322.4V76.5H336.4V20.9Z" fill="#585858"/>
<path d="M374.4 76.5V39.9C374.4 34.3 371 30.9 364.6 30.9C361.3 30.9 358.1 31.5 356.2 32.2V76.5H342.2V23.7C348.1 21.3 355.2 19.7 364.4 19.7C380.9 19.7 388.6 26.5 388.6 38.5V76.6H374.4V76.5Z" fill="#585858"/>
<path d="M449.7 6.2C449.7 7.4 448.8 7.8 447 7.8H445.7V4.8C446.1 4.7 446.7 4.6 447.3 4.6C448.9 4.7 449.7 5.3 449.7 6.2ZM451.5 12.5L449.5 9.3C449.3 8.9 449 8.6 448.6 8.5V8.4C449.9 8.2 450.9 7.4 450.9 6.2C450.9 4.7 449.6 3.8 447.2 3.8C446.3 3.8 445.3 3.9 444.5 4.3V12.6H445.7V8.8H446.7C447.5 8.8 448 9 448.3 9.6L450 12.6H451.5V12.5ZM454.7 8.3C454.7 11.9 451.6 14.9 447.5 14.9C443.4 14.9 440.2 12 440.2 8.3C440.2 4.6 443.4 1.7 447.5 1.7C451.6 1.7 454.7 4.7 454.7 8.3ZM456 8.3C456 4.1 452.3 0.700001 447.5 0.700001C442.7 0.700001 439 4.1 439 8.3C439 12.5 442.7 15.9 447.5 15.9C452.2 16 456 12.6 456 8.3Z" fill="#585858"/>
<path d="M10.3 116.2C9.8 116.5 8.99999 116.6 8.09999 116.6C6.59999 116.6 5.39999 116.2 4.59999 115.3C3.79999 114.5 3.39999 113.2 3.39999 111.6V101.9H1.09999V99.3H3.39999V95.3L6.79999 94.3V99.3H10.3V101.9H6.79999V111.4C6.79999 112.8 7.59999 113.6 9.09999 113.6C9.49999 113.6 9.9 113.5 10.3 113.4V116.2Z" fill="#585858"/>
<path d="M27.8 106.4C27.8 107 27.8 107.4 27.8 107.7L16.5 109.3C16.7 110.8 17.2 111.9 18.1 112.7C19 113.5 20.2 113.9 21.7 113.9C23.6 113.9 25.1 113.6 26.4 112.9L27.4 115.5C25.9 116.3 23.9 116.7 21.4 116.7C18.7 116.7 16.7 115.9 15.2 114.3C13.7 112.7 13 110.5 13 107.8C13 105.2 13.7 103 15.1 101.4C16.5 99.8 18.4 98.9 20.7 98.9C22.9 98.9 24.6 99.6 25.9 100.9C27.2 102.3 27.8 104.1 27.8 106.4ZM24.5 105.9C24.5 104.4 24.1 103.3 23.5 102.6C22.9 101.9 21.9 101.5 20.7 101.5C19.3 101.5 18.3 102 17.5 103C16.7 104 16.3 105.3 16.3 107.1L24.5 105.9Z" fill="#585858"/>
<path d="M46.1 107.7C46.1 110.4 45.4 112.5 44 114.1C42.6 115.7 40.7 116.5 38.2 116.5C37.2 116.5 36.2 116.4 35.4 116.1V123.1H32V100.1C33.5 99.3 35.5 98.9 37.9 98.9C40.5 98.9 42.6 99.7 44 101.2C45.4 102.8 46.1 104.9 46.1 107.7ZM42.7 107.7C42.7 105.8 42.3 104.3 41.5 103.3C40.7 102.2 39.5 101.7 38 101.7C37 101.7 36.2 101.8 35.5 102.1V113.5C36.1 113.8 36.9 113.9 38 113.9C39.5 113.9 40.7 113.3 41.5 112.2C42.3 111 42.7 109.5 42.7 107.7Z" fill="#585858"/>
<path d="M64.4 106.4C64.4 107 64.4 107.4 64.4 107.7L53.1 109.3C53.3 110.8 53.8 111.9 54.7 112.7C55.6 113.5 56.8 113.9 58.3 113.9C60.2 113.9 61.7 113.6 63 112.9L64 115.5C62.5 116.3 60.5 116.7 58 116.7C55.3 116.7 53.3 115.9 51.8 114.3C50.3 112.7 49.6 110.5 49.6 107.8C49.6 105.2 50.3 103 51.7 101.4C53.1 99.8 55 98.9 57.3 98.9C59.5 98.9 61.2 99.6 62.5 100.9C63.8 102.3 64.4 104.1 64.4 106.4ZM61.1 105.9C61.1 104.4 60.7 103.3 60.1 102.6C59.5 101.9 58.5 101.5 57.3 101.5C55.9 101.5 54.9 102 54.1 103C53.3 104 52.9 105.3 52.9 107.1L61.1 105.9Z" fill="#585858"/>
<path d="M72.1 116.3H68.6V91.4H72.1V116.3Z" fill="#585858"/>
<path d="M90.7 116.3H87.2V104.9C87.2 103.9 86.9 103.1 86.3 102.5C85.7 101.9 84.8 101.6 83.6 101.6C82.3 101.6 81.3 101.8 80.5 102.1V116.2H77V100C79 99.2 81.2 98.8 83.6 98.8C86 98.8 87.7 99.3 88.9 100.3C90.1 101.3 90.7 102.7 90.7 104.5V116.3Z" fill="#585858"/>
<path d="M108 115.5C106.5 116.3 104.5 116.7 101.9 116.7C99.5 116.7 97.6 116.2 96.4 115.3C95.2 114.4 94.5 113.1 94.5 111.3C94.5 110.4 94.7 109.6 95.1 108.9C95.5 108.2 96 107.7 96.6 107.3C97.2 106.9 98 106.6 98.9 106.3C99.9 106 100.8 105.8 101.6 105.7C102.5 105.6 103.5 105.5 104.7 105.4V104.3C104.7 102.4 103.5 101.4 101.1 101.4C99.4 101.4 97.9 101.7 96.4 102.4L95.5 100C97.3 99.2 99.3 98.8 101.5 98.8C105.9 98.8 108.1 100.7 108.1 104.6L108 115.5ZM104.7 113.7V107.7C104 107.7 103.4 107.8 103 107.8C102.6 107.8 102 107.9 101.4 108C100.8 108.1 100.3 108.2 99.9 108.4C99.5 108.6 99.2 108.8 98.8 109C98.4 109.2 98.2 109.6 98 109.9C97.8 110.3 97.7 110.7 97.7 111.2C97.7 112.1 98 112.8 98.7 113.3C99.4 113.8 100.4 114.1 101.7 114.1C103.1 114.2 104 114 104.7 113.7ZM105.7 93.1L102.4 97.3H100L102.3 93.1C102.8 92.6 103.5 92.3 104.3 92.3C105 92.3 105.5 92.6 105.7 93.1Z" fill="#585858"/>
<path d="M131.7 115.5C130.5 116.3 129.1 116.7 127.3 116.7C125.2 116.7 123.4 115.9 122 114.4C120.5 112.9 119.8 110.7 119.8 107.8C119.8 104.9 120.5 102.7 122 101.2C123.5 99.7 125.2 98.9 127.3 98.9C129 98.9 130.5 99.3 131.7 100.1L130.6 102.6C129.8 102.1 128.9 101.8 127.8 101.8C126.6 101.8 125.5 102.3 124.7 103.3C123.9 104.3 123.5 105.8 123.5 107.8C123.5 109.8 123.9 111.3 124.8 112.3C125.7 113.3 126.7 113.8 127.9 113.8C129 113.8 129.9 113.5 130.7 113L131.7 115.5ZM131.2 93.6L128 96.9C127.6 97.3 127.2 97.5 126.7 97.5C126.2 97.5 125.8 97.3 125.4 96.9L122.2 93.6L123.6 92.4L126.7 95.1L129.8 92.4L131.2 93.6Z" fill="#585858"/>
<path d="M148.9 106.4C148.9 107 148.9 107.4 148.9 107.7L137.6 109.3C137.8 110.8 138.3 111.9 139.2 112.7C140.1 113.5 141.3 113.9 142.8 113.9C144.7 113.9 146.2 113.6 147.5 112.9L148.5 115.5C147 116.3 145 116.7 142.5 116.7C139.8 116.7 137.8 115.9 136.3 114.3C134.8 112.7 134.1 110.5 134.1 107.8C134.1 105.2 134.8 103 136.2 101.4C137.6 99.8 139.5 98.9 141.8 98.9C144 98.9 145.7 99.6 147 100.9C148.3 102.3 148.9 104.1 148.9 106.4ZM145.6 105.9C145.6 104.4 145.2 103.3 144.6 102.6C143.9 101.8 143 101.5 141.8 101.5C140.4 101.5 139.4 102 138.6 103C137.8 104 137.4 105.3 137.4 107.1L145.6 105.9Z" fill="#585858"/>
<path d="M161.6 99L160.9 101.9C160.4 101.8 159.8 101.7 159.2 101.7C158.1 101.7 157.2 101.8 156.5 102.1V116.3H153V100.1C154.9 99.3 157.1 98.9 159.6 98.9C160.5 98.9 161.2 99 161.6 99Z" fill="#585858"/>
<path d="M179.2 107.7C179.2 110.4 178.5 112.5 177.1 114.1C175.7 115.7 173.8 116.5 171.3 116.5C170.3 116.5 169.3 116.4 168.5 116.1V123.1H165V100.1C166.5 99.3 168.5 98.9 170.9 98.9C173.5 98.9 175.6 99.7 177 101.2C178.5 102.8 179.2 104.9 179.2 107.7ZM175.7 107.7C175.7 105.8 175.3 104.3 174.5 103.3C173.7 102.2 172.5 101.7 171 101.7C170 101.7 169.2 101.8 168.5 102.1V113.5C169.1 113.8 169.9 113.9 171 113.9C172.5 113.9 173.7 113.3 174.5 112.2C175.3 111 175.7 109.5 175.7 107.7Z" fill="#585858"/>
<path d="M196 115.5C194.5 116.3 192.5 116.7 189.9 116.7C187.5 116.7 185.6 116.2 184.4 115.3C183.2 114.4 182.5 113.1 182.5 111.3C182.5 110.4 182.7 109.6 183.1 108.9C183.5 108.2 184 107.7 184.6 107.3C185.2 106.9 186 106.6 186.9 106.3C187.9 106 188.8 105.8 189.6 105.7C190.5 105.6 191.5 105.5 192.7 105.4V104.3C192.7 102.4 191.5 101.4 189.1 101.4C187.4 101.4 185.9 101.7 184.4 102.4L183.5 100C185.3 99.2 187.3 98.8 189.5 98.8C193.9 98.8 196.1 100.7 196.1 104.6L196 115.5ZM192.7 113.7V107.7C192 107.7 191.4 107.8 191 107.8C190.6 107.8 190 107.9 189.4 108C188.8 108.1 188.3 108.2 187.9 108.4C187.5 108.6 187.2 108.8 186.8 109C186.4 109.2 186.2 109.6 186 109.9C185.8 110.3 185.7 110.7 185.7 111.2C185.7 112.1 186 112.8 186.7 113.3C187.4 113.8 188.4 114.1 189.7 114.1C191.1 114.2 192.1 114 192.7 113.7Z" fill="#585858"/>
<path d="M214.3 115.5C212.9 116.3 210.9 116.7 208.4 116.7C205.8 116.7 203.7 115.9 202.3 114.4C200.8 112.8 200.1 110.7 200.1 108C200.1 105.3 200.8 103.2 202.2 101.6C203.6 100 205.5 99.2 208.1 99.2C209.1 99.2 210 99.3 210.9 99.6V91.6H214.4V115.5H214.3ZM210.9 113.5V102.2C210.3 101.9 209.5 101.8 208.5 101.8C207 101.8 205.8 102.4 205 103.5C204.2 104.6 203.8 106.1 203.8 108C203.8 109.9 204.2 111.3 205 112.4C205.8 113.5 207 114 208.5 114C209.5 113.9 210.3 113.8 210.9 113.5Z" fill="#585858"/>
<path d="M222.8 116.3H219.3V91.4H222.8V116.3Z" fill="#585858"/>
<path d="M240.3 115.5C238.8 116.3 236.8 116.7 234.2 116.7C231.8 116.7 229.9 116.2 228.7 115.3C227.5 114.4 226.8 113.1 226.8 111.3C226.8 110.4 227 109.6 227.4 108.9C227.8 108.2 228.3 107.7 228.9 107.3C229.5 106.9 230.3 106.6 231.2 106.3C232.2 106 233.1 105.8 233.9 105.7C234.7 105.6 235.8 105.5 237 105.4V104.3C237 102.4 235.8 101.4 233.4 101.4C231.7 101.4 230.2 101.7 228.7 102.4L227.8 100C229.6 99.2 231.6 98.8 233.8 98.8C238.2 98.8 240.4 100.7 240.4 104.6L240.3 115.5ZM237 113.7V107.7C236.3 107.7 235.7 107.8 235.3 107.8C234.9 107.8 234.3 107.9 233.7 108C233.1 108.1 232.6 108.2 232.2 108.4C231.8 108.6 231.5 108.8 231.1 109C230.7 109.2 230.5 109.6 230.3 109.9C230.1 110.3 230 110.7 230 111.2C230 112.1 230.3 112.8 231 113.3C231.7 113.8 232.7 114.1 234 114.1C235.4 114.2 236.4 114 237 113.7Z" fill="#585858"/>
<path d="M255.8 123.2H253.1V91.5H255.8V123.2Z" fill="#B2B2B2"/>
<path d="M277.1 94.2H276.6C274.3 94.2 273.2 95.2 273.2 97.1V99.2H276.7V101.8H273.2V116.3H269.8V101.8H267.6V99.2H269.8V97.1C269.8 95.2 270.4 93.8 271.5 92.8C272.6 91.8 274.1 91.3 276 91.3C276.4 91.3 276.7 91.3 277.1 91.4V94.2Z" fill="#585858"/>
<path d="M292.5 101.4C293.8 103 294.5 105.2 294.5 107.8C294.5 110.4 293.8 112.6 292.5 114.2C291.2 115.9 289.3 116.7 287 116.7C284.7 116.7 282.8 115.9 281.5 114.2C280.2 112.5 279.5 110.4 279.5 107.8C279.5 105.2 280.2 103 281.5 101.4C282.8 99.8 284.7 98.9 287 98.9C289.3 98.9 291.2 99.7 292.5 101.4ZM289.9 112.2C290.6 111.1 290.9 109.6 290.9 107.7C290.9 105.8 290.6 104.3 289.9 103.2C289.2 102.1 288.2 101.6 286.9 101.6C285.6 101.6 284.6 102.1 283.9 103.2C283.2 104.3 282.9 105.8 282.9 107.7C282.9 109.6 283.2 111.1 283.9 112.2C284.6 113.3 285.6 113.8 286.9 113.8C288.2 113.8 289.3 113.3 289.9 112.2Z" fill="#585858"/>
<path d="M306.2 116.2C305.7 116.5 304.9 116.6 304 116.6C302.5 116.6 301.3 116.2 300.5 115.3C299.7 114.5 299.3 113.2 299.3 111.6V101.9H297V99.3H299.3V95.3L302.7 94.3V99.3H306.2V101.9H302.7V111.4C302.7 112.8 303.5 113.6 305 113.6C305.4 113.6 305.8 113.5 306.2 113.4V116.2Z" fill="#585858"/>
<path d="M322.1 101.4C323.4 103 324.1 105.2 324.1 107.8C324.1 110.4 323.4 112.6 322.1 114.2C320.8 115.9 318.9 116.7 316.6 116.7C314.2 116.7 312.4 115.9 311.1 114.2C309.8 112.5 309.1 110.4 309.1 107.8C309.1 105.2 309.8 103 311.1 101.4C312.4 99.8 314.3 98.9 316.6 98.9C318.9 98.9 320.8 99.7 322.1 101.4ZM319.6 112.2C320.3 111.1 320.6 109.6 320.6 107.7C320.6 105.8 320.3 104.3 319.6 103.2C318.9 102.1 317.9 101.6 316.6 101.6C315.3 101.6 314.3 102.1 313.6 103.2C312.9 104.3 312.6 105.8 312.6 107.7C312.6 109.6 312.9 111.1 313.6 112.2C314.3 113.3 315.3 113.8 316.6 113.8C317.9 113.8 318.9 113.3 319.6 112.2Z" fill="#585858"/>
<path d="M342.6 99.3L336.4 116.4H332.4L326.2 99.3H330.1L333.7 110.7L334.4 113.4H334.5C334.7 112.4 334.9 111.6 335.2 110.7L338.8 99.3H342.6Z" fill="#585858"/>
<path d="M357.8 101.4C359.1 103 359.8 105.2 359.8 107.8C359.8 110.4 359.1 112.6 357.8 114.2C356.5 115.9 354.6 116.7 352.3 116.7C350 116.7 348.1 115.9 346.8 114.2C345.5 112.5 344.8 110.4 344.8 107.8C344.8 105.2 345.5 103 346.8 101.4C348.1 99.8 350 98.9 352.3 98.9C354.6 98.9 356.5 99.7 357.8 101.4ZM355.2 112.2C355.9 111.1 356.2 109.6 356.2 107.7C356.2 105.8 355.9 104.3 355.2 103.2C354.5 102.1 353.5 101.6 352.2 101.6C350.9 101.6 349.9 102.1 349.2 103.2C348.5 104.3 348.2 105.8 348.2 107.7C348.2 109.6 348.5 111.1 349.2 112.2C349.9 113.3 350.9 113.8 352.2 113.8C353.5 113.8 354.6 113.3 355.2 112.2Z" fill="#585858"/>
<path d="M367.5 116.3H364V91.4H367.5V116.3Z" fill="#585858"/>
<path d="M380.3 116.2C379.8 116.5 379 116.6 378.1 116.6C376.6 116.6 375.4 116.2 374.6 115.3C373.8 114.5 373.4 113.2 373.4 111.6V101.9H371.1V99.3H373.4V95.3L376.8 94.3V99.3H380.3V101.9H376.8V111.4C376.8 112.8 377.6 113.6 379.1 113.6C379.5 113.6 379.9 113.5 380.3 113.4V116.2Z" fill="#585858"/>
<path d="M397 115.5C395.5 116.3 393.5 116.7 390.9 116.7C388.5 116.7 386.6 116.2 385.4 115.3C384.2 114.4 383.5 113.1 383.5 111.3C383.5 110.4 383.7 109.6 384.1 108.9C384.5 108.2 385 107.7 385.6 107.3C386.2 106.9 387 106.6 387.9 106.3C388.9 106 389.8 105.8 390.6 105.7C391.5 105.6 392.5 105.5 393.7 105.4V104.3C393.7 102.4 392.5 101.4 390.1 101.4C388.4 101.4 386.9 101.7 385.4 102.4L384.5 100C386.3 99.2 388.3 98.8 390.5 98.8C394.9 98.8 397.1 100.7 397.1 104.6L397 115.5ZM393.7 113.7V107.7C393 107.7 392.4 107.8 392 107.8C391.6 107.8 391 107.9 390.4 108C389.8 108.1 389.3 108.2 388.9 108.4C388.5 108.6 388.2 108.8 387.8 109C387.4 109.2 387.2 109.6 387 109.9C386.8 110.3 386.7 110.7 386.7 111.2C386.7 112.1 387 112.8 387.7 113.3C388.4 113.8 389.4 114.1 390.7 114.1C392 114.2 393 114 393.7 113.7Z" fill="#585858"/>
<path d="M405 92.8C405.4 93.2 405.6 93.6 405.6 94.2C405.6 94.8 405.4 95.2 405 95.6C404.6 96 404.1 96.2 403.5 96.2C402.9 96.2 402.4 96 402 95.6C401.6 95.2 401.4 94.8 401.4 94.2C401.4 93.6 401.6 93.2 402 92.8C402.4 92.4 402.9 92.2 403.5 92.2C404.1 92.2 404.6 92.4 405 92.8ZM405.3 116.3H401.8V99.2H405.3V116.3Z" fill="#585858"/>
<path d="M424.8 116.3H420.8L413.8 107.6H413.7V116.3H410.3V91.4H413.7V106.9H413.8L420.4 99.2H424.4L417.5 107.2L424.8 116.3Z" fill="#585858"/>
<path d="M440.3 115.5C438.8 116.3 436.8 116.7 434.2 116.7C431.8 116.7 429.9 116.2 428.7 115.3C427.5 114.4 426.8 113.1 426.8 111.3C426.8 110.4 427 109.6 427.4 108.9C427.8 108.2 428.3 107.7 428.9 107.3C429.5 106.9 430.3 106.6 431.2 106.3C432.2 106 433.1 105.8 433.9 105.7C434.7 105.6 435.8 105.5 437 105.4V104.3C437 102.4 435.8 101.4 433.4 101.4C431.7 101.4 430.2 101.7 428.7 102.4L427.8 100C429.6 99.2 431.6 98.8 433.8 98.8C438.2 98.8 440.4 100.7 440.4 104.6V115.5H440.3ZM437 113.7V107.7C436.3 107.7 435.7 107.8 435.3 107.8C434.9 107.8 434.3 107.9 433.7 108C433.1 108.1 432.6 108.2 432.2 108.4C431.8 108.6 431.5 108.8 431.1 109C430.7 109.2 430.5 109.6 430.3 109.9C430.1 110.3 430 110.7 430 111.2C430 112.1 430.3 112.8 431 113.3C431.7 113.8 432.7 114.1 434 114.1C435.4 114.2 436.4 114 437 113.7Z" fill="#585858"/>
</svg>
