<svg xmlns="http://www.w3.org/2000/svg" xmlns:xlink="http://www.w3.org/1999/xlink" width="82.296" height="67.394" viewBox="0 0 82.296 67.394">
  <defs>
    <clipPath id="clip-path">
      <rect id="Rectangle_326" data-name="Rectangle 326" width="82.296" height="67.394" fill="none" stroke="#ff8b00" stroke-width="3"/>
    </clipPath>
  </defs>
  <g id="Group_622" data-name="Group 622" transform="translate(0 0.001)">
    <g id="Group_621" data-name="Group 621" transform="translate(0 -0.001)" clip-path="url(#clip-path)">
      <path id="Path_766" data-name="Path 766" d="M54.688,62.886,23.912,32.11a5.573,5.573,0,0,0-5.072-1.56A15.232,15.232,0,0,1,.818,12.1l9.292,9.292L19.007,19l2.381-8.893L12.1.819A15.235,15.235,0,0,1,30.552,18.838a5.571,5.571,0,0,0,1.56,5.076L63.02,54.821a5.814,5.814,0,0,1-.96,8.978A5.928,5.928,0,0,1,54.688,62.886Z" transform="translate(1.149 1.15)" fill="none" stroke="#ff8b00" stroke-linecap="round" stroke-linejoin="round" stroke-width="3"/>
      <path id="Path_767" data-name="Path 767" d="M14.268,62.886,45.044,32.11a5.573,5.573,0,0,1,5.072-1.56A15.232,15.232,0,0,0,68.139,12.1l-9.292,9.292L49.949,19l-2.381-8.893L56.86.819A15.235,15.235,0,0,0,38.4,18.838a5.57,5.57,0,0,1-1.56,5.076L5.936,54.821A5.814,5.814,0,0,0,6.9,63.8a5.928,5.928,0,0,0,7.372-.914" transform="translate(12.191 1.15)" fill="#fff" stroke="#ff8b00" stroke-width="3"/>
      <path id="Path_768" data-name="Path 768" d="M14.268,62.886,45.044,32.11a5.573,5.573,0,0,1,5.072-1.56A15.232,15.232,0,0,0,68.139,12.1l-9.292,9.292L49.949,19l-2.381-8.893L56.86.819A15.235,15.235,0,0,0,38.4,18.838a5.57,5.57,0,0,1-1.56,5.076L5.936,54.821A5.814,5.814,0,0,0,6.9,63.8,5.928,5.928,0,0,0,14.268,62.886Z" transform="translate(12.191 1.15)" fill="none" stroke="#ff8b00" stroke-linecap="round" stroke-linejoin="round" stroke-width="3"/>
    </g>
  </g>
</svg>
