<svg xmlns="http://www.w3.org/2000/svg" width="248.322" height="221.258" viewBox="0 0 248.322 221.258">
  <g id="Group_743" data-name="Group 743" transform="translate(-64 -906.257)">
    <path id="Path_931" data-name="Path 931" d="M0,3.214A3.213,3.213,0,0,1,3.212,0H129.993A3.213,3.213,0,0,1,132,.7l40.163,32.129a3.217,3.217,0,0,1,0,5.019L132,69.98a3.213,3.213,0,0,1-2.006.7H3.212A3.213,3.213,0,0,1,0,67.47Z" transform="translate(64 906.257)" fill="#0050be"/>
    <path id="Path_932" data-name="Path 932" d="M92.565,6.468,87.882,14.38h4.547L99.381,7.2Zm.728,22.227c.592,0,1.228,0,1.772.044V29.6a4.2,4.2,0,0,1-4.5,4.32,2.169,2.169,0,0,1-2.454-2.318c0-2.181,1.953-2.91,5.18-2.91M92.429,15.47c-6.317,0-10.09,2.908-10.409,8h6.135c.046-1.955,1.366-3.046,3.909-3.046,2.274,0,3,.909,3,2.591v1.455c-.59-.046-1.317-.046-1.953-.046-8.364,0-11.726,3-11.726,8.224,0,3.819,2.637,6.365,7,6.365,3.5,0,5.454-1.272,6.679-3.727v3.365h6.592V23.014c0-4.317-2.137-7.544-9.227-7.544m-34.86.454,7.542,22.725h7.866l7.634-22.725h-6.5L69.975,28.968a28.331,28.331,0,0,0-.817,4.09,22.6,22.6,0,0,0-.728-4.09L64.476,15.924ZM45.8,15.47c-6.365,0-10.728,4.317-10.728,11.772,0,7.5,4.363,11.862,10.728,11.862,6.271,0,10.682-4.363,10.682-11.862,0-7.455-4.411-11.772-10.682-11.772m0,5.5c2.773,0,4.044,2.135,4.044,6.273,0,4.226-1.272,6.362-4.044,6.362-2.862,0-4.136-2.137-4.136-6.362,0-4.138,1.274-6.273,4.136-6.273M10.845,15.924V38.649h6.59V26.2c0-3.317,1.728-5,4.092-5,2.183,0,2.819,1.136,2.819,3.454v14h6.633V23.241c0-4.909-2.773-7.772-7.18-7.772a6.7,6.7,0,0,0-6.365,3.5V15.924Z" transform="translate(76.85 913.921)" fill="#fff"/>
    <path id="Path_933" data-name="Path 933" d="M0,37.672a3.213,3.213,0,0,1,3.212-3.214H167.138a3.228,3.228,0,0,1,2.008.7L209.307,67.29a3.217,3.217,0,0,1,0,5.019l-40.161,32.129a3.228,3.228,0,0,1-2.008.7H3.212A3.213,3.213,0,0,1,0,101.928Z" transform="translate(64 947.086)" fill="#43b02a"/>
    <path id="Path_934" data-name="Path 934" d="M128.287,41.566,123.6,49.475h4.545l6.952-7.182Zm.725,22.227c.592,0,1.228,0,1.772.046V64.7a4.2,4.2,0,0,1-4.5,4.32,2.171,2.171,0,0,1-2.454-2.32c0-2.181,1.953-2.908,5.18-2.908m-.863-13.225c-6.317,0-10.09,2.906-10.409,8h6.135c.046-1.955,1.363-3.046,3.909-3.046,2.272,0,3,.909,3,2.591v1.453c-.59-.044-1.318-.044-1.953-.044-8.364,0-11.726,3-11.726,8.226,0,3.819,2.635,6.362,7,6.362,3.5,0,5.456-1.272,6.681-3.727v3.365h6.59V58.112c0-4.32-2.135-7.544-9.225-7.544M92.7,51.02V73.747h6.592V61.293c0-3.319,1.728-5,4.09-5,2.183,0,2.819,1.134,2.819,3.454v14h6.636V58.339c0-4.909-2.773-7.772-7.18-7.772a6.7,6.7,0,0,0-6.365,3.5V51.02Zm-14.451,4.5c2.454,0,3.546,1.68,3.636,4H74.021c.5-2.773,1.77-4,4.226-4m.225-4.953c-6.906,0-11.178,4.726-11.178,11.77,0,7.274,4.226,11.864,10.953,11.864,5.454,0,9.725-3.5,10-8.091H81.7c-.138,1.68-1.545,2.727-3.546,2.727-2.819,0-4.044-1.455-4.271-4.866h14.68c.546-6.861-2.456-13.4-10.092-13.4M63.155,41.931h-6.59V73.747h6.59ZM42.113,55.521c2.456,0,3.546,1.68,3.638,4H37.887c.5-2.773,1.772-4,4.226-4m.227-4.953c-6.909,0-11.18,4.726-11.18,11.77,0,7.274,4.226,11.864,10.953,11.864,5.454,0,9.727-3.5,10-8.091H45.569c-.138,1.68-1.545,2.727-3.546,2.727-2.819,0-4.044-1.455-4.274-4.866H52.432c.544-6.861-2.456-13.4-10.092-13.4M28.66,73.747V68.654H17.845L28.479,56.065V51.02H10.753v5.045H20.8L10.117,68.654v5.093Z" transform="translate(75.988 955.509)" fill="#fff"/>
    <path id="Path_935" data-name="Path 935" d="M0,72.13a3.211,3.211,0,0,1,3.212-3.212H204.95a3.221,3.221,0,0,1,2.008.7l40.158,32.129a3.214,3.214,0,0,1,0,5.019l-40.158,32.127a3.21,3.21,0,0,1-2.008.7H3.212A3.211,3.211,0,0,1,0,136.386Z" transform="translate(64 987.918)" fill="#b5cd00"/>
    <path id="Path_936" data-name="Path 936" d="M149.561,84.966v22.727h6.59V95.465c0-3.633,1.774-5.226,4-5.226,2.045,0,2.681,1.228,2.681,3.592v13.863h6.594V95.331c.044-3.546,1.813-5.093,4-5.093,2.041,0,2.683,1.228,2.683,3.592v13.863h6.59V92.283c0-4.909-2.5-7.772-6.819-7.772a7.706,7.706,0,0,0-7.319,4.545,5.836,5.836,0,0,0-5.772-4.545,6.969,6.969,0,0,0-6.636,3.725V84.966Zm-14.634-9.454-4.68,7.909h4.542l6.955-7.182Zm.728,22.225c.59,0,1.228,0,1.772.046v.863a4.2,4.2,0,0,1-4.5,4.322,2.172,2.172,0,0,1-2.454-2.32c0-2.181,1.953-2.91,5.183-2.91m-.865-13.225c-6.317,0-10.09,2.908-10.4,8h6.133c.044-1.953,1.363-3.044,3.909-3.044,2.274,0,3,.909,3,2.589v1.453c-.59-.044-1.318-.044-1.956-.044-8.362,0-11.722,3-11.722,8.226,0,3.819,2.633,6.362,7,6.362,3.5,0,5.454-1.272,6.681-3.727v3.367h6.592V92.056c0-4.317-2.137-7.544-9.229-7.544m-25.222.454v22.727h6.587V97.147c0-4.453,2.593-6.452,5.5-6.452a4.915,4.915,0,0,1,1.455.179V84.512c-4.317,0-6.137,1.955-6.957,5.045v-4.59Zm-14.818-.454c-6.362,0-10.726,4.32-10.726,11.772,0,7.5,4.363,11.862,10.726,11.862,6.273,0,10.68-4.361,10.68-11.862,0-7.453-4.407-11.772-10.68-11.772m0,5.5c2.773,0,4.044,2.137,4.044,6.273,0,4.226-1.272,6.365-4.044,6.365-2.864,0-4.136-2.139-4.136-6.365,0-4.136,1.272-6.273,4.136-6.273m-24.5.09c2.908,0,4.136,2.183,4.136,6.229s-1.228,6.227-4.136,6.227c-3.227,0-4.547-2.681-4.547-6.135,0-4.046,1.547-6.321,4.547-6.321m1.818-5.589a6.782,6.782,0,0,0-6.365,4.228V84.966h-6.59v32.315h6.59V103.964a6.91,6.91,0,0,0,6.365,4.182c5.454,0,9.137-4.728,9.137-11.816S77.523,84.512,72.07,84.512m-26.861,0c-5.954,0-9.546,3.365-9.546,7.453,0,5.864,4.909,6.546,9.865,7.09,2,.227,3.454.592,3.454,2.181,0,1.092-.73,2.047-3.592,2.047-2.543,0-3.909-1.09-3.952-2.683H35.254c.184,4.365,3.363,7.547,9.954,7.547,7.407,0,10.182-3.317,10.182-7.728,0-5.727-5.456-6.544-9.773-6.952-2.091-.273-3.544-.684-3.544-2.091,0-1.09.773-2.091,3.363-2.091,2.181,0,3.546,1.092,3.59,2.681h6.137c-.181-4.317-3.365-7.453-9.954-7.453m-23.861-9-4.68,7.909h4.545l6.952-7.182ZM10.8,84.966v15.408c0,4.907,2.773,7.772,7.18,7.772a6.628,6.628,0,0,0,6.319-3.5v3.048h6.59V84.966H24.3V97.418c0,3.319-1.726,5-4.09,5-2.135,0-2.773-1.136-2.773-3.454v-14Z" transform="translate(76.8 995.731)" fill="#fff"/>
  </g>
</svg>
