<svg id="Group_719" data-name="Group 719" xmlns="http://www.w3.org/2000/svg" width="339.235" height="36.464" viewBox="0 0 339.235 36.464">
  <path id="Path_892" data-name="Path 892" d="M68.1.364A1.656,1.656,0,0,0,67.064,0H1.657A1.657,1.657,0,0,0,0,1.657V34.806a1.658,1.658,0,0,0,1.657,1.658H67.064A1.647,1.647,0,0,0,68.1,36.1L88.818,19.526a1.656,1.656,0,0,0,0-2.587Z" transform="translate(0 0)" fill="#0050be"/>
  <path id="Path_893" data-name="Path 893" d="M215.584.364A1.661,1.661,0,0,0,214.548,0h-84.57a1.657,1.657,0,0,0-1.657,1.657V34.806a1.658,1.658,0,0,0,1.657,1.658h84.57a1.652,1.652,0,0,0,1.036-.364L236.3,19.526a1.656,1.656,0,0,0,0-2.587Z" transform="translate(-32.341 0)" fill="#43b02a"/>
  <path id="Path_894" data-name="Path 894" d="M409.753,16.938,389.035.364A1.658,1.658,0,0,0,388,0H283.922a1.657,1.657,0,0,0-1.658,1.656v33.15a1.658,1.658,0,0,0,1.658,1.658H388a1.654,1.654,0,0,0,1.036-.364l20.718-16.576a1.655,1.655,0,0,0,0-2.586" transform="translate(-71.14 0)" fill="#b5cd00"/>
  <path id="Path_895" data-name="Path 895" d="M71.9,9.748l3.517.374-3.587,3.7H69.48Z" transform="translate(-17.511 -2.457)" fill="#fff"/>
  <path id="Path_896" data-name="Path 896" d="M26.731,27.911H23.306V20.691c0-1.2-.328-1.782-1.453-1.782-1.221,0-2.111.868-2.111,2.579v6.424h-3.4V16.189h3.4v1.57a3.457,3.457,0,0,1,3.282-1.806c2.275,0,3.705,1.479,3.705,4.011Z" transform="translate(-4.119 -4.021)" fill="#fff"/>
  <path id="Path_897" data-name="Path 897" d="M38.586,28.146c-3.284,0-5.535-2.251-5.535-6.119,0-3.847,2.251-6.074,5.535-6.074,3.236,0,5.51,2.227,5.51,6.074,0,3.868-2.274,6.119-5.51,6.119" transform="translate(-8.33 -4.021)" fill="#fff"/>
  <path id="Path_898" data-name="Path 898" d="M56.518,27.991H52.461L48.569,16.268h3.565L54.174,23a11.74,11.74,0,0,1,.374,2.109A14.445,14.445,0,0,1,54.972,23l2.133-6.73h3.352Z" transform="translate(-12.241 -4.1)" fill="#fff"/>
  <path id="Path_899" data-name="Path 899" d="M224.261,10.711l3.516.375-3.587,3.7h-2.343Z" transform="translate(-55.913 -2.7)" fill="#fff"/>
  <path id="Path_900" data-name="Path 900" d="M153.134,28.956h-9.566V26.329l5.51-6.493H143.9v-2.6h9.145v2.6l-5.487,6.493h5.581Z" transform="translate(-36.184 -4.343)" fill="#fff"/>
  <rect id="Rectangle_399" data-name="Rectangle 399" width="3.4" height="16.413" transform="translate(131.347 8.2)" fill="#fff"/>
  <path id="Path_901" data-name="Path 901" d="M210.915,28.876h-3.424V21.654c0-1.194-.328-1.781-1.453-1.781-1.218,0-2.11.868-2.11,2.579v6.424h-3.4V17.154h3.4v1.57a3.457,3.457,0,0,1,3.282-1.806c2.275,0,3.705,1.477,3.705,4.011Z" transform="translate(-50.54 -4.264)" fill="#fff"/>
  <path id="Path_902" data-name="Path 902" d="M383.344,9.939l3.516.374-3.586,3.706h-2.345Z" transform="translate(-96.007 -2.505)" fill="#fff"/>
  <path id="Path_903" data-name="Path 903" d="M305,9.939l3.516.374-3.588,3.706h-2.344Z" transform="translate(-76.262 -2.505)" fill="#fff"/>
  <path id="Path_904" data-name="Path 904" d="M308.908,28.184h-3.4V26.612a3.417,3.417,0,0,1-3.257,1.806c-2.275,0-3.706-1.475-3.706-4.008V16.461h3.424v7.22c0,1.2.327,1.782,1.432,1.782,1.218,0,2.108-.868,2.108-2.577V16.461h3.4Z" transform="translate(-75.243 -4.149)" fill="#fff"/>
  <path id="Path_905" data-name="Path 905" d="M320.546,28.339c-3.4,0-5.043-1.64-5.136-3.892H318.6c.022.821.727,1.383,2.039,1.383,1.477,0,1.854-.492,1.854-1.055,0-.821-.751-1.008-1.784-1.126-2.555-.28-5.088-.632-5.088-3.656,0-2.111,1.853-3.846,4.926-3.846,3.4,0,5.04,1.619,5.133,3.846h-3.165c-.022-.822-.728-1.384-1.853-1.384-1.335,0-1.734.517-1.734,1.079,0,.726.751.938,1.829,1.079,2.227.21,5.041.632,5.041,3.586,0,2.276-1.429,3.987-5.251,3.987" transform="translate(-79.494 -4.07)" fill="#fff"/>
  <path id="Path_906" data-name="Path 906" d="M373.654,19.43a2.485,2.485,0,0,0-.751-.095c-1.5,0-2.837,1.033-2.837,3.329V28.1h-3.4V16.382h3.4V18.75c.424-1.6,1.361-2.6,3.588-2.6Z" transform="translate(-92.412 -4.069)" fill="#fff"/>
  <path id="Path_907" data-name="Path 907" d="M39.732,19.748c-1.478,0-2.135,1.1-2.135,3.236,0,2.181.657,3.281,2.135,3.281,1.43,0,2.087-1.1,2.087-3.281,0-2.132-.657-3.236-2.087-3.236" transform="translate(-9.476 -4.977)" fill="#2654a1"/>
  <path id="Path_908" data-name="Path 908" d="M70.7,15.953c-3.26,0-5.206,1.5-5.37,4.129H68.49c.025-1.01.705-1.572,2.017-1.572,1.173,0,1.548.469,1.548,1.337v.75c-.305-.025-.681-.025-1.009-.025-4.314,0-6.05,1.549-6.05,4.245,0,1.969,1.361,3.282,3.612,3.282a3.394,3.394,0,0,0,3.447-1.924v1.735h3.4V19.847c0-2.228-1.1-3.894-4.76-3.894m1.36,7.293a2.168,2.168,0,0,1-2.322,2.228,1.119,1.119,0,0,1-1.266-1.2c0-1.126,1.009-1.5,2.673-1.5.3,0,.634,0,.915.022Z" transform="translate(-16.381 -4.021)" fill="#fff"/>
  <path id="Path_909" data-name="Path 909" d="M163.85,16.918c-3.563,0-5.768,2.438-5.768,6.074,0,3.751,2.181,6.12,5.652,6.12,2.814,0,5.017-1.806,5.159-4.174h-3.377a1.626,1.626,0,0,1-1.829,1.407c-1.453,0-2.088-.751-2.2-2.509h7.574c.281-3.541-1.267-6.917-5.206-6.917m-2.3,4.619c.257-1.43.914-2.064,2.181-2.064s1.828.868,1.876,2.064Z" transform="translate(-39.842 -4.264)" fill="#fff"/>
  <path id="Path_910" data-name="Path 910" d="M188.771,16.918c-3.563,0-5.768,2.438-5.768,6.074,0,3.751,2.181,6.12,5.652,6.12,2.815,0,5.017-1.806,5.159-4.174h-3.377a1.626,1.626,0,0,1-1.829,1.407c-1.453,0-2.088-.751-2.2-2.509h7.574c.281-3.541-1.266-6.917-5.206-6.917m-2.3,4.619c.258-1.43.915-2.064,2.181-2.064s1.828.868,1.876,2.064Z" transform="translate(-46.123 -4.264)" fill="#fff"/>
  <path id="Path_911" data-name="Path 911" d="M338.549,16.146a3.5,3.5,0,0,0-3.281,2.181V16.382h-3.4V33.052h3.4v-6.87a3.562,3.562,0,0,0,3.281,2.156c2.815,0,4.714-2.438,4.714-6.094s-1.9-6.1-4.714-6.1m-.938,9.308c-1.664,0-2.343-1.384-2.343-3.165,0-2.086.8-3.259,2.343-3.259,1.5,0,2.136,1.126,2.136,3.214s-.634,3.21-2.136,3.21" transform="translate(-83.642 -4.069)" fill="#fff"/>
  <path id="Path_912" data-name="Path 912" d="M354.58,16.147c-3.284,0-5.533,2.227-5.533,6.073,0,3.868,2.249,6.119,5.533,6.119,3.237,0,5.51-2.251,5.51-6.119,0-3.845-2.273-6.073-5.51-6.073m0,9.355c-1.479,0-2.134-1.1-2.134-3.282,0-2.133.655-3.236,2.134-3.236,1.432,0,2.088,1.1,2.088,3.236,0,2.18-.656,3.282-2.088,3.282" transform="translate(-87.972 -4.07)" fill="#fff"/>
  <path id="Path_913" data-name="Path 913" d="M411.345,28.1h-3.4V20.954c0-1.221-.327-1.854-1.382-1.854-1.124,0-2.039.8-2.062,2.627V28.1h-3.4V20.954c0-1.221-.328-1.854-1.385-1.854-1.148,0-2.063.821-2.063,2.7V28.1h-3.4V16.382h3.4v1.689a3.594,3.594,0,0,1,3.425-1.925,3.009,3.009,0,0,1,2.977,2.345,3.972,3.972,0,0,1,3.776-2.345c2.227,0,3.516,1.479,3.516,4.011Z" transform="translate(-99.365 -4.069)" fill="#fff"/>
  <path id="Path_914" data-name="Path 914" d="M382.145,16.146c-3.26,0-5.207,1.5-5.369,4.127h3.164c.024-1.008.7-1.57,2.018-1.57,1.17,0,1.547.467,1.547,1.335v.751c-.307-.024-.681-.024-1.008-.024-4.315,0-6.051,1.549-6.051,4.244,0,1.97,1.361,3.284,3.612,3.284a3.4,3.4,0,0,0,3.447-1.924V28.1h3.4V20.038c0-2.227-1.1-3.892-4.759-3.892m1.36,7.293a2.168,2.168,0,0,1-2.322,2.228,1.118,1.118,0,0,1-1.266-1.2c0-1.126,1.008-1.5,2.673-1.5.305,0,.633,0,.915.023Z" transform="translate(-94.877 -4.069)" fill="#fff"/>
  <path id="Path_915" data-name="Path 915" d="M223.06,16.918c-3.26,0-5.206,1.5-5.369,4.128h3.165c.022-1.01.7-1.573,2.017-1.573,1.173,0,1.547.47,1.547,1.338v.749c-.3-.024-.679-.024-1.008-.024-4.314,0-6.05,1.548-6.05,4.244,0,1.97,1.361,3.282,3.612,3.282a3.4,3.4,0,0,0,3.447-1.922v1.735h3.4V20.811c0-2.228-1.1-3.893-4.76-3.893m1.36,7.292a2.167,2.167,0,0,1-2.321,2.228,1.12,1.12,0,0,1-1.266-1.2c0-1.125,1.008-1.5,2.673-1.5.305,0,.633,0,.914.023Z" transform="translate(-54.782 -4.264)" fill="#fff"/>
</svg>
