<svg xmlns="http://www.w3.org/2000/svg" xmlns:xlink="http://www.w3.org/1999/xlink" width="185.898" height="63.305" viewBox="0 0 185.898 63.305"><defs><clipPath id="a"><rect width="185.898" height="63.305" transform="translate(0 0)" fill="none" stroke="#ff8b00" stroke-width="1"/></clipPath></defs><g clip-path="url(#a)"><path d="M104.223,50.962a.873.873,0,0,1-.685-.33L65.059,2.281,50.776,20.273a.875.875,0,1,1-1.371-1.088L64.373.331a.875.875,0,0,1,1.37,0l39.164,49.212a.875.875,0,0,1-.684,1.42Z" fill="#ff8b00"/><path d="M65.059,0h80.8a.875.875,0,0,1,.685.33l39.164,49.212a.875.875,0,0,1-.685,1.42h-80.8a.875.875,0,0,1-.685-.33L64.374,1.42A.875.875,0,0,1,65.059,0Zm80.378,1.75H66.874l37.771,47.462h78.563Z" fill="#ff8b00"/><path d="M48.908,50.962a.873.873,0,0,1-.685-.33l-23.475-29.5L1.56,50.344A.875.875,0,1,1,.19,49.256L24.061,19.185a.875.875,0,0,1,1.37,0L49.592,49.542a.875.875,0,0,1-.684,1.42Z" fill="#ff8b00"/></g><path d="M24.747,18.854H64.239a.875.875,0,0,1,.685.33L89.083,49.543a.875.875,0,0,1-.685,1.42H48.906a.875.875,0,0,1-.685-.33L24.062,20.274a.875.875,0,0,1,.685-1.42Zm39.07,1.75H26.562L49.328,49.213H86.583Z" fill="#ff8b00"/><path d="M161.906,39.574H110.228a.875.875,0,0,1-.685-.33L88.51,12.813a.875.875,0,0,1,.685-1.42h51.681a.875.875,0,0,1,.685.33l21.03,26.431a.875.875,0,0,1-.685,1.42Zm-51.256-1.75h49.442L140.454,13.143H91.01Z" fill="#ff8b00"/><path d="M21.031,27.3a.873.873,0,0,1-.685-.33L-.685.545a.875.875,0,0,1,.14-1.23.875.875,0,0,1,1.23.14l21.03,26.426a.875.875,0,0,1-.684,1.42Z" transform="translate(107.957 12.268)" fill="#ff8b00"/><path d="M21.031,27.3a.873.873,0,0,1-.685-.33L-.685.545a.875.875,0,0,1,.14-1.23.875.875,0,0,1,1.23.14l21.03,26.426a.875.875,0,0,1-.684,1.42Z" transform="translate(125.127 12.268)" fill="#ff8b00"/><path d="M43.64.875H0A.875.875,0,0,1-.875,0,.875.875,0,0,1,0-.875H43.64A.875.875,0,0,1,44.515,0,.875.875,0,0,1,43.64.875Z" transform="translate(103.678 20.363)" fill="#ff8b00"/><path d="M43.612.875H0A.875.875,0,0,1-.875,0,.875.875,0,0,1,0-.875H43.612A.875.875,0,0,1,44.487,0,.875.875,0,0,1,43.612.875Z" transform="translate(111.576 30.252)" fill="#ff8b00"/><g clip-path="url(#a)"><path d="M0,12.419a.875.875,0,0,1-.875-.875V0A.875.875,0,0,1,0-.875.875.875,0,0,1,.875,0V11.544A.875.875,0,0,1,0,12.419Z" transform="translate(177.26 50.886)" fill="#ff8b00"/><path d="M0,12.419a.875.875,0,0,1-.875-.875V0A.875.875,0,0,1,0-.875.875.875,0,0,1,.875,0V11.544A.875.875,0,0,1,0,12.419Z" transform="translate(81.813 50.886)" fill="#ff8b00"/><path d="M0,18.376A.875.875,0,0,1-.875,17.5V0A.875.875,0,0,1,0-.875.875.875,0,0,1,.875,0V17.5A.875.875,0,0,1,0,18.376Z" transform="translate(44.494 44.929)" fill="#ff8b00"/><path d="M0,19.376A.875.875,0,0,1-.875,18.5V0A.875.875,0,0,1,0-.875.875.875,0,0,1,.875,0V18.5A.875.875,0,0,1,0,19.376Z" transform="translate(6.005 43.929)" fill="#ff8b00"/><path d="M0,20.376A.875.875,0,0,1-.875,19.5V0A.875.875,0,0,1,0-.875.875.875,0,0,1,.875,0V19.5A.875.875,0,0,1,0,20.376Z" transform="translate(97.898 42.929)" fill="#ff8b00"/></g></svg>