<svg xmlns="http://www.w3.org/2000/svg" xmlns:xlink="http://www.w3.org/1999/xlink" width="160.396" height="63.305" viewBox="0 0 160.396 63.305"><defs><clipPath id="a"><rect width="160.396" height="63.305" transform="translate(0 0)" fill="none" stroke="#ff8b00" stroke-width="1"/></clipPath></defs><g clip-path="url(#a)"><path d="M78.729,50.957a.873.873,0,0,1-.685-.33L39.571,2.281,1.56,50.16A.875.875,0,0,1,.19,49.072L38.885.331A.875.875,0,0,1,39.569,0h0a.875.875,0,0,1,.685.33L79.413,49.537a.875.875,0,0,1-.684,1.42Z" fill="#ff8b00"/><path d="M39.569,0H120.36a.875.875,0,0,1,.685.33l39.161,49.208a.875.875,0,0,1-.685,1.42H78.729a.875.875,0,0,1-.685-.33L38.884,1.42A.875.875,0,0,1,39.569,0Zm80.369,1.75H41.384L79.151,49.208h78.555Z" fill="#ff8b00"/></g><path d="M84.221,39.566a.875.875,0,0,1-.685-.33L62.508,12.812a.875.875,0,0,1,.685-1.42h51.673a.875.875,0,0,1,.685.33l21.028,26.423a.875.875,0,0,1-.685,1.42ZM65.008,13.142,84.643,37.816h49.436L114.444,13.142Z" fill="#ff8b00"/><path d="M21.029,27.3a.873.873,0,0,1-.685-.33L-.685.545a.875.875,0,0,1,.14-1.23.875.875,0,0,1,1.23.14L21.713,25.878a.875.875,0,0,1-.684,1.42Z" transform="translate(81.951 12.267)" fill="#ff8b00"/><path d="M21.029,27.3a.873.873,0,0,1-.685-.33L-.685.545a.875.875,0,0,1,.14-1.23.875.875,0,0,1,1.23.14L21.713,25.878a.875.875,0,0,1-.684,1.42Z" transform="translate(99.118 12.267)" fill="#ff8b00"/><path d="M43.636.875H0A.875.875,0,0,1-.875,0,.875.875,0,0,1,0-.875H43.636A.875.875,0,0,1,44.511,0,.875.875,0,0,1,43.636.875Z" transform="translate(77.672 20.361)" fill="#ff8b00"/><path d="M43.608.875H0A.875.875,0,0,1-.875,0,.875.875,0,0,1,0-.875H43.608A.875.875,0,0,1,44.483,0,.875.875,0,0,1,43.608.875Z" transform="translate(85.569 30.249)" fill="#ff8b00"/><g clip-path="url(#a)"><path d="M0,12.419a.875.875,0,0,1-.875-.875V0A.875.875,0,0,1,0-.875.875.875,0,0,1,.875,0V11.544A.875.875,0,0,1,0,12.419Z" transform="translate(151.419 50.886)" fill="#ff8b00"/><path d="M0,20.376A.875.875,0,0,1-.875,19.5V0A.875.875,0,0,1,0-.875.875.875,0,0,1,.875,0V19.5A.875.875,0,0,1,0,20.376Z" transform="translate(73.036 42.929)" fill="#ff8b00"/><path d="M0,23.218a.875.875,0,0,1-.875-.875V0A.875.875,0,0,1,0-.875.875.875,0,0,1,.875,0V22.343A.875.875,0,0,1,0,23.218Z" transform="translate(8.44 40.087)" fill="#ff8b00"/></g></svg>