<svg xmlns="http://www.w3.org/2000/svg" xmlns:xlink="http://www.w3.org/1999/xlink" width="84.729" height="67.054" viewBox="0 0 84.729 67.054"><defs><clipPath id="a"><rect width="84.729" height="67.054" fill="none" stroke="#889ba2" stroke-width="1.5"/></clipPath></defs><g transform="translate(0 0)" clip-path="url(#a)"><path d="M99.9,47.542a.75.75,0,0,1-.36-1.409A11.4,11.4,0,1,0,84.861,29.448a.75.75,0,0,1-1.215-.88,13.091,13.091,0,0,1,4.5-3.893A12.9,12.9,0,0,1,100.258,47.45.747.747,0,0,1,99.9,47.542Z" transform="translate(-35.412 -10.07)" fill="#889ba2"/><path d="M0,9.907a.75.75,0,0,1-.75-.75V0A.75.75,0,0,1,0-.75.75.75,0,0,1,.75,0V9.157A.75.75,0,0,1,0,9.907Z" transform="translate(60.838 39.905)" fill="#889ba2"/><path d="M6.465,7.215A.748.748,0,0,1,5.935,7L-.53.53A.75.75,0,0,1-.53-.53.75.75,0,0,1,.53-.53L7,5.935a.75.75,0,0,1-.53,1.28Z" transform="translate(70.014 37.37)" fill="#889ba2"/><path d="M9.157.75H0A.75.75,0,0,1-.75,0,.75.75,0,0,1,0-.75H9.157a.75.75,0,0,1,.75.75A.75.75,0,0,1,9.157.75Z" transform="translate(74.702 26.041)" fill="#889ba2"/><path d="M0,7.215A.748.748,0,0,1-.53,7a.75.75,0,0,1,0-1.061L5.935-.53A.75.75,0,0,1,7-.53.75.75,0,0,1,7,.53L.53,7A.748.748,0,0,1,0,7.215Z" transform="translate(70.014 8.249)" fill="#889ba2"/><path d="M0,9.907a.75.75,0,0,1-.75-.75V0A.75.75,0,0,1,0-.75.75.75,0,0,1,.75,0V9.157A.75.75,0,0,1,0,9.907Z" transform="translate(58.685 0.87)" fill="#889ba2"/><path d="M6.465,7.215A.748.748,0,0,1,5.935,7L-.53.53A.75.75,0,0,1-.53-.53.75.75,0,0,1,.53-.53L7,5.935a.75.75,0,0,1-.53,1.28Z" transform="translate(40.894 8.249)" fill="#889ba2"/><path d="M5.262-.75H54.707a6.019,6.019,0,0,1,6.012,6.012V37.6a6.019,6.019,0,0,1-6.012,6.012H5.262A6.019,6.019,0,0,1-.75,37.6V5.262A6.019,6.019,0,0,1,5.262-.75ZM54.707,42.112A4.517,4.517,0,0,0,59.219,37.6V5.262A4.517,4.517,0,0,0,54.707.75H5.262A4.517,4.517,0,0,0,.75,5.262V37.6a4.517,4.517,0,0,0,4.512,4.512Z" transform="translate(0.87 23.322)" fill="#889ba2"/><path d="M54.96.75H0A.75.75,0,0,1-.75,0,.75.75,0,0,1,0-.75H54.96a.75.75,0,0,1,.75.75A.75.75,0,0,1,54.96.75Z" transform="translate(5.878 34.038)" fill="#889ba2"/><path d="M54.96.75H0A.75.75,0,0,1-.75,0,.75.75,0,0,1,0-.75H54.96a.75.75,0,0,1,.75.75A.75.75,0,0,1,54.96.75Z" transform="translate(5.878 44.753)" fill="#889ba2"/><path d="M54.96.75H0A.75.75,0,0,1-.75,0,.75.75,0,0,1,0-.75H54.96a.75.75,0,0,1,.75.75A.75.75,0,0,1,54.96.75Z" transform="translate(5.878 55.469)" fill="#889ba2"/><path d="M0,38.6a.75.75,0,0,1-.75-.75V0A.75.75,0,0,1,0-.75.75.75,0,0,1,.75,0V37.854A.75.75,0,0,1,0,38.6Z" transform="translate(12.863 28.331)" fill="#889ba2"/><path d="M0,38.6a.75.75,0,0,1-.75-.75V0A.75.75,0,0,1,0-.75.75.75,0,0,1,.75,0V37.854A.75.75,0,0,1,0,38.6Z" transform="translate(24.857 28.331)" fill="#889ba2"/><path d="M0,38.6a.75.75,0,0,1-.75-.75V0A.75.75,0,0,1,0-.75.75.75,0,0,1,.75,0V37.854A.75.75,0,0,1,0,38.6Z" transform="translate(36.851 28.331)" fill="#889ba2"/><path d="M0,38.6a.75.75,0,0,1-.75-.75V0A.75.75,0,0,1,0-.75.75.75,0,0,1,.75,0V37.854A.75.75,0,0,1,0,38.6Z" transform="translate(48.845 28.331)" fill="#889ba2"/></g></svg>