<svg xmlns="http://www.w3.org/2000/svg" width="51.303" height="35.789" viewBox="0 0 51.303 35.789">
  <g id="Group_501" data-name="Group 501" transform="translate(1.023 0.75)">
    <path id="Path_466" data-name="Path 466" d="M87.62,276.809l14.855-8.5,14.729,8.251" transform="translate(-87.62 -265.044)" fill="none" stroke="#ff8b00" stroke-linecap="round" stroke-linejoin="round" stroke-width="1.5"/>
    <path id="Path_467" data-name="Path 467" d="M95.145,281.983V303.95h19.613V292.779" transform="translate(-90.16 -269.661)" fill="none" stroke="#ff8b00" stroke-linecap="round" stroke-linejoin="round" stroke-width="1.5"/>
    <path id="Path_468" data-name="Path 468" d="M117.26,266.873l6.095-3.489,21,11.765" transform="translate(-97.624 -263.384)" fill="none" stroke="#ff8b00" stroke-linecap="round" stroke-linejoin="round" stroke-width="1.5"/>
    <rect id="Rectangle_211" data-name="Rectangle 211" width="9.689" height="5.535" transform="translate(9.948 12.63)" fill="none" stroke="#ff8b00" stroke-linecap="round" stroke-linejoin="round" stroke-width="1.5"/>
    <rect id="Rectangle_212" data-name="Rectangle 212" width="9.689" height="5.535" transform="translate(9.948 24.148)" fill="none" stroke="#ff8b00" stroke-linecap="round" stroke-linejoin="round" stroke-width="1.5"/>
    <path id="Path_469" data-name="Path 469" d="M148.511,294.946H122.535l2.165-4.692h21.647Z" transform="translate(-99.404 -272.453)" fill="none" stroke="#ff8b00" stroke-miterlimit="10" stroke-width="1.5"/>
    <path id="Path_470" data-name="Path 470" d="M122.535,309.131h24.894V297.337" transform="translate(-99.404 -274.843)" fill="none" stroke="#ff8b00" stroke-linecap="round" stroke-linejoin="round" stroke-width="1.5"/>
    <rect id="Rectangle_213" data-name="Rectangle 213" width="9.689" height="5.535" transform="translate(34.778 25.624)" fill="none" stroke="#ff8b00" stroke-linecap="round" stroke-linejoin="round" stroke-width="1.5"/>
    <line id="Line_323" data-name="Line 323" y1="7.128" transform="translate(24.604 12.172)" fill="none" stroke="#ff8b00" stroke-linecap="round" stroke-linejoin="round" stroke-width="1.5"/>
    <line id="Line_324" data-name="Line 324" y2="5.17" transform="translate(43.479 12.13)" fill="none" stroke="#ff8b00" stroke-linecap="round" stroke-linejoin="round" stroke-width="1.5"/>
    <path id="Path_471" data-name="Path 471" d="M128.743,310.726v-8.665h4.113v8.665" transform="translate(-101.499 -276.437)" fill="none" stroke="#ff8b00" stroke-linecap="round" stroke-linejoin="round" stroke-width="1.5"/>
  </g>
</svg>
