<svg xmlns="http://www.w3.org/2000/svg" width="59.179" height="59.178" viewBox="0 0 59.179 59.178">
  <g id="Group_616" data-name="Group 616" transform="translate(-276.822 -4240.17)">
    <path id="Path_649" data-name="Path 649" d="M55.2,58.637H4.9A3.441,3.441,0,0,1,1.458,55.2V4.9A3.44,3.44,0,0,1,4.9,1.459H55.2A3.44,3.44,0,0,1,58.637,4.9V55.2A3.441,3.441,0,0,1,55.2,58.637Z" transform="translate(276.364 4239.711)" fill="none" stroke="#ff8c00" stroke-linecap="round" stroke-linejoin="round" stroke-width="2" stroke-dasharray="8 8"/>
    <path id="Path_650" data-name="Path 650" d="M30.048,72.568H5.27a3.812,3.812,0,0,1-3.812-3.812V43.978h28.59Z" transform="translate(276.364 4225.781)" fill="none" stroke="#ff8c00" stroke-linecap="round" stroke-linejoin="round" stroke-width="2"/>
    <line id="Line_534" data-name="Line 534" y1="7.933" x2="7.933" transform="translate(306.412 4261.826)" fill="none" stroke="#ff8c00" stroke-linecap="round" stroke-linejoin="round" stroke-width="2"/>
    <path id="Path_651" data-name="Path 651" d="M54.125,36.3l.341-5.479-5.479.341" transform="translate(260.793 4230.091)" fill="none" stroke="#ff8c00" stroke-linecap="round" stroke-linejoin="round" stroke-width="2"/>
  </g>
</svg>
