<svg xmlns="http://www.w3.org/2000/svg" width="991" height="194.5" viewBox="0 0 991 194.5">
  <g id="Group_469" data-name="Group 469" transform="translate(-462.5 -2428.5)">
    <line id="Line_18" data-name="Line 18" y2="181" transform="translate(960 2429.5)" fill="none" stroke="#ff8b00" stroke-linecap="round" stroke-width="2" stroke-dasharray="3 6"/>
    <line id="Line_21" data-name="Line 21" y2="80" transform="translate(468 2429.5)" fill="none" stroke="#ff8b00" stroke-linecap="round" stroke-width="2" stroke-dasharray="3 6"/>
    <line id="Line_268" data-name="Line 268" y2="80" transform="translate(1452.5 2429.5)" fill="none" stroke="#ff8b00" stroke-linecap="round" stroke-width="2" stroke-dasharray="3 6"/>
    <line id="Line_22" data-name="Line 22" x1="989" transform="translate(463.5 2509.5)" fill="none" stroke="#ff8b00" stroke-linecap="round" stroke-width="2" stroke-dasharray="3 6"/>
    <g id="Polygon_1" data-name="Polygon 1" transform="translate(962.5 2621) rotate(180)" fill="none" stroke-linecap="round" stroke-linejoin="round">
      <path d="M2.5,0,5,4H0Z" stroke="none"/>
      <path d="M 2.5 0 L 0 4 L 5 4 L 2.5 0 M 2.5 -2 C 3.189579963684082 -2 3.830520153045654 -1.644760131835938 4.196000099182129 -1.059999942779541 L 6.696000099182129 2.940000057220459 C 7.081330299377441 3.556540012359619 7.101739883422852 4.333630084991455 6.749279975891113 4.969540119171143 C 6.396830081939697 5.60545015335083 5.727049827575684 6 5 6 L 0 6 C -0.7270498275756836 6 -1.396830081939697 5.60545015335083 -1.749279975891113 4.969540119171143 C -2.101739883422852 4.333630084991455 -2.081329822540283 3.556540012359619 -1.696000099182129 2.940000057220459 L 0.8039999008178711 -1.059999942779541 C 1.169480085372925 -1.644760131835938 1.810420036315918 -2 2.5 -2 Z" stroke="none" fill="#ff8b00"/>
    </g>
  </g>
</svg>
