<svg xmlns="http://www.w3.org/2000/svg" xmlns:xlink="http://www.w3.org/1999/xlink" width="81.131" height="80.195" viewBox="0 0 81.131 80.195">
  <defs>
    <clipPath id="clip-path">
      <rect id="Rectangle_327" data-name="Rectangle 327" width="81.131" height="80.195" fill="#ff8b00"/>
    </clipPath>
  </defs>
  <g id="Group_624" data-name="Group 624" transform="translate(0 0)">
    <g id="Group_623" data-name="Group 623" transform="translate(0 0)" clip-path="url(#clip-path)">
      <path id="Path_769" data-name="Path 769" d="M7.609,49.588H5.374A5.379,5.379,0,0,1,0,44.214V36.789A5.378,5.378,0,0,1,1.78,32.8l2.764-2.491a1.409,1.409,0,0,1,1.987.1v0a1.408,1.408,0,0,1-.1,1.987L3.66,34.893a2.558,2.558,0,0,0-.843,1.9v7.427a2.559,2.559,0,0,0,2.555,2.555H7.609a.413.413,0,0,0,.324-.139.388.388,0,0,0,.1-.305c-.5-6.169-.474-26.919,20.7-35.051a1.407,1.407,0,1,1,1.007,2.628C10.4,21.334,10.383,40.429,10.843,46.1a3.235,3.235,0,0,1-3.234,3.485M54.7,7.054a8.659,8.659,0,1,0,8.658,8.66A8.669,8.669,0,0,0,54.7,7.054m0,20.132A11.473,11.473,0,1,1,66.168,15.714,11.488,11.488,0,0,1,54.7,27.186" transform="translate(0 5.422)" fill="#ff8b00"/>
      <path id="Path_770" data-name="Path 770" d="M29,76.339a1.039,1.039,0,0,1-1.039,1.039H18.175a1.041,1.041,0,0,1-1.041-1.039V73.383a1.041,1.041,0,0,1,1.041-1.041h9.788A1.039,1.039,0,0,1,29,73.383ZM47.825,35.488l-.9-.9a1.4,1.4,0,0,0-1.771-.18,15.817,15.817,0,0,1-5.581,2.315A1.405,1.405,0,0,0,38.444,38.1v1.351h-4.12V38.1A1.4,1.4,0,0,0,33.2,36.721a15.817,15.817,0,0,1-5.581-2.315,1.4,1.4,0,0,0-1.771.18l-.9.9-2.913-2.913.907-.907a1.4,1.4,0,0,0,.175-1.771A16.039,16.039,0,0,1,20.8,24.321,1.407,1.407,0,0,0,19.42,23.2H18.068V19.073H19.42A1.406,1.406,0,0,0,20.8,17.947a15.854,15.854,0,0,1,2.313-5.579,1.4,1.4,0,0,0-.175-1.771l-.9-.9L24.944,6.78l.9.9a1.4,1.4,0,0,0,1.768.175A15.912,15.912,0,0,1,33.2,5.545a1.406,1.406,0,0,0,1.124-1.379V2.812h4.12V4.164a1.4,1.4,0,0,0,1.124,1.379,15.891,15.891,0,0,1,5.583,2.315A1.4,1.4,0,0,0,46.92,7.68l.9-.9L50.737,9.69l-.9.907a1.407,1.407,0,0,0-.175,1.771,15.884,15.884,0,0,1,2.315,5.581,1.41,1.41,0,0,0,1.379,1.124H54.7v4.12H53.351a1.406,1.406,0,0,0-1.379,1.124A15.912,15.912,0,0,1,49.657,29.9a1.4,1.4,0,0,0,.18,1.768l.9.907-1.2,1.194-.009.009Zm13.223,2.728-2.764-2.489a1.41,1.41,0,0,0-1.885,2.1l2.767,2.484a2.566,2.566,0,0,1,.846,1.9v7.425a2.562,2.562,0,0,1-2.557,2.557H53.392a34.93,34.93,0,0,0-1.228-17.06l.745-.745a2.567,2.567,0,0,0,0-3.624l-.294-.294a18.5,18.5,0,0,0,1.851-4.46h.488a2.568,2.568,0,0,0,2.564-2.564V18.822a2.568,2.568,0,0,0-2.564-2.566h-.488A18.573,18.573,0,0,0,52.615,11.8l.294-.3a2.558,2.558,0,0,0,0-3.621L49.641,4.613a2.571,2.571,0,0,0-3.624,0l-.3.294a18.635,18.635,0,0,0-4.46-1.853v-.49A2.566,2.566,0,0,0,38.7,0H34.073A2.563,2.563,0,0,0,31.51,2.564v.49a18.382,18.382,0,0,0-4.458,1.853l-.294-.294a2.567,2.567,0,0,0-3.624,0L19.866,7.881a2.547,2.547,0,0,0,0,3.621l.294.3a18.673,18.673,0,0,0-1.853,4.458h-.41a2.637,2.637,0,0,0-2.641,2.566v4.622a2.64,2.64,0,0,0,2.641,2.566h.41a18.65,18.65,0,0,0,1.851,4.455l-.292.3a2.563,2.563,0,0,0,0,3.624l3.266,3.268a2.565,2.565,0,0,0,3.626,0l.3-.292A18.475,18.475,0,0,0,31.51,39.21v.49a2.568,2.568,0,0,0,2.564,2.564H38.7A2.568,2.568,0,0,0,41.259,39.7v-.49a18.475,18.475,0,0,0,4.458-1.848l.3.3a2.571,2.571,0,0,0,3.624,0l.262-.267c1.028,3.708,2.53,11.794-.934,19.688C46.045,63.729,40.2,68.838,31.651,72.328a3.847,3.847,0,0,0-3.69-2.8h-9.79a3.86,3.86,0,0,0-3.854,3.856v2.956a3.863,3.863,0,0,0,3.854,3.856h9.79a3.863,3.863,0,0,0,3.856-3.856V75.3c9.752-3.769,16.4-9.512,19.724-17.1a27.006,27.006,0,0,0,1.146-3.2h4.761a5.38,5.38,0,0,0,5.372-5.372V42.211a5.361,5.361,0,0,0-1.773-4" transform="translate(18.311 0.001)" fill="#ff8b00"/>
    </g>
  </g>
</svg>
