<?xml version="1.0" encoding="utf-8"?>
<!-- Generator: Adobe Illustrator 24.2.1, SVG Export Plug-In . SVG Version: 6.00 Build 0)  -->
<svg version="1.1" id="Vrstva_1" xmlns="http://www.w3.org/2000/svg" xmlns:xlink="http://www.w3.org/1999/xlink" x="0px" y="0px"
	 width="39.685px" height="39.685px" viewBox="0 0 39.685 39.685" style="enable-background:new 0 0 39.685 39.685;"
	 xml:space="preserve">
<style type="text/css">
	.st0{fill:none;stroke:#FF8C00;stroke-width:0.753;}
	.st1{fill:none;stroke:#FF8C00;stroke-width:0.753;stroke-linecap:round;stroke-linejoin:round;stroke-miterlimit:10;}
</style>
<g>
	<path class="st0" d="M19.888,37.953c9.977,0,18.066-8.088,18.066-18.066c0-9.977-8.089-18.065-18.066-18.065
		c-9.977,0-18.066,8.088-18.066,18.065C1.822,29.865,9.911,37.953,19.888,37.953z"/>
	<path class="st1" d="M11.392,22.921l1.153-0.306 M10.383,19.117l1.153-0.306 M11.056,21.653l0.741-0.196 M10.719,20.385
		l0.741-0.196 M10.046,17.849l0.741-0.197 M9.71,16.581l0.741-0.197 M9.373,15.313l1.153-0.306 M9.036,14.045l0.741-0.197
		 M8.7,12.777l0.741-0.197 M8.363,11.509l1.153-0.306 M17.878,10.449l-6.642,1.763l1.763,6.641L17.878,10.449z M23.087,6.379
		L8.06,10.367l3.989,15.027L23.087,6.379z M30.121,20.034c0.761,0.391,1.063,1.334,0.671,2.096l-2.121,4.123 M27.053,18.455
		l3.139,1.615 M21.898,32.33c-0.142-0.073-0.265-0.168-0.378-0.271c-0.004,0.008-0.012,0.012-0.016,0.02l-0.303,0.589
		c-0.126,0.245-0.029,0.548,0.216,0.674s0.548,0.028,0.674-0.216l0.303-0.589c0.007-0.014,0.007-0.03,0.012-0.045
		C22.234,32.462,22.062,32.415,21.898,32.33z M22.94,26.447l-1.808,3.515h0.001c-0.44,0.865-0.099,1.924,0.765,2.368
		c0.864,0.445,1.923,0.107,2.372-0.753h0.001l1.809-3.515L22.94,26.447z M25.765,28.674l-3.139-1.616l5.949-11.561l3.139,1.616
		L25.765,28.674z M19.912,26.82h2.836 M15.83,20.795h9.913 M16.073,18.462h9.67 M17.427,16.129h8.316 M20.941,30.017h-6.225
		c-0.562,0-1.017-0.455-1.017-1.017v-6.449 M13.699,17.647V12.78c0-0.561,0.455-1.016,1.017-1.016h2.399 M19.962,11.764h6.939
		c0.562,0,1.017,0.455,1.017,1.016v3.994 M27.918,24.49V29c0,0.562-0.455,1.017-1.017,1.017h-1.827"/>
</g>
</svg>
