<?xml version="1.0" standalone="no"?>
<!-- Generator: Adobe Fireworks 10, Export SVG Extension by Aaron Beall (http://fireworks.abeall.com) . Version: 0.6.0  -->
<!DOCTYPE svg PUBLIC "-//W3C//DTD SVG 1.1//EN" "http://www.w3.org/Graphics/SVG/1.1/DTD/svg11.dtd">
<svg id="" viewBox="0 0 15 17" style="background-color:#ffffff00" version="1.1"
	xmlns="http://www.w3.org/2000/svg" xmlns:xlink="http://www.w3.org/1999/xlink" xml:space="preserve"
	x="0px" y="0px" width="15px" height="17px"
>
	<g id="Vrstva%201">
		<path d="M 0 7.1923 C 0 8.9308 0.3154 10.3039 1.3857 11.5476 L 1.3636 17 L 5.4109 13.9891 C 6.2893 14.3352 6.4914 14.3846 7.5 14.3846 C 11.6422 14.3846 15 11.1646 15 7.1923 C 15 3.2201 11.6422 0 7.5 0 C 3.3578 0 0 3.2201 0 7.1923 Z" fill="#ff8c00"/>
		<g>
			<path d="M 7.4219 9 C 7.4219 8.4531 7.5469 8.0313 7.7969 7.7344 L 8.4531 7.0469 C 8.9844 6.4531 9.2656 5.8438 9.2656 5.2188 C 9.2656 4.5313 9.0625 3.9844 8.6563 3.5938 C 8.25 3.2031 7.7031 3 6.9844 3 C 6.2813 3 5.7188 3.2031 5.2969 3.5938 C 4.8594 3.9844 4.6563 4.5156 4.6563 5.1875 L 5.9531 5.1875 C 5.9531 4.8281 6.0469 4.5469 6.2344 4.3281 C 6.4219 4.1094 6.6719 4 6.9844 4 C 7.2969 4 7.5469 4.1094 7.7188 4.3125 C 7.875 4.5156 7.9688 4.8125 7.9688 5.2031 C 7.9688 5.5 7.8906 5.7656 7.75 6.0156 C 7.6563 6.1719 7.4219 6.4375 7.0781 6.7969 C 6.7344 7.1563 6.5 7.4844 6.375 7.7813 C 6.25 8.0938 6.2031 8.5 6.2031 9 L 7.4219 9 L 7.4219 9 ZM 6.2969 10.8594 C 6.4219 10.9531 6.6094 11 6.8438 11 C 7.0781 11 7.2656 10.9531 7.3906 10.8594 C 7.5156 10.7656 7.5938 10.6563 7.5938 10.5 C 7.5938 10.3594 7.5156 10.2344 7.3906 10.1406 C 7.2656 10.0469 7.0781 10 6.8594 10 C 6.625 10 6.4375 10.0469 6.3125 10.1406 C 6.1719 10.2344 6.1094 10.3594 6.1094 10.5 C 6.1094 10.6563 6.1719 10.7656 6.2969 10.8594 L 6.2969 10.8594 Z" fill="#ffffff"/>
		</g>
	</g>
</svg>