<svg xmlns="http://www.w3.org/2000/svg" width="77.409" height="54" viewBox="0 0 77.409 54">
  <g id="Vector_Smart_Object" data-name="Vector Smart Object" transform="translate(-589.591 -2030)">
    <g id="Vector_Smart_Object-2" data-name="Vector Smart Object" transform="translate(503.502 1767.738)">
      <g id="Group_226" data-name="Group 226">
        <path id="Path_103" data-name="Path 103" d="M87.62,281.142,110.044,268.3l22.232,12.454" fill="none" stroke="#ff8b00" stroke-linecap="round" stroke-linejoin="round" stroke-width="2.244"/>
        <path id="Path_104" data-name="Path 104" d="M95.145,281.983V315.14h29.6V298.279" fill="none" stroke="#ff8b00" stroke-linecap="round" stroke-linejoin="round" stroke-width="2.244"/>
        <path id="Path_105" data-name="Path 105" d="M117.26,268.651l9.2-5.267,31.7,17.758" fill="none" stroke="#ff8b00" stroke-linecap="round" stroke-linejoin="round" stroke-width="2.244"/>
        <rect id="Rectangle_57" data-name="Rectangle 57" width="14.625" height="8.355" transform="translate(102.635 282.449)" fill="none" stroke="#ff8b00" stroke-linecap="round" stroke-linejoin="round" stroke-width="2.244"/>
        <rect id="Rectangle_58" data-name="Rectangle 58" width="14.625" height="8.355" transform="translate(102.635 299.834)" fill="none" stroke="#ff8b00" stroke-linecap="round" stroke-linejoin="round" stroke-width="2.244"/>
        <path id="Path_106" data-name="Path 106" d="M161.745,297.337H122.535l3.267-7.082h32.675Z" fill="none" stroke="#ff8b00" stroke-miterlimit="10" stroke-width="2.244"/>
        <path id="Path_107" data-name="Path 107" d="M122.535,315.14h37.576v-17.8" fill="none" stroke="#ff8b00" stroke-linecap="round" stroke-linejoin="round" stroke-width="2.244"/>
        <rect id="Rectangle_59" data-name="Rectangle 59" width="14.625" height="8.355" transform="translate(140.116 302.061)" fill="none" stroke="#ff8b00" stroke-linecap="round" stroke-linejoin="round" stroke-width="2.244"/>
        <line id="Line_85" data-name="Line 85" y1="10.76" transform="translate(124.759 281.756)" fill="none" stroke="#ff8b00" stroke-linecap="round" stroke-linejoin="round" stroke-width="2.244"/>
        <line id="Line_86" data-name="Line 86" y2="7.804" transform="translate(153.249 281.693)" fill="none" stroke="#ff8b00" stroke-linecap="round" stroke-linejoin="round" stroke-width="2.244"/>
        <path id="Path_108" data-name="Path 108" d="M128.743,315.14V302.061h6.208V315.14" fill="none" stroke="#ff8b00" stroke-linecap="round" stroke-linejoin="round" stroke-width="2.244"/>
      </g>
    </g>
    <path id="Color_Overlay" data-name="Color Overlay" d="M638.454,2082.878H598.648v-33.157l7.49,4.123v-3.658h14.625v8.355h-6.091l11.468,6.313,3.166-6.862H661.98l3.267,7.083H626.54l1.712.942v15.812l3.993-1.892V2069.8h6.208v7.2l5.164-2.446v-4.75h10.025l9.97-4.724v17.8Zm-10.193-33.384v0Zm28.49-.064v0Zm-43.205-13.389,22.232,12.454-44.655.383Z" fill="none"/>
  </g>
</svg>
