<?xml version="1.0" encoding="utf-8"?>
<!-- Generator: Adobe Illustrator 24.0.2, SVG Export Plug-In . SVG Version: 6.00 Build 0)  -->
<svg version="1.1" xmlns="http://www.w3.org/2000/svg" xmlns:xlink="http://www.w3.org/1999/xlink" x="0px" y="0px"
	 width="583.54px" height="179.467px" viewBox="0 0 583.54 179.467" enable-background="new 0 0 583.54 179.467"
	 xml:space="preserve">
<g id="Vrstva_2">
</g>
<g id="Vrstva_1">
	<g>
		
			<rect x="446.122" y="45.62" fill="none" stroke="#FF8C00" stroke-width="1.3195" stroke-linecap="round" stroke-linejoin="round" stroke-miterlimit="10" width="86.758" height="133.187"/>
		
			<rect x="483.947" y="163.024" fill="none" stroke="#FF8C00" stroke-width="1.3195" stroke-linecap="round" stroke-linejoin="round" stroke-miterlimit="10" width="10.19" height="15.783"/>
		<g>
			<g>
				
					<rect x="455.674" y="121.953" fill="none" stroke="#FF8C00" stroke-width="1.3195" stroke-linecap="round" stroke-linejoin="round" stroke-miterlimit="10" width="16.159" height="10.726"/>
				
					<line fill="none" stroke="#FF8C00" stroke-width="1.3195" stroke-linecap="round" stroke-linejoin="round" stroke-miterlimit="10" x1="466.261" y1="121.953" x2="466.261" y2="132.679"/>
			</g>
			<g>
				
					<rect x="480.748" y="121.953" fill="none" stroke="#FF8C00" stroke-width="1.3195" stroke-linecap="round" stroke-linejoin="round" stroke-miterlimit="10" width="16.159" height="10.726"/>
				
					<line fill="none" stroke="#FF8C00" stroke-width="1.3195" stroke-linecap="round" stroke-linejoin="round" stroke-miterlimit="10" x1="491.335" y1="121.953" x2="491.335" y2="132.679"/>
			</g>
			<g>
				
					<rect x="505.823" y="121.953" fill="none" stroke="#FF8C00" stroke-width="1.3195" stroke-linecap="round" stroke-linejoin="round" stroke-miterlimit="10" width="16.159" height="10.726"/>
				
					<line fill="none" stroke="#FF8C00" stroke-width="1.3195" stroke-linecap="round" stroke-linejoin="round" stroke-miterlimit="10" x1="516.41" y1="121.953" x2="516.41" y2="132.679"/>
			</g>
		</g>
		<g>
			<g>
				
					<rect x="455.674" y="139.494" fill="none" stroke="#FF8C00" stroke-width="1.3195" stroke-linecap="round" stroke-linejoin="round" stroke-miterlimit="10" width="16.159" height="10.726"/>
				
					<line fill="none" stroke="#FF8C00" stroke-width="1.3195" stroke-linecap="round" stroke-linejoin="round" stroke-miterlimit="10" x1="466.261" y1="139.494" x2="466.261" y2="150.22"/>
			</g>
			<g>
				
					<rect x="480.748" y="139.494" fill="none" stroke="#FF8C00" stroke-width="1.3195" stroke-linecap="round" stroke-linejoin="round" stroke-miterlimit="10" width="16.159" height="10.726"/>
				
					<line fill="none" stroke="#FF8C00" stroke-width="1.3195" stroke-linecap="round" stroke-linejoin="round" stroke-miterlimit="10" x1="491.335" y1="139.494" x2="491.335" y2="150.22"/>
			</g>
			<g>
				
					<rect x="505.823" y="139.494" fill="none" stroke="#FF8C00" stroke-width="1.3195" stroke-linecap="round" stroke-linejoin="round" stroke-miterlimit="10" width="16.159" height="10.726"/>
				
					<line fill="none" stroke="#FF8C00" stroke-width="1.3195" stroke-linecap="round" stroke-linejoin="round" stroke-miterlimit="10" x1="516.41" y1="139.494" x2="516.41" y2="150.22"/>
			</g>
		</g>
		<g>
			<g>
				
					<rect x="505.823" y="157.035" fill="none" stroke="#FF8C00" stroke-width="1.3195" stroke-linecap="round" stroke-linejoin="round" stroke-miterlimit="10" width="16.159" height="10.726"/>
				
					<line fill="none" stroke="#FF8C00" stroke-width="1.3195" stroke-linecap="round" stroke-linejoin="round" stroke-miterlimit="10" x1="516.41" y1="157.035" x2="516.41" y2="167.761"/>
			</g>
		</g>
		
			<line fill="none" stroke="#FF8C00" stroke-width="1.3195" stroke-linecap="round" stroke-linejoin="round" stroke-miterlimit="10" x1="481.162" y1="159.845" x2="497.841" y2="159.845"/>
		<g>
			<g>
				
					<rect x="455.674" y="86.871" fill="none" stroke="#FF8C00" stroke-width="1.3195" stroke-linecap="round" stroke-linejoin="round" stroke-miterlimit="10" width="16.159" height="10.726"/>
				
					<line fill="none" stroke="#FF8C00" stroke-width="1.3195" stroke-linecap="round" stroke-linejoin="round" stroke-miterlimit="10" x1="466.261" y1="86.871" x2="466.261" y2="97.598"/>
			</g>
			<g>
				
					<rect x="480.748" y="86.871" fill="none" stroke="#FF8C00" stroke-width="1.3195" stroke-linecap="round" stroke-linejoin="round" stroke-miterlimit="10" width="16.159" height="10.726"/>
				
					<line fill="none" stroke="#FF8C00" stroke-width="1.3195" stroke-linecap="round" stroke-linejoin="round" stroke-miterlimit="10" x1="491.335" y1="86.871" x2="491.335" y2="97.598"/>
			</g>
			<g>
				
					<rect x="505.823" y="86.871" fill="none" stroke="#FF8C00" stroke-width="1.3195" stroke-linecap="round" stroke-linejoin="round" stroke-miterlimit="10" width="16.159" height="10.726"/>
				
					<line fill="none" stroke="#FF8C00" stroke-width="1.3195" stroke-linecap="round" stroke-linejoin="round" stroke-miterlimit="10" x1="516.41" y1="86.871" x2="516.41" y2="97.598"/>
			</g>
		</g>
		<g>
			<g>
				
					<rect x="455.674" y="104.412" fill="none" stroke="#FF8C00" stroke-width="1.3195" stroke-linecap="round" stroke-linejoin="round" stroke-miterlimit="10" width="16.159" height="10.726"/>
				
					<line fill="none" stroke="#FF8C00" stroke-width="1.3195" stroke-linecap="round" stroke-linejoin="round" stroke-miterlimit="10" x1="466.261" y1="104.412" x2="466.261" y2="115.138"/>
			</g>
			<g>
				
					<rect x="480.748" y="104.412" fill="none" stroke="#FF8C00" stroke-width="1.3195" stroke-linecap="round" stroke-linejoin="round" stroke-miterlimit="10" width="16.159" height="10.726"/>
				
					<line fill="none" stroke="#FF8C00" stroke-width="1.3195" stroke-linecap="round" stroke-linejoin="round" stroke-miterlimit="10" x1="491.335" y1="104.412" x2="491.335" y2="115.138"/>
			</g>
			<g>
				
					<rect x="505.823" y="104.412" fill="none" stroke="#FF8C00" stroke-width="1.3195" stroke-linecap="round" stroke-linejoin="round" stroke-miterlimit="10" width="16.159" height="10.726"/>
				
					<line fill="none" stroke="#FF8C00" stroke-width="1.3195" stroke-linecap="round" stroke-linejoin="round" stroke-miterlimit="10" x1="516.41" y1="104.412" x2="516.41" y2="115.138"/>
			</g>
		</g>
		<g>
			<g>
				
					<rect x="455.674" y="52.788" fill="none" stroke="#FF8C00" stroke-width="1.3195" stroke-linecap="round" stroke-linejoin="round" stroke-miterlimit="10" width="16.159" height="10.726"/>
				
					<line fill="none" stroke="#FF8C00" stroke-width="1.3195" stroke-linecap="round" stroke-linejoin="round" stroke-miterlimit="10" x1="466.261" y1="52.788" x2="466.261" y2="63.514"/>
			</g>
			<g>
				
					<rect x="480.748" y="52.788" fill="none" stroke="#FF8C00" stroke-width="1.3195" stroke-linecap="round" stroke-linejoin="round" stroke-miterlimit="10" width="16.159" height="10.726"/>
				
					<line fill="none" stroke="#FF8C00" stroke-width="1.3195" stroke-linecap="round" stroke-linejoin="round" stroke-miterlimit="10" x1="491.335" y1="52.788" x2="491.335" y2="63.514"/>
			</g>
			<g>
				
					<rect x="505.823" y="52.788" fill="none" stroke="#FF8C00" stroke-width="1.3195" stroke-linecap="round" stroke-linejoin="round" stroke-miterlimit="10" width="16.159" height="10.726"/>
				
					<line fill="none" stroke="#FF8C00" stroke-width="1.3195" stroke-linecap="round" stroke-linejoin="round" stroke-miterlimit="10" x1="516.41" y1="52.788" x2="516.41" y2="63.514"/>
			</g>
		</g>
		<g>
			<g>
				
					<rect x="455.674" y="70.329" fill="none" stroke="#FF8C00" stroke-width="1.3195" stroke-linecap="round" stroke-linejoin="round" stroke-miterlimit="10" width="16.159" height="10.726"/>
				
					<line fill="none" stroke="#FF8C00" stroke-width="1.3195" stroke-linecap="round" stroke-linejoin="round" stroke-miterlimit="10" x1="466.261" y1="70.329" x2="466.261" y2="81.055"/>
			</g>
			<g>
				
					<rect x="480.748" y="70.329" fill="none" stroke="#FF8C00" stroke-width="1.3195" stroke-linecap="round" stroke-linejoin="round" stroke-miterlimit="10" width="16.159" height="10.726"/>
				
					<line fill="none" stroke="#FF8C00" stroke-width="1.3195" stroke-linecap="round" stroke-linejoin="round" stroke-miterlimit="10" x1="491.335" y1="70.329" x2="491.335" y2="81.055"/>
			</g>
			<g>
				
					<rect x="505.823" y="70.329" fill="none" stroke="#FF8C00" stroke-width="1.3195" stroke-linecap="round" stroke-linejoin="round" stroke-miterlimit="10" width="16.159" height="10.726"/>
				
					<line fill="none" stroke="#FF8C00" stroke-width="1.3195" stroke-linecap="round" stroke-linejoin="round" stroke-miterlimit="10" x1="516.41" y1="70.329" x2="516.41" y2="81.055"/>
			</g>
		</g>
		<g>
			
				<path fill="none" stroke="#FF8C00" stroke-width="1.3195" stroke-linecap="round" stroke-linejoin="round" stroke-miterlimit="10" d="
				M468.491,44.324h-15.594c-0.418,0-0.759-0.342-0.759-0.76V20.127c0-0.418,0.342-0.76,0.759-0.76h15.594
				c0.418,0,0.759,0.342,0.759,0.76v23.437C469.251,43.982,468.909,44.324,468.491,44.324z"/>
			
				<line fill="none" stroke="#FF8C00" stroke-width="1.3195" stroke-linecap="round" stroke-linejoin="round" stroke-miterlimit="10" x1="466.529" y1="27.97" x2="466.529" y2="42.459"/>
			<g>
				
					<circle fill="none" stroke="#FF8C00" stroke-width="1.3195" stroke-linecap="round" stroke-linejoin="round" stroke-miterlimit="10" cx="458.636" cy="38.438" r="2.337"/>
				
					<rect x="454.615" y="34.418" fill="none" stroke="#FF8C00" stroke-width="1.3195" stroke-linecap="round" stroke-linejoin="round" stroke-miterlimit="10" width="8.041" height="8.041"/>
			</g>
			<g>
				
					<circle fill="none" stroke="#FF8C00" stroke-width="1.3195" stroke-linecap="round" stroke-linejoin="round" stroke-miterlimit="10" cx="458.636" cy="26.91" r="2.337"/>
				
					<rect x="454.615" y="22.89" fill="none" stroke="#FF8C00" stroke-width="1.3195" stroke-linecap="round" stroke-linejoin="round" stroke-miterlimit="10" width="8.041" height="8.041"/>
			</g>
		</g>
		
			<rect x="454.682" y="160.496" fill="none" stroke="#FF8C00" stroke-width="1.3195" stroke-linecap="round" stroke-linejoin="round" stroke-miterlimit="10" width="13.888" height="18.312"/>
		
			<path fill="none" stroke="#FF8C00" stroke-width="1.3195" stroke-linecap="round" stroke-linejoin="round" stroke-miterlimit="10" d="
			M452.138,40.26h-10.683c-1.196,0-2.165,0.969-2.165,2.165v120.3c0,1.819,1.475,3.294,3.294,3.294h12.098"/>
		<g>
			
				<path fill="none" stroke="#FF8C00" stroke-width="1.3195" stroke-linecap="round" stroke-linejoin="round" stroke-miterlimit="10" d="
				M491.186,44.324h-15.594c-0.418,0-0.76-0.342-0.76-0.76V20.127c0-0.418,0.342-0.76,0.76-0.76h15.594
				c0.418,0,0.76,0.342,0.76,0.76v23.437C491.946,43.982,491.604,44.324,491.186,44.324z"/>
			
				<line fill="none" stroke="#FF8C00" stroke-width="1.3195" stroke-linecap="round" stroke-linejoin="round" stroke-miterlimit="10" x1="489.225" y1="27.97" x2="489.225" y2="42.459"/>
			<g>
				
					<circle fill="none" stroke="#FF8C00" stroke-width="1.3195" stroke-linecap="round" stroke-linejoin="round" stroke-miterlimit="10" cx="481.331" cy="38.438" r="2.337"/>
				
					<rect x="477.31" y="34.418" fill="none" stroke="#FF8C00" stroke-width="1.3195" stroke-linecap="round" stroke-linejoin="round" stroke-miterlimit="10" width="8.041" height="8.041"/>
			</g>
			<g>
				
					<circle fill="none" stroke="#FF8C00" stroke-width="1.3195" stroke-linecap="round" stroke-linejoin="round" stroke-miterlimit="10" cx="481.331" cy="26.91" r="2.337"/>
				
					<rect x="477.31" y="22.89" fill="none" stroke="#FF8C00" stroke-width="1.3195" stroke-linecap="round" stroke-linejoin="round" stroke-miterlimit="10" width="8.041" height="8.041"/>
			</g>
		</g>
		
			<line fill="none" stroke="#FF8C00" stroke-width="1.3195" stroke-linecap="round" stroke-linejoin="round" stroke-miterlimit="10" x1="304.022" y1="115.38" x2="246.238" y2="115.38"/>
		
			<line fill="none" stroke="#FF8C00" stroke-width="1.3195" stroke-linecap="round" stroke-linejoin="round" stroke-miterlimit="10" x1="415.98" y1="115.38" x2="358.196" y2="115.38"/>
		
			<rect x="105.982" y="146.165" fill="none" stroke="#FF8C00" stroke-width="1.3195" stroke-linecap="round" stroke-linejoin="round" stroke-miterlimit="10" width="82.517" height="32.642"/>
		
			<polyline fill="none" stroke="#FF8C00" stroke-width="1.3195" stroke-linecap="round" stroke-linejoin="round" stroke-miterlimit="10" points="
			131.869,146.165 131.869,102.598 50.66,102.598 50.66,178.807 105.982,178.807 		"/>
		
			<polygon fill="none" stroke="#FF8C00" stroke-width="1.3195" stroke-linecap="round" stroke-linejoin="round" stroke-miterlimit="10" points="
			155.15,40.775 168.498,40.775 178.498,146.165 145.15,146.165 		"/>
		
			<polygon fill="none" stroke="#FF8C00" stroke-width="1.3195" stroke-linecap="round" stroke-linejoin="round" stroke-miterlimit="10" points="
			208.498,53.417 217.847,53.417 224.847,178.807 201.498,178.807 		"/>
		
			<line fill="none" stroke="#FF8C00" stroke-width="1.3195" stroke-linecap="round" stroke-linejoin="round" stroke-miterlimit="10" x1="177.211" y1="132.598" x2="204.078" y2="132.598"/>
		
			<line fill="none" stroke="#FF8C00" stroke-width="1.3195" stroke-linecap="round" stroke-linejoin="round" stroke-miterlimit="10" x1="188.498" y1="178.807" x2="201.498" y2="178.807"/>
		<g>
			<g>
				
					<rect x="58.111" y="128.599" fill="none" stroke="#FF8C00" stroke-width="1.3195" stroke-linecap="round" stroke-linejoin="round" stroke-miterlimit="10" width="16.159" height="10.726"/>
				
					<line fill="none" stroke="#FF8C00" stroke-width="1.3195" stroke-linecap="round" stroke-linejoin="round" stroke-miterlimit="10" x1="68.698" y1="128.599" x2="68.698" y2="139.325"/>
			</g>
			<g>
				
					<rect x="83.185" y="128.599" fill="none" stroke="#FF8C00" stroke-width="1.3195" stroke-linecap="round" stroke-linejoin="round" stroke-miterlimit="10" width="16.159" height="10.726"/>
				
					<line fill="none" stroke="#FF8C00" stroke-width="1.3195" stroke-linecap="round" stroke-linejoin="round" stroke-miterlimit="10" x1="93.772" y1="128.599" x2="93.772" y2="139.325"/>
			</g>
			<g>
				
					<rect x="108.259" y="128.599" fill="none" stroke="#FF8C00" stroke-width="1.3195" stroke-linecap="round" stroke-linejoin="round" stroke-miterlimit="10" width="16.159" height="10.726"/>
				
					<line fill="none" stroke="#FF8C00" stroke-width="1.3195" stroke-linecap="round" stroke-linejoin="round" stroke-miterlimit="10" x1="118.846" y1="128.599" x2="118.846" y2="139.325"/>
			</g>
		</g>
		<g>
			<g>
				
					<rect x="58.111" y="111.032" fill="none" stroke="#FF8C00" stroke-width="1.3195" stroke-linecap="round" stroke-linejoin="round" stroke-miterlimit="10" width="16.159" height="10.726"/>
				
					<line fill="none" stroke="#FF8C00" stroke-width="1.3195" stroke-linecap="round" stroke-linejoin="round" stroke-miterlimit="10" x1="68.698" y1="111.032" x2="68.698" y2="121.758"/>
			</g>
			<g>
				
					<rect x="83.185" y="111.032" fill="none" stroke="#FF8C00" stroke-width="1.3195" stroke-linecap="round" stroke-linejoin="round" stroke-miterlimit="10" width="16.159" height="10.726"/>
				
					<line fill="none" stroke="#FF8C00" stroke-width="1.3195" stroke-linecap="round" stroke-linejoin="round" stroke-miterlimit="10" x1="93.772" y1="111.032" x2="93.772" y2="121.758"/>
			</g>
			<g>
				
					<rect x="108.259" y="111.032" fill="none" stroke="#FF8C00" stroke-width="1.3195" stroke-linecap="round" stroke-linejoin="round" stroke-miterlimit="10" width="16.159" height="10.726"/>
				
					<line fill="none" stroke="#FF8C00" stroke-width="1.3195" stroke-linecap="round" stroke-linejoin="round" stroke-miterlimit="10" x1="118.846" y1="111.032" x2="118.846" y2="121.758"/>
			</g>
		</g>
		<g>
			<g>
				
					<rect x="114.086" y="154.313" fill="none" stroke="#FF8C00" stroke-width="1.3195" stroke-linecap="round" stroke-linejoin="round" stroke-miterlimit="10" width="16.159" height="10.726"/>
				
					<line fill="none" stroke="#FF8C00" stroke-width="1.3195" stroke-linecap="round" stroke-linejoin="round" stroke-miterlimit="10" x1="124.673" y1="154.313" x2="124.673" y2="165.039"/>
			</g>
			<g>
				
					<rect x="139.161" y="154.313" fill="none" stroke="#FF8C00" stroke-width="1.3195" stroke-linecap="round" stroke-linejoin="round" stroke-miterlimit="10" width="16.159" height="10.726"/>
				
					<line fill="none" stroke="#FF8C00" stroke-width="1.3195" stroke-linecap="round" stroke-linejoin="round" stroke-miterlimit="10" x1="149.747" y1="154.313" x2="149.747" y2="165.039"/>
			</g>
			<g>
				
					<rect x="164.235" y="154.313" fill="none" stroke="#FF8C00" stroke-width="1.3195" stroke-linecap="round" stroke-linejoin="round" stroke-miterlimit="10" width="16.159" height="10.726"/>
				
					<line fill="none" stroke="#FF8C00" stroke-width="1.3195" stroke-linecap="round" stroke-linejoin="round" stroke-miterlimit="10" x1="174.822" y1="154.313" x2="174.822" y2="165.039"/>
			</g>
		</g>
		<g>
			<g>
				
					<rect x="58.111" y="146.14" fill="none" stroke="#FF8C00" stroke-width="1.3195" stroke-linecap="round" stroke-linejoin="round" stroke-miterlimit="10" width="16.159" height="10.726"/>
				
					<line fill="none" stroke="#FF8C00" stroke-width="1.3195" stroke-linecap="round" stroke-linejoin="round" stroke-miterlimit="10" x1="68.698" y1="146.14" x2="68.698" y2="156.866"/>
			</g>
			<g>
				
					<rect x="83.185" y="146.14" fill="none" stroke="#FF8C00" stroke-width="1.3195" stroke-linecap="round" stroke-linejoin="round" stroke-miterlimit="10" width="16.159" height="10.726"/>
				
					<line fill="none" stroke="#FF8C00" stroke-width="1.3195" stroke-linecap="round" stroke-linejoin="round" stroke-miterlimit="10" x1="93.772" y1="146.14" x2="93.772" y2="156.866"/>
			</g>
		</g>
		
			<polyline fill="none" stroke="#FF8C00" stroke-width="1.3195" stroke-linecap="round" stroke-linejoin="round" stroke-miterlimit="10" points="
			153.764,55.38 161.824,55.38 161.824,61.469 153.187,61.469 		"/>
		
			<polyline fill="none" stroke="#FF8C00" stroke-width="1.3195" stroke-linecap="round" stroke-linejoin="round" stroke-miterlimit="10" points="
			151.015,85.38 161.824,85.38 161.824,91.469 150.438,91.469 		"/>
		
			<polyline fill="none" stroke="#FF8C00" stroke-width="1.3195" stroke-linecap="round" stroke-linejoin="round" stroke-miterlimit="10" points="
			148.096,115.38 161.824,115.38 161.824,121.469 147.518,121.469 		"/>
		
			<line fill="none" stroke="#FF8C00" stroke-width="1.3195" stroke-linecap="round" stroke-linejoin="round" stroke-miterlimit="10" x1="213.173" y1="79.234" x2="207.057" y2="79.234"/>
		
			<line fill="none" stroke="#FF8C00" stroke-width="1.3195" stroke-linecap="round" stroke-linejoin="round" stroke-miterlimit="10" x1="213.173" y1="109.234" x2="205.411" y2="109.234"/>
		
			<line fill="none" stroke="#FF8C00" stroke-width="1.3195" stroke-linecap="round" stroke-linejoin="round" stroke-miterlimit="10" x1="213.173" y1="139.234" x2="203.894" y2="139.234"/>
		
			<path fill="none" stroke="#FF8C00" stroke-width="1.3195" stroke-linecap="round" stroke-linejoin="round" stroke-miterlimit="10" d="
			M157.042,34.424c-1.044-10.607,1.6-15.396,4.315-17.798c4.927-4.359,11.171-1.812,20.764-4.584
			c8.305-2.4,14.246-7.379,18.067-11.382"/>
		
			<path fill="none" stroke="#FF8C00" stroke-width="1.3195" stroke-linecap="round" stroke-linejoin="round" stroke-miterlimit="10" d="
			M166.488,34.571c0.579-3.426,2.009-5.165,3.034-6.067c2.161-1.905,4.657-1.974,13.045-2.427c4.061-0.219,7.248-0.407,8.899-0.506"
			/>
		
			<path fill="none" stroke="#FF8C00" stroke-width="1.3195" stroke-linecap="round" stroke-linejoin="round" stroke-miterlimit="10" d="
			M210.73,48.064c-0.881-8.958,1.351-13.003,3.644-15.031c4.161-3.682,9.434-1.53,17.536-3.872
			c7.014-2.027,12.031-6.232,15.259-9.613"/>
		
			<path fill="none" stroke="#FF8C00" stroke-width="1.3195" stroke-linecap="round" stroke-linejoin="round" stroke-miterlimit="10" d="
			M215.642,48.064c0.489-2.893,1.697-4.362,2.562-5.124c1.826-1.609,3.933-1.667,11.017-2.05c3.43-0.185,6.121-0.344,7.516-0.427"/>
		
			<line fill="none" stroke="#FF8C00" stroke-width="1.3195" stroke-linecap="round" stroke-linejoin="round" stroke-miterlimit="10" x1="0.66" y1="178.807" x2="274.847" y2="178.807"/>
		
			<line fill="none" stroke="#FF8C00" stroke-width="1.3195" stroke-linecap="round" stroke-linejoin="round" stroke-miterlimit="10" x1="582.881" y1="178.807" x2="396.122" y2="178.807"/>
		<g>
			
				<line fill="none" stroke="#FF8C00" stroke-width="1.3195" stroke-linecap="round" stroke-linejoin="round" stroke-miterlimit="10" x1="325.095" y1="109.366" x2="337.124" y2="121.395"/>
			
				<line fill="none" stroke="#FF8C00" stroke-width="1.3195" stroke-linecap="round" stroke-linejoin="round" stroke-miterlimit="10" x1="337.124" y1="109.366" x2="325.095" y2="121.395"/>
			
				<circle fill="none" stroke="#FF8C00" stroke-width="1.3195" stroke-linecap="round" stroke-linejoin="round" stroke-miterlimit="10" cx="331.109" cy="115.38" r="17.087"/>
		</g>
		
			<line fill="none" stroke="#FF8C00" stroke-width="1.3195" stroke-linecap="round" stroke-linejoin="round" stroke-miterlimit="10" x1="568.97" y1="178.807" x2="568.97" y2="167.761"/>
		
			<circle fill="none" stroke="#FF8C00" stroke-width="1.3195" stroke-linecap="round" stroke-linejoin="round" stroke-miterlimit="10" cx="568.97" cy="158.053" r="9.708"/>
		
			<line fill="none" stroke="#FF8C00" stroke-width="1.3195" stroke-linecap="round" stroke-linejoin="round" stroke-miterlimit="10" x1="246.238" y1="178.807" x2="246.238" y2="167.761"/>
		
			<circle fill="none" stroke="#FF8C00" stroke-width="1.3195" stroke-linecap="round" stroke-linejoin="round" stroke-miterlimit="10" cx="246.238" cy="158.053" r="9.708"/>
		
			<line fill="none" stroke="#FF8C00" stroke-width="1.3195" stroke-linecap="round" stroke-linejoin="round" stroke-miterlimit="10" x1="550.289" y1="178.807" x2="550.289" y2="173.284"/>
		
			<circle fill="none" stroke="#FF8C00" stroke-width="1.3195" stroke-linecap="round" stroke-linejoin="round" stroke-miterlimit="10" cx="550.289" cy="168.43" r="4.854"/>
		
			<line fill="none" stroke="#FF8C00" stroke-width="1.3195" stroke-linecap="round" stroke-linejoin="round" stroke-miterlimit="10" x1="30.588" y1="178.807" x2="30.588" y2="173.284"/>
		
			<circle fill="none" stroke="#FF8C00" stroke-width="1.3195" stroke-linecap="round" stroke-linejoin="round" stroke-miterlimit="10" cx="30.588" cy="168.43" r="4.854"/>
	</g>
</g>
</svg>
