<?xml version="1.0" encoding="utf-8"?>
<!-- Generator: Adobe Illustrator 24.0.2, SVG Export Plug-In . SVG Version: 6.00 Build 0)  -->
<svg version="1.1" xmlns="http://www.w3.org/2000/svg" xmlns:xlink="http://www.w3.org/1999/xlink" x="0px" y="0px" width="41px"
	 height="46.688px" viewBox="0 0 41 46.688" enable-background="new 0 0 41 46.688" xml:space="preserve">
<g id="Vrstva_2">
</g>
<g id="Vrstva_1">
	<g>
		<path fill="none" stroke="#FF8C00" stroke-linecap="round" stroke-linejoin="round" stroke-miterlimit="10" d="M34.08,31.126
			v7.627c0,0.95-0.77,1.719-1.719,1.719h-3.09"/>
		<path fill="none" stroke="#FF8C00" stroke-linecap="round" stroke-linejoin="round" stroke-miterlimit="10" d="M20.625,9.605
			h11.735c0.95,0,1.719,0.77,1.719,1.719v6.753"/>
		<path fill="none" stroke="#FF8C00" stroke-linecap="round" stroke-linejoin="round" stroke-miterlimit="10" d="M10.035,19.555
			v-8.23c0-0.95,0.77-1.719,1.719-1.719h4.057"/>
		<path fill="none" stroke="#FF8C00" stroke-linecap="round" stroke-linejoin="round" stroke-miterlimit="10" d="M22.282,40.473
			H11.755c-0.95,0-1.719-0.77-1.719-1.719V27.848"/>
		
			<line fill="none" stroke="#FF8C00" stroke-linecap="round" stroke-linejoin="round" stroke-miterlimit="10" x1="16.34" y1="16.988" x2="30.402" y2="16.988"/>
		
			<line fill="none" stroke="#FF8C00" stroke-linecap="round" stroke-linejoin="round" stroke-miterlimit="10" x1="14.05" y1="20.933" x2="30.402" y2="20.933"/>
		
			<line fill="none" stroke="#FF8C00" stroke-linecap="round" stroke-linejoin="round" stroke-miterlimit="10" x1="13.638" y1="24.877" x2="30.402" y2="24.877"/>
		
			<line fill="none" stroke="#FF8C00" stroke-linecap="round" stroke-linejoin="round" stroke-miterlimit="10" x1="20.541" y1="35.067" x2="25.338" y2="35.067"/>
		<g>
			
				<rect x="29.83" y="16.066" transform="matrix(0.8892 0.4576 -0.4576 0.8892 16.0185 -12.0162)" fill="none" stroke="#FF8C00" stroke-linecap="round" stroke-linejoin="round" stroke-miterlimit="10" width="5.971" height="21.988"/>
			<path fill="none" stroke="#FF8C00" stroke-linecap="round" stroke-linejoin="round" stroke-miterlimit="10" d="M25.663,34.435
				l-3.059,5.944l0.002,0.001c-0.742,1.463-0.166,3.253,1.295,4.005c1.461,0.752,3.252,0.18,4.011-1.274l0.002,0.001l3.059-5.944
				L25.663,34.435z"/>
			<path fill="none" stroke="#FF8C00" stroke-linecap="round" stroke-linejoin="round" stroke-miterlimit="10" d="M23.9,44.385
				c-0.241-0.124-0.448-0.284-0.639-0.459c-0.008,0.013-0.02,0.021-0.027,0.034l-0.512,0.996c-0.213,0.414-0.049,0.926,0.365,1.139
				c0.414,0.213,0.926,0.049,1.139-0.365l0.512-0.996c0.013-0.024,0.011-0.051,0.021-0.076C24.468,44.608,24.178,44.527,23.9,44.385
				z"/>
			
				<line fill="none" stroke="#FF8C00" stroke-linecap="round" stroke-linejoin="round" stroke-miterlimit="10" x1="32.617" y1="20.921" x2="37.926" y2="23.652"/>
			<path fill="none" stroke="#FF8C00" stroke-linecap="round" stroke-linejoin="round" stroke-miterlimit="10" d="M37.805,23.59
				c1.287,0.662,1.799,2.258,1.136,3.545l-3.588,6.973"/>
		</g>
		<g>
			<polygon fill="none" stroke="#FF8C00" stroke-linecap="round" stroke-linejoin="round" stroke-miterlimit="10" points="
				25.911,0.5 0.5,7.244 7.244,32.656 			"/>
			<polygon fill="none" stroke="#FF8C00" stroke-linecap="round" stroke-linejoin="round" stroke-miterlimit="10" points="
				17.102,7.382 5.871,10.363 8.852,21.594 			"/>
			
				<line fill="none" stroke="#FF8C00" stroke-linecap="round" stroke-linejoin="round" stroke-miterlimit="10" x1="1.012" y1="9.174" x2="2.962" y2="8.657"/>
			
				<line fill="none" stroke="#FF8C00" stroke-linecap="round" stroke-linejoin="round" stroke-miterlimit="10" x1="1.581" y1="11.319" x2="2.835" y2="10.986"/>
			
				<line fill="none" stroke="#FF8C00" stroke-linecap="round" stroke-linejoin="round" stroke-miterlimit="10" x1="2.15" y1="13.463" x2="3.404" y2="13.13"/>
			
				<line fill="none" stroke="#FF8C00" stroke-linecap="round" stroke-linejoin="round" stroke-miterlimit="10" x1="2.72" y1="15.607" x2="4.67" y2="15.09"/>
			
				<line fill="none" stroke="#FF8C00" stroke-linecap="round" stroke-linejoin="round" stroke-miterlimit="10" x1="3.289" y1="17.752" x2="4.542" y2="17.419"/>
			
				<line fill="none" stroke="#FF8C00" stroke-linecap="round" stroke-linejoin="round" stroke-miterlimit="10" x1="3.858" y1="19.896" x2="5.111" y2="19.564"/>
			
				<line fill="none" stroke="#FF8C00" stroke-linecap="round" stroke-linejoin="round" stroke-miterlimit="10" x1="4.996" y1="24.185" x2="6.249" y2="23.852"/>
			
				<line fill="none" stroke="#FF8C00" stroke-linecap="round" stroke-linejoin="round" stroke-miterlimit="10" x1="5.565" y1="26.33" x2="6.818" y2="25.997"/>
			
				<line fill="none" stroke="#FF8C00" stroke-linecap="round" stroke-linejoin="round" stroke-miterlimit="10" x1="4.427" y1="22.041" x2="6.377" y2="21.523"/>
			
				<line fill="none" stroke="#FF8C00" stroke-linecap="round" stroke-linejoin="round" stroke-miterlimit="10" x1="6.134" y1="28.474" x2="8.084" y2="27.956"/>
		</g>
	</g>
</g>
</svg>
