<?xml version="1.0" encoding="UTF-8" standalone="no"?>
<!DOCTYPE svg PUBLIC "-//W3C//DTD SVG 1.1//EN" "http://www.w3.org/Graphics/SVG/1.1/DTD/svg11.dtd">
<svg width="100%" height="100%" viewBox="0 0 24 24" version="1.1" xmlns="http://www.w3.org/2000/svg" xmlns:xlink="http://www.w3.org/1999/xlink" xml:space="preserve" xmlns:serif="http://www.serif.com/" style="fill-rule:evenodd;clip-rule:evenodd;stroke-linejoin:round;stroke-miterlimit:1.41421;">
    <g transform="matrix(1.03786,0,0,1.03786,6,-2.71429)">
        <rect x="0" y="8.769" width="2.048" height="2.048" style="fill:rgb(153,153,153);"/>
    </g>
    <g transform="matrix(1.03786,0,0,1.03786,6,6.38672)">
        <rect x="0" y="4.384" width="2.048" height="2.049" style="fill:rgb(153,153,153);"/>
    </g>
    <g transform="matrix(1.03786,0,0,1.03786,6,15.4877)">
        <rect x="0" y="0" width="2.048" height="2.048" style="fill:rgb(153,153,153);"/>
    </g>
    <g transform="matrix(1.03786,0,0,1.03786,6,6.38662)">
        <path d="M7.558,4.738L10.502,1.794C10.855,2.148 11.209,2.501 11.562,2.855L8.619,5.798L11.562,8.741L10.501,9.802L7.558,6.859L4.615,9.802L3.555,8.741L6.498,5.798L3.554,2.855L4.615,1.794L7.558,4.738Z" style="fill:rgb(153,153,153);"/>
    </g>
</svg>
