<?xml version="1.0" encoding="UTF-8" standalone="no"?>
<!DOCTYPE svg PUBLIC "-//W3C//DTD SVG 1.1//EN" "http://www.w3.org/Graphics/SVG/1.1/DTD/svg11.dtd">
<svg width="100%" height="100%" viewBox="0 0 30 16" version="1.1" xmlns="http://www.w3.org/2000/svg" xmlns:xlink="http://www.w3.org/1999/xlink" xml:space="preserve" xmlns:serif="http://www.serif.com/" style="fill-rule:evenodd;clip-rule:evenodd;stroke-linejoin:round;stroke-miterlimit:1.41421;">
    <g transform="matrix(1.04681,0,0,1.04681,0.0413624,-0.000467559)">
        <path d="M9.737,1.148C9.756,0.494 9.887,-0.008 10.411,0.001C10.862,0.024 11.068,0.563 11.126,1.168C11.745,1.178 12.365,1.191 12.984,1.207C13.651,1.258 14.198,1.801 14.249,2.47C14.34,6.095 14.25,9.722 14.25,13.348C14.233,14.034 13.679,14.62 12.984,14.673C9.099,14.771 5.212,14.674 1.325,14.674C0.639,14.657 0.054,14.102 0.002,13.409C-0.09,9.784 0,6.157 0,2.531C0.017,1.845 0.572,1.26 1.265,1.207C1.908,1.191 2.552,1.177 3.195,1.166C3.209,0.969 3.223,0.772 3.232,0.583C3.258,0.262 3.516,-0.005 3.834,0.001C4.26,0.024 4.469,0.542 4.512,1.148C6.253,1.128 7.995,1.128 9.737,1.148ZM13.015,5.507L1.249,5.507C1.249,7.92 1.25,11.249 1.25,13.333C1.25,13.378 1.283,13.421 1.328,13.424C5.187,13.522 9.048,13.425 12.908,13.424C12.954,13.424 12.996,13.392 13,13.345C13.066,10.733 13.036,8.12 13.015,5.507ZM9.764,2.414C7.964,2.408 6.163,2.427 4.362,2.441C4.18,2.991 3.85,3.311 3.431,2.919C3.316,2.812 3.247,2.649 3.208,2.449C2.585,2.453 1.963,2.455 1.341,2.455C1.294,2.457 1.256,2.486 1.251,2.529C1.25,2.541 1.249,3.22 1.249,4.257L13.006,4.257C13.002,3.687 13,3.117 13,2.546C13,2.501 12.969,2.459 12.921,2.456C12.298,2.44 11.675,2.429 11.051,2.423C11.019,2.561 10.979,2.676 10.935,2.755C10.896,2.823 10.845,2.884 10.784,2.933C10.416,3.233 9.79,2.954 9.765,2.47C9.765,2.451 9.764,2.432 9.764,2.414Z" style="fill:rgb(153,153,153);"/>
    </g>
    <g transform="matrix(1.04681,0,0,1.04681,4.08259,8.49715)">
        <path d="M6.569,-0.624C7.199,-0.563 7.329,0.55 6.569,0.624C4.38,0.694 2.19,0.625 0,0.625C-0.642,0.604 -0.786,-0.552 -0.04,-0.624C2.162,-0.694 4.367,-0.694 6.569,-0.624Z" style="fill:rgb(153,153,153);fill-rule:nonzero;"/>
    </g>
    <g transform="matrix(1.04681,0,0,1.04681,4.08259,11.3197)">
        <path d="M2.78,-0.624C3.381,-0.587 3.637,0.536 2.806,0.623C1.345,0.715 -0.355,0.931 -0.594,0.193C-0.716,-0.18 -0.422,-0.6 -0.026,-0.624C0.909,-0.644 1.845,-0.644 2.78,-0.624Z" style="fill:rgb(153,153,153);fill-rule:nonzero;"/>
    </g>
</svg>
