<?xml version="1.0" encoding="UTF-8" standalone="no"?>
<!DOCTYPE svg PUBLIC "-//W3C//DTD SVG 1.1//EN" "http://www.w3.org/Graphics/SVG/1.1/DTD/svg11.dtd">
<svg width="100%" height="100%" viewBox="0 0 120 28" version="1.1" xmlns="http://www.w3.org/2000/svg" xmlns:xlink="http://www.w3.org/1999/xlink" xml:space="preserve" xmlns:serif="http://www.serif.com/" style="fill-rule:evenodd;clip-rule:evenodd;stroke-linejoin:round;stroke-miterlimit:1.41421;">
    <g transform="matrix(0.681657,0,0,0.681657,-0.00047716,0.000136331)">
        <g transform="matrix(1,0,0,1,10.5267,22.4469)">
            <path d="M0,-7.791C-0.357,-9.038 -0.537,-10.496 -0.537,-10.496L-0.594,-10.496C-0.594,-10.496 -0.772,-9.038 -1.13,-7.791L-3.033,-1.159L1.904,-1.159L0,-7.791ZM4.104,6.869L2.855,2.499L-3.984,2.499L-5.234,6.869L-10.526,6.869L-3.569,-14.66L2.438,-14.66L9.396,6.869L4.104,6.869Z" style="fill:rgb(242,145,0);fill-rule:nonzero;"/>
        </g>
        <g transform="matrix(1,0,0,1,59.4037,7.7807)">
            <path d="M0,21.55L0,12.77L-8.582,12.77L-8.582,21.55L-13.642,21.55L-13.642,0L-8.582,0L-8.582,8.633L0,8.633L0,0L5.062,0L5.062,21.55L0,21.55Z" style="fill:white;fill-rule:nonzero;"/>
        </g>
        <g transform="matrix(1,0,0,1,116.199,25.1024)">
            <path d="M0,-13.094L0,4.228L-5.06,4.228L-5.06,-13.094L-10.961,-13.094L-10.961,-17.322L6.245,-17.322L6.245,-13.094L0,-13.094Z" style="fill:white;fill-rule:nonzero;"/>
        </g>
        <g transform="matrix(1,0,0,1,162.816,7.3971)">
            <path d="M0,22.397C-6.979,22.397 -10.939,17.815 -10.939,11.199C-10.939,4.551 -6.649,0 0.491,0C2.945,0 5.34,0.509 6.551,1.168L4.847,5.149C3.93,4.671 2.522,4.31 0.721,4.31C-2.754,4.31 -5.371,6.497 -5.371,11.17C-5.371,15.809 -2.981,18.145 -0.395,18.145C0.457,18.145 1.079,18.025 1.44,17.904L1.44,12.787L-1.41,12.787L-1.41,8.981L6.648,8.981L6.648,21.229C5.305,21.89 2.784,22.397 0,22.397" style="fill:white;fill-rule:nonzero;"/>
        </g>
        <g transform="matrix(1,0,0,1,29.5033,7.3971)">
            <path d="M0,22.397C-6.979,22.397 -10.939,17.815 -10.939,11.199C-10.939,4.551 -6.649,0 0.492,0C2.948,0 5.341,0.509 6.553,1.168L4.848,5.149C3.931,4.671 2.524,4.31 0.722,4.31C-2.751,4.31 -5.372,6.497 -5.372,11.17C-5.372,15.809 -2.699,17.971 -0.113,18.012C1.727,18.073 3.396,17.223 4.644,16.588L6.65,21.229C5.306,21.89 2.785,22.397 0,22.397" style="fill:rgb(242,145,0);fill-rule:nonzero;"/>
        </g>
        <g transform="matrix(1,0,0,1,76.1127,25.8424)">
            <path d="M0,-14.562C-2.833,-14.562 -4.829,-12.489 -4.909,-8.457L4.107,-9.695C4.107,-12.928 2.513,-14.562 0,-14.562M9.297,-6.901L-4.551,-5.025C-4.071,-1.874 -1.755,-0.318 1.396,-0.318C3.552,-0.318 5.865,-0.877 7.382,-1.673L8.938,2.395C7.142,3.315 4.107,3.952 0.998,3.952C-6.107,3.952 -9.855,-0.675 -9.855,-7.3C-9.855,-13.883 -6.146,-18.514 0.119,-18.514C6.064,-18.514 9.377,-14.601 9.377,-8.737C9.377,-8.139 9.377,-7.541 9.297,-6.901" style="fill:white;fill-rule:nonzero;"/>
        </g>
        <g transform="matrix(1,0,0,1,99.1469,18.1815)">
            <path d="M0,0.76C-3.991,0.959 -7.503,1.32 -7.503,4.552C-7.503,6.586 -5.906,7.743 -3.073,7.743C-1.917,7.743 -0.56,7.544 0,7.304L0,0.76ZM-2.914,11.613C-9.377,11.613 -12.61,9.058 -12.61,4.669C-12.61,-1.196 -6.506,-2.353 0,-2.713L0,-3.827C0,-6.063 -1.557,-6.901 -4.03,-6.901C-6.067,-6.901 -8.54,-6.264 -10.057,-5.625L-11.413,-9.295C-9.618,-10.053 -6.545,-10.853 -3.433,-10.853C2.074,-10.853 5.147,-8.698 5.147,-3.191L5.147,10.056C3.55,10.894 0.316,11.613 -2.914,11.613" style="fill:white;fill-rule:nonzero;"/>
        </g>
        <g transform="matrix(1,0,0,1,127.113,-0.0001)">
            <path d="M0,5.864C-1.715,5.864 -3.113,4.549 -3.113,2.911C-3.113,1.277 -1.715,0 0,0C1.716,0 3.112,1.277 3.112,2.911C3.112,4.549 1.716,5.864 0,5.864" style="fill:rgb(242,145,0);fill-rule:nonzero;"/>
        </g>
        <g transform="matrix(1,0,0,1,0,7.3291)">
            <rect x="124.399" y="0.478" width="5.426" height="21.509" style="fill:white;"/>
        </g>
        <g transform="matrix(1,0,0,1,144.482,7.3291)">
            <path d="M0,21.987L0,7.821C0,5.667 -1.317,4.351 -3.792,4.351C-5.068,4.351 -6.306,4.588 -7.022,4.868L-7.022,21.987L-12.45,21.987L-12.45,1.557C-10.176,0.641 -7.422,0 -3.871,0C2.514,0 5.468,2.635 5.468,7.262L5.468,21.987L0,21.987Z" style="fill:white;fill-rule:nonzero;"/>
        </g>
        <g transform="matrix(1,0,0,1,176.042,2.9498)">
            <path d="M0,0.002C0,-1.633 -1.448,-2.95 -3.288,-2.95C-5.129,-2.95 -6.578,-1.633 -6.578,0.002C-6.578,1.637 -5.129,2.952 -3.288,2.952C-1.448,2.952 0,1.637 0,0.002M-0.494,0.002C-0.494,1.413 -1.71,2.55 -3.288,2.55C-4.87,2.55 -6.097,1.413 -6.097,0.002C-6.097,-1.409 -4.87,-2.546 -3.288,-2.546C-1.71,-2.546 -0.494,-1.409 -0.494,0.002M-1.744,1.626L-2.499,0.374C-2.594,0.225 -2.7,0.109 -2.829,0.045L-2.829,0.023C-2.335,-0.073 -1.957,-0.349 -1.957,-0.837C-1.957,-1.42 -2.475,-1.771 -3.372,-1.771C-3.727,-1.771 -4.126,-1.717 -4.422,-1.591L-4.422,1.626L-3.962,1.626L-3.962,0.161L-3.561,0.161C-3.242,0.161 -3.076,0.244 -2.947,0.469L-2.275,1.626L-1.744,1.626ZM-2.429,-0.826C-2.429,-0.359 -2.781,-0.189 -3.466,-0.189L-3.962,-0.189L-3.962,-1.346C-3.82,-1.389 -3.585,-1.409 -3.36,-1.409C-2.722,-1.409 -2.429,-1.188 -2.429,-0.826" style="fill:white;fill-rule:nonzero;"/>
        </g>
    </g>
</svg>
