<?xml version="1.0" standalone="no"?>
<!-- Generator: Adobe Fireworks 10, Export SVG Extension by Aaron Beall (http://fireworks.abeall.com) . Version: 0.6.0  -->
<!DOCTYPE svg PUBLIC "-//W3C//DTD SVG 1.1//EN" "http://www.w3.org/Graphics/SVG/1.1/DTD/svg11.dtd">
<svg id="" viewBox="0 0 50 50" style="background-color:#ffffff00" version="1.1"
	xmlns="http://www.w3.org/2000/svg" xmlns:xlink="http://www.w3.org/1999/xlink" xml:space="preserve"
	x="0px" y="0px" width="50px" height="50px"
>
	<g id="Vrstva%201">
		<path d="M 24 25 L 26 25 L 26 29 L 24 29 L 24 25 Z" fill="#ffffff"/>
		<path d="M 24 22 L 26 22 L 26 24 L 24 24 L 24 22 Z" fill="#ffffff"/>
		<path d="M 19 25 C 19 21.6862 21.6863 19 25 19 C 28.3137 19 31 21.6862 31 25 C 31 28.3138 28.3137 31 25 31 C 21.6863 31 19 28.3138 19 25 ZM 17 25 C 17 29.4183 20.5817 33 25 33 C 29.4183 33 33 29.4183 33 25 C 33 20.5817 29.4183 17 25 17 C 20.5817 17 17 20.5817 17 25 Z" fill="#ffffff"/>
	</g>
</svg>