<?xml version="1.0" encoding="UTF-8" standalone="no"?>
<!DOCTYPE svg PUBLIC "-//W3C//DTD SVG 1.1//EN" "http://www.w3.org/Graphics/SVG/1.1/DTD/svg11.dtd">
<svg width="100%" height="100%" viewBox="0 0 26 9" version="1.1" xmlns="http://www.w3.org/2000/svg" xmlns:xlink="http://www.w3.org/1999/xlink" xml:space="preserve" xmlns:serif="http://www.serif.com/" style="fill-rule:evenodd;clip-rule:evenodd;stroke-linejoin:round;stroke-miterlimit:1.41421;">
    <g transform="matrix(0.970149,0,0,1.02307,0,-0.000351063)">
        <path d="M21.97,3.511C21.983,2.474 22.001,1.437 22.001,0.4C22.003,0.356 22.008,0.313 22.022,0.271C22.058,0.167 22.136,0.081 22.237,0.035C22.277,0.017 22.319,0.008 22.363,0.002C22.396,0 22.396,0 22.428,0.001C22.508,0.01 22.575,0.034 22.64,0.079C24.029,1.208 25.324,2.447 26.665,3.631C26.704,3.669 26.738,3.709 26.761,3.759C26.813,3.867 26.813,3.995 26.761,4.103C26.742,4.142 26.717,4.176 26.688,4.208C25.396,5.446 24.007,6.578 22.666,7.762C22.614,7.804 22.558,7.836 22.493,7.851C22.33,7.89 22.156,7.819 22.065,7.679C22.029,7.622 22.011,7.561 22.003,7.495C21.959,6.44 21.954,5.385 21.962,4.33L0,4.33L0,3.511L21.97,3.511ZM22.801,6.575L25.796,3.931L22.801,1.287C22.801,3.05 22.801,4.812 22.801,6.575Z" style="fill:rgb(255,140,0);"/>
    </g>
</svg>
