<svg xmlns="http://www.w3.org/2000/svg" xmlns:xlink="http://www.w3.org/1999/xlink" width="80" height="80" viewBox="0 0 80 80"><defs><clipPath id="a"><rect width="74.103" height="55.936" fill="none" stroke="#ff8b00" stroke-width="2"/></clipPath></defs><g transform="translate(-250 -1340)"><rect width="80" height="80" rx="3" transform="translate(250 1340)" fill="none"/><g transform="translate(252.948 1352.032)"><g transform="translate(0 0)" clip-path="url(#a)"><path d="M48.92,36.187A23.436,23.436,0,0,0,50.235,31.9h2.177a1.568,1.568,0,0,0,1.568-1.568V24.051a1.566,1.566,0,0,0-1.568-1.568H50.235A23.5,23.5,0,0,0,46.81,14.23l1.468-1.468a1.568,1.568,0,0,0,0-2.221L43.839,6.1a1.57,1.57,0,0,0-2.218,0L40.149,7.57A23.538,23.538,0,0,0,31.9,4.145V1.971A1.571,1.571,0,0,0,30.329.4H24.051A1.571,1.571,0,0,0,22.48,1.971V4.145A23.538,23.538,0,0,0,14.23,7.57L12.759,6.1a1.57,1.57,0,0,0-2.218,0L6.1,10.541a1.568,1.568,0,0,0,0,2.221L7.57,14.23a23.552,23.552,0,0,0-3.424,8.252H2.074A1.659,1.659,0,0,0,.4,24.051v6.281A1.662,1.662,0,0,0,2.074,31.9H4.145A23.575,23.575,0,0,0,7.57,40.152L6.1,41.62a1.568,1.568,0,0,0,0,2.221l4.439,4.439a1.57,1.57,0,0,0,2.218,0l1.471-1.468a23.593,23.593,0,0,0,8.249,3.424v2.174a1.571,1.571,0,0,0,1.571,1.571h6.278A1.571,1.571,0,0,0,31.9,52.412V50.238a23.315,23.315,0,0,0,3.945-1.18" transform="translate(0.777 0.778)" fill="none" stroke="#ff8b00" stroke-linecap="round" stroke-linejoin="round" stroke-width="2"/><circle cx="10.938" cy="10.938" r="10.938" transform="translate(17.029 17.03)" fill="none" stroke="#ff8b00" stroke-linecap="round" stroke-linejoin="round" stroke-width="2"/><path d="M13.774,20.281l11.4,11.4,21-21.006" transform="translate(26.749 20.733)" fill="none" stroke="#ff8b00" stroke-linecap="round" stroke-linejoin="round" stroke-width="2"/></g></g></g></svg>