<svg xmlns="http://www.w3.org/2000/svg" width="307.403" height="183.575" viewBox="0 0 307.403 183.575"><g transform="translate(1.762 1.762)"><g transform="translate(1.939 1.939)"><path d="M.4,106.406l17.47,4.923a7.113,7.113,0,0,0,8.735-5.3L49.814,14.963a7.533,7.533,0,0,0-5.043-9.181L27.312.859" transform="translate(-0.4 4.14)" fill="none" stroke="#fff" stroke-linecap="round" stroke-linejoin="round" stroke-width="6"/><path d="M4.8,12.762c18.319,6.415,49.359,6.644,70.521-2.407S102.983-.613,121.683,4.375" transform="translate(43.102 12.321)" fill="none" stroke="#fff" stroke-linecap="round" stroke-linejoin="round" stroke-width="6"/><path d="M69.629,16.148,77.3,20.842c7.058,10.815-6.143,23.612-18.352,18.6L14.977,11.29" transform="translate(143.785 107.316)" fill="none" stroke="#fff" stroke-linecap="round" stroke-linejoin="round" stroke-width="6"/><path d="M64.507,15.136c8.038,7.264-1.536,21.325-14.1,17.981L14.146,13.589" transform="translate(135.565 130.056)" fill="none" stroke="#fff" stroke-linecap="round" stroke-linejoin="round" stroke-width="6"/><path d="M42.078,14.627l.011.011c7.624,6.894-1.481,20.247-13.407,17.078l-15.237-8.2" transform="translate(128.632 140.323)" fill="none" stroke="#fff" stroke-linecap="round" stroke-linejoin="round" stroke-width="6"/><path d="M33.349,49.746a12.222,12.222,0,0,1-17.655,2.331,13.735,13.735,0,0,1-2.222-18.57L25.05,17.867A12.21,12.21,0,0,1,42.7,15.547a13.721,13.721,0,0,1,2.211,18.559Z" transform="translate(102.868 122.02)" fill="none" stroke="#fff" stroke-linecap="round" stroke-linejoin="round" stroke-width="6"/><path d="M31.044,55.456a12.223,12.223,0,0,1-17.655,2.331,13.735,13.735,0,0,1-2.222-18.57L28.049,16.4a12.216,12.216,0,0,1,17.666-2.331,13.732,13.732,0,0,1,2.211,18.559Z" transform="translate(80.069 107.412)" fill="none" stroke="#fff" stroke-linecap="round" stroke-linejoin="round" stroke-width="6"/><path d="M28.728,61.575a12.223,12.223,0,0,1-17.655,2.331,13.746,13.746,0,0,1-2.222-18.57L31.4,14.862a12.216,12.216,0,0,1,17.666-2.331A13.732,13.732,0,0,1,51.273,31.09Z" transform="translate(57.204 92.199)" fill="none" stroke="#fff" stroke-linecap="round" stroke-linejoin="round" stroke-width="6"/><path d="M26.882,45.421A12.223,12.223,0,0,1,9.227,47.752a13.746,13.746,0,0,1-2.222-18.57L17.613,14.849a12.223,12.223,0,0,1,17.655-2.331A13.723,13.723,0,0,1,37.49,31.077Z" transform="translate(38.945 92.147)" fill="none" stroke="#fff" stroke-linecap="round" stroke-linejoin="round" stroke-width="6"/><path d="M23.307,22.392C16.74,17.7,10.837,11.969,2.875,10.248" transform="translate(24.081 97.009)" fill="none" stroke="#fff" stroke-linecap="round" stroke-linejoin="round" stroke-width="6"/><path d="M73.046,105.947l-17.47,4.923a7.113,7.113,0,0,1-8.735-5.3L23.632,14.5a7.533,7.533,0,0,1,5.043-9.181L46.133.4" transform="translate(226.954 -0.4)" fill="none" stroke="#fff" stroke-linecap="round" stroke-linejoin="round" stroke-width="6"/><path d="M138.693,7.115C115,17.876,78.127-2.382,53.687,2.606,46.673,4.044,18.6,15.567,11.919,30.433" transform="translate(113.538 13.458)" fill="none" stroke="#fff" stroke-linecap="round" stroke-linejoin="round" stroke-width="6"/><path d="M22.67,17.809c14.072,1.862,19.3-2.755,30.844-7.9" transform="translate(219.879 93.696)" fill="none" stroke="#fff" stroke-linecap="round" stroke-linejoin="round" stroke-width="6"/><path d="M21.957,4.43,11.294,34.991a6.672,6.672,0,0,0,4.084,8.593c5.925,1.9,15.182,2.429,23.209-7.787C44.393,27.7,48.041,21.05,49.25,19.253A2.85,2.85,0,0,1,51.352,18l12.667-1.078a6.147,6.147,0,0,1,4.1,1.144L133.45,65.083c4.389,3.649,6.35,7.863,6.785,10.521,2.178,13.255-10.793,20.4-18.951,15.368S71.5,58.549,71.5,58.549" transform="translate(103.5 39.462)" fill="none" stroke="#fff" stroke-linecap="round" stroke-linejoin="round" stroke-width="6"/></g></g></svg>