<svg xmlns="http://www.w3.org/2000/svg" width="121.045" height="67.134" viewBox="0 0 121.045 67.134"><g transform="translate(-264.977 -929.642)"><g transform="translate(266 930.392)"><g transform="translate(0 0)"><path d="M87.62,284.584l28.436-16.28L144.249,284.1" transform="translate(-87.62 -262.064)" fill="none" stroke="#ff8b00" stroke-linecap="round" stroke-linejoin="round" stroke-width="1.5"/><path d="M95.145,281.983v42.047h37.543V302.648" transform="translate(-85.602 -258.397)" fill="none" stroke="#ff8b00" stroke-linecap="round" stroke-linejoin="round" stroke-width="1.5"/><path d="M117.26,270.063l11.666-6.679,40.2,22.52" transform="translate(-79.673 -263.384)" fill="none" stroke="#ff8b00" stroke-linecap="round" stroke-linejoin="round" stroke-width="1.5"/><rect width="18.546" height="10.595" transform="translate(19.042 24.177)" fill="none" stroke="#ff8b00" stroke-linecap="round" stroke-linejoin="round" stroke-width="1.5"/><rect width="18.546" height="10.595" transform="translate(19.042 46.224)" fill="none" stroke="#ff8b00" stroke-linecap="round" stroke-linejoin="round" stroke-width="1.5"/><path d="M172.258,299.236H122.535l4.144-8.982h41.436Z" transform="translate(-78.258 -256.179)" fill="none" stroke="#ff8b00" stroke-miterlimit="10" stroke-width="1.5"/><path d="M122.535,319.914h47.651V297.337" transform="translate(-78.258 -254.28)" fill="none" stroke="#ff8b00" stroke-linecap="round" stroke-linejoin="round" stroke-width="1.5"/><rect width="18.546" height="10.595" transform="translate(66.572 49.048)" fill="none" stroke="#ff8b00" stroke-linecap="round" stroke-linejoin="round" stroke-width="1.5"/><line y1="13.645" transform="translate(47.097 23.299)" fill="none" stroke="#ff8b00" stroke-linecap="round" stroke-linejoin="round" stroke-width="1.5"/><line y2="9.896" transform="translate(83.226 23.218)" fill="none" stroke="#ff8b00" stroke-linecap="round" stroke-linejoin="round" stroke-width="1.5"/><path d="M128.743,318.647V302.061h7.873v16.586" transform="translate(-76.593 -253.013)" fill="none" stroke="#ff8b00" stroke-linecap="round" stroke-linejoin="round" stroke-width="1.5"/></g><line y2="9.571" transform="translate(31.584 47.45)" fill="none" stroke="#ff8b00" stroke-width="1.5"/><line y2="9.571" transform="translate(31.584 25.437)" fill="none" stroke="#ff8b00" stroke-width="1.5"/><line y2="9.571" transform="translate(79.438 49.364)" fill="none" stroke="#ff8b00" stroke-width="1.5"/></g><rect width="23.704" height="15.786" rx="2" transform="translate(361.567 979.879)" fill="none" stroke="#ff8c00" stroke-linecap="round" stroke-linejoin="round" stroke-width="1.5"/><ellipse cx="4.625" cy="4.625" rx="4.625" ry="4.625" transform="translate(364.866 983.214)" fill="none" stroke="#ff8c00" stroke-linecap="round" stroke-linejoin="round" stroke-width="1.5"/><ellipse cx="1.542" cy="1.542" rx="1.542" ry="1.542" transform="translate(367.949 986.298)" fill="none" stroke="#ff8c00" stroke-linecap="round" stroke-linejoin="round" stroke-width="1.5"/><line x1="4.448" transform="translate(377.602 986.385)" fill="none" stroke="#ff8c00" stroke-linecap="round" stroke-linejoin="round" stroke-width="1.5"/><line x1="4.448" transform="translate(377.602 991.931)" fill="none" stroke="#ff8c00" stroke-linecap="round" stroke-linejoin="round" stroke-width="1.5"/><line x1="4.448" transform="translate(377.602 989.158)" fill="none" stroke="#ff8c00" stroke-linecap="round" stroke-linejoin="round" stroke-width="1.5"/><line x1="4.448" transform="translate(377.602 983.612)" fill="none" stroke="#ff8c00" stroke-linecap="round" stroke-linejoin="round" stroke-width="1.5"/><line y1="2.18" x2="2.18" transform="translate(370.581 984.569)" fill="none" stroke="#ff8c00" stroke-linecap="round" stroke-linejoin="round" stroke-width="1.5"/><line y1="2.18" x2="2.18" transform="translate(366.231 988.919)" fill="none" stroke="#ff8c00" stroke-linecap="round" stroke-linejoin="round" stroke-width="1.5"/><line x2="2.18" y2="2.18" transform="translate(370.581 988.919)" fill="none" stroke="#ff8c00" stroke-linecap="round" stroke-linejoin="round" stroke-width="1.5"/><line x2="2.18" y2="2.18" transform="translate(366.231 984.569)" fill="none" stroke="#ff8c00" stroke-linecap="round" stroke-linejoin="round" stroke-width="1.5"/></g></svg>