<svg xmlns="http://www.w3.org/2000/svg" width="112.232" height="100" viewBox="0 0 112.232 100"><g transform="translate(-64 -906.257)"><path d="M0,1.453A1.452,1.452,0,0,1,1.452,0h57.3a1.452,1.452,0,0,1,.907.318L77.81,14.839a1.454,1.454,0,0,1,0,2.268L59.658,31.628a1.452,1.452,0,0,1-.907.318H1.452A1.452,1.452,0,0,1,0,30.494Z" transform="translate(64 906.257)" fill="#0050be"/><path d="M47.779,6.468l-2.116,3.576h2.055L50.86,6.8Zm.329,10.046c.268,0,.555,0,.8.02v.391a1.9,1.9,0,0,1-2.033,1.952.98.98,0,0,1-1.109-1.048c0-.986.883-1.315,2.341-1.315m-.39-5.977c-2.855,0-4.56,1.314-4.7,3.615h2.773c.021-.884.617-1.377,1.767-1.377,1.028,0,1.356.411,1.356,1.171V14.6c-.267-.021-.6-.021-.883-.021-3.78,0-5.3,1.356-5.3,3.717,0,1.726,1.192,2.877,3.164,2.877a2.973,2.973,0,0,0,3.019-1.685v1.521h2.979V13.946c0-1.951-.966-3.41-4.17-3.41m-15.755.205,3.409,10.271h3.555l3.45-10.271H39.44l-1.87,5.9a12.8,12.8,0,0,0-.369,1.849,10.213,10.213,0,0,0-.329-1.849l-1.787-5.9Zm-5.321-.205c-2.877,0-4.849,1.951-4.849,5.321,0,3.389,1.972,5.361,4.849,5.361,2.834,0,4.828-1.972,4.828-5.361,0-3.369-1.994-5.321-4.828-5.321m0,2.486c1.253,0,1.828.965,1.828,2.835,0,1.91-.575,2.876-1.828,2.876-1.294,0-1.869-.966-1.869-2.876,0-1.87.576-2.835,1.869-2.835m-15.8-2.28V21.013h2.978V15.384c0-1.5.781-2.259,1.85-2.259.986,0,1.274.513,1.274,1.561v6.327h3V14.049c0-2.219-1.253-3.512-3.245-3.512a3.029,3.029,0,0,0-2.877,1.582V10.742Z" transform="translate(63.864 906.176)" fill="#fff"/><path d="M0,35.911a1.452,1.452,0,0,1,1.452-1.453H75.54a1.459,1.459,0,0,1,.908.318L94.6,49.3a1.454,1.454,0,0,1,0,2.268L76.447,66.086a1.459,1.459,0,0,1-.908.318H1.452A1.452,1.452,0,0,1,0,64.952Z" transform="translate(64 905.826)" fill="#43b02a"/><path d="M63.525,41.566l-2.116,3.575h2.054l3.142-3.246Zm.328,10.046c.268,0,.555,0,.8.021v.39a1.9,1.9,0,0,1-2.033,1.952.981.981,0,0,1-1.109-1.049c0-.986.883-1.314,2.341-1.314m-.39-5.977c-2.855,0-4.56,1.313-4.7,3.615h2.773c.021-.884.616-1.377,1.767-1.377,1.027,0,1.356.411,1.356,1.171V49.7c-.267-.02-.6-.02-.883-.02-3.78,0-5.3,1.356-5.3,3.718,0,1.726,1.191,2.876,3.163,2.876a2.974,2.974,0,0,0,3.02-1.685v1.521h2.978V49.044c0-1.952-.965-3.41-4.169-3.41m-16.023.2V56.111h2.979V50.482c0-1.5.781-2.259,1.849-2.259.987,0,1.274.513,1.274,1.561v6.327h3V49.147c0-2.219-1.253-3.512-3.245-3.512a3.027,3.027,0,0,0-2.877,1.582V45.839Zm-6.531,2.034c1.109,0,1.6.759,1.643,1.808H39c.225-1.253.8-1.808,1.91-1.808m.1-2.239c-3.121,0-5.052,2.136-5.052,5.32,0,3.287,1.91,5.362,4.95,5.362,2.465,0,4.4-1.583,4.519-3.657H42.47a1.426,1.426,0,0,1-1.6,1.232c-1.274,0-1.828-.658-1.931-2.2h6.635c.247-3.1-1.11-6.058-4.561-6.058m-6.922-3.9H31.11v14.38h2.978Zm-9.51,6.142c1.11,0,1.6.759,1.644,1.808H22.668c.225-1.253.8-1.808,1.91-1.808m.1-2.239c-3.122,0-5.053,2.136-5.053,5.32,0,3.287,1.91,5.362,4.95,5.362,2.465,0,4.4-1.583,4.52-3.657H26.14a1.426,1.426,0,0,1-1.6,1.232c-1.274,0-1.828-.658-1.932-2.2h6.636c.246-3.1-1.11-6.058-4.561-6.058M18.5,56.111v-2.3H13.61l4.806-5.69v-2.28H10.4v2.28h4.539l-4.827,5.69v2.3Z" transform="translate(63.873 905.737)" fill="#fff"/><path d="M0,70.37a1.451,1.451,0,0,1,1.452-1.452H92.629a1.456,1.456,0,0,1,.908.317l18.15,14.521a1.452,1.452,0,0,1,0,2.268l-18.15,14.52a1.451,1.451,0,0,1-.908.318H1.452A1.451,1.451,0,0,1,0,99.411Z" transform="translate(64 905.395)" fill="#b5cd00"/><path d="M73.516,79.785V90.057h2.978V84.53c0-1.642.8-2.362,1.808-2.362.924,0,1.212.555,1.212,1.623v6.266h2.98V84.47c.02-1.6.82-2.3,1.807-2.3.922,0,1.213.555,1.213,1.623v6.266h2.978V83.092c0-2.219-1.131-3.513-3.082-3.513A3.483,3.483,0,0,0,82.1,81.633a2.638,2.638,0,0,0-2.609-2.054,3.15,3.15,0,0,0-3,1.684V79.785ZM66.9,75.512l-2.115,3.575H66.84l3.143-3.246Zm.329,10.045c.267,0,.555,0,.8.021v.39A1.9,1.9,0,0,1,66,87.921a.981.981,0,0,1-1.109-1.049c0-.986.883-1.315,2.342-1.315m-.391-5.977c-2.855,0-4.56,1.314-4.7,3.615h2.772c.02-.883.616-1.376,1.767-1.376,1.028,0,1.356.411,1.356,1.17v.657c-.267-.02-.6-.02-.884-.02-3.779,0-5.3,1.357-5.3,3.718,0,1.726,1.19,2.876,3.162,2.876a2.975,2.975,0,0,0,3.02-1.685v1.522h2.979V82.989c0-1.951-.966-3.41-4.171-3.41m-11.4.205V90.057h2.977V85.29c0-2.013,1.172-2.916,2.486-2.916a2.221,2.221,0,0,1,.658.081V79.579a2.815,2.815,0,0,0-3.144,2.28V79.785Zm-6.7-.205c-2.876,0-4.848,1.952-4.848,5.321,0,3.39,1.972,5.361,4.848,5.361,2.835,0,4.827-1.971,4.827-5.361,0-3.368-1.992-5.321-4.827-5.321m0,2.486c1.253,0,1.828.966,1.828,2.835,0,1.91-.575,2.877-1.828,2.877-1.295,0-1.869-.967-1.869-2.877,0-1.869.575-2.835,1.869-2.835m-11.072.04c1.314,0,1.869.986,1.869,2.815s-.555,2.814-1.869,2.814c-1.459,0-2.055-1.212-2.055-2.773,0-1.829.7-2.857,2.055-2.857m.822-2.526a3.065,3.065,0,0,0-2.877,1.911V79.785H32.638v14.6h2.978V88.371a3.123,3.123,0,0,0,2.877,1.89c2.465,0,4.13-2.137,4.13-5.34s-1.665-5.341-4.13-5.341m-12.14,0c-2.691,0-4.314,1.521-4.314,3.368,0,2.65,2.219,2.959,4.459,3.2.9.1,1.561.268,1.561.986,0,.494-.33.925-1.623.925-1.149,0-1.767-.493-1.786-1.213H21.854c.083,1.973,1.52,3.411,4.5,3.411,3.348,0,4.6-1.5,4.6-3.493,0-2.588-2.466-2.958-4.417-3.142-.945-.123-1.6-.309-1.6-.945,0-.493.35-.945,1.52-.945.986,0,1.6.494,1.622,1.212h2.774c-.082-1.951-1.521-3.368-4.5-3.368M15.569,75.512l-2.115,3.575h2.054l3.142-3.246ZM10.8,79.785v6.964c0,2.218,1.253,3.512,3.245,3.512A3,3,0,0,0,16.9,88.679v1.378h2.978V79.785H16.9v5.628c0,1.5-.78,2.26-1.849,2.26-.965,0-1.253-.513-1.253-1.561V79.785Z" transform="translate(63.865 905.312)" fill="#fff"/></g></svg>