<svg width="663" height="344" viewBox="0 0 663 344" fill="none" xmlns="http://www.w3.org/2000/svg">
    <path d="M389.435 188.009C382.541 188.008 380.856 164.781 362.817 164.781C349.285 164.781 338.597 175.617 337.936 189.285C337.936 189.285 333.396 306.824 333.396 307.372C333.396 312.264 331.268 315.472 327.005 315.472C322.744 315.472 320.083 312.812 320.083 307.372C320.083 301.446 318.215 271.044 318.215 266.534C316.831 237.141 302.312 234.498 306.664 224.356C311.608 212.83 310.463 205.541 306.811 208.428C291.443 220.58 273.545 243.877 263.715 262.837C262.277 265.61 259.432 272.981 270.661 267.014C279.988 262.06 286.625 263.06 286.625 291.018V307.168C286.625 353.698 364.581 354.661 364.581 313.726C364.581 312.972 364.577 312.197 364.572 311.412C373.416 310.572 380.36 303.108 380.36 294.046C380.36 284.518 372.681 276.762 363.191 276.612C363.187 276.561 363.184 276.512 363.181 276.461C371.596 275.221 378.081 267.974 378.081 259.22C378.081 249.625 370.296 241.818 360.712 241.776C360.709 241.738 360.707 241.702 360.703 241.666C369.215 240.513 375.804 233.217 375.804 224.394C375.804 214.773 367.977 206.945 358.356 206.945C358.133 206.945 357.917 206.97 357.696 206.978C356.475 193.798 355.583 185.109 355.583 185.109C355.556 182.765 356.469 180.508 358.117 178.841C359.767 177.174 362.013 176.236 364.357 176.236C374.408 176.236 380.108 193.172 385.889 192.553C387.716 192.309 392.396 191.484 392.396 191.484C392.396 191.484 392.565 192.933 392.664 194.926C393.111 201.396 393.333 206.526 393.333 211.88L393.557 335.904H427.685L428.131 181.321L392.721 187.516L389.435 188.009ZM636.163 165.36L614.356 178.945C612.023 180.802 611.625 184.186 613.46 186.538C614.833 188.301 618.295 192.537 618.295 192.537H633.556L640.581 168.661C641.3 166.061 638.452 163.934 636.163 165.36ZM633.607 309.86C633.607 314.093 630.175 317.526 625.94 317.526C621.707 317.526 618.273 314.093 618.273 309.86V289.434C618.273 285.201 621.707 281.768 625.94 281.768C630.175 281.768 633.607 285.201 633.607 289.434V309.86ZM660.407 302.325C651.909 280.778 648.119 280.933 653.532 268.529C654.412 266.509 655.247 264.921 656.109 262.514C658.485 255.877 658.653 252.124 654.372 251.842C650.327 251.578 649.792 255.848 643.576 259.364C641.496 260.54 638.951 260.522 636.888 259.32C634.824 258.116 633.556 255.908 633.556 253.52V203.021H618.295V243.262C618.295 245.928 616.685 248.329 614.22 249.341C611.755 250.353 608.921 249.777 607.048 247.881C600.045 240.789 599.557 235.093 595.568 237.818C593.424 239.282 592.468 241.782 596.249 253.064C597.804 257.694 600.711 266.902 601.12 269.102C603.535 282.057 596.252 285.14 591.096 302.324C586.627 317.221 586.879 343.75 625.752 343.75C672.737 343.75 661.849 305.981 660.407 302.325ZM42.5081 155.353H45.6054C44.9374 152.23 43.8227 135.948 43.6001 128.809L43.8227 99.8104L92.6734 99.5877L92.8961 66.1277H43.8227V39.8064L96.9107 39.1371L94.2347 6.12372L35.7507 6.83305V6.84373H0.0107422V22.1037H26.748V30.9197H10.076V39.5104H26.748V57.1651H10.076V65.7544H26.748V70.2757H10.076V78.8664H26.748V96.4997H10.076V105.09H26.748V109.612H10.076V118.202H26.748V122.724H10.076V131.313H26.748V140.13H0.0107422V155.389H42.5081V155.353ZM157.577 312.705C149.993 312.705 145.085 307.797 145.085 300.213C145.085 292.408 151.109 287.053 159.809 287.053C162.932 287.053 166.277 287.945 170.292 289.953L170.739 307.129C165.831 311.144 162.485 312.705 157.577 312.705ZM202.86 266.753C202.86 256.716 200.852 249.132 196.837 244.224C189.699 235.525 174.531 229.725 158.916 229.725C145.979 229.725 132.595 232.18 117.872 237.31L125.457 260.732C134.603 256.27 145.533 253.593 153.787 253.593C164.047 253.593 170.516 259.17 170.516 268.092C163.601 265.64 157.8 264.524 152.001 264.524C143.079 264.524 134.38 267.201 126.796 272.108C116.533 278.8 111.627 288.168 111.627 301.552C111.627 322.521 128.58 339.696 149.101 339.696C158.023 339.696 167.615 336.797 174.308 331.888C174.753 332.781 174.753 332.781 176.093 335.236L178.1 338.581L178.545 339.473L207.323 333.004C204.423 325.866 203.529 319.398 203.307 306.013L202.86 266.753ZM55.6441 229.725C37.1307 229.725 17.9467 235.078 0.1014 245.117C2.7774 253.816 3.67074 261.177 3.67074 269.876L3.89339 312.705C3.89339 315.605 3.67074 319.398 3.44674 325.866C3.22407 331.442 3.00008 333.45 3.00008 335.904H38.2441C38.2441 335.236 38.2441 333.226 37.7987 324.082C37.5761 319.398 37.3534 312.26 37.3534 307.352L37.7987 262.516C42.0374 260.732 48.5067 259.393 52.5201 259.393C57.6521 259.393 62.5601 262.069 64.7894 266.53C66.1281 268.762 66.5734 271.885 66.5734 277.238L66.1281 312.036V312.705L65.6827 326.758L65.2361 335.01L65.0134 335.904H100.481L100.259 334.788V327.428L100.033 318.06V317.166L100.927 272.33C101.149 263.185 99.1427 252.925 96.2414 248.017C89.7734 236.64 74.1587 229.725 55.6441 229.725ZM462.583 182.882C452.323 182.882 443.845 191.581 443.845 202.512C443.845 213.218 451.876 221.918 461.692 221.918C472.175 221.918 481.099 212.772 481.099 202.289C481.099 191.136 473.068 182.882 462.583 182.882ZM546.123 260.732C553.483 260.732 559.952 263.408 566.645 268.985L582.705 243.556C572.667 234.633 557.944 229.28 543.891 229.28C514 229.28 489.687 254.038 489.687 284.6C489.687 314.49 515.339 339.92 545.453 339.92C557.053 339.92 569.099 335.904 579.805 328.542L565.975 302.221C559.283 306.236 553.483 308.02 547.684 308.02C534.076 308.02 524.931 298.653 524.931 284.6C524.931 270.769 533.853 260.732 546.123 260.732ZM444.633 335.904H477.647L480.769 232.402H444.409L444.633 335.904ZM446.553 118.334C446.553 118.334 456.376 122.87 468.572 122.87C480.769 122.87 490.592 118.334 490.592 118.334C490.592 118.334 485.489 135.933 468.572 135.933C451.656 135.933 446.553 118.334 446.553 118.334ZM437.677 91.8171C439.109 82.2757 455.437 72.8517 460.5 97.4424C447.884 100.898 439.301 94.5664 437.677 91.8171ZM499.467 91.8171C497.844 94.5664 489.261 100.898 476.644 97.4424C481.708 72.8517 498.036 82.2757 499.467 91.8171ZM510.857 60.6371C510.857 60.6371 494.915 67.2557 468.909 65.3864C443.18 63.5384 428.505 55.7237 428.505 55.7237C428.505 55.7237 403.575 139.068 468.909 158.837C533.52 137.138 510.857 60.6371 510.857 60.6371ZM626.651 31.3304L626.876 155.353H661.004L661.449 0.770406L625.76 7.01438C625.76 8.57572 625.76 9.91439 625.983 14.3771C626.428 20.8451 626.651 25.9757 626.651 31.3304ZM567.323 132.154C559.739 132.154 554.831 127.246 554.831 119.662C554.831 111.857 560.853 106.502 569.555 106.502C572.677 106.502 576.023 107.396 580.037 109.402L580.483 126.578C575.576 130.593 572.229 132.154 567.323 132.154ZM613.051 125.462L612.605 86.2037C612.605 76.1651 610.597 68.581 606.583 63.6744C599.444 54.9744 584.276 49.1744 568.661 49.1744C555.724 49.1744 542.339 51.6291 527.617 56.7584L535.201 80.1811C544.348 75.7197 555.277 73.0424 563.531 73.0424C573.792 73.0424 580.26 78.6197 580.26 87.5411C573.345 85.0891 567.545 83.973 561.747 83.973C552.823 83.973 544.125 86.6504 536.54 91.5571C526.279 98.2491 521.372 107.618 521.372 121.001C521.372 141.97 538.324 159.145 558.847 159.145C567.768 159.145 577.36 156.246 584.053 151.338C584.499 152.23 584.499 152.23 585.837 154.685L587.845 158.03L588.291 158.922L617.067 152.453C614.167 145.316 613.273 138.848 613.051 125.462ZM393.451 41.3677C403.935 41.3677 412.857 32.2211 412.857 21.7384C412.857 10.5851 404.827 2.33173 394.343 2.33173C384.081 2.33173 375.604 11.0304 375.604 21.961C375.604 32.669 383.635 41.3677 393.451 41.3677ZM376.392 155.353H409.407L412.529 51.8517H376.169L376.392 155.353ZM307.693 123.816C307.693 144.561 321.745 158.837 342.268 158.837C352.529 158.837 361.005 155.49 369.483 147.684L360.113 125.377C356.768 127.161 354.091 127.832 351.189 127.832C348.291 127.832 345.167 126.493 343.16 124.261C341.599 122.477 340.931 120.246 341.153 115.34V114.446L340.931 86.117H362.567V58.9037H341.153V45.0731C341.153 34.5904 341.376 30.3517 341.821 28.1211H306.8L307.916 46.1891V58.9037H295.201V86.117H307.916L307.693 123.816ZM290.3 121.001C290.3 103.38 280.485 92.8957 260.409 88.657C250.817 86.6504 247.917 85.0891 247.917 81.5184C247.917 78.3957 251.264 75.9424 255.279 75.9424C261.748 75.9424 271.117 79.2877 278.255 84.4184L291.416 60.7731C281.377 53.6357 266.209 48.9517 253.271 48.9517C231.411 48.9517 214.459 64.7891 214.459 84.8664C214.459 98.0264 221.597 108.956 233.641 114.533C238.103 116.541 241.003 117.433 248.363 118.548C255.279 119.662 258.18 121.672 258.18 125.017C258.18 128.362 255.501 130.148 250.372 130.148C242.788 130.148 233.864 127.47 224.272 122.117L210.667 146.208C223.604 154.685 235.425 158.7 247.917 158.7C272.456 158.7 290.3 142.862 290.3 121.001ZM135.273 91.1104C137.057 80.4037 145.311 73.7131 156.019 73.7131C166.948 73.7131 174.085 80.181 174.756 91.1104H135.273ZM156.019 47.8357C124.788 47.8357 101.368 71.9264 101.368 104.272C101.368 135.277 125.459 158.7 157.133 158.7C172.079 158.7 188.361 153.346 200.185 144.424L185.908 123.901C177.208 128.585 168.064 131.04 159.809 131.04C148.656 131.04 138.619 124.124 135.941 114.756H206.208C207.1 110.518 207.323 106.725 207.323 101.372C207.323 87.0957 204.424 75.7197 198.624 67.9117C189.477 55.4211 173.193 47.8357 156.019 47.8357Z" fill="#231F20"/>
    <path d="M367.805 224.394C367.805 229.613 363.574 233.843 358.355 233.843C353.138 233.843 348.907 229.613 348.907 224.394C348.907 219.175 353.138 214.945 358.355 214.945C363.574 214.945 367.805 219.175 367.805 224.394Z" fill="#D91920"/>
    <path d="M372.36 294.046C372.36 299.265 368.129 303.496 362.91 303.496C357.693 303.496 353.462 299.265 353.462 294.046C353.462 288.828 357.693 284.597 362.91 284.597C368.129 284.597 372.36 288.828 372.36 294.046Z" fill="#33B540"/>
    <path d="M370.082 259.22C370.082 264.439 365.852 268.669 360.633 268.669C355.416 268.669 351.185 264.439 351.185 259.22C351.185 254.001 355.416 249.771 360.633 249.771C365.852 249.771 370.082 254.001 370.082 259.22Z" fill="#F9AE0C"/>
</svg>